G04*
G04 #@! TF.GenerationSoftware,Altium Limited,Altium Designer,24.10.1 (45)*
G04*
G04 Layer_Color=32768*
%FSLAX24Y24*%
%MOIN*%
G70*
G04*
G04 #@! TF.SameCoordinates,A2B8B827-00CD-4321-91CD-3D45FF0E1E4C*
G04*
G04*
G04 #@! TF.FilePolarity,Positive*
G04*
G01*
G75*
%ADD11C,0.0100*%
%ADD12C,0.0079*%
%ADD16C,0.0118*%
%ADD76C,0.0039*%
G36*
X-1646Y11849D02*
X-1933D01*
X-1934D01*
X-1935D01*
X-1941D01*
X-1949D01*
X-1959Y11848D01*
X-1970Y11848D01*
X-1981Y11847D01*
X-1992Y11845D01*
X-2000Y11842D01*
X-2001D01*
X-2004Y11840D01*
X-2007Y11838D01*
X-2012Y11836D01*
X-2017Y11832D01*
X-2023Y11827D01*
X-2028Y11822D01*
X-2034Y11815D01*
X-2035Y11814D01*
X-2035Y11811D01*
X-2037Y11807D01*
X-2040Y11801D01*
X-2043Y11795D01*
X-2045Y11787D01*
X-2045Y11778D01*
X-2046Y11768D01*
Y11764D01*
X-2045Y11760D01*
X-2045Y11751D01*
X-2043Y11740D01*
X-2038Y11727D01*
X-2033Y11714D01*
X-2025Y11700D01*
X-2014Y11687D01*
X-2012Y11686D01*
X-2007Y11683D01*
X-2000Y11677D01*
X-1989Y11672D01*
X-1974Y11665D01*
X-1957Y11661D01*
X-1936Y11657D01*
X-1912Y11655D01*
X-1646D01*
Y11578D01*
X-1943D01*
X-1943D01*
X-1945D01*
X-1947D01*
X-1951D01*
X-1961Y11577D01*
X-1972Y11575D01*
X-1984Y11573D01*
X-1997Y11570D01*
X-2009Y11565D01*
X-2020Y11559D01*
X-2021Y11558D01*
X-2025Y11555D01*
X-2028Y11551D01*
X-2034Y11544D01*
X-2038Y11536D01*
X-2043Y11525D01*
X-2045Y11512D01*
X-2046Y11497D01*
Y11491D01*
X-2045Y11485D01*
X-2045Y11478D01*
X-2042Y11469D01*
X-2039Y11458D01*
X-2035Y11448D01*
X-2029Y11437D01*
X-2028Y11436D01*
X-2025Y11432D01*
X-2022Y11428D01*
X-2016Y11421D01*
X-2009Y11415D01*
X-2000Y11408D01*
X-1990Y11402D01*
X-1978Y11397D01*
X-1976Y11396D01*
X-1972Y11395D01*
X-1964Y11393D01*
X-1954Y11390D01*
X-1941Y11387D01*
X-1924Y11386D01*
X-1905Y11385D01*
X-1883Y11384D01*
X-1646D01*
Y11306D01*
X-2104D01*
Y11376D01*
X-2038D01*
X-2040Y11377D01*
X-2044Y11379D01*
X-2050Y11385D01*
X-2057Y11391D01*
X-2066Y11399D01*
X-2076Y11409D01*
X-2085Y11420D01*
X-2093Y11433D01*
X-2094Y11435D01*
X-2096Y11439D01*
X-2099Y11447D01*
X-2104Y11457D01*
X-2107Y11469D01*
X-2110Y11482D01*
X-2113Y11498D01*
X-2114Y11514D01*
Y11522D01*
X-2113Y11532D01*
X-2111Y11543D01*
X-2108Y11557D01*
X-2105Y11571D01*
X-2099Y11584D01*
X-2092Y11597D01*
X-2091Y11599D01*
X-2088Y11602D01*
X-2084Y11608D01*
X-2076Y11615D01*
X-2068Y11623D01*
X-2058Y11631D01*
X-2046Y11638D01*
X-2033Y11643D01*
X-2034Y11644D01*
X-2036Y11646D01*
X-2040Y11649D01*
X-2045Y11653D01*
X-2052Y11659D01*
X-2058Y11665D01*
X-2066Y11673D01*
X-2074Y11682D01*
X-2081Y11692D01*
X-2088Y11702D01*
X-2095Y11714D01*
X-2101Y11726D01*
X-2107Y11740D01*
X-2110Y11755D01*
X-2113Y11769D01*
X-2114Y11786D01*
Y11792D01*
X-2113Y11797D01*
Y11803D01*
X-2112Y11809D01*
X-2109Y11825D01*
X-2105Y11841D01*
X-2097Y11858D01*
X-2088Y11876D01*
X-2076Y11890D01*
X-2074Y11892D01*
X-2068Y11896D01*
X-2060Y11902D01*
X-2054Y11905D01*
X-2047Y11909D01*
X-2039Y11912D01*
X-2031Y11915D01*
X-2022Y11919D01*
X-2011Y11921D01*
X-2000Y11923D01*
X-1987Y11925D01*
X-1974Y11927D01*
X-1960D01*
X-1646D01*
Y11849D01*
D02*
G37*
G36*
Y11115D02*
X-1933D01*
X-1934D01*
X-1935D01*
X-1941D01*
X-1949D01*
X-1959Y11114D01*
X-1970Y11113D01*
X-1981Y11112D01*
X-1992Y11111D01*
X-2000Y11108D01*
X-2001D01*
X-2004Y11106D01*
X-2007Y11104D01*
X-2012Y11101D01*
X-2017Y11098D01*
X-2023Y11093D01*
X-2028Y11088D01*
X-2034Y11080D01*
X-2035Y11080D01*
X-2035Y11077D01*
X-2037Y11073D01*
X-2040Y11067D01*
X-2043Y11060D01*
X-2045Y11052D01*
X-2045Y11044D01*
X-2046Y11034D01*
Y11029D01*
X-2045Y11026D01*
X-2045Y11017D01*
X-2043Y11006D01*
X-2038Y10993D01*
X-2033Y10979D01*
X-2025Y10966D01*
X-2014Y10953D01*
X-2012Y10952D01*
X-2007Y10948D01*
X-2000Y10943D01*
X-1989Y10937D01*
X-1974Y10931D01*
X-1957Y10927D01*
X-1936Y10923D01*
X-1912Y10921D01*
X-1646D01*
Y10844D01*
X-1943D01*
X-1943D01*
X-1945D01*
X-1947D01*
X-1951D01*
X-1961Y10843D01*
X-1972Y10841D01*
X-1984Y10839D01*
X-1997Y10835D01*
X-2009Y10831D01*
X-2020Y10824D01*
X-2021Y10824D01*
X-2025Y10821D01*
X-2028Y10816D01*
X-2034Y10810D01*
X-2038Y10802D01*
X-2043Y10791D01*
X-2045Y10778D01*
X-2046Y10763D01*
Y10757D01*
X-2045Y10751D01*
X-2045Y10743D01*
X-2042Y10734D01*
X-2039Y10723D01*
X-2035Y10713D01*
X-2029Y10702D01*
X-2028Y10702D01*
X-2025Y10698D01*
X-2022Y10693D01*
X-2016Y10687D01*
X-2009Y10681D01*
X-2000Y10674D01*
X-1990Y10668D01*
X-1978Y10662D01*
X-1976Y10661D01*
X-1972Y10661D01*
X-1964Y10659D01*
X-1954Y10656D01*
X-1941Y10653D01*
X-1924Y10651D01*
X-1905Y10650D01*
X-1883Y10650D01*
X-1646D01*
Y10572D01*
X-2104D01*
Y10641D01*
X-2038D01*
X-2040Y10642D01*
X-2044Y10645D01*
X-2050Y10650D01*
X-2057Y10657D01*
X-2066Y10665D01*
X-2076Y10675D01*
X-2085Y10686D01*
X-2093Y10699D01*
X-2094Y10701D01*
X-2096Y10705D01*
X-2099Y10712D01*
X-2104Y10722D01*
X-2107Y10734D01*
X-2110Y10748D01*
X-2113Y10763D01*
X-2114Y10780D01*
Y10788D01*
X-2113Y10798D01*
X-2111Y10809D01*
X-2108Y10823D01*
X-2105Y10836D01*
X-2099Y10850D01*
X-2092Y10863D01*
X-2091Y10865D01*
X-2088Y10868D01*
X-2084Y10874D01*
X-2076Y10881D01*
X-2068Y10888D01*
X-2058Y10896D01*
X-2046Y10904D01*
X-2033Y10909D01*
X-2034Y10910D01*
X-2036Y10912D01*
X-2040Y10915D01*
X-2045Y10919D01*
X-2052Y10925D01*
X-2058Y10931D01*
X-2066Y10938D01*
X-2074Y10947D01*
X-2081Y10957D01*
X-2088Y10968D01*
X-2095Y10979D01*
X-2101Y10992D01*
X-2107Y11006D01*
X-2110Y11020D01*
X-2113Y11035D01*
X-2114Y11051D01*
Y11058D01*
X-2113Y11062D01*
Y11069D01*
X-2112Y11075D01*
X-2109Y11090D01*
X-2105Y11107D01*
X-2097Y11124D01*
X-2088Y11142D01*
X-2076Y11156D01*
X-2074Y11158D01*
X-2068Y11162D01*
X-2060Y11168D01*
X-2054Y11171D01*
X-2047Y11174D01*
X-2039Y11178D01*
X-2031Y11181D01*
X-2022Y11184D01*
X-2011Y11187D01*
X-2000Y11189D01*
X-1987Y11191D01*
X-1974Y11193D01*
X-1960D01*
X-1646D01*
Y11115D01*
D02*
G37*
G36*
X-1929Y10472D02*
X-1918D01*
X-1906Y10471D01*
X-1893Y10470D01*
X-1864Y10467D01*
X-1834Y10463D01*
X-1805Y10457D01*
X-1791Y10454D01*
X-1778Y10449D01*
X-1777D01*
X-1775Y10448D01*
X-1771Y10446D01*
X-1767Y10445D01*
X-1760Y10443D01*
X-1754Y10439D01*
X-1738Y10432D01*
X-1722Y10423D01*
X-1704Y10411D01*
X-1687Y10397D01*
X-1672Y10381D01*
Y10380D01*
X-1670Y10379D01*
X-1668Y10376D01*
X-1667Y10373D01*
X-1664Y10368D01*
X-1660Y10364D01*
X-1654Y10350D01*
X-1647Y10333D01*
X-1641Y10314D01*
X-1637Y10292D01*
X-1636Y10267D01*
Y10258D01*
X-1636Y10251D01*
X-1637Y10244D01*
X-1639Y10235D01*
X-1641Y10225D01*
X-1644Y10214D01*
X-1647Y10203D01*
X-1651Y10191D01*
X-1656Y10179D01*
X-1663Y10168D01*
X-1670Y10156D01*
X-1679Y10144D01*
X-1689Y10133D01*
X-1700Y10123D01*
X-1701Y10122D01*
X-1704Y10120D01*
X-1708Y10118D01*
X-1716Y10113D01*
X-1724Y10108D01*
X-1735Y10104D01*
X-1748Y10098D01*
X-1762Y10092D01*
X-1779Y10087D01*
X-1798Y10081D01*
X-1819Y10076D01*
X-1842Y10071D01*
X-1868Y10067D01*
X-1895Y10064D01*
X-1925Y10062D01*
X-1957Y10061D01*
X-1958D01*
X-1962D01*
X-1968D01*
X-1975D01*
X-1985Y10062D01*
X-1996D01*
X-2008Y10063D01*
X-2022Y10064D01*
X-2050Y10067D01*
X-2080Y10071D01*
X-2110Y10077D01*
X-2124Y10080D01*
X-2137Y10084D01*
X-2138D01*
X-2140Y10085D01*
X-2144Y10087D01*
X-2148Y10088D01*
X-2155Y10090D01*
X-2161Y10094D01*
X-2177Y10101D01*
X-2193Y10110D01*
X-2210Y10122D01*
X-2228Y10136D01*
X-2242Y10152D01*
Y10153D01*
X-2244Y10154D01*
X-2246Y10157D01*
X-2248Y10160D01*
X-2251Y10165D01*
X-2254Y10170D01*
X-2261Y10184D01*
X-2268Y10200D01*
X-2274Y10220D01*
X-2278Y10242D01*
X-2280Y10267D01*
Y10275D01*
X-2279Y10285D01*
X-2277Y10297D01*
X-2274Y10311D01*
X-2271Y10325D01*
X-2266Y10341D01*
X-2259Y10355D01*
Y10356D01*
X-2258Y10357D01*
X-2255Y10362D01*
X-2250Y10369D01*
X-2244Y10378D01*
X-2235Y10388D01*
X-2225Y10399D01*
X-2213Y10409D01*
X-2199Y10419D01*
X-2198Y10420D01*
X-2193Y10424D01*
X-2185Y10427D01*
X-2173Y10434D01*
X-2159Y10439D01*
X-2144Y10446D01*
X-2126Y10453D01*
X-2106Y10458D01*
X-2105D01*
X-2103Y10459D01*
X-2100Y10460D01*
X-2096Y10461D01*
X-2090Y10462D01*
X-2084Y10463D01*
X-2076Y10465D01*
X-2066Y10466D01*
X-2056Y10467D01*
X-2045Y10468D01*
X-2033Y10469D01*
X-2020Y10471D01*
X-2005Y10472D01*
X-1991D01*
X-1974Y10473D01*
X-1957D01*
X-1956D01*
X-1953D01*
X-1946D01*
X-1939D01*
X-1929Y10472D01*
D02*
G37*
G36*
Y9982D02*
X-1918D01*
X-1906Y9981D01*
X-1893Y9980D01*
X-1864Y9977D01*
X-1834Y9973D01*
X-1805Y9967D01*
X-1791Y9964D01*
X-1778Y9959D01*
X-1777D01*
X-1775Y9958D01*
X-1771Y9956D01*
X-1767Y9954D01*
X-1760Y9953D01*
X-1754Y9949D01*
X-1738Y9942D01*
X-1722Y9933D01*
X-1704Y9921D01*
X-1687Y9907D01*
X-1672Y9891D01*
Y9890D01*
X-1670Y9889D01*
X-1668Y9886D01*
X-1667Y9883D01*
X-1664Y9878D01*
X-1660Y9873D01*
X-1654Y9860D01*
X-1647Y9843D01*
X-1641Y9824D01*
X-1637Y9801D01*
X-1636Y9777D01*
Y9768D01*
X-1636Y9761D01*
X-1637Y9754D01*
X-1639Y9745D01*
X-1641Y9735D01*
X-1644Y9724D01*
X-1647Y9713D01*
X-1651Y9701D01*
X-1656Y9689D01*
X-1663Y9678D01*
X-1670Y9666D01*
X-1679Y9654D01*
X-1689Y9643D01*
X-1700Y9633D01*
X-1701Y9632D01*
X-1704Y9630D01*
X-1708Y9627D01*
X-1716Y9623D01*
X-1724Y9618D01*
X-1735Y9614D01*
X-1748Y9607D01*
X-1762Y9602D01*
X-1779Y9596D01*
X-1798Y9591D01*
X-1819Y9586D01*
X-1842Y9581D01*
X-1868Y9576D01*
X-1895Y9574D01*
X-1925Y9572D01*
X-1957Y9571D01*
X-1958D01*
X-1962D01*
X-1968D01*
X-1975D01*
X-1985Y9572D01*
X-1996D01*
X-2008Y9573D01*
X-2022Y9574D01*
X-2050Y9576D01*
X-2080Y9581D01*
X-2110Y9586D01*
X-2124Y9590D01*
X-2137Y9594D01*
X-2138D01*
X-2140Y9595D01*
X-2144Y9596D01*
X-2148Y9598D01*
X-2155Y9600D01*
X-2161Y9604D01*
X-2177Y9611D01*
X-2193Y9620D01*
X-2210Y9632D01*
X-2228Y9646D01*
X-2242Y9662D01*
Y9663D01*
X-2244Y9664D01*
X-2246Y9667D01*
X-2248Y9670D01*
X-2251Y9675D01*
X-2254Y9680D01*
X-2261Y9694D01*
X-2268Y9710D01*
X-2274Y9729D01*
X-2278Y9752D01*
X-2280Y9777D01*
Y9785D01*
X-2279Y9795D01*
X-2277Y9807D01*
X-2274Y9821D01*
X-2271Y9835D01*
X-2266Y9851D01*
X-2259Y9865D01*
Y9866D01*
X-2258Y9867D01*
X-2255Y9872D01*
X-2250Y9879D01*
X-2244Y9888D01*
X-2235Y9898D01*
X-2225Y9909D01*
X-2213Y9919D01*
X-2199Y9929D01*
X-2198Y9930D01*
X-2193Y9934D01*
X-2185Y9937D01*
X-2173Y9944D01*
X-2159Y9949D01*
X-2144Y9956D01*
X-2126Y9963D01*
X-2106Y9968D01*
X-2105D01*
X-2103Y9969D01*
X-2100Y9970D01*
X-2096Y9971D01*
X-2090Y9972D01*
X-2084Y9973D01*
X-2076Y9975D01*
X-2066Y9975D01*
X-2056Y9977D01*
X-2045Y9978D01*
X-2033Y9979D01*
X-2020Y9981D01*
X-2005Y9982D01*
X-1991D01*
X-1974Y9983D01*
X-1957D01*
X-1956D01*
X-1953D01*
X-1946D01*
X-1939D01*
X-1929Y9982D01*
D02*
G37*
G36*
X-1646Y9370D02*
X-1735D01*
Y9458D01*
X-1646D01*
Y9370D01*
D02*
G37*
G36*
Y8825D02*
X-1647D01*
X-1651D01*
X-1656D01*
X-1664Y8826D01*
X-1672Y8827D01*
X-1681Y8828D01*
X-1690Y8830D01*
X-1700Y8834D01*
X-1701D01*
X-1702Y8835D01*
X-1708Y8837D01*
X-1716Y8840D01*
X-1727Y8846D01*
X-1739Y8853D01*
X-1754Y8862D01*
X-1769Y8872D01*
X-1784Y8885D01*
X-1785D01*
X-1786Y8887D01*
X-1791Y8891D01*
X-1800Y8900D01*
X-1811Y8911D01*
X-1825Y8925D01*
X-1841Y8942D01*
X-1860Y8963D01*
X-1879Y8986D01*
X-1880Y8987D01*
X-1882Y8991D01*
X-1887Y8996D01*
X-1892Y9002D01*
X-1900Y9011D01*
X-1908Y9021D01*
X-1917Y9031D01*
X-1927Y9043D01*
X-1949Y9065D01*
X-1971Y9088D01*
X-1982Y9099D01*
X-1993Y9109D01*
X-2003Y9118D01*
X-2013Y9125D01*
X-2014D01*
X-2015Y9127D01*
X-2017Y9129D01*
X-2021Y9131D01*
X-2031Y9137D01*
X-2043Y9145D01*
X-2057Y9151D01*
X-2073Y9157D01*
X-2090Y9161D01*
X-2107Y9163D01*
X-2107D01*
X-2108D01*
X-2114Y9162D01*
X-2123Y9161D01*
X-2133Y9158D01*
X-2146Y9155D01*
X-2158Y9148D01*
X-2171Y9140D01*
X-2184Y9129D01*
X-2186Y9127D01*
X-2189Y9123D01*
X-2194Y9116D01*
X-2200Y9106D01*
X-2206Y9094D01*
X-2211Y9079D01*
X-2215Y9062D01*
X-2216Y9043D01*
Y9037D01*
X-2215Y9033D01*
X-2214Y9023D01*
X-2211Y9010D01*
X-2208Y8996D01*
X-2201Y8981D01*
X-2193Y8966D01*
X-2182Y8952D01*
X-2180Y8951D01*
X-2176Y8947D01*
X-2168Y8941D01*
X-2158Y8936D01*
X-2145Y8930D01*
X-2128Y8924D01*
X-2110Y8920D01*
X-2089Y8919D01*
X-2097Y8839D01*
X-2098D01*
X-2101Y8840D01*
X-2106D01*
X-2112Y8841D01*
X-2119Y8843D01*
X-2127Y8845D01*
X-2137Y8848D01*
X-2148Y8850D01*
X-2169Y8858D01*
X-2191Y8869D01*
X-2202Y8875D01*
X-2213Y8883D01*
X-2223Y8891D01*
X-2232Y8900D01*
X-2233Y8901D01*
X-2234Y8903D01*
X-2237Y8906D01*
X-2240Y8910D01*
X-2243Y8916D01*
X-2247Y8922D01*
X-2251Y8930D01*
X-2256Y8939D01*
X-2260Y8949D01*
X-2265Y8960D01*
X-2269Y8972D01*
X-2272Y8984D01*
X-2275Y8998D01*
X-2278Y9013D01*
X-2279Y9028D01*
X-2280Y9044D01*
Y9054D01*
X-2279Y9060D01*
X-2278Y9067D01*
X-2277Y9076D01*
X-2275Y9086D01*
X-2273Y9096D01*
X-2267Y9120D01*
X-2258Y9144D01*
X-2252Y9156D01*
X-2246Y9167D01*
X-2238Y9178D01*
X-2229Y9188D01*
X-2228Y9189D01*
X-2227Y9191D01*
X-2223Y9193D01*
X-2219Y9197D01*
X-2215Y9201D01*
X-2209Y9206D01*
X-2202Y9210D01*
X-2194Y9216D01*
X-2177Y9225D01*
X-2155Y9234D01*
X-2144Y9238D01*
X-2131Y9239D01*
X-2118Y9241D01*
X-2105Y9242D01*
X-2103D01*
X-2098D01*
X-2091Y9241D01*
X-2081Y9240D01*
X-2070Y9238D01*
X-2057Y9235D01*
X-2044Y9231D01*
X-2030Y9226D01*
X-2028Y9225D01*
X-2024Y9223D01*
X-2016Y9219D01*
X-2006Y9214D01*
X-1995Y9207D01*
X-1982Y9197D01*
X-1968Y9186D01*
X-1953Y9174D01*
X-1951Y9172D01*
X-1945Y9167D01*
X-1941Y9163D01*
X-1936Y9158D01*
X-1931Y9153D01*
X-1923Y9146D01*
X-1916Y9138D01*
X-1908Y9129D01*
X-1899Y9120D01*
X-1889Y9109D01*
X-1879Y9097D01*
X-1867Y9084D01*
X-1855Y9070D01*
X-1842Y9055D01*
X-1841Y9054D01*
X-1840Y9053D01*
X-1837Y9049D01*
X-1833Y9044D01*
X-1828Y9039D01*
X-1822Y9033D01*
X-1810Y9018D01*
X-1797Y9002D01*
X-1783Y8988D01*
X-1771Y8975D01*
X-1767Y8970D01*
X-1762Y8965D01*
X-1761Y8964D01*
X-1759Y8961D01*
X-1755Y8958D01*
X-1749Y8953D01*
X-1743Y8949D01*
X-1737Y8943D01*
X-1721Y8932D01*
Y9243D01*
X-1646D01*
Y8825D01*
D02*
G37*
G36*
X-1845Y8763D02*
X-1838Y8762D01*
X-1830Y8761D01*
X-1820Y8759D01*
X-1810Y8757D01*
X-1786Y8752D01*
X-1761Y8743D01*
X-1749Y8737D01*
X-1737Y8730D01*
X-1724Y8723D01*
X-1712Y8714D01*
X-1711Y8713D01*
X-1708Y8711D01*
X-1705Y8707D01*
X-1700Y8703D01*
X-1695Y8696D01*
X-1687Y8689D01*
X-1681Y8680D01*
X-1674Y8670D01*
X-1667Y8659D01*
X-1660Y8646D01*
X-1654Y8633D01*
X-1647Y8618D01*
X-1643Y8603D01*
X-1639Y8585D01*
X-1636Y8567D01*
X-1636Y8548D01*
Y8540D01*
X-1636Y8533D01*
X-1637Y8526D01*
X-1638Y8518D01*
X-1639Y8508D01*
X-1642Y8498D01*
X-1647Y8475D01*
X-1656Y8452D01*
X-1661Y8440D01*
X-1667Y8429D01*
X-1675Y8418D01*
X-1683Y8407D01*
X-1684Y8406D01*
X-1685Y8404D01*
X-1688Y8402D01*
X-1692Y8398D01*
X-1697Y8394D01*
X-1702Y8389D01*
X-1709Y8384D01*
X-1718Y8379D01*
X-1726Y8374D01*
X-1736Y8368D01*
X-1758Y8358D01*
X-1783Y8350D01*
X-1797Y8347D01*
X-1811Y8346D01*
X-1818Y8427D01*
X-1817D01*
X-1815D01*
X-1812Y8428D01*
X-1808Y8429D01*
X-1798Y8431D01*
X-1784Y8435D01*
X-1770Y8440D01*
X-1755Y8448D01*
X-1741Y8457D01*
X-1728Y8468D01*
X-1728Y8470D01*
X-1724Y8473D01*
X-1719Y8480D01*
X-1714Y8490D01*
X-1708Y8501D01*
X-1704Y8515D01*
X-1700Y8531D01*
X-1699Y8548D01*
Y8553D01*
X-1700Y8557D01*
X-1701Y8568D01*
X-1705Y8581D01*
X-1709Y8596D01*
X-1717Y8612D01*
X-1728Y8628D01*
X-1734Y8635D01*
X-1741Y8643D01*
X-1742Y8644D01*
X-1743Y8644D01*
X-1746Y8646D01*
X-1749Y8649D01*
X-1759Y8655D01*
X-1771Y8663D01*
X-1787Y8669D01*
X-1806Y8675D01*
X-1829Y8680D01*
X-1841Y8682D01*
X-1853D01*
X-1854D01*
X-1856D01*
X-1860D01*
X-1864Y8681D01*
X-1870D01*
X-1876Y8680D01*
X-1891Y8677D01*
X-1908Y8673D01*
X-1925Y8666D01*
X-1942Y8657D01*
X-1957Y8644D01*
X-1958D01*
X-1959Y8643D01*
X-1963Y8638D01*
X-1970Y8630D01*
X-1977Y8619D01*
X-1984Y8604D01*
X-1990Y8588D01*
X-1994Y8569D01*
X-1996Y8558D01*
Y8541D01*
X-1995Y8533D01*
X-1994Y8524D01*
X-1992Y8513D01*
X-1989Y8502D01*
X-1984Y8490D01*
X-1979Y8479D01*
X-1978Y8478D01*
X-1976Y8474D01*
X-1972Y8469D01*
X-1967Y8461D01*
X-1961Y8454D01*
X-1953Y8447D01*
X-1944Y8439D01*
X-1934Y8432D01*
X-1944Y8359D01*
X-2269Y8420D01*
Y8734D01*
X-2195D01*
Y8481D01*
X-2025Y8448D01*
X-2025Y8449D01*
X-2026Y8450D01*
X-2028Y8453D01*
X-2031Y8458D01*
X-2034Y8463D01*
X-2037Y8470D01*
X-2045Y8484D01*
X-2052Y8502D01*
X-2058Y8522D01*
X-2063Y8544D01*
X-2065Y8555D01*
Y8575D01*
X-2064Y8581D01*
X-2063Y8588D01*
X-2062Y8596D01*
X-2060Y8605D01*
X-2057Y8615D01*
X-2051Y8637D01*
X-2046Y8649D01*
X-2040Y8661D01*
X-2034Y8673D01*
X-2026Y8685D01*
X-2017Y8695D01*
X-2007Y8706D01*
X-2006Y8707D01*
X-2004Y8709D01*
X-2002Y8712D01*
X-1997Y8716D01*
X-1991Y8720D01*
X-1984Y8725D01*
X-1976Y8730D01*
X-1967Y8736D01*
X-1957Y8740D01*
X-1946Y8746D01*
X-1933Y8750D01*
X-1921Y8755D01*
X-1907Y8758D01*
X-1892Y8761D01*
X-1876Y8763D01*
X-1860Y8764D01*
X-1859D01*
X-1856D01*
X-1851D01*
X-1845Y8763D01*
D02*
G37*
G36*
X-2613Y22509D02*
X-2900D01*
X-2900D01*
X-2901D01*
X-2907D01*
X-2915D01*
X-2925Y22508D01*
X-2936Y22508D01*
X-2947Y22507D01*
X-2958Y22505D01*
X-2966Y22502D01*
X-2967D01*
X-2970Y22500D01*
X-2973Y22498D01*
X-2978Y22496D01*
X-2983Y22492D01*
X-2989Y22487D01*
X-2994Y22482D01*
X-3000Y22475D01*
X-3001Y22474D01*
X-3002Y22471D01*
X-3003Y22467D01*
X-3006Y22461D01*
X-3009Y22455D01*
X-3011Y22446D01*
X-3012Y22438D01*
X-3013Y22428D01*
Y22424D01*
X-3012Y22420D01*
X-3011Y22411D01*
X-3009Y22400D01*
X-3004Y22387D01*
X-2999Y22374D01*
X-2991Y22360D01*
X-2980Y22347D01*
X-2978Y22346D01*
X-2973Y22343D01*
X-2966Y22337D01*
X-2955Y22332D01*
X-2941Y22325D01*
X-2923Y22321D01*
X-2902Y22317D01*
X-2878Y22315D01*
X-2613D01*
Y22238D01*
X-2909D01*
X-2910D01*
X-2911D01*
X-2913D01*
X-2917D01*
X-2927Y22237D01*
X-2938Y22235D01*
X-2951Y22233D01*
X-2963Y22230D01*
X-2975Y22225D01*
X-2986Y22219D01*
X-2987Y22218D01*
X-2991Y22215D01*
X-2994Y22211D01*
X-3000Y22204D01*
X-3004Y22196D01*
X-3009Y22185D01*
X-3012Y22172D01*
X-3013Y22157D01*
Y22151D01*
X-3012Y22145D01*
X-3011Y22138D01*
X-3008Y22129D01*
X-3005Y22118D01*
X-3001Y22108D01*
X-2995Y22097D01*
X-2994Y22096D01*
X-2992Y22092D01*
X-2988Y22088D01*
X-2982Y22081D01*
X-2975Y22075D01*
X-2966Y22068D01*
X-2956Y22062D01*
X-2944Y22057D01*
X-2942Y22056D01*
X-2938Y22055D01*
X-2931Y22053D01*
X-2921Y22050D01*
X-2907Y22047D01*
X-2890Y22046D01*
X-2871Y22045D01*
X-2849Y22044D01*
X-2613D01*
Y21966D01*
X-3070D01*
Y22036D01*
X-3004D01*
X-3006Y22037D01*
X-3010Y22039D01*
X-3016Y22045D01*
X-3023Y22051D01*
X-3033Y22059D01*
X-3042Y22069D01*
X-3051Y22080D01*
X-3059Y22093D01*
X-3060Y22095D01*
X-3063Y22099D01*
X-3065Y22107D01*
X-3070Y22117D01*
X-3074Y22129D01*
X-3076Y22142D01*
X-3079Y22158D01*
X-3080Y22174D01*
Y22182D01*
X-3079Y22192D01*
X-3077Y22203D01*
X-3074Y22217D01*
X-3071Y22231D01*
X-3065Y22244D01*
X-3058Y22257D01*
X-3057Y22259D01*
X-3054Y22262D01*
X-3050Y22268D01*
X-3043Y22275D01*
X-3034Y22283D01*
X-3024Y22291D01*
X-3013Y22298D01*
X-2999Y22303D01*
X-3000Y22304D01*
X-3002Y22306D01*
X-3006Y22309D01*
X-3012Y22313D01*
X-3018Y22319D01*
X-3024Y22325D01*
X-3032Y22333D01*
X-3040Y22342D01*
X-3047Y22352D01*
X-3054Y22362D01*
X-3061Y22374D01*
X-3067Y22386D01*
X-3073Y22400D01*
X-3076Y22415D01*
X-3079Y22429D01*
X-3080Y22446D01*
Y22452D01*
X-3079Y22457D01*
Y22463D01*
X-3078Y22469D01*
X-3075Y22485D01*
X-3071Y22501D01*
X-3064Y22518D01*
X-3054Y22536D01*
X-3042Y22550D01*
X-3040Y22552D01*
X-3034Y22556D01*
X-3026Y22562D01*
X-3020Y22565D01*
X-3013Y22569D01*
X-3005Y22572D01*
X-2997Y22575D01*
X-2988Y22579D01*
X-2977Y22581D01*
X-2966Y22583D01*
X-2953Y22585D01*
X-2941Y22587D01*
X-2926D01*
X-2613D01*
Y22509D01*
D02*
G37*
G36*
Y21775D02*
X-2900D01*
X-2900D01*
X-2901D01*
X-2907D01*
X-2915D01*
X-2925Y21774D01*
X-2936Y21773D01*
X-2947Y21772D01*
X-2958Y21771D01*
X-2966Y21768D01*
X-2967D01*
X-2970Y21766D01*
X-2973Y21764D01*
X-2978Y21761D01*
X-2983Y21758D01*
X-2989Y21753D01*
X-2994Y21748D01*
X-3000Y21740D01*
X-3001Y21740D01*
X-3002Y21737D01*
X-3003Y21733D01*
X-3006Y21727D01*
X-3009Y21720D01*
X-3011Y21712D01*
X-3012Y21704D01*
X-3013Y21694D01*
Y21689D01*
X-3012Y21686D01*
X-3011Y21677D01*
X-3009Y21666D01*
X-3004Y21653D01*
X-2999Y21639D01*
X-2991Y21626D01*
X-2980Y21613D01*
X-2978Y21612D01*
X-2973Y21608D01*
X-2966Y21603D01*
X-2955Y21597D01*
X-2941Y21591D01*
X-2923Y21587D01*
X-2902Y21583D01*
X-2878Y21581D01*
X-2613D01*
Y21504D01*
X-2909D01*
X-2910D01*
X-2911D01*
X-2913D01*
X-2917D01*
X-2927Y21503D01*
X-2938Y21501D01*
X-2951Y21499D01*
X-2963Y21495D01*
X-2975Y21491D01*
X-2986Y21484D01*
X-2987Y21484D01*
X-2991Y21481D01*
X-2994Y21476D01*
X-3000Y21470D01*
X-3004Y21462D01*
X-3009Y21451D01*
X-3012Y21438D01*
X-3013Y21423D01*
Y21417D01*
X-3012Y21411D01*
X-3011Y21403D01*
X-3008Y21394D01*
X-3005Y21383D01*
X-3001Y21373D01*
X-2995Y21362D01*
X-2994Y21361D01*
X-2992Y21358D01*
X-2988Y21353D01*
X-2982Y21347D01*
X-2975Y21341D01*
X-2966Y21334D01*
X-2956Y21328D01*
X-2944Y21322D01*
X-2942Y21321D01*
X-2938Y21321D01*
X-2931Y21319D01*
X-2921Y21316D01*
X-2907Y21313D01*
X-2890Y21311D01*
X-2871Y21310D01*
X-2849Y21310D01*
X-2613D01*
Y21232D01*
X-3070D01*
Y21301D01*
X-3004D01*
X-3006Y21302D01*
X-3010Y21305D01*
X-3016Y21310D01*
X-3023Y21317D01*
X-3033Y21325D01*
X-3042Y21335D01*
X-3051Y21346D01*
X-3059Y21359D01*
X-3060Y21361D01*
X-3063Y21365D01*
X-3065Y21372D01*
X-3070Y21382D01*
X-3074Y21394D01*
X-3076Y21408D01*
X-3079Y21423D01*
X-3080Y21440D01*
Y21448D01*
X-3079Y21458D01*
X-3077Y21469D01*
X-3074Y21483D01*
X-3071Y21496D01*
X-3065Y21510D01*
X-3058Y21523D01*
X-3057Y21525D01*
X-3054Y21528D01*
X-3050Y21534D01*
X-3043Y21541D01*
X-3034Y21548D01*
X-3024Y21556D01*
X-3013Y21564D01*
X-2999Y21569D01*
X-3000Y21570D01*
X-3002Y21572D01*
X-3006Y21575D01*
X-3012Y21579D01*
X-3018Y21585D01*
X-3024Y21591D01*
X-3032Y21598D01*
X-3040Y21607D01*
X-3047Y21617D01*
X-3054Y21628D01*
X-3061Y21639D01*
X-3067Y21652D01*
X-3073Y21666D01*
X-3076Y21680D01*
X-3079Y21695D01*
X-3080Y21711D01*
Y21718D01*
X-3079Y21722D01*
Y21729D01*
X-3078Y21735D01*
X-3075Y21750D01*
X-3071Y21767D01*
X-3064Y21784D01*
X-3054Y21802D01*
X-3042Y21816D01*
X-3040Y21818D01*
X-3034Y21822D01*
X-3026Y21828D01*
X-3020Y21831D01*
X-3013Y21834D01*
X-3005Y21838D01*
X-2997Y21841D01*
X-2988Y21844D01*
X-2977Y21847D01*
X-2966Y21849D01*
X-2953Y21851D01*
X-2941Y21853D01*
X-2926D01*
X-2613D01*
Y21775D01*
D02*
G37*
G36*
X-2895Y21132D02*
X-2884D01*
X-2872Y21131D01*
X-2859Y21130D01*
X-2830Y21127D01*
X-2800Y21123D01*
X-2771Y21117D01*
X-2757Y21114D01*
X-2744Y21109D01*
X-2743D01*
X-2741Y21108D01*
X-2737Y21106D01*
X-2733Y21105D01*
X-2726Y21103D01*
X-2720Y21099D01*
X-2705Y21092D01*
X-2688Y21083D01*
X-2670Y21071D01*
X-2654Y21057D01*
X-2638Y21041D01*
Y21040D01*
X-2636Y21039D01*
X-2634Y21036D01*
X-2633Y21033D01*
X-2630Y21028D01*
X-2626Y21024D01*
X-2620Y21010D01*
X-2613Y20993D01*
X-2607Y20974D01*
X-2603Y20952D01*
X-2602Y20927D01*
Y20918D01*
X-2603Y20911D01*
X-2603Y20904D01*
X-2605Y20895D01*
X-2607Y20885D01*
X-2610Y20874D01*
X-2613Y20863D01*
X-2617Y20851D01*
X-2623Y20839D01*
X-2629Y20828D01*
X-2636Y20816D01*
X-2645Y20804D01*
X-2655Y20793D01*
X-2666Y20783D01*
X-2667Y20782D01*
X-2670Y20780D01*
X-2675Y20778D01*
X-2682Y20773D01*
X-2690Y20768D01*
X-2701Y20764D01*
X-2714Y20758D01*
X-2728Y20752D01*
X-2745Y20747D01*
X-2764Y20741D01*
X-2785Y20736D01*
X-2808Y20731D01*
X-2834Y20727D01*
X-2861Y20724D01*
X-2891Y20722D01*
X-2923Y20721D01*
X-2924D01*
X-2928D01*
X-2934D01*
X-2941D01*
X-2951Y20722D01*
X-2962D01*
X-2974Y20723D01*
X-2988Y20724D01*
X-3016Y20727D01*
X-3046Y20731D01*
X-3076Y20737D01*
X-3090Y20740D01*
X-3104Y20744D01*
X-3105D01*
X-3106Y20745D01*
X-3110Y20747D01*
X-3115Y20748D01*
X-3121Y20750D01*
X-3127Y20754D01*
X-3143Y20761D01*
X-3159Y20770D01*
X-3176Y20782D01*
X-3194Y20796D01*
X-3208Y20812D01*
Y20813D01*
X-3210Y20814D01*
X-3212Y20817D01*
X-3214Y20820D01*
X-3217Y20825D01*
X-3220Y20830D01*
X-3228Y20844D01*
X-3234Y20860D01*
X-3240Y20880D01*
X-3244Y20902D01*
X-3246Y20927D01*
Y20935D01*
X-3245Y20945D01*
X-3243Y20957D01*
X-3240Y20971D01*
X-3237Y20985D01*
X-3232Y21001D01*
X-3225Y21015D01*
Y21016D01*
X-3224Y21017D01*
X-3221Y21022D01*
X-3217Y21029D01*
X-3210Y21038D01*
X-3201Y21048D01*
X-3191Y21059D01*
X-3179Y21069D01*
X-3166Y21079D01*
X-3164Y21080D01*
X-3159Y21084D01*
X-3151Y21087D01*
X-3139Y21094D01*
X-3125Y21099D01*
X-3110Y21106D01*
X-3092Y21113D01*
X-3072Y21118D01*
X-3071D01*
X-3069Y21119D01*
X-3066Y21120D01*
X-3062Y21121D01*
X-3056Y21122D01*
X-3050Y21123D01*
X-3042Y21125D01*
X-3033Y21126D01*
X-3023Y21127D01*
X-3012Y21128D01*
X-2999Y21129D01*
X-2986Y21131D01*
X-2972Y21132D01*
X-2957D01*
X-2941Y21133D01*
X-2923D01*
X-2922D01*
X-2919D01*
X-2912D01*
X-2905D01*
X-2895Y21132D01*
D02*
G37*
G36*
X-2764Y20556D02*
X-2613D01*
Y20479D01*
X-2764D01*
Y20205D01*
X-2835D01*
X-3243Y20493D01*
Y20556D01*
X-2835D01*
Y20642D01*
X-2764D01*
Y20556D01*
D02*
G37*
G36*
X-2613Y20030D02*
X-2701D01*
Y20118D01*
X-2613D01*
Y20030D01*
D02*
G37*
G36*
X-2785Y19908D02*
X-2777Y19908D01*
X-2769Y19906D01*
X-2760Y19904D01*
X-2750Y19902D01*
X-2728Y19895D01*
X-2716Y19889D01*
X-2706Y19884D01*
X-2694Y19877D01*
X-2682Y19868D01*
X-2670Y19859D01*
X-2659Y19848D01*
X-2658Y19847D01*
X-2656Y19846D01*
X-2654Y19842D01*
X-2650Y19837D01*
X-2645Y19832D01*
X-2641Y19825D01*
X-2635Y19816D01*
X-2631Y19806D01*
X-2625Y19796D01*
X-2620Y19785D01*
X-2615Y19773D01*
X-2611Y19759D01*
X-2607Y19744D01*
X-2604Y19729D01*
X-2603Y19713D01*
X-2602Y19696D01*
Y19688D01*
X-2603Y19683D01*
X-2603Y19675D01*
X-2604Y19667D01*
X-2606Y19658D01*
X-2608Y19648D01*
X-2613Y19626D01*
X-2623Y19603D01*
X-2628Y19591D01*
X-2634Y19580D01*
X-2643Y19570D01*
X-2651Y19559D01*
X-2652Y19558D01*
X-2654Y19556D01*
X-2656Y19553D01*
X-2660Y19550D01*
X-2665Y19546D01*
X-2671Y19541D01*
X-2677Y19536D01*
X-2685Y19530D01*
X-2695Y19525D01*
X-2704Y19519D01*
X-2726Y19509D01*
X-2751Y19501D01*
X-2765Y19498D01*
X-2779Y19497D01*
X-2789Y19574D01*
X-2788D01*
X-2787Y19575D01*
X-2783Y19576D01*
X-2778Y19577D01*
X-2773Y19578D01*
X-2767Y19580D01*
X-2753Y19584D01*
X-2736Y19591D01*
X-2721Y19599D01*
X-2706Y19608D01*
X-2694Y19619D01*
X-2693Y19621D01*
X-2689Y19624D01*
X-2685Y19632D01*
X-2680Y19641D01*
X-2675Y19652D01*
X-2670Y19665D01*
X-2666Y19681D01*
X-2665Y19697D01*
Y19703D01*
X-2666Y19706D01*
X-2667Y19716D01*
X-2670Y19729D01*
X-2675Y19744D01*
X-2681Y19759D01*
X-2690Y19775D01*
X-2703Y19789D01*
X-2705Y19791D01*
X-2710Y19795D01*
X-2718Y19801D01*
X-2729Y19808D01*
X-2743Y19816D01*
X-2758Y19821D01*
X-2777Y19826D01*
X-2797Y19827D01*
X-2798D01*
X-2799D01*
X-2802D01*
X-2806Y19826D01*
X-2816Y19826D01*
X-2828Y19823D01*
X-2842Y19819D01*
X-2857Y19813D01*
X-2871Y19804D01*
X-2885Y19792D01*
X-2887Y19790D01*
X-2890Y19785D01*
X-2896Y19778D01*
X-2902Y19768D01*
X-2909Y19755D01*
X-2914Y19740D01*
X-2918Y19723D01*
X-2920Y19703D01*
Y19695D01*
X-2919Y19689D01*
X-2918Y19681D01*
X-2916Y19672D01*
X-2914Y19661D01*
X-2911Y19649D01*
X-2980Y19658D01*
Y19662D01*
X-2979Y19666D01*
Y19678D01*
X-2981Y19688D01*
X-2982Y19700D01*
X-2985Y19713D01*
X-2990Y19729D01*
X-2996Y19744D01*
X-3004Y19759D01*
Y19760D01*
X-3005Y19761D01*
X-3009Y19765D01*
X-3015Y19772D01*
X-3023Y19779D01*
X-3035Y19786D01*
X-3049Y19793D01*
X-3064Y19797D01*
X-3074Y19799D01*
X-3084D01*
X-3084D01*
X-3085D01*
X-3091D01*
X-3098Y19797D01*
X-3108Y19795D01*
X-3119Y19792D01*
X-3131Y19787D01*
X-3143Y19780D01*
X-3154Y19770D01*
X-3155Y19769D01*
X-3158Y19765D01*
X-3163Y19758D01*
X-3168Y19750D01*
X-3173Y19739D01*
X-3177Y19726D01*
X-3181Y19712D01*
X-3182Y19695D01*
Y19688D01*
X-3180Y19680D01*
X-3178Y19669D01*
X-3175Y19657D01*
X-3170Y19645D01*
X-3163Y19632D01*
X-3154Y19621D01*
X-3153Y19620D01*
X-3148Y19616D01*
X-3142Y19611D01*
X-3133Y19604D01*
X-3121Y19598D01*
X-3106Y19591D01*
X-3089Y19586D01*
X-3069Y19582D01*
X-3083Y19505D01*
X-3084D01*
X-3086Y19506D01*
X-3090Y19507D01*
X-3095Y19508D01*
X-3102Y19509D01*
X-3109Y19512D01*
X-3126Y19518D01*
X-3146Y19527D01*
X-3166Y19538D01*
X-3186Y19551D01*
X-3203Y19569D01*
X-3204Y19570D01*
X-3205Y19571D01*
X-3207Y19574D01*
X-3209Y19578D01*
X-3213Y19582D01*
X-3217Y19589D01*
X-3220Y19595D01*
X-3225Y19603D01*
X-3232Y19621D01*
X-3239Y19642D01*
X-3244Y19667D01*
X-3246Y19680D01*
Y19703D01*
X-3245Y19713D01*
X-3243Y19724D01*
X-3240Y19739D01*
X-3236Y19755D01*
X-3230Y19772D01*
X-3223Y19788D01*
Y19789D01*
X-3222Y19790D01*
X-3219Y19795D01*
X-3214Y19804D01*
X-3207Y19813D01*
X-3198Y19824D01*
X-3188Y19835D01*
X-3176Y19846D01*
X-3163Y19855D01*
X-3161Y19856D01*
X-3156Y19858D01*
X-3148Y19862D01*
X-3138Y19867D01*
X-3126Y19871D01*
X-3113Y19875D01*
X-3097Y19877D01*
X-3082Y19878D01*
X-3080D01*
X-3074D01*
X-3067Y19877D01*
X-3057Y19876D01*
X-3045Y19873D01*
X-3033Y19868D01*
X-3020Y19863D01*
X-3007Y19856D01*
X-3005Y19855D01*
X-3002Y19852D01*
X-2995Y19847D01*
X-2988Y19839D01*
X-2980Y19830D01*
X-2971Y19819D01*
X-2962Y19806D01*
X-2954Y19791D01*
Y19792D01*
X-2953Y19794D01*
X-2952Y19796D01*
X-2951Y19800D01*
X-2948Y19810D01*
X-2942Y19823D01*
X-2935Y19837D01*
X-2926Y19852D01*
X-2914Y19866D01*
X-2900Y19878D01*
X-2899Y19879D01*
X-2893Y19883D01*
X-2884Y19888D01*
X-2872Y19894D01*
X-2858Y19899D01*
X-2840Y19905D01*
X-2820Y19908D01*
X-2798Y19909D01*
X-2798D01*
X-2795D01*
X-2790D01*
X-2785Y19908D01*
D02*
G37*
G36*
X10418Y-1352D02*
X10424D01*
X10431Y-1353D01*
X10446Y-1355D01*
X10463Y-1360D01*
X10480Y-1367D01*
X10497Y-1376D01*
X10512Y-1389D01*
X10514Y-1391D01*
X10517Y-1396D01*
X10524Y-1405D01*
X10527Y-1411D01*
X10530Y-1417D01*
X10534Y-1425D01*
X10537Y-1434D01*
X10540Y-1443D01*
X10543Y-1454D01*
X10545Y-1465D01*
X10547Y-1477D01*
X10548Y-1490D01*
Y-1505D01*
Y-1818D01*
X10471D01*
Y-1531D01*
Y-1530D01*
Y-1529D01*
Y-1524D01*
Y-1516D01*
X10470Y-1506D01*
X10469Y-1495D01*
X10468Y-1484D01*
X10466Y-1473D01*
X10464Y-1465D01*
Y-1464D01*
X10462Y-1461D01*
X10460Y-1457D01*
X10457Y-1453D01*
X10454Y-1447D01*
X10449Y-1442D01*
X10444Y-1436D01*
X10436Y-1431D01*
X10435Y-1430D01*
X10433Y-1429D01*
X10429Y-1427D01*
X10423Y-1425D01*
X10416Y-1422D01*
X10408Y-1420D01*
X10400Y-1419D01*
X10390Y-1418D01*
X10385D01*
X10382Y-1419D01*
X10373Y-1420D01*
X10362Y-1422D01*
X10349Y-1426D01*
X10335Y-1432D01*
X10322Y-1440D01*
X10309Y-1451D01*
X10308Y-1453D01*
X10304Y-1457D01*
X10299Y-1465D01*
X10293Y-1476D01*
X10287Y-1490D01*
X10282Y-1507D01*
X10279Y-1528D01*
X10277Y-1553D01*
Y-1818D01*
X10199D01*
Y-1522D01*
Y-1521D01*
Y-1519D01*
Y-1517D01*
Y-1514D01*
X10199Y-1504D01*
X10197Y-1493D01*
X10195Y-1480D01*
X10191Y-1467D01*
X10187Y-1456D01*
X10180Y-1445D01*
X10179Y-1444D01*
X10177Y-1440D01*
X10172Y-1436D01*
X10166Y-1431D01*
X10158Y-1426D01*
X10147Y-1422D01*
X10134Y-1419D01*
X10118Y-1418D01*
X10113D01*
X10107Y-1419D01*
X10099Y-1420D01*
X10090Y-1423D01*
X10079Y-1425D01*
X10069Y-1430D01*
X10058Y-1435D01*
X10057Y-1436D01*
X10054Y-1439D01*
X10049Y-1443D01*
X10043Y-1448D01*
X10036Y-1456D01*
X10030Y-1465D01*
X10024Y-1475D01*
X10018Y-1487D01*
X10017Y-1488D01*
X10016Y-1493D01*
X10015Y-1500D01*
X10012Y-1510D01*
X10009Y-1524D01*
X10007Y-1540D01*
X10006Y-1559D01*
X10005Y-1581D01*
Y-1818D01*
X9928D01*
Y-1361D01*
X9997D01*
Y-1426D01*
X9998Y-1425D01*
X10001Y-1421D01*
X10006Y-1415D01*
X10013Y-1407D01*
X10021Y-1398D01*
X10031Y-1389D01*
X10042Y-1380D01*
X10055Y-1372D01*
X10056Y-1371D01*
X10061Y-1368D01*
X10068Y-1365D01*
X10078Y-1361D01*
X10090Y-1357D01*
X10104Y-1354D01*
X10119Y-1352D01*
X10136Y-1351D01*
X10144D01*
X10154Y-1352D01*
X10165Y-1353D01*
X10179Y-1356D01*
X10192Y-1360D01*
X10206Y-1365D01*
X10219Y-1373D01*
X10220Y-1374D01*
X10224Y-1376D01*
X10230Y-1381D01*
X10237Y-1388D01*
X10244Y-1396D01*
X10252Y-1406D01*
X10260Y-1418D01*
X10265Y-1432D01*
X10266Y-1431D01*
X10268Y-1428D01*
X10271Y-1425D01*
X10275Y-1419D01*
X10281Y-1413D01*
X10287Y-1406D01*
X10294Y-1399D01*
X10303Y-1391D01*
X10313Y-1384D01*
X10323Y-1376D01*
X10335Y-1370D01*
X10348Y-1364D01*
X10362Y-1358D01*
X10376Y-1354D01*
X10391Y-1352D01*
X10407Y-1351D01*
X10414D01*
X10418Y-1352D01*
D02*
G37*
G36*
X9684D02*
X9690D01*
X9697Y-1353D01*
X9712Y-1355D01*
X9728Y-1360D01*
X9746Y-1367D01*
X9763Y-1376D01*
X9778Y-1389D01*
X9779Y-1391D01*
X9783Y-1396D01*
X9790Y-1405D01*
X9792Y-1411D01*
X9796Y-1417D01*
X9800Y-1425D01*
X9802Y-1434D01*
X9806Y-1443D01*
X9809Y-1454D01*
X9810Y-1465D01*
X9812Y-1477D01*
X9814Y-1490D01*
Y-1505D01*
Y-1818D01*
X9737D01*
Y-1531D01*
Y-1530D01*
Y-1529D01*
Y-1524D01*
Y-1516D01*
X9736Y-1506D01*
X9735Y-1495D01*
X9734Y-1484D01*
X9732Y-1473D01*
X9729Y-1465D01*
Y-1464D01*
X9728Y-1461D01*
X9726Y-1457D01*
X9723Y-1453D01*
X9719Y-1447D01*
X9715Y-1442D01*
X9709Y-1436D01*
X9702Y-1431D01*
X9701Y-1430D01*
X9698Y-1429D01*
X9695Y-1427D01*
X9688Y-1425D01*
X9682Y-1422D01*
X9674Y-1420D01*
X9666Y-1419D01*
X9656Y-1418D01*
X9651D01*
X9647Y-1419D01*
X9638Y-1420D01*
X9627Y-1422D01*
X9615Y-1426D01*
X9601Y-1432D01*
X9587Y-1440D01*
X9575Y-1451D01*
X9574Y-1453D01*
X9570Y-1457D01*
X9564Y-1465D01*
X9559Y-1476D01*
X9553Y-1490D01*
X9548Y-1507D01*
X9544Y-1528D01*
X9543Y-1553D01*
Y-1818D01*
X9465D01*
Y-1522D01*
Y-1521D01*
Y-1519D01*
Y-1517D01*
Y-1514D01*
X9464Y-1504D01*
X9462Y-1493D01*
X9461Y-1480D01*
X9457Y-1467D01*
X9452Y-1456D01*
X9446Y-1445D01*
X9445Y-1444D01*
X9442Y-1440D01*
X9438Y-1436D01*
X9431Y-1431D01*
X9423Y-1426D01*
X9412Y-1422D01*
X9400Y-1419D01*
X9384Y-1418D01*
X9379D01*
X9372Y-1419D01*
X9365Y-1420D01*
X9356Y-1423D01*
X9345Y-1425D01*
X9335Y-1430D01*
X9324Y-1435D01*
X9323Y-1436D01*
X9319Y-1439D01*
X9315Y-1443D01*
X9309Y-1448D01*
X9302Y-1456D01*
X9296Y-1465D01*
X9289Y-1475D01*
X9284Y-1487D01*
X9283Y-1488D01*
X9282Y-1493D01*
X9280Y-1500D01*
X9278Y-1510D01*
X9275Y-1524D01*
X9273Y-1540D01*
X9272Y-1559D01*
X9271Y-1581D01*
Y-1818D01*
X9194D01*
Y-1361D01*
X9263D01*
Y-1426D01*
X9264Y-1425D01*
X9267Y-1421D01*
X9272Y-1415D01*
X9278Y-1407D01*
X9287Y-1398D01*
X9297Y-1389D01*
X9308Y-1380D01*
X9320Y-1372D01*
X9322Y-1371D01*
X9327Y-1368D01*
X9334Y-1365D01*
X9344Y-1361D01*
X9356Y-1357D01*
X9370Y-1354D01*
X9385Y-1352D01*
X9401Y-1351D01*
X9410D01*
X9420Y-1352D01*
X9431Y-1353D01*
X9444Y-1356D01*
X9458Y-1360D01*
X9472Y-1365D01*
X9484Y-1373D01*
X9486Y-1374D01*
X9490Y-1376D01*
X9495Y-1381D01*
X9503Y-1388D01*
X9510Y-1396D01*
X9518Y-1406D01*
X9525Y-1418D01*
X9531Y-1432D01*
X9532Y-1431D01*
X9534Y-1428D01*
X9536Y-1425D01*
X9541Y-1419D01*
X9546Y-1413D01*
X9553Y-1406D01*
X9560Y-1399D01*
X9569Y-1391D01*
X9579Y-1384D01*
X9589Y-1376D01*
X9601Y-1370D01*
X9614Y-1364D01*
X9627Y-1358D01*
X9642Y-1354D01*
X9657Y-1352D01*
X9673Y-1351D01*
X9679D01*
X9684Y-1352D01*
D02*
G37*
G36*
X7184Y-1186D02*
X7196Y-1188D01*
X7210Y-1190D01*
X7227Y-1195D01*
X7243Y-1200D01*
X7260Y-1208D01*
X7261D01*
X7261Y-1209D01*
X7267Y-1211D01*
X7275Y-1217D01*
X7284Y-1223D01*
X7295Y-1232D01*
X7306Y-1242D01*
X7317Y-1254D01*
X7326Y-1268D01*
X7327Y-1270D01*
X7330Y-1274D01*
X7333Y-1282D01*
X7338Y-1292D01*
X7343Y-1304D01*
X7346Y-1318D01*
X7349Y-1333D01*
X7350Y-1349D01*
Y-1351D01*
Y-1356D01*
X7349Y-1364D01*
X7347Y-1374D01*
X7344Y-1385D01*
X7340Y-1398D01*
X7334Y-1411D01*
X7327Y-1424D01*
X7326Y-1425D01*
X7323Y-1429D01*
X7318Y-1435D01*
X7311Y-1443D01*
X7302Y-1451D01*
X7291Y-1460D01*
X7278Y-1468D01*
X7262Y-1476D01*
X7263D01*
X7265Y-1477D01*
X7268Y-1478D01*
X7272Y-1479D01*
X7282Y-1483D01*
X7294Y-1488D01*
X7309Y-1496D01*
X7323Y-1505D01*
X7337Y-1517D01*
X7350Y-1530D01*
X7351Y-1532D01*
X7354Y-1538D01*
X7360Y-1547D01*
X7365Y-1558D01*
X7371Y-1573D01*
X7376Y-1590D01*
X7380Y-1610D01*
X7381Y-1632D01*
Y-1633D01*
Y-1636D01*
Y-1640D01*
X7380Y-1646D01*
X7379Y-1653D01*
X7377Y-1661D01*
X7375Y-1671D01*
X7374Y-1681D01*
X7366Y-1702D01*
X7361Y-1714D01*
X7355Y-1725D01*
X7348Y-1737D01*
X7340Y-1749D01*
X7331Y-1761D01*
X7320Y-1772D01*
X7319Y-1773D01*
X7317Y-1774D01*
X7313Y-1777D01*
X7309Y-1781D01*
X7303Y-1785D01*
X7296Y-1790D01*
X7288Y-1795D01*
X7278Y-1800D01*
X7268Y-1805D01*
X7256Y-1811D01*
X7244Y-1815D01*
X7231Y-1820D01*
X7216Y-1824D01*
X7200Y-1826D01*
X7185Y-1828D01*
X7168Y-1829D01*
X7159D01*
X7154Y-1828D01*
X7147Y-1827D01*
X7139Y-1826D01*
X7129Y-1824D01*
X7119Y-1823D01*
X7098Y-1817D01*
X7075Y-1808D01*
X7063Y-1803D01*
X7052Y-1796D01*
X7041Y-1788D01*
X7030Y-1780D01*
X7029Y-1779D01*
X7027Y-1777D01*
X7025Y-1774D01*
X7022Y-1771D01*
X7017Y-1766D01*
X7013Y-1760D01*
X7007Y-1753D01*
X7002Y-1745D01*
X6996Y-1736D01*
X6991Y-1727D01*
X6981Y-1705D01*
X6973Y-1680D01*
X6970Y-1666D01*
X6968Y-1651D01*
X7046Y-1641D01*
Y-1642D01*
X7046Y-1644D01*
X7047Y-1648D01*
X7048Y-1652D01*
X7049Y-1658D01*
X7051Y-1664D01*
X7056Y-1678D01*
X7062Y-1694D01*
X7070Y-1710D01*
X7079Y-1724D01*
X7090Y-1737D01*
X7092Y-1738D01*
X7096Y-1742D01*
X7103Y-1746D01*
X7112Y-1751D01*
X7123Y-1756D01*
X7137Y-1761D01*
X7152Y-1764D01*
X7169Y-1765D01*
X7174D01*
X7178Y-1764D01*
X7188Y-1763D01*
X7200Y-1761D01*
X7215Y-1756D01*
X7231Y-1750D01*
X7246Y-1741D01*
X7261Y-1728D01*
X7262Y-1726D01*
X7267Y-1721D01*
X7272Y-1712D01*
X7280Y-1701D01*
X7287Y-1688D01*
X7292Y-1672D01*
X7297Y-1654D01*
X7299Y-1634D01*
Y-1633D01*
Y-1631D01*
Y-1629D01*
X7298Y-1625D01*
X7297Y-1615D01*
X7294Y-1603D01*
X7291Y-1589D01*
X7284Y-1574D01*
X7275Y-1559D01*
X7263Y-1546D01*
X7261Y-1544D01*
X7257Y-1540D01*
X7250Y-1535D01*
X7240Y-1528D01*
X7227Y-1522D01*
X7211Y-1517D01*
X7194Y-1513D01*
X7175Y-1511D01*
X7167D01*
X7160Y-1512D01*
X7152Y-1513D01*
X7143Y-1515D01*
X7132Y-1517D01*
X7120Y-1519D01*
X7129Y-1451D01*
X7134D01*
X7138Y-1452D01*
X7149D01*
X7159Y-1450D01*
X7171Y-1448D01*
X7185Y-1445D01*
X7200Y-1441D01*
X7215Y-1435D01*
X7231Y-1426D01*
X7231D01*
X7232Y-1425D01*
X7237Y-1422D01*
X7243Y-1415D01*
X7251Y-1407D01*
X7258Y-1395D01*
X7264Y-1382D01*
X7269Y-1366D01*
X7271Y-1357D01*
Y-1347D01*
Y-1346D01*
Y-1345D01*
Y-1340D01*
X7269Y-1333D01*
X7267Y-1323D01*
X7263Y-1312D01*
X7259Y-1300D01*
X7251Y-1288D01*
X7241Y-1277D01*
X7241Y-1276D01*
X7236Y-1272D01*
X7230Y-1268D01*
X7221Y-1262D01*
X7210Y-1258D01*
X7198Y-1253D01*
X7183Y-1250D01*
X7167Y-1249D01*
X7159D01*
X7151Y-1251D01*
X7140Y-1252D01*
X7128Y-1256D01*
X7117Y-1261D01*
X7104Y-1268D01*
X7092Y-1277D01*
X7091Y-1278D01*
X7087Y-1282D01*
X7082Y-1289D01*
X7076Y-1298D01*
X7069Y-1310D01*
X7063Y-1324D01*
X7057Y-1342D01*
X7054Y-1362D01*
X6976Y-1348D01*
Y-1347D01*
X6977Y-1344D01*
X6978Y-1341D01*
X6979Y-1335D01*
X6981Y-1329D01*
X6984Y-1322D01*
X6989Y-1304D01*
X6998Y-1284D01*
X7009Y-1264D01*
X7023Y-1245D01*
X7040Y-1228D01*
X7041Y-1227D01*
X7043Y-1226D01*
X7046Y-1224D01*
X7049Y-1221D01*
X7054Y-1218D01*
X7060Y-1214D01*
X7067Y-1210D01*
X7075Y-1206D01*
X7093Y-1199D01*
X7114Y-1191D01*
X7139Y-1187D01*
X7151Y-1185D01*
X7174D01*
X7184Y-1186D01*
D02*
G37*
G36*
X8417D02*
X8424Y-1187D01*
X8433Y-1188D01*
X8443Y-1190D01*
X8453Y-1191D01*
X8477Y-1198D01*
X8500Y-1207D01*
X8512Y-1212D01*
X8524Y-1219D01*
X8535Y-1227D01*
X8545Y-1236D01*
X8546Y-1237D01*
X8548Y-1238D01*
X8550Y-1241D01*
X8553Y-1245D01*
X8558Y-1250D01*
X8562Y-1256D01*
X8567Y-1262D01*
X8572Y-1271D01*
X8582Y-1288D01*
X8591Y-1310D01*
X8594Y-1321D01*
X8596Y-1333D01*
X8598Y-1346D01*
X8599Y-1360D01*
Y-1362D01*
Y-1366D01*
X8598Y-1374D01*
X8597Y-1384D01*
X8595Y-1394D01*
X8592Y-1407D01*
X8588Y-1421D01*
X8582Y-1435D01*
X8582Y-1436D01*
X8580Y-1441D01*
X8576Y-1448D01*
X8571Y-1458D01*
X8563Y-1469D01*
X8554Y-1483D01*
X8543Y-1497D01*
X8531Y-1512D01*
X8529Y-1514D01*
X8524Y-1519D01*
X8520Y-1524D01*
X8515Y-1528D01*
X8510Y-1534D01*
X8502Y-1541D01*
X8495Y-1548D01*
X8486Y-1557D01*
X8477Y-1566D01*
X8466Y-1576D01*
X8454Y-1586D01*
X8441Y-1598D01*
X8427Y-1609D01*
X8412Y-1622D01*
X8411Y-1623D01*
X8409Y-1625D01*
X8406Y-1628D01*
X8401Y-1631D01*
X8396Y-1637D01*
X8389Y-1642D01*
X8375Y-1654D01*
X8359Y-1668D01*
X8345Y-1681D01*
X8332Y-1693D01*
X8326Y-1698D01*
X8322Y-1702D01*
X8321Y-1703D01*
X8318Y-1706D01*
X8315Y-1710D01*
X8310Y-1715D01*
X8306Y-1722D01*
X8300Y-1728D01*
X8289Y-1743D01*
X8600D01*
Y-1818D01*
X8182D01*
Y-1817D01*
Y-1814D01*
Y-1808D01*
X8183Y-1801D01*
X8183Y-1793D01*
X8185Y-1783D01*
X8187Y-1774D01*
X8191Y-1764D01*
Y-1763D01*
X8192Y-1763D01*
X8193Y-1757D01*
X8197Y-1749D01*
X8203Y-1738D01*
X8210Y-1725D01*
X8219Y-1711D01*
X8229Y-1696D01*
X8242Y-1681D01*
Y-1680D01*
X8244Y-1679D01*
X8248Y-1673D01*
X8256Y-1665D01*
X8268Y-1653D01*
X8282Y-1640D01*
X8299Y-1623D01*
X8320Y-1605D01*
X8343Y-1586D01*
X8344Y-1585D01*
X8347Y-1582D01*
X8353Y-1578D01*
X8359Y-1572D01*
X8367Y-1565D01*
X8377Y-1557D01*
X8387Y-1548D01*
X8399Y-1538D01*
X8422Y-1516D01*
X8445Y-1494D01*
X8456Y-1483D01*
X8466Y-1472D01*
X8475Y-1462D01*
X8482Y-1452D01*
Y-1451D01*
X8484Y-1450D01*
X8486Y-1447D01*
X8488Y-1444D01*
X8494Y-1434D01*
X8501Y-1422D01*
X8508Y-1407D01*
X8514Y-1392D01*
X8518Y-1374D01*
X8520Y-1358D01*
Y-1357D01*
Y-1356D01*
X8519Y-1351D01*
X8518Y-1342D01*
X8515Y-1332D01*
X8511Y-1319D01*
X8505Y-1306D01*
X8497Y-1293D01*
X8486Y-1281D01*
X8484Y-1279D01*
X8479Y-1275D01*
X8473Y-1271D01*
X8463Y-1264D01*
X8450Y-1259D01*
X8436Y-1253D01*
X8418Y-1250D01*
X8399Y-1249D01*
X8394D01*
X8390Y-1250D01*
X8379Y-1251D01*
X8367Y-1253D01*
X8353Y-1257D01*
X8337Y-1263D01*
X8323Y-1271D01*
X8309Y-1282D01*
X8307Y-1284D01*
X8304Y-1289D01*
X8298Y-1296D01*
X8293Y-1307D01*
X8286Y-1320D01*
X8281Y-1336D01*
X8277Y-1354D01*
X8275Y-1375D01*
X8196Y-1367D01*
Y-1366D01*
X8197Y-1364D01*
Y-1359D01*
X8198Y-1353D01*
X8200Y-1345D01*
X8202Y-1337D01*
X8204Y-1327D01*
X8207Y-1317D01*
X8214Y-1295D01*
X8225Y-1273D01*
X8232Y-1262D01*
X8240Y-1251D01*
X8248Y-1241D01*
X8257Y-1232D01*
X8258Y-1231D01*
X8260Y-1231D01*
X8263Y-1228D01*
X8267Y-1225D01*
X8273Y-1221D01*
X8279Y-1218D01*
X8286Y-1213D01*
X8295Y-1209D01*
X8306Y-1204D01*
X8316Y-1200D01*
X8328Y-1196D01*
X8341Y-1192D01*
X8355Y-1190D01*
X8369Y-1187D01*
X8385Y-1186D01*
X8401Y-1185D01*
X8410D01*
X8417Y-1186D01*
D02*
G37*
G36*
X8080Y-1818D02*
X7991D01*
Y-1730D01*
X8080D01*
Y-1818D01*
D02*
G37*
G36*
X8907Y-1186D02*
X8919Y-1188D01*
X8932Y-1190D01*
X8947Y-1194D01*
X8962Y-1199D01*
X8977Y-1206D01*
X8978D01*
X8979Y-1207D01*
X8983Y-1210D01*
X8991Y-1214D01*
X9000Y-1220D01*
X9010Y-1230D01*
X9021Y-1240D01*
X9031Y-1251D01*
X9041Y-1265D01*
X9042Y-1267D01*
X9045Y-1271D01*
X9049Y-1280D01*
X9055Y-1292D01*
X9061Y-1305D01*
X9068Y-1321D01*
X9074Y-1339D01*
X9080Y-1359D01*
Y-1360D01*
X9081Y-1362D01*
X9082Y-1364D01*
X9083Y-1369D01*
X9083Y-1374D01*
X9084Y-1381D01*
X9086Y-1389D01*
X9087Y-1398D01*
X9089Y-1408D01*
X9090Y-1419D01*
X9091Y-1432D01*
X9093Y-1445D01*
X9094Y-1459D01*
Y-1474D01*
X9094Y-1490D01*
Y-1507D01*
Y-1508D01*
Y-1512D01*
Y-1518D01*
Y-1526D01*
X9094Y-1536D01*
Y-1547D01*
X9093Y-1558D01*
X9092Y-1571D01*
X9089Y-1600D01*
X9084Y-1630D01*
X9079Y-1660D01*
X9075Y-1673D01*
X9071Y-1687D01*
Y-1688D01*
X9070Y-1690D01*
X9068Y-1693D01*
X9066Y-1698D01*
X9064Y-1704D01*
X9061Y-1711D01*
X9053Y-1726D01*
X9044Y-1742D01*
X9032Y-1761D01*
X9019Y-1777D01*
X9002Y-1793D01*
X9002D01*
X9001Y-1794D01*
X8998Y-1796D01*
X8994Y-1798D01*
X8990Y-1801D01*
X8985Y-1804D01*
X8971Y-1811D01*
X8955Y-1817D01*
X8936Y-1824D01*
X8913Y-1827D01*
X8889Y-1829D01*
X8879D01*
X8873Y-1828D01*
X8866Y-1827D01*
X8857Y-1825D01*
X8847Y-1824D01*
X8836Y-1821D01*
X8825Y-1817D01*
X8813Y-1814D01*
X8801Y-1808D01*
X8789Y-1802D01*
X8777Y-1794D01*
X8766Y-1785D01*
X8755Y-1775D01*
X8745Y-1764D01*
X8744Y-1763D01*
X8742Y-1761D01*
X8739Y-1756D01*
X8735Y-1749D01*
X8730Y-1741D01*
X8725Y-1730D01*
X8719Y-1717D01*
X8714Y-1702D01*
X8708Y-1686D01*
X8703Y-1667D01*
X8697Y-1646D01*
X8693Y-1622D01*
X8688Y-1597D01*
X8685Y-1569D01*
X8684Y-1539D01*
X8683Y-1507D01*
Y-1507D01*
Y-1503D01*
Y-1497D01*
Y-1489D01*
X8684Y-1479D01*
Y-1468D01*
X8684Y-1456D01*
X8685Y-1443D01*
X8688Y-1415D01*
X8693Y-1384D01*
X8698Y-1354D01*
X8702Y-1341D01*
X8705Y-1327D01*
Y-1326D01*
X8706Y-1324D01*
X8708Y-1321D01*
X8710Y-1316D01*
X8712Y-1310D01*
X8715Y-1303D01*
X8723Y-1288D01*
X8732Y-1271D01*
X8744Y-1254D01*
X8757Y-1237D01*
X8774Y-1222D01*
X8775D01*
X8776Y-1220D01*
X8778Y-1219D01*
X8782Y-1217D01*
X8787Y-1213D01*
X8792Y-1210D01*
X8806Y-1203D01*
X8822Y-1197D01*
X8841Y-1190D01*
X8864Y-1187D01*
X8889Y-1185D01*
X8897D01*
X8907Y-1186D01*
D02*
G37*
G36*
X7676D02*
X7683Y-1187D01*
X7691Y-1188D01*
X7701Y-1189D01*
X7710Y-1191D01*
X7732Y-1197D01*
X7753Y-1205D01*
X7764Y-1210D01*
X7775Y-1217D01*
X7785Y-1225D01*
X7795Y-1233D01*
X7796Y-1234D01*
X7797Y-1235D01*
X7800Y-1238D01*
X7804Y-1241D01*
X7807Y-1247D01*
X7812Y-1252D01*
X7821Y-1266D01*
X7830Y-1283D01*
X7838Y-1303D01*
X7845Y-1326D01*
X7845Y-1338D01*
X7846Y-1351D01*
Y-1352D01*
Y-1353D01*
Y-1358D01*
X7845Y-1366D01*
X7844Y-1376D01*
X7841Y-1389D01*
X7836Y-1402D01*
X7831Y-1415D01*
X7823Y-1427D01*
X7822Y-1429D01*
X7818Y-1433D01*
X7813Y-1438D01*
X7805Y-1445D01*
X7795Y-1454D01*
X7783Y-1462D01*
X7770Y-1470D01*
X7753Y-1477D01*
X7754D01*
X7756Y-1478D01*
X7759Y-1479D01*
X7763Y-1481D01*
X7773Y-1486D01*
X7786Y-1492D01*
X7800Y-1501D01*
X7814Y-1511D01*
X7828Y-1524D01*
X7841Y-1538D01*
Y-1539D01*
X7842Y-1540D01*
X7845Y-1546D01*
X7851Y-1555D01*
X7856Y-1567D01*
X7862Y-1581D01*
X7867Y-1599D01*
X7871Y-1618D01*
X7872Y-1639D01*
Y-1640D01*
Y-1642D01*
Y-1647D01*
X7871Y-1652D01*
X7870Y-1659D01*
X7869Y-1667D01*
X7867Y-1676D01*
X7865Y-1686D01*
X7858Y-1707D01*
X7854Y-1719D01*
X7847Y-1730D01*
X7841Y-1742D01*
X7834Y-1753D01*
X7824Y-1763D01*
X7814Y-1774D01*
X7814Y-1775D01*
X7812Y-1777D01*
X7809Y-1780D01*
X7804Y-1783D01*
X7798Y-1787D01*
X7792Y-1792D01*
X7783Y-1796D01*
X7774Y-1802D01*
X7764Y-1807D01*
X7753Y-1812D01*
X7740Y-1816D01*
X7727Y-1821D01*
X7712Y-1824D01*
X7697Y-1826D01*
X7681Y-1828D01*
X7664Y-1829D01*
X7655D01*
X7649Y-1828D01*
X7640Y-1827D01*
X7631Y-1826D01*
X7621Y-1824D01*
X7610Y-1822D01*
X7586Y-1815D01*
X7573Y-1811D01*
X7561Y-1806D01*
X7548Y-1800D01*
X7536Y-1793D01*
X7524Y-1784D01*
X7513Y-1774D01*
X7512Y-1773D01*
X7510Y-1772D01*
X7507Y-1769D01*
X7504Y-1764D01*
X7500Y-1759D01*
X7495Y-1753D01*
X7490Y-1745D01*
X7485Y-1736D01*
X7479Y-1727D01*
X7475Y-1716D01*
X7466Y-1693D01*
X7462Y-1680D01*
X7459Y-1666D01*
X7457Y-1651D01*
X7456Y-1637D01*
Y-1636D01*
Y-1634D01*
Y-1630D01*
X7457Y-1627D01*
Y-1621D01*
X7458Y-1615D01*
X7460Y-1600D01*
X7464Y-1584D01*
X7469Y-1568D01*
X7477Y-1550D01*
X7487Y-1534D01*
Y-1533D01*
X7489Y-1532D01*
X7493Y-1527D01*
X7500Y-1520D01*
X7510Y-1511D01*
X7523Y-1502D01*
X7538Y-1492D01*
X7556Y-1484D01*
X7577Y-1477D01*
X7576D01*
X7575Y-1476D01*
X7572Y-1476D01*
X7569Y-1474D01*
X7560Y-1470D01*
X7549Y-1465D01*
X7538Y-1457D01*
X7526Y-1448D01*
X7515Y-1438D01*
X7505Y-1427D01*
X7504Y-1425D01*
X7501Y-1422D01*
X7497Y-1415D01*
X7494Y-1405D01*
X7489Y-1394D01*
X7486Y-1380D01*
X7483Y-1364D01*
X7482Y-1348D01*
Y-1347D01*
Y-1345D01*
Y-1342D01*
X7483Y-1336D01*
X7484Y-1331D01*
X7485Y-1323D01*
X7488Y-1308D01*
X7494Y-1290D01*
X7503Y-1271D01*
X7508Y-1261D01*
X7515Y-1251D01*
X7523Y-1241D01*
X7531Y-1232D01*
X7532Y-1231D01*
X7534Y-1231D01*
X7537Y-1228D01*
X7540Y-1225D01*
X7545Y-1221D01*
X7551Y-1218D01*
X7558Y-1213D01*
X7566Y-1209D01*
X7575Y-1204D01*
X7585Y-1200D01*
X7596Y-1196D01*
X7608Y-1192D01*
X7633Y-1187D01*
X7648Y-1186D01*
X7662Y-1185D01*
X7671D01*
X7676Y-1186D01*
D02*
G37*
G36*
X18362Y-2318D02*
X18368D01*
X18375Y-2319D01*
X18390Y-2321D01*
X18407Y-2326D01*
X18424Y-2333D01*
X18441Y-2342D01*
X18456Y-2355D01*
X18458Y-2357D01*
X18461Y-2362D01*
X18468Y-2371D01*
X18470Y-2377D01*
X18474Y-2383D01*
X18478Y-2392D01*
X18480Y-2400D01*
X18484Y-2409D01*
X18487Y-2420D01*
X18489Y-2431D01*
X18490Y-2444D01*
X18492Y-2456D01*
Y-2471D01*
Y-2784D01*
X18415D01*
Y-2497D01*
Y-2496D01*
Y-2495D01*
Y-2490D01*
Y-2482D01*
X18414Y-2472D01*
X18413Y-2461D01*
X18412Y-2450D01*
X18410Y-2439D01*
X18408Y-2431D01*
Y-2430D01*
X18406Y-2427D01*
X18404Y-2423D01*
X18401Y-2419D01*
X18398Y-2413D01*
X18393Y-2408D01*
X18388Y-2403D01*
X18380Y-2397D01*
X18379Y-2396D01*
X18377Y-2395D01*
X18373Y-2393D01*
X18367Y-2391D01*
X18360Y-2388D01*
X18352Y-2386D01*
X18344Y-2385D01*
X18334Y-2384D01*
X18329D01*
X18326Y-2385D01*
X18316Y-2386D01*
X18306Y-2388D01*
X18293Y-2392D01*
X18279Y-2398D01*
X18265Y-2406D01*
X18253Y-2417D01*
X18252Y-2419D01*
X18248Y-2423D01*
X18243Y-2431D01*
X18237Y-2442D01*
X18231Y-2456D01*
X18226Y-2474D01*
X18223Y-2495D01*
X18221Y-2519D01*
Y-2784D01*
X18143D01*
Y-2488D01*
Y-2487D01*
Y-2485D01*
Y-2484D01*
Y-2480D01*
X18142Y-2470D01*
X18141Y-2459D01*
X18139Y-2446D01*
X18135Y-2433D01*
X18131Y-2422D01*
X18124Y-2411D01*
X18123Y-2410D01*
X18121Y-2406D01*
X18116Y-2403D01*
X18110Y-2397D01*
X18101Y-2392D01*
X18091Y-2388D01*
X18078Y-2385D01*
X18062Y-2384D01*
X18057D01*
X18050Y-2385D01*
X18043Y-2386D01*
X18034Y-2389D01*
X18023Y-2392D01*
X18013Y-2396D01*
X18002Y-2402D01*
X18001Y-2403D01*
X17998Y-2405D01*
X17993Y-2409D01*
X17987Y-2414D01*
X17980Y-2422D01*
X17974Y-2431D01*
X17968Y-2441D01*
X17962Y-2453D01*
X17961Y-2454D01*
X17960Y-2459D01*
X17958Y-2466D01*
X17956Y-2476D01*
X17953Y-2490D01*
X17951Y-2506D01*
X17950Y-2525D01*
X17949Y-2547D01*
Y-2784D01*
X17872D01*
Y-2327D01*
X17941D01*
Y-2392D01*
X17942Y-2391D01*
X17945Y-2387D01*
X17950Y-2381D01*
X17957Y-2373D01*
X17965Y-2364D01*
X17975Y-2355D01*
X17986Y-2346D01*
X17999Y-2338D01*
X18000Y-2337D01*
X18005Y-2334D01*
X18012Y-2331D01*
X18022Y-2327D01*
X18034Y-2323D01*
X18048Y-2321D01*
X18063Y-2318D01*
X18080Y-2317D01*
X18088D01*
X18098Y-2318D01*
X18109Y-2320D01*
X18122Y-2322D01*
X18136Y-2326D01*
X18150Y-2331D01*
X18163Y-2339D01*
X18164Y-2340D01*
X18168Y-2342D01*
X18173Y-2347D01*
X18181Y-2354D01*
X18188Y-2362D01*
X18196Y-2372D01*
X18204Y-2384D01*
X18209Y-2398D01*
X18210Y-2397D01*
X18212Y-2394D01*
X18214Y-2391D01*
X18219Y-2385D01*
X18224Y-2379D01*
X18231Y-2372D01*
X18238Y-2365D01*
X18247Y-2357D01*
X18257Y-2350D01*
X18267Y-2342D01*
X18279Y-2336D01*
X18292Y-2330D01*
X18306Y-2324D01*
X18320Y-2321D01*
X18335Y-2318D01*
X18351Y-2317D01*
X18357D01*
X18362Y-2318D01*
D02*
G37*
G36*
X17628D02*
X17634D01*
X17641Y-2319D01*
X17656Y-2321D01*
X17672Y-2326D01*
X17690Y-2333D01*
X17707Y-2342D01*
X17722Y-2355D01*
X17723Y-2357D01*
X17727Y-2362D01*
X17733Y-2371D01*
X17736Y-2377D01*
X17740Y-2383D01*
X17743Y-2392D01*
X17746Y-2400D01*
X17750Y-2409D01*
X17753Y-2420D01*
X17754Y-2431D01*
X17756Y-2444D01*
X17758Y-2456D01*
Y-2471D01*
Y-2784D01*
X17681D01*
Y-2497D01*
Y-2496D01*
Y-2495D01*
Y-2490D01*
Y-2482D01*
X17680Y-2472D01*
X17679Y-2461D01*
X17678Y-2450D01*
X17676Y-2439D01*
X17673Y-2431D01*
Y-2430D01*
X17671Y-2427D01*
X17670Y-2423D01*
X17667Y-2419D01*
X17663Y-2413D01*
X17659Y-2408D01*
X17653Y-2403D01*
X17646Y-2397D01*
X17645Y-2396D01*
X17642Y-2395D01*
X17639Y-2393D01*
X17632Y-2391D01*
X17626Y-2388D01*
X17618Y-2386D01*
X17610Y-2385D01*
X17600Y-2384D01*
X17595D01*
X17591Y-2385D01*
X17582Y-2386D01*
X17571Y-2388D01*
X17559Y-2392D01*
X17545Y-2398D01*
X17531Y-2406D01*
X17518Y-2417D01*
X17518Y-2419D01*
X17514Y-2423D01*
X17508Y-2431D01*
X17503Y-2442D01*
X17497Y-2456D01*
X17492Y-2474D01*
X17488Y-2495D01*
X17487Y-2519D01*
Y-2784D01*
X17409D01*
Y-2488D01*
Y-2487D01*
Y-2485D01*
Y-2484D01*
Y-2480D01*
X17408Y-2470D01*
X17406Y-2459D01*
X17405Y-2446D01*
X17401Y-2433D01*
X17396Y-2422D01*
X17390Y-2411D01*
X17389Y-2410D01*
X17386Y-2406D01*
X17382Y-2403D01*
X17375Y-2397D01*
X17367Y-2392D01*
X17356Y-2388D01*
X17344Y-2385D01*
X17328Y-2384D01*
X17323D01*
X17316Y-2385D01*
X17309Y-2386D01*
X17300Y-2389D01*
X17289Y-2392D01*
X17279Y-2396D01*
X17268Y-2402D01*
X17267Y-2403D01*
X17263Y-2405D01*
X17259Y-2409D01*
X17252Y-2414D01*
X17246Y-2422D01*
X17240Y-2431D01*
X17233Y-2441D01*
X17228Y-2453D01*
X17227Y-2454D01*
X17226Y-2459D01*
X17224Y-2466D01*
X17221Y-2476D01*
X17219Y-2490D01*
X17217Y-2506D01*
X17216Y-2525D01*
X17215Y-2547D01*
Y-2784D01*
X17138D01*
Y-2327D01*
X17207D01*
Y-2392D01*
X17208Y-2391D01*
X17211Y-2387D01*
X17216Y-2381D01*
X17222Y-2373D01*
X17231Y-2364D01*
X17241Y-2355D01*
X17252Y-2346D01*
X17264Y-2338D01*
X17266Y-2337D01*
X17271Y-2334D01*
X17278Y-2331D01*
X17288Y-2327D01*
X17300Y-2323D01*
X17313Y-2321D01*
X17329Y-2318D01*
X17345Y-2317D01*
X17354D01*
X17364Y-2318D01*
X17375Y-2320D01*
X17388Y-2322D01*
X17402Y-2326D01*
X17415Y-2331D01*
X17428Y-2339D01*
X17430Y-2340D01*
X17434Y-2342D01*
X17439Y-2347D01*
X17446Y-2354D01*
X17454Y-2362D01*
X17462Y-2372D01*
X17469Y-2384D01*
X17475Y-2398D01*
X17476Y-2397D01*
X17477Y-2394D01*
X17480Y-2391D01*
X17485Y-2385D01*
X17490Y-2379D01*
X17497Y-2372D01*
X17504Y-2365D01*
X17513Y-2357D01*
X17523Y-2350D01*
X17533Y-2342D01*
X17545Y-2336D01*
X17558Y-2330D01*
X17571Y-2324D01*
X17586Y-2321D01*
X17600Y-2318D01*
X17617Y-2317D01*
X17623D01*
X17628Y-2318D01*
D02*
G37*
G36*
X15618Y-2152D02*
X15630Y-2154D01*
X15645Y-2157D01*
X15661Y-2161D01*
X15677Y-2167D01*
X15694Y-2174D01*
X15695D01*
X15696Y-2175D01*
X15701Y-2177D01*
X15709Y-2183D01*
X15718Y-2189D01*
X15729Y-2198D01*
X15740Y-2208D01*
X15751Y-2220D01*
X15760Y-2234D01*
X15761Y-2236D01*
X15764Y-2240D01*
X15768Y-2249D01*
X15772Y-2259D01*
X15777Y-2270D01*
X15780Y-2284D01*
X15783Y-2300D01*
X15784Y-2315D01*
Y-2317D01*
Y-2322D01*
X15783Y-2330D01*
X15781Y-2340D01*
X15778Y-2351D01*
X15774Y-2364D01*
X15768Y-2377D01*
X15761Y-2390D01*
X15760Y-2392D01*
X15757Y-2395D01*
X15752Y-2402D01*
X15745Y-2409D01*
X15736Y-2417D01*
X15725Y-2426D01*
X15712Y-2434D01*
X15696Y-2443D01*
X15697D01*
X15699Y-2444D01*
X15702Y-2444D01*
X15706Y-2445D01*
X15716Y-2449D01*
X15728Y-2454D01*
X15743Y-2462D01*
X15757Y-2471D01*
X15771Y-2483D01*
X15784Y-2496D01*
X15785Y-2498D01*
X15788Y-2504D01*
X15794Y-2513D01*
X15799Y-2525D01*
X15805Y-2539D01*
X15810Y-2556D01*
X15814Y-2577D01*
X15815Y-2598D01*
Y-2599D01*
Y-2602D01*
Y-2607D01*
X15814Y-2612D01*
X15813Y-2619D01*
X15811Y-2628D01*
X15809Y-2637D01*
X15808Y-2647D01*
X15800Y-2669D01*
X15795Y-2680D01*
X15789Y-2691D01*
X15782Y-2703D01*
X15774Y-2715D01*
X15765Y-2727D01*
X15754Y-2738D01*
X15753Y-2739D01*
X15751Y-2740D01*
X15747Y-2743D01*
X15743Y-2747D01*
X15737Y-2751D01*
X15730Y-2756D01*
X15722Y-2761D01*
X15712Y-2766D01*
X15702Y-2771D01*
X15690Y-2777D01*
X15678Y-2781D01*
X15665Y-2786D01*
X15650Y-2790D01*
X15634Y-2792D01*
X15619Y-2794D01*
X15602Y-2795D01*
X15594D01*
X15588Y-2794D01*
X15581Y-2793D01*
X15573Y-2792D01*
X15563Y-2791D01*
X15553Y-2789D01*
X15532Y-2783D01*
X15509Y-2774D01*
X15497Y-2769D01*
X15486Y-2762D01*
X15475Y-2754D01*
X15464Y-2746D01*
X15463Y-2745D01*
X15461Y-2743D01*
X15459Y-2740D01*
X15456Y-2737D01*
X15451Y-2732D01*
X15447Y-2726D01*
X15441Y-2720D01*
X15436Y-2711D01*
X15430Y-2702D01*
X15425Y-2693D01*
X15415Y-2671D01*
X15407Y-2646D01*
X15404Y-2632D01*
X15402Y-2618D01*
X15480Y-2607D01*
Y-2608D01*
X15481Y-2610D01*
X15481Y-2614D01*
X15482Y-2618D01*
X15483Y-2624D01*
X15485Y-2630D01*
X15490Y-2644D01*
X15496Y-2660D01*
X15504Y-2676D01*
X15513Y-2690D01*
X15524Y-2703D01*
X15526Y-2704D01*
X15530Y-2708D01*
X15537Y-2712D01*
X15546Y-2717D01*
X15557Y-2722D01*
X15571Y-2727D01*
X15586Y-2730D01*
X15603Y-2731D01*
X15608D01*
X15612Y-2730D01*
X15622Y-2730D01*
X15634Y-2727D01*
X15649Y-2722D01*
X15665Y-2716D01*
X15680Y-2707D01*
X15695Y-2694D01*
X15696Y-2692D01*
X15701Y-2687D01*
X15706Y-2679D01*
X15714Y-2668D01*
X15721Y-2654D01*
X15726Y-2638D01*
X15731Y-2620D01*
X15733Y-2600D01*
Y-2599D01*
Y-2597D01*
Y-2595D01*
X15732Y-2591D01*
X15731Y-2581D01*
X15728Y-2569D01*
X15725Y-2555D01*
X15718Y-2540D01*
X15709Y-2525D01*
X15697Y-2512D01*
X15696Y-2510D01*
X15691Y-2506D01*
X15684Y-2501D01*
X15674Y-2495D01*
X15661Y-2488D01*
X15645Y-2483D01*
X15628Y-2479D01*
X15609Y-2477D01*
X15601D01*
X15594Y-2478D01*
X15586Y-2479D01*
X15577Y-2481D01*
X15566Y-2483D01*
X15554Y-2485D01*
X15563Y-2417D01*
X15568D01*
X15572Y-2418D01*
X15583D01*
X15594Y-2416D01*
X15605Y-2414D01*
X15619Y-2412D01*
X15634Y-2407D01*
X15649Y-2401D01*
X15665Y-2392D01*
X15665D01*
X15666Y-2392D01*
X15671Y-2388D01*
X15677Y-2382D01*
X15685Y-2373D01*
X15692Y-2362D01*
X15698Y-2348D01*
X15703Y-2332D01*
X15705Y-2323D01*
Y-2313D01*
Y-2312D01*
Y-2311D01*
Y-2306D01*
X15703Y-2299D01*
X15701Y-2289D01*
X15697Y-2278D01*
X15693Y-2266D01*
X15686Y-2254D01*
X15675Y-2243D01*
X15675Y-2242D01*
X15670Y-2239D01*
X15664Y-2234D01*
X15655Y-2229D01*
X15645Y-2224D01*
X15632Y-2219D01*
X15617Y-2216D01*
X15601Y-2215D01*
X15594D01*
X15585Y-2217D01*
X15574Y-2218D01*
X15563Y-2222D01*
X15551Y-2227D01*
X15538Y-2234D01*
X15526Y-2243D01*
X15525Y-2244D01*
X15522Y-2249D01*
X15516Y-2255D01*
X15510Y-2264D01*
X15503Y-2276D01*
X15497Y-2290D01*
X15491Y-2308D01*
X15488Y-2328D01*
X15410Y-2314D01*
Y-2313D01*
X15411Y-2310D01*
X15412Y-2307D01*
X15413Y-2301D01*
X15415Y-2295D01*
X15418Y-2288D01*
X15423Y-2270D01*
X15432Y-2250D01*
X15443Y-2230D01*
X15457Y-2211D01*
X15474Y-2194D01*
X15475Y-2193D01*
X15477Y-2192D01*
X15480Y-2190D01*
X15483Y-2188D01*
X15488Y-2184D01*
X15494Y-2180D01*
X15501Y-2177D01*
X15509Y-2172D01*
X15527Y-2165D01*
X15548Y-2157D01*
X15573Y-2153D01*
X15585Y-2151D01*
X15608D01*
X15618Y-2152D01*
D02*
G37*
G36*
X16462Y-2562D02*
X16547D01*
Y-2633D01*
X16462D01*
Y-2784D01*
X16384D01*
Y-2633D01*
X16110D01*
Y-2562D01*
X16399Y-2154D01*
X16462D01*
Y-2562D01*
D02*
G37*
G36*
X16023Y-2784D02*
X15935D01*
Y-2696D01*
X16023D01*
Y-2784D01*
D02*
G37*
G36*
X16851Y-2152D02*
X16863Y-2154D01*
X16876Y-2157D01*
X16891Y-2160D01*
X16906Y-2165D01*
X16921Y-2172D01*
X16922D01*
X16923Y-2173D01*
X16927Y-2176D01*
X16934Y-2180D01*
X16944Y-2187D01*
X16954Y-2196D01*
X16965Y-2206D01*
X16975Y-2218D01*
X16985Y-2231D01*
X16986Y-2233D01*
X16989Y-2238D01*
X16993Y-2246D01*
X16999Y-2258D01*
X17005Y-2271D01*
X17012Y-2287D01*
X17018Y-2305D01*
X17024Y-2325D01*
Y-2326D01*
X17025Y-2328D01*
X17026Y-2331D01*
X17026Y-2335D01*
X17027Y-2341D01*
X17028Y-2347D01*
X17030Y-2355D01*
X17031Y-2364D01*
X17033Y-2374D01*
X17034Y-2385D01*
X17035Y-2398D01*
X17037Y-2411D01*
X17037Y-2425D01*
Y-2440D01*
X17038Y-2456D01*
Y-2474D01*
Y-2474D01*
Y-2478D01*
Y-2484D01*
Y-2492D01*
X17037Y-2502D01*
Y-2513D01*
X17037Y-2525D01*
X17036Y-2537D01*
X17033Y-2566D01*
X17028Y-2597D01*
X17023Y-2626D01*
X17019Y-2639D01*
X17015Y-2653D01*
Y-2654D01*
X17014Y-2656D01*
X17012Y-2659D01*
X17010Y-2664D01*
X17008Y-2670D01*
X17005Y-2677D01*
X16997Y-2692D01*
X16988Y-2709D01*
X16976Y-2727D01*
X16963Y-2743D01*
X16946Y-2759D01*
X16945D01*
X16945Y-2761D01*
X16942Y-2762D01*
X16938Y-2764D01*
X16934Y-2767D01*
X16929Y-2771D01*
X16915Y-2777D01*
X16899Y-2783D01*
X16880Y-2790D01*
X16857Y-2793D01*
X16832Y-2795D01*
X16823D01*
X16817Y-2794D01*
X16810Y-2793D01*
X16801Y-2792D01*
X16791Y-2790D01*
X16780Y-2787D01*
X16769Y-2783D01*
X16757Y-2780D01*
X16745Y-2774D01*
X16733Y-2768D01*
X16721Y-2761D01*
X16709Y-2751D01*
X16699Y-2741D01*
X16689Y-2730D01*
X16688Y-2730D01*
X16686Y-2727D01*
X16683Y-2722D01*
X16679Y-2715D01*
X16674Y-2707D01*
X16669Y-2696D01*
X16663Y-2683D01*
X16658Y-2669D01*
X16652Y-2652D01*
X16647Y-2633D01*
X16641Y-2612D01*
X16637Y-2588D01*
X16632Y-2563D01*
X16629Y-2536D01*
X16627Y-2505D01*
X16627Y-2474D01*
Y-2473D01*
Y-2469D01*
Y-2463D01*
Y-2455D01*
X16627Y-2445D01*
Y-2434D01*
X16628Y-2423D01*
X16629Y-2409D01*
X16632Y-2381D01*
X16637Y-2351D01*
X16642Y-2321D01*
X16646Y-2307D01*
X16649Y-2293D01*
Y-2292D01*
X16650Y-2290D01*
X16652Y-2287D01*
X16654Y-2282D01*
X16656Y-2276D01*
X16659Y-2270D01*
X16667Y-2254D01*
X16676Y-2238D01*
X16688Y-2220D01*
X16701Y-2203D01*
X16718Y-2188D01*
X16719D01*
X16719Y-2187D01*
X16722Y-2185D01*
X16726Y-2183D01*
X16730Y-2179D01*
X16736Y-2177D01*
X16750Y-2169D01*
X16766Y-2163D01*
X16785Y-2157D01*
X16808Y-2153D01*
X16832Y-2151D01*
X16841D01*
X16851Y-2152D01*
D02*
G37*
G36*
X4760Y2845D02*
X4714Y2792D01*
X4715Y2790D01*
X4718Y2786D01*
X4723Y2780D01*
X4728Y2771D01*
X4735Y2761D01*
X4741Y2748D01*
X4748Y2734D01*
X4754Y2719D01*
X4755Y2717D01*
X4757Y2711D01*
X4758Y2703D01*
X4762Y2692D01*
X4765Y2679D01*
X4767Y2664D01*
X4768Y2649D01*
X4769Y2631D01*
Y2630D01*
Y2627D01*
Y2621D01*
X4768Y2614D01*
X4768Y2606D01*
X4766Y2595D01*
X4764Y2584D01*
X4761Y2571D01*
X4757Y2558D01*
X4753Y2545D01*
X4747Y2530D01*
X4740Y2516D01*
X4733Y2502D01*
X4724Y2487D01*
X4713Y2474D01*
X4701Y2461D01*
X4700Y2460D01*
X4698Y2458D01*
X4694Y2455D01*
X4689Y2450D01*
X4682Y2445D01*
X4675Y2440D01*
X4665Y2434D01*
X4655Y2427D01*
X4643Y2421D01*
X4630Y2414D01*
X4616Y2409D01*
X4601Y2404D01*
X4585Y2400D01*
X4568Y2396D01*
X4551Y2394D01*
X4532Y2393D01*
X4524D01*
X4519Y2394D01*
X4512D01*
X4505Y2395D01*
X4497Y2396D01*
X4488Y2398D01*
X4467Y2403D01*
X4445Y2408D01*
X4422Y2417D01*
X4399Y2429D01*
X4350Y2373D01*
X4303Y2413D01*
X4353Y2470D01*
X4352Y2472D01*
X4348Y2475D01*
X4344Y2482D01*
X4338Y2491D01*
X4331Y2502D01*
X4325Y2515D01*
X4318Y2529D01*
X4312Y2545D01*
Y2546D01*
X4311Y2547D01*
X4310Y2552D01*
X4307Y2561D01*
X4305Y2572D01*
X4302Y2586D01*
X4300Y2601D01*
X4298Y2617D01*
X4297Y2634D01*
Y2635D01*
Y2639D01*
X4298Y2644D01*
Y2651D01*
X4299Y2659D01*
X4301Y2670D01*
X4303Y2681D01*
X4306Y2694D01*
X4309Y2707D01*
X4314Y2721D01*
X4318Y2735D01*
X4325Y2749D01*
X4333Y2763D01*
X4341Y2777D01*
X4351Y2791D01*
X4363Y2803D01*
X4364Y2804D01*
X4366Y2806D01*
X4370Y2810D01*
X4375Y2814D01*
X4381Y2819D01*
X4389Y2824D01*
X4399Y2831D01*
X4410Y2837D01*
X4420Y2844D01*
X4434Y2850D01*
X4448Y2855D01*
X4462Y2860D01*
X4479Y2864D01*
X4496Y2868D01*
X4513Y2870D01*
X4532Y2871D01*
X4540D01*
X4545Y2870D01*
X4553D01*
X4560Y2869D01*
X4569Y2867D01*
X4578Y2866D01*
X4600Y2862D01*
X4622Y2854D01*
X4645Y2844D01*
X4656Y2839D01*
X4667Y2832D01*
X4713Y2884D01*
X4760Y2845D01*
D02*
G37*
G36*
X7646Y2870D02*
X7658Y2868D01*
X7672Y2865D01*
X7685Y2862D01*
X7700Y2857D01*
X7714Y2850D01*
X7716Y2849D01*
X7719Y2846D01*
X7726Y2842D01*
X7734Y2835D01*
X7742Y2826D01*
X7751Y2816D01*
X7759Y2804D01*
X7767Y2790D01*
X7767Y2789D01*
X7768Y2784D01*
X7770Y2777D01*
X7773Y2767D01*
X7776Y2754D01*
X7777Y2738D01*
X7778Y2718D01*
X7779Y2695D01*
Y2403D01*
X7658D01*
Y2664D01*
Y2665D01*
Y2667D01*
Y2670D01*
Y2675D01*
X7657Y2687D01*
X7656Y2700D01*
X7655Y2715D01*
X7653Y2730D01*
X7650Y2742D01*
X7647Y2747D01*
X7645Y2751D01*
X7644Y2752D01*
X7642Y2756D01*
X7638Y2760D01*
X7633Y2765D01*
X7625Y2770D01*
X7616Y2774D01*
X7605Y2777D01*
X7593Y2778D01*
X7589D01*
X7584Y2777D01*
X7578Y2776D01*
X7571Y2774D01*
X7562Y2772D01*
X7553Y2768D01*
X7545Y2762D01*
X7544Y2762D01*
X7542Y2760D01*
X7538Y2756D01*
X7533Y2751D01*
X7528Y2744D01*
X7522Y2737D01*
X7518Y2728D01*
X7513Y2717D01*
Y2715D01*
X7511Y2711D01*
X7511Y2704D01*
X7509Y2694D01*
X7507Y2680D01*
X7506Y2664D01*
X7504Y2645D01*
Y2622D01*
Y2403D01*
X7383D01*
Y2653D01*
Y2654D01*
Y2656D01*
Y2659D01*
Y2664D01*
Y2675D01*
X7382Y2689D01*
X7381Y2703D01*
X7380Y2717D01*
X7378Y2730D01*
X7377Y2735D01*
X7376Y2739D01*
Y2740D01*
X7375Y2742D01*
X7373Y2746D01*
X7371Y2750D01*
X7365Y2760D01*
X7360Y2764D01*
X7356Y2768D01*
X7355Y2769D01*
X7353Y2770D01*
X7350Y2772D01*
X7347Y2773D01*
X7341Y2775D01*
X7335Y2776D01*
X7327Y2778D01*
X7315D01*
X7309Y2777D01*
X7303Y2776D01*
X7295Y2774D01*
X7286Y2772D01*
X7278Y2768D01*
X7269Y2762D01*
X7268Y2762D01*
X7265Y2760D01*
X7262Y2756D01*
X7257Y2751D01*
X7252Y2745D01*
X7246Y2738D01*
X7242Y2729D01*
X7237Y2719D01*
Y2718D01*
X7235Y2713D01*
X7235Y2706D01*
X7233Y2697D01*
X7231Y2683D01*
X7230Y2668D01*
X7228Y2648D01*
Y2625D01*
Y2403D01*
X7107D01*
Y2861D01*
X7218D01*
Y2798D01*
X7219Y2799D01*
X7221Y2801D01*
X7224Y2804D01*
X7229Y2810D01*
X7235Y2815D01*
X7241Y2821D01*
X7249Y2828D01*
X7258Y2834D01*
X7268Y2841D01*
X7279Y2848D01*
X7303Y2860D01*
X7316Y2864D01*
X7330Y2868D01*
X7345Y2870D01*
X7360Y2871D01*
X7368D01*
X7376Y2870D01*
X7386Y2869D01*
X7398Y2866D01*
X7410Y2864D01*
X7423Y2859D01*
X7436Y2853D01*
X7438Y2852D01*
X7441Y2849D01*
X7448Y2845D01*
X7455Y2839D01*
X7463Y2831D01*
X7472Y2822D01*
X7481Y2810D01*
X7490Y2797D01*
X7491Y2799D01*
X7495Y2803D01*
X7501Y2810D01*
X7509Y2818D01*
X7519Y2827D01*
X7530Y2836D01*
X7542Y2845D01*
X7554Y2853D01*
X7556Y2854D01*
X7561Y2855D01*
X7568Y2858D01*
X7577Y2862D01*
X7588Y2865D01*
X7601Y2868D01*
X7614Y2870D01*
X7629Y2871D01*
X7637D01*
X7646Y2870D01*
D02*
G37*
G36*
X6863D02*
X6875Y2868D01*
X6888Y2865D01*
X6902Y2862D01*
X6917Y2857D01*
X6930Y2850D01*
X6932Y2849D01*
X6936Y2846D01*
X6942Y2842D01*
X6950Y2835D01*
X6958Y2826D01*
X6968Y2816D01*
X6976Y2804D01*
X6983Y2790D01*
X6984Y2789D01*
X6985Y2784D01*
X6987Y2777D01*
X6989Y2767D01*
X6992Y2754D01*
X6994Y2738D01*
X6995Y2718D01*
X6996Y2695D01*
Y2403D01*
X6875D01*
Y2664D01*
Y2665D01*
Y2667D01*
Y2670D01*
Y2675D01*
X6874Y2687D01*
X6873Y2700D01*
X6872Y2715D01*
X6869Y2730D01*
X6866Y2742D01*
X6864Y2747D01*
X6862Y2751D01*
X6861Y2752D01*
X6858Y2756D01*
X6855Y2760D01*
X6849Y2765D01*
X6842Y2770D01*
X6833Y2774D01*
X6822Y2777D01*
X6810Y2778D01*
X6805D01*
X6801Y2777D01*
X6794Y2776D01*
X6787Y2774D01*
X6779Y2772D01*
X6770Y2768D01*
X6762Y2762D01*
X6761Y2762D01*
X6758Y2760D01*
X6754Y2756D01*
X6750Y2751D01*
X6744Y2744D01*
X6739Y2737D01*
X6734Y2728D01*
X6730Y2717D01*
Y2715D01*
X6728Y2711D01*
X6727Y2704D01*
X6725Y2694D01*
X6723Y2680D01*
X6723Y2664D01*
X6721Y2645D01*
Y2622D01*
Y2403D01*
X6600D01*
Y2653D01*
Y2654D01*
Y2656D01*
Y2659D01*
Y2664D01*
Y2675D01*
X6599Y2689D01*
X6598Y2703D01*
X6597Y2717D01*
X6595Y2730D01*
X6593Y2735D01*
X6592Y2739D01*
Y2740D01*
X6591Y2742D01*
X6590Y2746D01*
X6588Y2750D01*
X6581Y2760D01*
X6577Y2764D01*
X6572Y2768D01*
X6571Y2769D01*
X6569Y2770D01*
X6567Y2772D01*
X6563Y2773D01*
X6558Y2775D01*
X6551Y2776D01*
X6544Y2778D01*
X6531D01*
X6526Y2777D01*
X6519Y2776D01*
X6511Y2774D01*
X6503Y2772D01*
X6495Y2768D01*
X6486Y2762D01*
X6485Y2762D01*
X6482Y2760D01*
X6478Y2756D01*
X6474Y2751D01*
X6468Y2745D01*
X6463Y2738D01*
X6458Y2729D01*
X6454Y2719D01*
Y2718D01*
X6452Y2713D01*
X6451Y2706D01*
X6449Y2697D01*
X6447Y2683D01*
X6446Y2668D01*
X6445Y2648D01*
Y2625D01*
Y2403D01*
X6324D01*
Y2861D01*
X6435D01*
Y2798D01*
X6436Y2799D01*
X6437Y2801D01*
X6441Y2804D01*
X6446Y2810D01*
X6451Y2815D01*
X6457Y2821D01*
X6466Y2828D01*
X6475Y2834D01*
X6485Y2841D01*
X6496Y2848D01*
X6519Y2860D01*
X6533Y2864D01*
X6547Y2868D01*
X6561Y2870D01*
X6577Y2871D01*
X6584D01*
X6592Y2870D01*
X6602Y2869D01*
X6614Y2866D01*
X6627Y2864D01*
X6640Y2859D01*
X6652Y2853D01*
X6654Y2852D01*
X6658Y2849D01*
X6664Y2845D01*
X6672Y2839D01*
X6680Y2831D01*
X6689Y2822D01*
X6698Y2810D01*
X6706Y2797D01*
X6708Y2799D01*
X6712Y2803D01*
X6717Y2810D01*
X6725Y2818D01*
X6735Y2827D01*
X6746Y2836D01*
X6758Y2845D01*
X6771Y2853D01*
X6773Y2854D01*
X6777Y2855D01*
X6784Y2858D01*
X6794Y2862D01*
X6805Y2865D01*
X6817Y2868D01*
X6831Y2870D01*
X6846Y2871D01*
X6854D01*
X6863Y2870D01*
D02*
G37*
G36*
X5294Y3037D02*
X5302Y3036D01*
X5310Y3035D01*
X5321Y3033D01*
X5331Y3030D01*
X5353Y3024D01*
X5365Y3019D01*
X5378Y3013D01*
X5390Y3007D01*
X5401Y2999D01*
X5413Y2990D01*
X5423Y2980D01*
X5423Y2979D01*
X5424Y2978D01*
X5427Y2976D01*
X5430Y2972D01*
X5437Y2963D01*
X5445Y2950D01*
X5454Y2935D01*
X5460Y2916D01*
X5465Y2896D01*
X5466Y2886D01*
X5467Y2875D01*
Y2874D01*
Y2872D01*
X5466Y2867D01*
X5465Y2862D01*
X5464Y2854D01*
X5463Y2846D01*
X5460Y2837D01*
X5456Y2827D01*
X5451Y2817D01*
X5445Y2806D01*
X5438Y2795D01*
X5429Y2784D01*
X5418Y2773D01*
X5406Y2762D01*
X5392Y2752D01*
X5376Y2742D01*
X5377D01*
X5379Y2741D01*
X5382D01*
X5385Y2740D01*
X5395Y2737D01*
X5407Y2731D01*
X5421Y2724D01*
X5435Y2715D01*
X5450Y2703D01*
X5463Y2690D01*
X5464Y2688D01*
X5468Y2682D01*
X5473Y2674D01*
X5479Y2662D01*
X5485Y2649D01*
X5490Y2631D01*
X5494Y2613D01*
X5495Y2592D01*
Y2591D01*
Y2588D01*
Y2584D01*
X5494Y2578D01*
X5494Y2571D01*
X5492Y2563D01*
X5490Y2553D01*
X5488Y2543D01*
X5481Y2521D01*
X5475Y2509D01*
X5470Y2496D01*
X5463Y2485D01*
X5454Y2473D01*
X5445Y2461D01*
X5434Y2450D01*
X5433Y2449D01*
X5432Y2447D01*
X5428Y2444D01*
X5423Y2441D01*
X5417Y2436D01*
X5411Y2432D01*
X5402Y2426D01*
X5392Y2421D01*
X5382Y2415D01*
X5371Y2410D01*
X5358Y2405D01*
X5345Y2401D01*
X5331Y2397D01*
X5316Y2394D01*
X5300Y2393D01*
X5283Y2392D01*
X5275D01*
X5269Y2393D01*
X5261Y2393D01*
X5253Y2394D01*
X5244Y2396D01*
X5233Y2398D01*
X5211Y2403D01*
X5187Y2413D01*
X5175Y2418D01*
X5164Y2424D01*
X5152Y2433D01*
X5141Y2441D01*
X5140Y2442D01*
X5138Y2444D01*
X5136Y2446D01*
X5132Y2450D01*
X5127Y2455D01*
X5123Y2461D01*
X5117Y2467D01*
X5112Y2475D01*
X5106Y2485D01*
X5100Y2494D01*
X5090Y2516D01*
X5082Y2541D01*
X5078Y2555D01*
X5076Y2569D01*
X5193Y2584D01*
Y2583D01*
Y2582D01*
X5194Y2577D01*
X5196Y2568D01*
X5198Y2558D01*
X5203Y2547D01*
X5208Y2536D01*
X5215Y2525D01*
X5223Y2515D01*
X5224Y2514D01*
X5228Y2511D01*
X5233Y2507D01*
X5239Y2504D01*
X5249Y2499D01*
X5259Y2495D01*
X5269Y2493D01*
X5282Y2492D01*
X5284D01*
X5289Y2493D01*
X5295Y2494D01*
X5304Y2495D01*
X5314Y2499D01*
X5324Y2504D01*
X5335Y2511D01*
X5345Y2520D01*
X5346Y2521D01*
X5350Y2526D01*
X5353Y2532D01*
X5359Y2540D01*
X5363Y2551D01*
X5368Y2565D01*
X5371Y2580D01*
X5372Y2598D01*
Y2598D01*
Y2599D01*
Y2605D01*
X5371Y2613D01*
X5369Y2624D01*
X5365Y2636D01*
X5361Y2648D01*
X5354Y2659D01*
X5346Y2670D01*
X5345Y2671D01*
X5341Y2675D01*
X5336Y2680D01*
X5330Y2684D01*
X5321Y2690D01*
X5310Y2693D01*
X5300Y2697D01*
X5287Y2698D01*
X5278D01*
X5271Y2697D01*
X5263Y2696D01*
X5253Y2694D01*
X5243Y2691D01*
X5231Y2689D01*
X5244Y2786D01*
X5252D01*
X5261Y2787D01*
X5272Y2788D01*
X5284Y2791D01*
X5297Y2794D01*
X5309Y2800D01*
X5320Y2807D01*
X5321Y2808D01*
X5324Y2812D01*
X5328Y2816D01*
X5333Y2823D01*
X5338Y2832D01*
X5342Y2842D01*
X5345Y2854D01*
X5346Y2867D01*
Y2869D01*
Y2873D01*
X5345Y2878D01*
X5343Y2885D01*
X5341Y2894D01*
X5338Y2902D01*
X5333Y2911D01*
X5327Y2918D01*
X5326Y2919D01*
X5323Y2921D01*
X5320Y2925D01*
X5313Y2928D01*
X5306Y2931D01*
X5298Y2935D01*
X5287Y2936D01*
X5276Y2937D01*
X5270D01*
X5265Y2936D01*
X5258Y2935D01*
X5249Y2932D01*
X5240Y2928D01*
X5231Y2923D01*
X5223Y2915D01*
X5222Y2915D01*
X5219Y2912D01*
X5216Y2906D01*
X5211Y2899D01*
X5207Y2891D01*
X5203Y2880D01*
X5199Y2867D01*
X5197Y2853D01*
X5085Y2871D01*
Y2872D01*
X5086Y2874D01*
Y2876D01*
X5087Y2881D01*
X5090Y2891D01*
X5094Y2905D01*
X5099Y2919D01*
X5105Y2935D01*
X5112Y2949D01*
X5120Y2963D01*
X5121Y2965D01*
X5125Y2968D01*
X5130Y2975D01*
X5137Y2983D01*
X5146Y2991D01*
X5157Y3000D01*
X5171Y3009D01*
X5186Y3018D01*
X5187D01*
X5187Y3018D01*
X5193Y3020D01*
X5202Y3024D01*
X5213Y3028D01*
X5227Y3031D01*
X5243Y3035D01*
X5260Y3037D01*
X5279Y3038D01*
X5288D01*
X5294Y3037D01*
D02*
G37*
G36*
X6039D02*
X6047Y3036D01*
X6057Y3035D01*
X6067Y3033D01*
X6078Y3031D01*
X6101Y3025D01*
X6125Y3016D01*
X6138Y3010D01*
X6149Y3004D01*
X6160Y2996D01*
X6170Y2987D01*
X6171Y2986D01*
X6173Y2985D01*
X6175Y2981D01*
X6179Y2977D01*
X6183Y2973D01*
X6188Y2966D01*
X6192Y2960D01*
X6198Y2952D01*
X6207Y2934D01*
X6216Y2913D01*
X6220Y2901D01*
X6221Y2888D01*
X6223Y2874D01*
X6224Y2861D01*
Y2859D01*
Y2854D01*
X6223Y2845D01*
X6222Y2835D01*
X6221Y2823D01*
X6218Y2809D01*
X6214Y2794D01*
X6209Y2780D01*
X6208Y2778D01*
X6206Y2773D01*
X6202Y2765D01*
X6197Y2755D01*
X6191Y2743D01*
X6182Y2730D01*
X6172Y2715D01*
X6160Y2700D01*
X6160Y2699D01*
X6156Y2694D01*
X6150Y2688D01*
X6142Y2679D01*
X6131Y2668D01*
X6118Y2653D01*
X6101Y2638D01*
X6081Y2618D01*
X6080Y2618D01*
X6078Y2617D01*
X6076Y2614D01*
X6072Y2610D01*
X6062Y2601D01*
X6050Y2590D01*
X6038Y2578D01*
X6027Y2567D01*
X6016Y2557D01*
X6012Y2552D01*
X6008Y2548D01*
X6007Y2547D01*
X6006Y2546D01*
X6003Y2542D01*
X5999Y2537D01*
X5991Y2527D01*
X5984Y2516D01*
X6224D01*
Y2403D01*
X5801D01*
Y2404D01*
Y2406D01*
X5802Y2410D01*
X5802Y2414D01*
X5803Y2420D01*
X5804Y2426D01*
X5808Y2443D01*
X5813Y2461D01*
X5821Y2481D01*
X5830Y2503D01*
X5842Y2524D01*
Y2525D01*
X5843Y2526D01*
X5845Y2530D01*
X5849Y2534D01*
X5853Y2540D01*
X5858Y2547D01*
X5864Y2555D01*
X5872Y2564D01*
X5880Y2575D01*
X5890Y2586D01*
X5901Y2598D01*
X5914Y2612D01*
X5927Y2626D01*
X5943Y2641D01*
X5959Y2658D01*
X5977Y2675D01*
X5978Y2676D01*
X5981Y2679D01*
X5985Y2682D01*
X5990Y2688D01*
X5997Y2693D01*
X6005Y2700D01*
X6021Y2717D01*
X6037Y2734D01*
X6054Y2751D01*
X6061Y2759D01*
X6068Y2767D01*
X6074Y2773D01*
X6078Y2779D01*
X6078Y2781D01*
X6081Y2785D01*
X6086Y2792D01*
X6090Y2803D01*
X6095Y2813D01*
X6099Y2826D01*
X6102Y2839D01*
X6103Y2853D01*
Y2854D01*
Y2854D01*
Y2859D01*
X6102Y2867D01*
X6100Y2876D01*
X6098Y2886D01*
X6094Y2896D01*
X6088Y2906D01*
X6081Y2915D01*
X6080Y2916D01*
X6078Y2919D01*
X6072Y2923D01*
X6066Y2926D01*
X6057Y2930D01*
X6047Y2934D01*
X6035Y2936D01*
X6021Y2937D01*
X6015D01*
X6007Y2936D01*
X5999Y2935D01*
X5989Y2932D01*
X5979Y2927D01*
X5969Y2922D01*
X5960Y2915D01*
X5959Y2914D01*
X5956Y2910D01*
X5953Y2905D01*
X5949Y2896D01*
X5945Y2886D01*
X5941Y2873D01*
X5937Y2857D01*
X5935Y2839D01*
X5815Y2851D01*
Y2852D01*
X5816Y2855D01*
Y2860D01*
X5818Y2867D01*
X5819Y2875D01*
X5822Y2884D01*
X5824Y2895D01*
X5827Y2906D01*
X5836Y2929D01*
X5847Y2953D01*
X5854Y2965D01*
X5863Y2976D01*
X5872Y2985D01*
X5882Y2994D01*
X5883Y2995D01*
X5884Y2996D01*
X5887Y2997D01*
X5892Y3001D01*
X5897Y3004D01*
X5904Y3007D01*
X5912Y3012D01*
X5921Y3016D01*
X5931Y3020D01*
X5942Y3024D01*
X5965Y3031D01*
X5994Y3036D01*
X6008Y3037D01*
X6024Y3038D01*
X6033D01*
X6039Y3037D01*
D02*
G37*
G36*
X5718Y2403D02*
X5597D01*
Y2525D01*
X5718D01*
Y2403D01*
D02*
G37*
G36*
X12443Y19618D02*
X12397Y19565D01*
X12398Y19563D01*
X12401Y19559D01*
X12406Y19553D01*
X12411Y19544D01*
X12418Y19534D01*
X12424Y19521D01*
X12431Y19507D01*
X12437Y19492D01*
X12438Y19490D01*
X12439Y19485D01*
X12441Y19476D01*
X12445Y19465D01*
X12448Y19452D01*
X12449Y19437D01*
X12451Y19422D01*
X12452Y19404D01*
Y19403D01*
Y19400D01*
Y19394D01*
X12451Y19387D01*
X12450Y19379D01*
X12449Y19368D01*
X12447Y19357D01*
X12444Y19344D01*
X12440Y19332D01*
X12436Y19318D01*
X12430Y19303D01*
X12423Y19289D01*
X12416Y19275D01*
X12407Y19260D01*
X12396Y19247D01*
X12384Y19234D01*
X12383Y19233D01*
X12381Y19231D01*
X12377Y19228D01*
X12372Y19223D01*
X12365Y19219D01*
X12357Y19213D01*
X12348Y19207D01*
X12337Y19200D01*
X12326Y19194D01*
X12313Y19188D01*
X12299Y19182D01*
X12284Y19178D01*
X12268Y19173D01*
X12251Y19169D01*
X12234Y19168D01*
X12214Y19167D01*
X12207D01*
X12202Y19168D01*
X12195D01*
X12188Y19168D01*
X12180Y19169D01*
X12171Y19171D01*
X12150Y19176D01*
X12128Y19181D01*
X12105Y19190D01*
X12082Y19202D01*
X12033Y19146D01*
X11986Y19186D01*
X12036Y19243D01*
X12035Y19245D01*
X12031Y19249D01*
X12027Y19255D01*
X12021Y19264D01*
X12014Y19275D01*
X12008Y19288D01*
X12001Y19302D01*
X11995Y19318D01*
Y19319D01*
X11994Y19320D01*
X11993Y19325D01*
X11990Y19334D01*
X11988Y19345D01*
X11985Y19359D01*
X11983Y19374D01*
X11981Y19390D01*
X11980Y19407D01*
Y19408D01*
Y19412D01*
X11981Y19417D01*
Y19424D01*
X11982Y19433D01*
X11984Y19444D01*
X11986Y19454D01*
X11988Y19467D01*
X11992Y19480D01*
X11997Y19494D01*
X12001Y19508D01*
X12008Y19522D01*
X12016Y19536D01*
X12024Y19550D01*
X12034Y19564D01*
X12046Y19577D01*
X12047Y19577D01*
X12049Y19579D01*
X12053Y19583D01*
X12058Y19587D01*
X12064Y19592D01*
X12072Y19598D01*
X12081Y19604D01*
X12092Y19610D01*
X12103Y19617D01*
X12117Y19623D01*
X12131Y19628D01*
X12145Y19633D01*
X12162Y19638D01*
X12179Y19641D01*
X12196Y19643D01*
X12215Y19644D01*
X12223D01*
X12228Y19643D01*
X12235D01*
X12243Y19642D01*
X12252Y19640D01*
X12261Y19639D01*
X12283Y19635D01*
X12305Y19628D01*
X12328Y19618D01*
X12339Y19612D01*
X12350Y19605D01*
X12396Y19658D01*
X12443Y19618D01*
D02*
G37*
G36*
X15329Y19643D02*
X15341Y19641D01*
X15355Y19639D01*
X15368Y19635D01*
X15383Y19630D01*
X15397Y19623D01*
X15398Y19622D01*
X15402Y19619D01*
X15408Y19615D01*
X15417Y19608D01*
X15425Y19599D01*
X15434Y19589D01*
X15442Y19577D01*
X15449Y19563D01*
X15450Y19562D01*
X15451Y19557D01*
X15453Y19550D01*
X15456Y19540D01*
X15458Y19527D01*
X15460Y19511D01*
X15461Y19491D01*
X15462Y19468D01*
Y19177D01*
X15341D01*
Y19437D01*
Y19438D01*
Y19440D01*
Y19444D01*
Y19448D01*
X15340Y19460D01*
X15339Y19474D01*
X15338Y19488D01*
X15336Y19503D01*
X15333Y19516D01*
X15330Y19520D01*
X15328Y19525D01*
X15327Y19526D01*
X15325Y19529D01*
X15321Y19533D01*
X15315Y19538D01*
X15308Y19543D01*
X15299Y19547D01*
X15288Y19550D01*
X15276Y19551D01*
X15272D01*
X15267Y19550D01*
X15261Y19549D01*
X15254Y19547D01*
X15245Y19545D01*
X15236Y19541D01*
X15228Y19536D01*
X15227Y19535D01*
X15224Y19533D01*
X15221Y19529D01*
X15216Y19524D01*
X15211Y19517D01*
X15205Y19510D01*
X15201Y19501D01*
X15196Y19490D01*
Y19488D01*
X15194Y19485D01*
X15193Y19477D01*
X15192Y19467D01*
X15190Y19454D01*
X15189Y19437D01*
X15187Y19418D01*
Y19395D01*
Y19177D01*
X15066D01*
Y19426D01*
Y19427D01*
Y19429D01*
Y19433D01*
Y19437D01*
Y19448D01*
X15065Y19462D01*
X15064Y19476D01*
X15063Y19490D01*
X15061Y19503D01*
X15059Y19508D01*
X15059Y19512D01*
Y19513D01*
X15058Y19516D01*
X15056Y19519D01*
X15054Y19523D01*
X15048Y19533D01*
X15043Y19537D01*
X15039Y19541D01*
X15038Y19542D01*
X15036Y19543D01*
X15033Y19545D01*
X15029Y19547D01*
X15024Y19548D01*
X15018Y19549D01*
X15010Y19551D01*
X14998D01*
X14992Y19550D01*
X14986Y19549D01*
X14977Y19547D01*
X14969Y19545D01*
X14961Y19541D01*
X14952Y19536D01*
X14951Y19535D01*
X14948Y19533D01*
X14945Y19529D01*
X14940Y19525D01*
X14935Y19518D01*
X14929Y19511D01*
X14925Y19502D01*
X14920Y19492D01*
Y19491D01*
X14918Y19486D01*
X14917Y19479D01*
X14916Y19470D01*
X14914Y19456D01*
X14913Y19441D01*
X14911Y19421D01*
Y19398D01*
Y19177D01*
X14790D01*
Y19634D01*
X14901D01*
Y19571D01*
X14902Y19572D01*
X14904Y19574D01*
X14907Y19577D01*
X14912Y19583D01*
X14917Y19588D01*
X14924Y19594D01*
X14932Y19601D01*
X14941Y19608D01*
X14951Y19614D01*
X14962Y19621D01*
X14986Y19633D01*
X14999Y19638D01*
X15013Y19641D01*
X15028Y19643D01*
X15043Y19644D01*
X15050D01*
X15059Y19643D01*
X15069Y19642D01*
X15080Y19639D01*
X15093Y19637D01*
X15106Y19632D01*
X15119Y19626D01*
X15121Y19625D01*
X15124Y19622D01*
X15131Y19618D01*
X15138Y19612D01*
X15146Y19604D01*
X15155Y19595D01*
X15164Y19583D01*
X15172Y19570D01*
X15174Y19572D01*
X15178Y19577D01*
X15183Y19583D01*
X15192Y19591D01*
X15202Y19600D01*
X15213Y19609D01*
X15224Y19618D01*
X15237Y19626D01*
X15239Y19627D01*
X15243Y19628D01*
X15251Y19631D01*
X15260Y19635D01*
X15271Y19639D01*
X15284Y19641D01*
X15297Y19643D01*
X15312Y19644D01*
X15320D01*
X15329Y19643D01*
D02*
G37*
G36*
X14546D02*
X14558Y19641D01*
X14571Y19639D01*
X14585Y19635D01*
X14599Y19630D01*
X14613Y19623D01*
X14615Y19622D01*
X14619Y19619D01*
X14625Y19615D01*
X14633Y19608D01*
X14641Y19599D01*
X14650Y19589D01*
X14659Y19577D01*
X14666Y19563D01*
X14667Y19562D01*
X14668Y19557D01*
X14670Y19550D01*
X14672Y19540D01*
X14675Y19527D01*
X14677Y19511D01*
X14678Y19491D01*
X14679Y19468D01*
Y19177D01*
X14558D01*
Y19437D01*
Y19438D01*
Y19440D01*
Y19444D01*
Y19448D01*
X14557Y19460D01*
X14556Y19474D01*
X14555Y19488D01*
X14552Y19503D01*
X14549Y19516D01*
X14547Y19520D01*
X14545Y19525D01*
X14544Y19526D01*
X14541Y19529D01*
X14537Y19533D01*
X14532Y19538D01*
X14525Y19543D01*
X14516Y19547D01*
X14505Y19550D01*
X14493Y19551D01*
X14488D01*
X14484Y19550D01*
X14477Y19549D01*
X14470Y19547D01*
X14462Y19545D01*
X14453Y19541D01*
X14445Y19536D01*
X14444Y19535D01*
X14441Y19533D01*
X14437Y19529D01*
X14433Y19524D01*
X14427Y19517D01*
X14422Y19510D01*
X14417Y19501D01*
X14413Y19490D01*
Y19488D01*
X14411Y19485D01*
X14410Y19477D01*
X14408Y19467D01*
X14406Y19454D01*
X14405Y19437D01*
X14404Y19418D01*
Y19395D01*
Y19177D01*
X14282D01*
Y19426D01*
Y19427D01*
Y19429D01*
Y19433D01*
Y19437D01*
Y19448D01*
X14281Y19462D01*
X14281Y19476D01*
X14280Y19490D01*
X14278Y19503D01*
X14276Y19508D01*
X14275Y19512D01*
Y19513D01*
X14274Y19516D01*
X14272Y19519D01*
X14271Y19523D01*
X14264Y19533D01*
X14260Y19537D01*
X14255Y19541D01*
X14254Y19542D01*
X14252Y19543D01*
X14250Y19545D01*
X14246Y19547D01*
X14240Y19548D01*
X14234Y19549D01*
X14227Y19551D01*
X14214D01*
X14209Y19550D01*
X14202Y19549D01*
X14194Y19547D01*
X14186Y19545D01*
X14178Y19541D01*
X14169Y19536D01*
X14168Y19535D01*
X14165Y19533D01*
X14161Y19529D01*
X14157Y19525D01*
X14151Y19518D01*
X14146Y19511D01*
X14141Y19502D01*
X14137Y19492D01*
Y19491D01*
X14135Y19486D01*
X14134Y19479D01*
X14132Y19470D01*
X14130Y19456D01*
X14129Y19441D01*
X14128Y19421D01*
Y19398D01*
Y19177D01*
X14006D01*
Y19634D01*
X14117D01*
Y19571D01*
X14118Y19572D01*
X14120Y19574D01*
X14124Y19577D01*
X14128Y19583D01*
X14134Y19588D01*
X14140Y19594D01*
X14148Y19601D01*
X14158Y19608D01*
X14168Y19614D01*
X14179Y19621D01*
X14202Y19633D01*
X14216Y19638D01*
X14230Y19641D01*
X14244Y19643D01*
X14260Y19644D01*
X14267D01*
X14275Y19643D01*
X14285Y19642D01*
X14297Y19639D01*
X14310Y19637D01*
X14322Y19632D01*
X14335Y19626D01*
X14337Y19625D01*
X14341Y19622D01*
X14347Y19618D01*
X14354Y19612D01*
X14363Y19604D01*
X14372Y19595D01*
X14381Y19583D01*
X14389Y19570D01*
X14391Y19572D01*
X14394Y19577D01*
X14400Y19583D01*
X14408Y19591D01*
X14418Y19600D01*
X14429Y19609D01*
X14441Y19618D01*
X14454Y19626D01*
X14455Y19627D01*
X14460Y19628D01*
X14467Y19631D01*
X14476Y19635D01*
X14487Y19639D01*
X14500Y19641D01*
X14514Y19643D01*
X14528Y19644D01*
X14537D01*
X14546Y19643D01*
D02*
G37*
G36*
X12977Y19810D02*
X12985Y19809D01*
X12993Y19808D01*
X13003Y19806D01*
X13013Y19803D01*
X13036Y19797D01*
X13048Y19792D01*
X13061Y19786D01*
X13073Y19780D01*
X13084Y19772D01*
X13095Y19763D01*
X13105Y19753D01*
X13106Y19752D01*
X13107Y19751D01*
X13110Y19749D01*
X13113Y19745D01*
X13120Y19736D01*
X13128Y19723D01*
X13136Y19708D01*
X13143Y19690D01*
X13148Y19669D01*
X13149Y19659D01*
X13150Y19649D01*
Y19648D01*
Y19645D01*
X13149Y19640D01*
X13148Y19635D01*
X13147Y19628D01*
X13145Y19619D01*
X13143Y19610D01*
X13139Y19600D01*
X13134Y19590D01*
X13128Y19579D01*
X13121Y19568D01*
X13112Y19557D01*
X13101Y19547D01*
X13089Y19536D01*
X13075Y19526D01*
X13059Y19516D01*
X13060D01*
X13062Y19515D01*
X13064D01*
X13068Y19513D01*
X13078Y19510D01*
X13090Y19505D01*
X13104Y19497D01*
X13118Y19488D01*
X13133Y19476D01*
X13145Y19463D01*
X13147Y19461D01*
X13151Y19455D01*
X13155Y19447D01*
X13162Y19435D01*
X13168Y19422D01*
X13173Y19404D01*
X13176Y19386D01*
X13178Y19365D01*
Y19364D01*
Y19362D01*
Y19357D01*
X13177Y19352D01*
X13176Y19344D01*
X13175Y19336D01*
X13173Y19326D01*
X13171Y19316D01*
X13164Y19294D01*
X13158Y19282D01*
X13153Y19270D01*
X13145Y19258D01*
X13137Y19246D01*
X13128Y19234D01*
X13117Y19223D01*
X13116Y19222D01*
X13114Y19220D01*
X13111Y19218D01*
X13106Y19214D01*
X13100Y19209D01*
X13094Y19205D01*
X13084Y19199D01*
X13075Y19194D01*
X13065Y19188D01*
X13053Y19183D01*
X13041Y19178D01*
X13028Y19174D01*
X13013Y19170D01*
X12999Y19168D01*
X12982Y19166D01*
X12966Y19165D01*
X12958D01*
X12951Y19166D01*
X12944Y19167D01*
X12936Y19168D01*
X12927Y19169D01*
X12916Y19171D01*
X12894Y19177D01*
X12870Y19186D01*
X12858Y19191D01*
X12847Y19198D01*
X12835Y19206D01*
X12824Y19214D01*
X12823Y19215D01*
X12821Y19217D01*
X12818Y19219D01*
X12815Y19223D01*
X12810Y19228D01*
X12806Y19234D01*
X12800Y19240D01*
X12795Y19249D01*
X12789Y19258D01*
X12783Y19267D01*
X12773Y19289D01*
X12765Y19314D01*
X12761Y19328D01*
X12759Y19342D01*
X12876Y19357D01*
Y19356D01*
Y19355D01*
X12877Y19350D01*
X12879Y19342D01*
X12881Y19332D01*
X12886Y19321D01*
X12890Y19309D01*
X12898Y19298D01*
X12906Y19288D01*
X12907Y19287D01*
X12910Y19284D01*
X12916Y19280D01*
X12922Y19277D01*
X12931Y19272D01*
X12941Y19269D01*
X12952Y19266D01*
X12965Y19265D01*
X12967D01*
X12971Y19266D01*
X12978Y19267D01*
X12987Y19269D01*
X12997Y19272D01*
X13007Y19277D01*
X13018Y19284D01*
X13028Y19293D01*
X13029Y19294D01*
X13032Y19299D01*
X13036Y19305D01*
X13042Y19313D01*
X13046Y19324D01*
X13051Y19338D01*
X13053Y19353D01*
X13054Y19371D01*
Y19372D01*
Y19373D01*
Y19378D01*
X13053Y19386D01*
X13052Y19397D01*
X13048Y19409D01*
X13043Y19421D01*
X13037Y19433D01*
X13029Y19444D01*
X13028Y19444D01*
X13024Y19448D01*
X13019Y19453D01*
X13012Y19457D01*
X13003Y19463D01*
X12993Y19466D01*
X12982Y19470D01*
X12970Y19471D01*
X12961D01*
X12954Y19470D01*
X12946Y19469D01*
X12936Y19467D01*
X12926Y19465D01*
X12914Y19462D01*
X12927Y19559D01*
X12935D01*
X12944Y19560D01*
X12955Y19561D01*
X12967Y19564D01*
X12980Y19567D01*
X12991Y19573D01*
X13002Y19580D01*
X13003Y19581D01*
X13007Y19585D01*
X13011Y19589D01*
X13016Y19597D01*
X13021Y19605D01*
X13025Y19615D01*
X13028Y19627D01*
X13029Y19640D01*
Y19642D01*
Y19646D01*
X13028Y19651D01*
X13026Y19659D01*
X13024Y19667D01*
X13021Y19675D01*
X13016Y19684D01*
X13010Y19691D01*
X13009Y19692D01*
X13006Y19694D01*
X13002Y19698D01*
X12996Y19701D01*
X12989Y19704D01*
X12981Y19708D01*
X12970Y19710D01*
X12959Y19710D01*
X12953D01*
X12948Y19710D01*
X12940Y19708D01*
X12932Y19705D01*
X12923Y19701D01*
X12914Y19696D01*
X12906Y19689D01*
X12905Y19688D01*
X12902Y19685D01*
X12899Y19679D01*
X12894Y19672D01*
X12889Y19664D01*
X12886Y19653D01*
X12882Y19640D01*
X12879Y19626D01*
X12768Y19644D01*
Y19645D01*
X12769Y19647D01*
Y19649D01*
X12770Y19654D01*
X12773Y19664D01*
X12776Y19678D01*
X12782Y19692D01*
X12787Y19708D01*
X12795Y19722D01*
X12803Y19736D01*
X12804Y19738D01*
X12807Y19741D01*
X12813Y19748D01*
X12820Y19756D01*
X12829Y19764D01*
X12840Y19773D01*
X12854Y19782D01*
X12869Y19791D01*
X12869D01*
X12870Y19792D01*
X12876Y19793D01*
X12885Y19797D01*
X12896Y19801D01*
X12910Y19804D01*
X12926Y19808D01*
X12943Y19810D01*
X12962Y19811D01*
X12971D01*
X12977Y19810D01*
D02*
G37*
G36*
X13722D02*
X13730Y19809D01*
X13739Y19808D01*
X13749Y19806D01*
X13760Y19804D01*
X13784Y19798D01*
X13808Y19789D01*
X13821Y19783D01*
X13831Y19777D01*
X13843Y19769D01*
X13853Y19760D01*
X13854Y19759D01*
X13856Y19758D01*
X13858Y19754D01*
X13862Y19751D01*
X13866Y19746D01*
X13871Y19740D01*
X13875Y19733D01*
X13881Y19725D01*
X13890Y19707D01*
X13899Y19686D01*
X13902Y19674D01*
X13904Y19661D01*
X13906Y19648D01*
X13907Y19634D01*
Y19632D01*
Y19627D01*
X13906Y19618D01*
X13905Y19608D01*
X13903Y19596D01*
X13901Y19582D01*
X13897Y19567D01*
X13892Y19553D01*
X13891Y19551D01*
X13889Y19547D01*
X13885Y19538D01*
X13880Y19528D01*
X13873Y19516D01*
X13865Y19503D01*
X13855Y19488D01*
X13843Y19473D01*
X13842Y19472D01*
X13839Y19467D01*
X13833Y19461D01*
X13825Y19452D01*
X13814Y19441D01*
X13800Y19426D01*
X13784Y19411D01*
X13764Y19392D01*
X13763Y19391D01*
X13761Y19390D01*
X13759Y19387D01*
X13755Y19383D01*
X13745Y19374D01*
X13733Y19363D01*
X13721Y19352D01*
X13709Y19340D01*
X13698Y19330D01*
X13695Y19325D01*
X13691Y19321D01*
X13690Y19321D01*
X13688Y19319D01*
X13686Y19315D01*
X13682Y19311D01*
X13674Y19301D01*
X13667Y19289D01*
X13907D01*
Y19177D01*
X13483D01*
Y19178D01*
Y19179D01*
X13484Y19183D01*
X13485Y19188D01*
X13486Y19193D01*
X13487Y19199D01*
X13491Y19216D01*
X13496Y19234D01*
X13503Y19254D01*
X13513Y19276D01*
X13524Y19297D01*
Y19298D01*
X13526Y19300D01*
X13528Y19303D01*
X13532Y19307D01*
X13535Y19313D01*
X13541Y19320D01*
X13547Y19328D01*
X13555Y19337D01*
X13563Y19348D01*
X13573Y19359D01*
X13584Y19372D01*
X13596Y19385D01*
X13610Y19399D01*
X13626Y19414D01*
X13642Y19431D01*
X13660Y19448D01*
X13661Y19449D01*
X13664Y19452D01*
X13667Y19455D01*
X13673Y19461D01*
X13680Y19466D01*
X13687Y19474D01*
X13704Y19490D01*
X13720Y19507D01*
X13737Y19525D01*
X13744Y19532D01*
X13751Y19540D01*
X13757Y19547D01*
X13760Y19552D01*
X13761Y19554D01*
X13764Y19558D01*
X13769Y19566D01*
X13773Y19576D01*
X13778Y19587D01*
X13782Y19599D01*
X13785Y19612D01*
X13786Y19626D01*
Y19627D01*
Y19628D01*
Y19632D01*
X13785Y19640D01*
X13783Y19649D01*
X13780Y19659D01*
X13777Y19669D01*
X13771Y19679D01*
X13764Y19689D01*
X13763Y19690D01*
X13760Y19692D01*
X13755Y19696D01*
X13749Y19700D01*
X13739Y19703D01*
X13729Y19707D01*
X13718Y19710D01*
X13704Y19710D01*
X13698D01*
X13690Y19710D01*
X13682Y19708D01*
X13672Y19705D01*
X13662Y19700D01*
X13652Y19695D01*
X13643Y19688D01*
X13642Y19687D01*
X13639Y19683D01*
X13636Y19678D01*
X13632Y19669D01*
X13627Y19659D01*
X13624Y19646D01*
X13620Y19630D01*
X13618Y19612D01*
X13498Y19624D01*
Y19625D01*
X13499Y19628D01*
Y19633D01*
X13501Y19640D01*
X13502Y19649D01*
X13504Y19658D01*
X13507Y19668D01*
X13510Y19679D01*
X13519Y19702D01*
X13530Y19726D01*
X13537Y19738D01*
X13545Y19749D01*
X13555Y19758D01*
X13565Y19767D01*
X13565Y19768D01*
X13567Y19769D01*
X13570Y19771D01*
X13575Y19774D01*
X13580Y19777D01*
X13587Y19781D01*
X13595Y19785D01*
X13604Y19789D01*
X13614Y19793D01*
X13625Y19797D01*
X13648Y19804D01*
X13677Y19809D01*
X13691Y19810D01*
X13707Y19811D01*
X13716D01*
X13722Y19810D01*
D02*
G37*
G36*
X13401Y19177D02*
X13279D01*
Y19298D01*
X13401D01*
Y19177D01*
D02*
G37*
G36*
X11804Y2333D02*
X11758Y2279D01*
X11759Y2277D01*
X11763Y2273D01*
X11767Y2267D01*
X11773Y2258D01*
X11779Y2248D01*
X11785Y2235D01*
X11793Y2221D01*
X11798Y2206D01*
X11799Y2204D01*
X11801Y2199D01*
X11803Y2191D01*
X11806Y2180D01*
X11809Y2166D01*
X11811Y2151D01*
X11813Y2136D01*
X11814Y2119D01*
Y2118D01*
Y2114D01*
Y2109D01*
X11813Y2101D01*
X11812Y2093D01*
X11810Y2082D01*
X11808Y2071D01*
X11805Y2058D01*
X11802Y2046D01*
X11797Y2032D01*
X11792Y2017D01*
X11784Y2003D01*
X11777Y1989D01*
X11768Y1975D01*
X11757Y1961D01*
X11745Y1948D01*
X11744Y1947D01*
X11743Y1945D01*
X11738Y1942D01*
X11733Y1937D01*
X11726Y1933D01*
X11719Y1927D01*
X11710Y1921D01*
X11699Y1914D01*
X11687Y1908D01*
X11674Y1902D01*
X11661Y1896D01*
X11645Y1892D01*
X11630Y1887D01*
X11612Y1884D01*
X11595Y1882D01*
X11576Y1881D01*
X11569D01*
X11563Y1882D01*
X11557D01*
X11549Y1883D01*
X11541Y1884D01*
X11532Y1885D01*
X11511Y1890D01*
X11489Y1895D01*
X11466Y1904D01*
X11444Y1916D01*
X11395Y1860D01*
X11347Y1900D01*
X11397Y1957D01*
X11396Y1959D01*
X11393Y1963D01*
X11388Y1969D01*
X11383Y1978D01*
X11375Y1989D01*
X11369Y2002D01*
X11363Y2017D01*
X11356Y2032D01*
Y2033D01*
X11355Y2034D01*
X11354Y2039D01*
X11352Y2048D01*
X11349Y2059D01*
X11346Y2073D01*
X11344Y2088D01*
X11343Y2104D01*
X11342Y2121D01*
Y2122D01*
Y2126D01*
X11343Y2131D01*
Y2139D01*
X11344Y2147D01*
X11345Y2158D01*
X11347Y2169D01*
X11350Y2181D01*
X11354Y2194D01*
X11358Y2208D01*
X11363Y2222D01*
X11369Y2236D01*
X11377Y2251D01*
X11385Y2264D01*
X11395Y2278D01*
X11407Y2291D01*
X11408Y2292D01*
X11410Y2293D01*
X11415Y2297D01*
X11419Y2302D01*
X11425Y2306D01*
X11434Y2312D01*
X11443Y2318D01*
X11454Y2324D01*
X11465Y2331D01*
X11478Y2337D01*
X11492Y2343D01*
X11507Y2347D01*
X11523Y2352D01*
X11540Y2355D01*
X11558Y2357D01*
X11577Y2358D01*
X11584D01*
X11589Y2357D01*
X11597D01*
X11604Y2356D01*
X11613Y2354D01*
X11622Y2354D01*
X11644Y2349D01*
X11666Y2342D01*
X11690Y2332D01*
X11701Y2326D01*
X11712Y2319D01*
X11757Y2372D01*
X11804Y2333D01*
D02*
G37*
G36*
X14691Y2357D02*
X14702Y2355D01*
X14716Y2353D01*
X14730Y2349D01*
X14744Y2344D01*
X14758Y2337D01*
X14760Y2336D01*
X14763Y2334D01*
X14770Y2329D01*
X14778Y2323D01*
X14786Y2314D01*
X14795Y2303D01*
X14803Y2292D01*
X14811Y2277D01*
X14812Y2276D01*
X14813Y2272D01*
X14814Y2264D01*
X14817Y2254D01*
X14820Y2242D01*
X14822Y2225D01*
X14823Y2205D01*
X14824Y2182D01*
Y1891D01*
X14702D01*
Y2151D01*
Y2152D01*
Y2154D01*
Y2158D01*
Y2162D01*
X14701Y2174D01*
X14701Y2188D01*
X14700Y2202D01*
X14697Y2217D01*
X14694Y2230D01*
X14691Y2234D01*
X14690Y2239D01*
X14689Y2240D01*
X14686Y2243D01*
X14682Y2247D01*
X14677Y2252D01*
X14670Y2257D01*
X14660Y2262D01*
X14650Y2264D01*
X14638Y2265D01*
X14633D01*
X14629Y2264D01*
X14622Y2263D01*
X14615Y2262D01*
X14607Y2259D01*
X14598Y2255D01*
X14589Y2250D01*
X14589Y2249D01*
X14586Y2247D01*
X14582Y2243D01*
X14578Y2238D01*
X14572Y2232D01*
X14567Y2224D01*
X14562Y2215D01*
X14558Y2204D01*
Y2202D01*
X14556Y2199D01*
X14555Y2191D01*
X14553Y2181D01*
X14551Y2168D01*
X14550Y2151D01*
X14548Y2132D01*
Y2109D01*
Y1891D01*
X14427D01*
Y2140D01*
Y2141D01*
Y2143D01*
Y2147D01*
Y2151D01*
Y2162D01*
X14426Y2176D01*
X14425Y2191D01*
X14425Y2204D01*
X14423Y2217D01*
X14421Y2222D01*
X14420Y2226D01*
Y2227D01*
X14419Y2230D01*
X14417Y2233D01*
X14415Y2237D01*
X14409Y2247D01*
X14404Y2252D01*
X14400Y2255D01*
X14399Y2256D01*
X14397Y2257D01*
X14394Y2259D01*
X14391Y2261D01*
X14385Y2262D01*
X14379Y2263D01*
X14372Y2265D01*
X14359D01*
X14353Y2264D01*
X14347Y2263D01*
X14339Y2262D01*
X14331Y2259D01*
X14322Y2255D01*
X14313Y2250D01*
X14312Y2249D01*
X14310Y2247D01*
X14306Y2243D01*
X14302Y2239D01*
X14296Y2232D01*
X14291Y2225D01*
X14286Y2216D01*
X14281Y2206D01*
Y2205D01*
X14280Y2201D01*
X14279Y2193D01*
X14277Y2184D01*
X14275Y2170D01*
X14274Y2155D01*
X14272Y2135D01*
Y2112D01*
Y1891D01*
X14151D01*
Y2348D01*
X14262D01*
Y2285D01*
X14263Y2286D01*
X14265Y2288D01*
X14269Y2292D01*
X14273Y2297D01*
X14279Y2303D01*
X14285Y2308D01*
X14293Y2315D01*
X14302Y2322D01*
X14312Y2328D01*
X14323Y2335D01*
X14347Y2347D01*
X14361Y2352D01*
X14374Y2355D01*
X14389Y2357D01*
X14404Y2358D01*
X14412D01*
X14420Y2357D01*
X14430Y2356D01*
X14442Y2354D01*
X14455Y2351D01*
X14467Y2346D01*
X14480Y2340D01*
X14482Y2339D01*
X14486Y2336D01*
X14492Y2333D01*
X14499Y2326D01*
X14507Y2318D01*
X14517Y2309D01*
X14526Y2297D01*
X14534Y2284D01*
X14536Y2286D01*
X14539Y2291D01*
X14545Y2297D01*
X14553Y2305D01*
X14563Y2314D01*
X14574Y2324D01*
X14586Y2333D01*
X14599Y2340D01*
X14600Y2341D01*
X14605Y2343D01*
X14612Y2345D01*
X14621Y2349D01*
X14632Y2353D01*
X14645Y2355D01*
X14659Y2357D01*
X14673Y2358D01*
X14681D01*
X14691Y2357D01*
D02*
G37*
G36*
X13907D02*
X13919Y2355D01*
X13933Y2353D01*
X13946Y2349D01*
X13961Y2344D01*
X13974Y2337D01*
X13976Y2336D01*
X13980Y2334D01*
X13986Y2329D01*
X13995Y2323D01*
X14003Y2314D01*
X14012Y2303D01*
X14020Y2292D01*
X14027Y2277D01*
X14028Y2276D01*
X14029Y2272D01*
X14031Y2264D01*
X14034Y2254D01*
X14036Y2242D01*
X14038Y2225D01*
X14039Y2205D01*
X14040Y2182D01*
Y1891D01*
X13919D01*
Y2151D01*
Y2152D01*
Y2154D01*
Y2158D01*
Y2162D01*
X13918Y2174D01*
X13917Y2188D01*
X13916Y2202D01*
X13913Y2217D01*
X13911Y2230D01*
X13908Y2234D01*
X13906Y2239D01*
X13905Y2240D01*
X13903Y2243D01*
X13899Y2247D01*
X13893Y2252D01*
X13886Y2257D01*
X13877Y2262D01*
X13866Y2264D01*
X13854Y2265D01*
X13850D01*
X13845Y2264D01*
X13839Y2263D01*
X13831Y2262D01*
X13823Y2259D01*
X13814Y2255D01*
X13806Y2250D01*
X13805Y2249D01*
X13802Y2247D01*
X13799Y2243D01*
X13794Y2238D01*
X13789Y2232D01*
X13783Y2224D01*
X13779Y2215D01*
X13774Y2204D01*
Y2202D01*
X13772Y2199D01*
X13771Y2191D01*
X13770Y2181D01*
X13768Y2168D01*
X13767Y2151D01*
X13765Y2132D01*
Y2109D01*
Y1891D01*
X13644D01*
Y2140D01*
Y2141D01*
Y2143D01*
Y2147D01*
Y2151D01*
Y2162D01*
X13643Y2176D01*
X13642Y2191D01*
X13641Y2204D01*
X13639Y2217D01*
X13637Y2222D01*
X13636Y2226D01*
Y2227D01*
X13636Y2230D01*
X13634Y2233D01*
X13632Y2237D01*
X13626Y2247D01*
X13621Y2252D01*
X13616Y2255D01*
X13616Y2256D01*
X13614Y2257D01*
X13611Y2259D01*
X13607Y2261D01*
X13602Y2262D01*
X13596Y2263D01*
X13588Y2265D01*
X13575D01*
X13570Y2264D01*
X13564Y2263D01*
X13555Y2262D01*
X13547Y2259D01*
X13539Y2255D01*
X13530Y2250D01*
X13529Y2249D01*
X13526Y2247D01*
X13523Y2243D01*
X13518Y2239D01*
X13513Y2232D01*
X13507Y2225D01*
X13503Y2216D01*
X13498Y2206D01*
Y2205D01*
X13496Y2201D01*
X13495Y2193D01*
X13493Y2184D01*
X13492Y2170D01*
X13491Y2155D01*
X13489Y2135D01*
Y2112D01*
Y1891D01*
X13368D01*
Y2348D01*
X13479D01*
Y2285D01*
X13480Y2286D01*
X13482Y2288D01*
X13485Y2292D01*
X13490Y2297D01*
X13495Y2303D01*
X13502Y2308D01*
X13510Y2315D01*
X13519Y2322D01*
X13529Y2328D01*
X13540Y2335D01*
X13564Y2347D01*
X13577Y2352D01*
X13591Y2355D01*
X13606Y2357D01*
X13621Y2358D01*
X13628D01*
X13636Y2357D01*
X13647Y2356D01*
X13658Y2354D01*
X13671Y2351D01*
X13684Y2346D01*
X13697Y2340D01*
X13698Y2339D01*
X13702Y2336D01*
X13708Y2333D01*
X13716Y2326D01*
X13724Y2318D01*
X13733Y2309D01*
X13742Y2297D01*
X13750Y2284D01*
X13752Y2286D01*
X13756Y2291D01*
X13761Y2297D01*
X13770Y2305D01*
X13780Y2314D01*
X13790Y2324D01*
X13802Y2333D01*
X13815Y2340D01*
X13817Y2341D01*
X13821Y2343D01*
X13829Y2345D01*
X13838Y2349D01*
X13849Y2353D01*
X13862Y2355D01*
X13875Y2357D01*
X13890Y2358D01*
X13898D01*
X13907Y2357D01*
D02*
G37*
G36*
X12338Y2524D02*
X12347Y2523D01*
X12355Y2522D01*
X12365Y2520D01*
X12375Y2518D01*
X12398Y2511D01*
X12409Y2507D01*
X12422Y2500D01*
X12434Y2494D01*
X12445Y2487D01*
X12457Y2477D01*
X12467Y2467D01*
X12468Y2467D01*
X12469Y2466D01*
X12471Y2463D01*
X12474Y2459D01*
X12481Y2450D01*
X12490Y2437D01*
X12498Y2422D01*
X12504Y2404D01*
X12510Y2384D01*
X12510Y2374D01*
X12511Y2363D01*
Y2362D01*
Y2359D01*
X12510Y2354D01*
X12510Y2349D01*
X12509Y2342D01*
X12507Y2334D01*
X12504Y2324D01*
X12500Y2314D01*
X12495Y2304D01*
X12490Y2293D01*
X12482Y2283D01*
X12473Y2272D01*
X12462Y2261D01*
X12450Y2250D01*
X12437Y2240D01*
X12420Y2230D01*
X12421D01*
X12423Y2229D01*
X12426D01*
X12429Y2227D01*
X12439Y2224D01*
X12451Y2219D01*
X12465Y2211D01*
X12480Y2202D01*
X12494Y2191D01*
X12507Y2177D01*
X12509Y2175D01*
X12512Y2170D01*
X12517Y2161D01*
X12523Y2150D01*
X12530Y2136D01*
X12534Y2119D01*
X12538Y2100D01*
X12540Y2079D01*
Y2078D01*
Y2076D01*
Y2071D01*
X12539Y2066D01*
X12538Y2058D01*
X12536Y2050D01*
X12534Y2040D01*
X12532Y2030D01*
X12525Y2008D01*
X12520Y1996D01*
X12514Y1984D01*
X12507Y1972D01*
X12499Y1960D01*
X12490Y1948D01*
X12479Y1937D01*
X12478Y1936D01*
X12476Y1935D01*
X12472Y1932D01*
X12468Y1928D01*
X12461Y1924D01*
X12455Y1919D01*
X12446Y1914D01*
X12437Y1908D01*
X12427Y1903D01*
X12415Y1897D01*
X12402Y1893D01*
X12389Y1888D01*
X12375Y1884D01*
X12360Y1882D01*
X12344Y1880D01*
X12327Y1879D01*
X12319D01*
X12313Y1880D01*
X12306Y1881D01*
X12297Y1882D01*
X12288Y1884D01*
X12277Y1885D01*
X12255Y1891D01*
X12232Y1900D01*
X12219Y1905D01*
X12208Y1912D01*
X12196Y1920D01*
X12185Y1928D01*
X12184Y1929D01*
X12183Y1931D01*
X12180Y1934D01*
X12176Y1937D01*
X12172Y1942D01*
X12167Y1948D01*
X12162Y1955D01*
X12156Y1963D01*
X12151Y1972D01*
X12144Y1981D01*
X12134Y2003D01*
X12126Y2028D01*
X12122Y2042D01*
X12121Y2057D01*
X12237Y2071D01*
Y2070D01*
Y2069D01*
X12238Y2064D01*
X12240Y2056D01*
X12243Y2046D01*
X12247Y2035D01*
X12252Y2023D01*
X12259Y2012D01*
X12267Y2002D01*
X12268Y2001D01*
X12272Y1998D01*
X12277Y1995D01*
X12284Y1991D01*
X12293Y1986D01*
X12303Y1983D01*
X12314Y1980D01*
X12326Y1979D01*
X12328D01*
X12333Y1980D01*
X12339Y1981D01*
X12348Y1983D01*
X12358Y1986D01*
X12368Y1991D01*
X12379Y1998D01*
X12389Y2007D01*
X12390Y2008D01*
X12394Y2013D01*
X12398Y2019D01*
X12403Y2027D01*
X12408Y2038D01*
X12412Y2052D01*
X12415Y2068D01*
X12416Y2085D01*
Y2086D01*
Y2087D01*
Y2092D01*
X12415Y2100D01*
X12413Y2111D01*
X12409Y2123D01*
X12405Y2135D01*
X12398Y2147D01*
X12390Y2158D01*
X12389Y2159D01*
X12386Y2162D01*
X12380Y2167D01*
X12374Y2171D01*
X12365Y2177D01*
X12355Y2181D01*
X12344Y2184D01*
X12331Y2185D01*
X12322D01*
X12316Y2184D01*
X12307Y2183D01*
X12297Y2181D01*
X12287Y2179D01*
X12275Y2176D01*
X12288Y2273D01*
X12296D01*
X12306Y2274D01*
X12316Y2275D01*
X12328Y2278D01*
X12341Y2282D01*
X12353Y2287D01*
X12364Y2294D01*
X12365Y2295D01*
X12368Y2299D01*
X12372Y2303D01*
X12378Y2311D01*
X12382Y2319D01*
X12387Y2329D01*
X12389Y2341D01*
X12390Y2354D01*
Y2356D01*
Y2360D01*
X12389Y2365D01*
X12388Y2373D01*
X12386Y2381D01*
X12382Y2389D01*
X12378Y2398D01*
X12371Y2406D01*
X12370Y2406D01*
X12367Y2408D01*
X12364Y2412D01*
X12357Y2416D01*
X12350Y2418D01*
X12342Y2422D01*
X12331Y2424D01*
X12320Y2425D01*
X12315D01*
X12309Y2424D01*
X12302Y2422D01*
X12294Y2419D01*
X12285Y2416D01*
X12275Y2410D01*
X12267Y2403D01*
X12266Y2402D01*
X12264Y2399D01*
X12260Y2394D01*
X12255Y2386D01*
X12251Y2378D01*
X12247Y2367D01*
X12244Y2354D01*
X12241Y2340D01*
X12130Y2358D01*
Y2359D01*
X12131Y2361D01*
Y2364D01*
X12132Y2368D01*
X12134Y2378D01*
X12138Y2392D01*
X12143Y2406D01*
X12149Y2422D01*
X12156Y2436D01*
X12164Y2450D01*
X12165Y2452D01*
X12169Y2456D01*
X12174Y2462D01*
X12182Y2470D01*
X12191Y2478D01*
X12202Y2488D01*
X12215Y2497D01*
X12230Y2505D01*
X12231D01*
X12232Y2506D01*
X12237Y2508D01*
X12246Y2511D01*
X12257Y2515D01*
X12271Y2518D01*
X12287Y2522D01*
X12305Y2524D01*
X12324Y2525D01*
X12332D01*
X12338Y2524D01*
D02*
G37*
G36*
X13084D02*
X13092Y2523D01*
X13101Y2522D01*
X13111Y2520D01*
X13122Y2518D01*
X13145Y2512D01*
X13169Y2503D01*
X13182Y2498D01*
X13193Y2491D01*
X13205Y2483D01*
X13215Y2474D01*
X13216Y2473D01*
X13217Y2472D01*
X13219Y2468D01*
X13223Y2465D01*
X13227Y2460D01*
X13232Y2454D01*
X13237Y2447D01*
X13242Y2439D01*
X13251Y2421D01*
X13260Y2400D01*
X13264Y2388D01*
X13266Y2375D01*
X13268Y2362D01*
X13268Y2348D01*
Y2346D01*
Y2341D01*
X13268Y2333D01*
X13267Y2323D01*
X13265Y2310D01*
X13262Y2296D01*
X13258Y2282D01*
X13253Y2267D01*
X13252Y2265D01*
X13250Y2261D01*
X13247Y2252D01*
X13241Y2242D01*
X13235Y2231D01*
X13227Y2217D01*
X13217Y2202D01*
X13205Y2187D01*
X13204Y2186D01*
X13200Y2181D01*
X13195Y2175D01*
X13186Y2166D01*
X13176Y2155D01*
X13162Y2140D01*
X13145Y2125D01*
X13125Y2106D01*
X13125Y2105D01*
X13123Y2104D01*
X13120Y2101D01*
X13116Y2098D01*
X13106Y2088D01*
X13094Y2078D01*
X13083Y2066D01*
X13071Y2054D01*
X13060Y2044D01*
X13056Y2039D01*
X13053Y2036D01*
X13052Y2035D01*
X13050Y2033D01*
X13047Y2029D01*
X13043Y2025D01*
X13035Y2015D01*
X13028Y2003D01*
X13268D01*
Y1891D01*
X12845D01*
Y1892D01*
Y1894D01*
X12846Y1897D01*
X12847Y1902D01*
X12848Y1907D01*
X12848Y1914D01*
X12852Y1930D01*
X12858Y1948D01*
X12865Y1968D01*
X12874Y1990D01*
X12886Y2011D01*
Y2012D01*
X12888Y2014D01*
X12889Y2017D01*
X12893Y2021D01*
X12897Y2027D01*
X12902Y2034D01*
X12909Y2042D01*
X12916Y2051D01*
X12924Y2062D01*
X12934Y2073D01*
X12945Y2086D01*
X12958Y2099D01*
X12971Y2113D01*
X12987Y2129D01*
X13003Y2145D01*
X13022Y2162D01*
X13022Y2163D01*
X13025Y2166D01*
X13029Y2170D01*
X13034Y2175D01*
X13042Y2181D01*
X13049Y2188D01*
X13065Y2204D01*
X13082Y2221D01*
X13098Y2239D01*
X13105Y2246D01*
X13113Y2254D01*
X13118Y2261D01*
X13122Y2266D01*
X13123Y2268D01*
X13125Y2273D01*
X13130Y2280D01*
X13135Y2290D01*
X13139Y2301D01*
X13144Y2314D01*
X13146Y2326D01*
X13147Y2340D01*
Y2341D01*
Y2342D01*
Y2346D01*
X13146Y2354D01*
X13145Y2364D01*
X13142Y2374D01*
X13138Y2384D01*
X13133Y2394D01*
X13125Y2403D01*
X13125Y2404D01*
X13122Y2406D01*
X13116Y2410D01*
X13110Y2414D01*
X13101Y2417D01*
X13091Y2421D01*
X13079Y2424D01*
X13065Y2425D01*
X13059D01*
X13052Y2424D01*
X13043Y2422D01*
X13033Y2419D01*
X13023Y2415D01*
X13013Y2409D01*
X13004Y2402D01*
X13003Y2401D01*
X13001Y2397D01*
X12997Y2392D01*
X12993Y2384D01*
X12989Y2374D01*
X12985Y2360D01*
X12981Y2344D01*
X12980Y2326D01*
X12859Y2338D01*
Y2339D01*
X12860Y2343D01*
Y2347D01*
X12862Y2354D01*
X12863Y2363D01*
X12866Y2372D01*
X12869Y2382D01*
X12871Y2394D01*
X12880Y2416D01*
X12891Y2440D01*
X12899Y2452D01*
X12907Y2463D01*
X12916Y2472D01*
X12926Y2481D01*
X12927Y2482D01*
X12929Y2483D01*
X12931Y2485D01*
X12936Y2488D01*
X12941Y2491D01*
X12949Y2495D01*
X12956Y2499D01*
X12965Y2503D01*
X12975Y2508D01*
X12986Y2511D01*
X13010Y2518D01*
X13038Y2523D01*
X13053Y2524D01*
X13068Y2525D01*
X13077D01*
X13084Y2524D01*
D02*
G37*
G36*
X12762Y1891D02*
X12641D01*
Y2012D01*
X12762D01*
Y1891D01*
D02*
G37*
G36*
X4648Y19394D02*
X4602Y19341D01*
X4603Y19339D01*
X4606Y19335D01*
X4611Y19329D01*
X4616Y19320D01*
X4623Y19310D01*
X4629Y19297D01*
X4636Y19283D01*
X4642Y19268D01*
X4643Y19266D01*
X4645Y19260D01*
X4646Y19252D01*
X4650Y19241D01*
X4653Y19228D01*
X4655Y19213D01*
X4656Y19198D01*
X4657Y19180D01*
Y19179D01*
Y19176D01*
Y19170D01*
X4656Y19163D01*
X4656Y19155D01*
X4654Y19144D01*
X4652Y19133D01*
X4649Y19120D01*
X4646Y19107D01*
X4641Y19094D01*
X4635Y19079D01*
X4628Y19065D01*
X4621Y19051D01*
X4612Y19036D01*
X4601Y19023D01*
X4589Y19010D01*
X4588Y19009D01*
X4586Y19007D01*
X4582Y19004D01*
X4577Y18999D01*
X4570Y18994D01*
X4563Y18989D01*
X4553Y18983D01*
X4543Y18976D01*
X4531Y18970D01*
X4518Y18963D01*
X4504Y18958D01*
X4489Y18953D01*
X4473Y18949D01*
X4456Y18945D01*
X4439Y18943D01*
X4420Y18943D01*
X4412D01*
X4407Y18943D01*
X4400D01*
X4393Y18944D01*
X4385Y18945D01*
X4376Y18947D01*
X4355Y18952D01*
X4333Y18957D01*
X4310Y18966D01*
X4287Y18978D01*
X4238Y18922D01*
X4191Y18962D01*
X4241Y19019D01*
X4240Y19021D01*
X4236Y19025D01*
X4232Y19031D01*
X4226Y19040D01*
X4219Y19051D01*
X4213Y19064D01*
X4206Y19078D01*
X4200Y19094D01*
Y19095D01*
X4199Y19096D01*
X4198Y19101D01*
X4195Y19110D01*
X4193Y19121D01*
X4190Y19135D01*
X4188Y19150D01*
X4186Y19166D01*
X4185Y19183D01*
Y19184D01*
Y19188D01*
X4186Y19193D01*
Y19200D01*
X4187Y19209D01*
X4189Y19219D01*
X4191Y19230D01*
X4194Y19243D01*
X4197Y19256D01*
X4202Y19270D01*
X4206Y19284D01*
X4213Y19298D01*
X4221Y19312D01*
X4229Y19326D01*
X4239Y19340D01*
X4251Y19352D01*
X4252Y19353D01*
X4254Y19355D01*
X4258Y19359D01*
X4263Y19363D01*
X4269Y19368D01*
X4277Y19373D01*
X4287Y19380D01*
X4297Y19386D01*
X4308Y19393D01*
X4322Y19399D01*
X4336Y19404D01*
X4350Y19409D01*
X4367Y19414D01*
X4384Y19417D01*
X4401Y19419D01*
X4420Y19420D01*
X4428D01*
X4433Y19419D01*
X4441D01*
X4448Y19418D01*
X4457Y19416D01*
X4466Y19415D01*
X4488Y19411D01*
X4510Y19403D01*
X4533Y19393D01*
X4544Y19388D01*
X4555Y19381D01*
X4601Y19434D01*
X4648Y19394D01*
D02*
G37*
G36*
X7534Y19419D02*
X7546Y19417D01*
X7560Y19414D01*
X7573Y19411D01*
X7588Y19406D01*
X7602Y19399D01*
X7604Y19398D01*
X7607Y19395D01*
X7614Y19391D01*
X7622Y19384D01*
X7630Y19375D01*
X7639Y19365D01*
X7647Y19353D01*
X7655Y19339D01*
X7655Y19338D01*
X7656Y19333D01*
X7658Y19326D01*
X7661Y19316D01*
X7664Y19303D01*
X7665Y19287D01*
X7666Y19267D01*
X7667Y19244D01*
Y18953D01*
X7546D01*
Y19213D01*
Y19214D01*
Y19216D01*
Y19219D01*
Y19224D01*
X7545Y19236D01*
X7544Y19250D01*
X7543Y19264D01*
X7541Y19279D01*
X7538Y19291D01*
X7535Y19296D01*
X7533Y19301D01*
X7532Y19301D01*
X7530Y19305D01*
X7526Y19309D01*
X7521Y19314D01*
X7513Y19319D01*
X7504Y19323D01*
X7493Y19326D01*
X7481Y19327D01*
X7477D01*
X7472Y19326D01*
X7466Y19325D01*
X7459Y19323D01*
X7450Y19321D01*
X7441Y19317D01*
X7433Y19311D01*
X7432Y19311D01*
X7430Y19309D01*
X7426Y19305D01*
X7421Y19300D01*
X7416Y19293D01*
X7410Y19286D01*
X7406Y19277D01*
X7401Y19266D01*
Y19264D01*
X7399Y19260D01*
X7399Y19253D01*
X7397Y19243D01*
X7395Y19229D01*
X7394Y19213D01*
X7392Y19194D01*
Y19171D01*
Y18953D01*
X7271D01*
Y19202D01*
Y19203D01*
Y19205D01*
Y19209D01*
Y19213D01*
Y19224D01*
X7270Y19238D01*
X7269Y19252D01*
X7268Y19266D01*
X7266Y19279D01*
X7265Y19284D01*
X7264Y19288D01*
Y19289D01*
X7263Y19291D01*
X7261Y19295D01*
X7259Y19299D01*
X7253Y19309D01*
X7248Y19313D01*
X7244Y19317D01*
X7243Y19318D01*
X7241Y19319D01*
X7238Y19321D01*
X7235Y19322D01*
X7229Y19324D01*
X7223Y19325D01*
X7215Y19327D01*
X7203D01*
X7197Y19326D01*
X7191Y19325D01*
X7183Y19323D01*
X7174Y19321D01*
X7166Y19317D01*
X7157Y19311D01*
X7156Y19311D01*
X7153Y19309D01*
X7150Y19305D01*
X7145Y19301D01*
X7140Y19294D01*
X7134Y19287D01*
X7130Y19278D01*
X7125Y19268D01*
Y19267D01*
X7123Y19262D01*
X7123Y19255D01*
X7121Y19246D01*
X7119Y19232D01*
X7118Y19217D01*
X7116Y19197D01*
Y19174D01*
Y18953D01*
X6995D01*
Y19410D01*
X7106D01*
Y19347D01*
X7107Y19348D01*
X7109Y19350D01*
X7112Y19353D01*
X7117Y19359D01*
X7123Y19364D01*
X7129Y19370D01*
X7137Y19377D01*
X7146Y19383D01*
X7156Y19390D01*
X7167Y19397D01*
X7191Y19409D01*
X7205Y19414D01*
X7218Y19417D01*
X7233Y19419D01*
X7248Y19420D01*
X7256D01*
X7264Y19419D01*
X7274Y19418D01*
X7286Y19415D01*
X7298Y19413D01*
X7311Y19408D01*
X7324Y19402D01*
X7326Y19401D01*
X7329Y19398D01*
X7336Y19394D01*
X7343Y19388D01*
X7351Y19380D01*
X7360Y19371D01*
X7369Y19359D01*
X7378Y19346D01*
X7379Y19348D01*
X7383Y19352D01*
X7389Y19359D01*
X7397Y19367D01*
X7407Y19376D01*
X7418Y19385D01*
X7430Y19394D01*
X7442Y19402D01*
X7444Y19403D01*
X7449Y19404D01*
X7456Y19407D01*
X7465Y19411D01*
X7476Y19414D01*
X7489Y19417D01*
X7502Y19419D01*
X7517Y19420D01*
X7525D01*
X7534Y19419D01*
D02*
G37*
G36*
X6751D02*
X6763Y19417D01*
X6776Y19414D01*
X6790Y19411D01*
X6805Y19406D01*
X6818Y19399D01*
X6820Y19398D01*
X6824Y19395D01*
X6830Y19391D01*
X6838Y19384D01*
X6846Y19375D01*
X6856Y19365D01*
X6864Y19353D01*
X6871Y19339D01*
X6872Y19338D01*
X6873Y19333D01*
X6875Y19326D01*
X6877Y19316D01*
X6880Y19303D01*
X6882Y19287D01*
X6883Y19267D01*
X6884Y19244D01*
Y18953D01*
X6763D01*
Y19213D01*
Y19214D01*
Y19216D01*
Y19219D01*
Y19224D01*
X6762Y19236D01*
X6761Y19250D01*
X6760Y19264D01*
X6757Y19279D01*
X6754Y19291D01*
X6752Y19296D01*
X6750Y19301D01*
X6749Y19301D01*
X6746Y19305D01*
X6743Y19309D01*
X6737Y19314D01*
X6730Y19319D01*
X6721Y19323D01*
X6710Y19326D01*
X6698Y19327D01*
X6693D01*
X6689Y19326D01*
X6683Y19325D01*
X6675Y19323D01*
X6667Y19321D01*
X6658Y19317D01*
X6650Y19311D01*
X6649Y19311D01*
X6646Y19309D01*
X6642Y19305D01*
X6638Y19300D01*
X6632Y19293D01*
X6627Y19286D01*
X6622Y19277D01*
X6618Y19266D01*
Y19264D01*
X6616Y19260D01*
X6615Y19253D01*
X6613Y19243D01*
X6611Y19229D01*
X6611Y19213D01*
X6609Y19194D01*
Y19171D01*
Y18953D01*
X6488D01*
Y19202D01*
Y19203D01*
Y19205D01*
Y19209D01*
Y19213D01*
Y19224D01*
X6487Y19238D01*
X6486Y19252D01*
X6485Y19266D01*
X6483Y19279D01*
X6481Y19284D01*
X6480Y19288D01*
Y19289D01*
X6479Y19291D01*
X6478Y19295D01*
X6476Y19299D01*
X6469Y19309D01*
X6465Y19313D01*
X6460Y19317D01*
X6459Y19318D01*
X6457Y19319D01*
X6455Y19321D01*
X6451Y19322D01*
X6446Y19324D01*
X6439Y19325D01*
X6432Y19327D01*
X6419D01*
X6414Y19326D01*
X6407Y19325D01*
X6399Y19323D01*
X6391Y19321D01*
X6383Y19317D01*
X6374Y19311D01*
X6373Y19311D01*
X6370Y19309D01*
X6366Y19305D01*
X6362Y19301D01*
X6356Y19294D01*
X6351Y19287D01*
X6346Y19278D01*
X6342Y19268D01*
Y19267D01*
X6340Y19262D01*
X6339Y19255D01*
X6337Y19246D01*
X6335Y19232D01*
X6334Y19217D01*
X6333Y19197D01*
Y19174D01*
Y18953D01*
X6212D01*
Y19410D01*
X6323D01*
Y19347D01*
X6324Y19348D01*
X6325Y19350D01*
X6329Y19353D01*
X6334Y19359D01*
X6339Y19364D01*
X6345Y19370D01*
X6354Y19377D01*
X6363Y19383D01*
X6373Y19390D01*
X6384Y19397D01*
X6407Y19409D01*
X6421Y19414D01*
X6435Y19417D01*
X6449Y19419D01*
X6465Y19420D01*
X6472D01*
X6480Y19419D01*
X6490Y19418D01*
X6502Y19415D01*
X6515Y19413D01*
X6528Y19408D01*
X6540Y19402D01*
X6542Y19401D01*
X6546Y19398D01*
X6552Y19394D01*
X6560Y19388D01*
X6568Y19380D01*
X6577Y19371D01*
X6586Y19359D01*
X6594Y19346D01*
X6596Y19348D01*
X6600Y19352D01*
X6605Y19359D01*
X6613Y19367D01*
X6623Y19376D01*
X6634Y19385D01*
X6646Y19394D01*
X6659Y19402D01*
X6661Y19403D01*
X6665Y19404D01*
X6672Y19407D01*
X6682Y19411D01*
X6693Y19414D01*
X6705Y19417D01*
X6719Y19419D01*
X6734Y19420D01*
X6742D01*
X6751Y19419D01*
D02*
G37*
G36*
X5182Y19586D02*
X5190Y19585D01*
X5198Y19584D01*
X5209Y19582D01*
X5219Y19579D01*
X5241Y19573D01*
X5253Y19568D01*
X5266Y19562D01*
X5278Y19556D01*
X5289Y19548D01*
X5301Y19539D01*
X5311Y19529D01*
X5311Y19528D01*
X5312Y19527D01*
X5315Y19525D01*
X5318Y19521D01*
X5325Y19512D01*
X5333Y19499D01*
X5342Y19484D01*
X5348Y19465D01*
X5353Y19445D01*
X5354Y19435D01*
X5355Y19424D01*
Y19424D01*
Y19421D01*
X5354Y19416D01*
X5353Y19411D01*
X5352Y19403D01*
X5351Y19395D01*
X5348Y19386D01*
X5344Y19376D01*
X5339Y19366D01*
X5333Y19355D01*
X5326Y19344D01*
X5317Y19333D01*
X5306Y19322D01*
X5294Y19311D01*
X5280Y19301D01*
X5264Y19291D01*
X5265D01*
X5267Y19291D01*
X5270D01*
X5273Y19289D01*
X5283Y19286D01*
X5295Y19281D01*
X5309Y19273D01*
X5323Y19264D01*
X5338Y19252D01*
X5351Y19239D01*
X5352Y19237D01*
X5356Y19231D01*
X5361Y19223D01*
X5367Y19211D01*
X5373Y19198D01*
X5378Y19180D01*
X5382Y19162D01*
X5383Y19141D01*
Y19140D01*
Y19137D01*
Y19133D01*
X5383Y19127D01*
X5382Y19120D01*
X5380Y19112D01*
X5378Y19102D01*
X5376Y19092D01*
X5369Y19070D01*
X5363Y19058D01*
X5358Y19045D01*
X5351Y19034D01*
X5342Y19022D01*
X5333Y19010D01*
X5322Y18999D01*
X5321Y18998D01*
X5320Y18996D01*
X5316Y18994D01*
X5311Y18990D01*
X5305Y18985D01*
X5299Y18981D01*
X5290Y18975D01*
X5280Y18970D01*
X5270Y18964D01*
X5259Y18959D01*
X5246Y18954D01*
X5233Y18950D01*
X5219Y18946D01*
X5204Y18943D01*
X5188Y18942D01*
X5171Y18941D01*
X5163D01*
X5157Y18942D01*
X5149Y18943D01*
X5141Y18943D01*
X5132Y18945D01*
X5121Y18947D01*
X5099Y18953D01*
X5076Y18962D01*
X5063Y18967D01*
X5052Y18973D01*
X5040Y18982D01*
X5029Y18990D01*
X5028Y18991D01*
X5026Y18993D01*
X5024Y18995D01*
X5020Y18999D01*
X5015Y19004D01*
X5011Y19010D01*
X5005Y19016D01*
X5000Y19025D01*
X4994Y19034D01*
X4988Y19043D01*
X4978Y19065D01*
X4970Y19090D01*
X4966Y19104D01*
X4964Y19118D01*
X5081Y19133D01*
Y19132D01*
Y19131D01*
X5082Y19126D01*
X5084Y19117D01*
X5086Y19107D01*
X5091Y19096D01*
X5096Y19085D01*
X5103Y19074D01*
X5111Y19064D01*
X5112Y19063D01*
X5116Y19060D01*
X5121Y19056D01*
X5127Y19053D01*
X5137Y19048D01*
X5147Y19045D01*
X5157Y19042D01*
X5170Y19041D01*
X5172D01*
X5177Y19042D01*
X5183Y19043D01*
X5192Y19045D01*
X5202Y19048D01*
X5212Y19053D01*
X5223Y19060D01*
X5233Y19069D01*
X5234Y19070D01*
X5238Y19075D01*
X5241Y19081D01*
X5247Y19089D01*
X5251Y19100D01*
X5256Y19114D01*
X5259Y19129D01*
X5260Y19147D01*
Y19147D01*
Y19148D01*
Y19154D01*
X5259Y19162D01*
X5257Y19173D01*
X5253Y19185D01*
X5249Y19197D01*
X5242Y19209D01*
X5234Y19219D01*
X5233Y19220D01*
X5229Y19224D01*
X5224Y19229D01*
X5218Y19233D01*
X5209Y19239D01*
X5198Y19242D01*
X5188Y19246D01*
X5175Y19247D01*
X5166D01*
X5159Y19246D01*
X5151Y19245D01*
X5141Y19243D01*
X5131Y19240D01*
X5119Y19238D01*
X5132Y19335D01*
X5140D01*
X5149Y19336D01*
X5160Y19337D01*
X5172Y19340D01*
X5185Y19343D01*
X5197Y19349D01*
X5208Y19356D01*
X5209Y19357D01*
X5212Y19361D01*
X5216Y19365D01*
X5221Y19373D01*
X5226Y19381D01*
X5230Y19391D01*
X5233Y19403D01*
X5234Y19416D01*
Y19418D01*
Y19422D01*
X5233Y19427D01*
X5231Y19434D01*
X5229Y19443D01*
X5226Y19451D01*
X5221Y19460D01*
X5215Y19467D01*
X5214Y19468D01*
X5211Y19470D01*
X5208Y19474D01*
X5201Y19477D01*
X5194Y19480D01*
X5186Y19484D01*
X5175Y19485D01*
X5164Y19486D01*
X5158D01*
X5153Y19485D01*
X5146Y19484D01*
X5137Y19481D01*
X5128Y19477D01*
X5119Y19472D01*
X5111Y19465D01*
X5110Y19464D01*
X5107Y19461D01*
X5104Y19455D01*
X5099Y19448D01*
X5095Y19440D01*
X5091Y19429D01*
X5087Y19416D01*
X5085Y19402D01*
X4973Y19420D01*
Y19421D01*
X4974Y19423D01*
Y19425D01*
X4975Y19430D01*
X4978Y19440D01*
X4982Y19454D01*
X4987Y19468D01*
X4993Y19484D01*
X5000Y19498D01*
X5008Y19512D01*
X5009Y19514D01*
X5013Y19517D01*
X5018Y19524D01*
X5025Y19532D01*
X5034Y19540D01*
X5045Y19549D01*
X5059Y19558D01*
X5074Y19567D01*
X5075D01*
X5076Y19567D01*
X5081Y19569D01*
X5090Y19573D01*
X5101Y19577D01*
X5115Y19580D01*
X5131Y19584D01*
X5148Y19586D01*
X5168Y19587D01*
X5176D01*
X5182Y19586D01*
D02*
G37*
G36*
X5927D02*
X5935Y19585D01*
X5945Y19584D01*
X5955Y19582D01*
X5966Y19580D01*
X5989Y19574D01*
X6013Y19565D01*
X6026Y19559D01*
X6037Y19553D01*
X6048Y19545D01*
X6058Y19536D01*
X6059Y19535D01*
X6061Y19534D01*
X6063Y19530D01*
X6067Y19526D01*
X6071Y19522D01*
X6076Y19516D01*
X6080Y19509D01*
X6086Y19501D01*
X6095Y19483D01*
X6104Y19462D01*
X6108Y19450D01*
X6109Y19437D01*
X6111Y19424D01*
X6112Y19410D01*
Y19408D01*
Y19403D01*
X6111Y19394D01*
X6110Y19384D01*
X6109Y19372D01*
X6106Y19358D01*
X6102Y19343D01*
X6097Y19329D01*
X6096Y19327D01*
X6094Y19322D01*
X6090Y19314D01*
X6085Y19304D01*
X6079Y19292D01*
X6070Y19279D01*
X6060Y19264D01*
X6048Y19249D01*
X6048Y19248D01*
X6044Y19243D01*
X6038Y19237D01*
X6030Y19228D01*
X6019Y19217D01*
X6006Y19202D01*
X5989Y19187D01*
X5969Y19168D01*
X5968Y19167D01*
X5966Y19166D01*
X5964Y19163D01*
X5960Y19159D01*
X5950Y19150D01*
X5938Y19139D01*
X5926Y19127D01*
X5915Y19116D01*
X5904Y19106D01*
X5900Y19101D01*
X5896Y19097D01*
X5895Y19096D01*
X5894Y19095D01*
X5891Y19091D01*
X5887Y19086D01*
X5879Y19076D01*
X5872Y19065D01*
X6112D01*
Y18953D01*
X5689D01*
Y18953D01*
Y18955D01*
X5690Y18959D01*
X5690Y18963D01*
X5691Y18969D01*
X5692Y18975D01*
X5696Y18992D01*
X5701Y19010D01*
X5709Y19030D01*
X5718Y19052D01*
X5730Y19073D01*
Y19074D01*
X5731Y19076D01*
X5733Y19079D01*
X5737Y19083D01*
X5741Y19089D01*
X5746Y19096D01*
X5752Y19104D01*
X5760Y19113D01*
X5768Y19124D01*
X5778Y19135D01*
X5789Y19147D01*
X5802Y19161D01*
X5815Y19175D01*
X5831Y19190D01*
X5847Y19207D01*
X5865Y19224D01*
X5866Y19225D01*
X5869Y19228D01*
X5873Y19231D01*
X5878Y19237D01*
X5885Y19242D01*
X5893Y19250D01*
X5909Y19266D01*
X5925Y19283D01*
X5942Y19301D01*
X5949Y19308D01*
X5956Y19316D01*
X5962Y19322D01*
X5966Y19328D01*
X5966Y19330D01*
X5969Y19334D01*
X5974Y19342D01*
X5978Y19352D01*
X5983Y19362D01*
X5987Y19375D01*
X5990Y19388D01*
X5991Y19402D01*
Y19403D01*
Y19403D01*
Y19408D01*
X5990Y19416D01*
X5988Y19425D01*
X5986Y19435D01*
X5982Y19445D01*
X5976Y19455D01*
X5969Y19465D01*
X5968Y19465D01*
X5966Y19468D01*
X5960Y19472D01*
X5954Y19475D01*
X5945Y19479D01*
X5935Y19483D01*
X5923Y19485D01*
X5909Y19486D01*
X5903D01*
X5895Y19485D01*
X5887Y19484D01*
X5877Y19481D01*
X5867Y19476D01*
X5857Y19471D01*
X5848Y19464D01*
X5847Y19463D01*
X5844Y19459D01*
X5841Y19454D01*
X5837Y19445D01*
X5833Y19435D01*
X5829Y19422D01*
X5825Y19406D01*
X5823Y19388D01*
X5703Y19400D01*
Y19401D01*
X5704Y19404D01*
Y19409D01*
X5706Y19416D01*
X5707Y19424D01*
X5710Y19434D01*
X5712Y19444D01*
X5715Y19455D01*
X5724Y19478D01*
X5735Y19502D01*
X5742Y19514D01*
X5751Y19525D01*
X5760Y19534D01*
X5770Y19543D01*
X5771Y19544D01*
X5772Y19545D01*
X5775Y19547D01*
X5780Y19550D01*
X5785Y19553D01*
X5792Y19557D01*
X5800Y19561D01*
X5809Y19565D01*
X5819Y19569D01*
X5830Y19573D01*
X5853Y19580D01*
X5882Y19585D01*
X5896Y19586D01*
X5912Y19587D01*
X5921D01*
X5927Y19586D01*
D02*
G37*
G36*
X5606Y18953D02*
X5485D01*
Y19074D01*
X5606D01*
Y18953D01*
D02*
G37*
G36*
X19889Y12278D02*
X19629D01*
X19628D01*
X19626D01*
X19622D01*
X19618D01*
X19606Y12277D01*
X19592Y12276D01*
X19578Y12275D01*
X19563Y12272D01*
X19551Y12269D01*
X19546Y12267D01*
X19541Y12265D01*
X19541Y12264D01*
X19537Y12261D01*
X19533Y12258D01*
X19528Y12252D01*
X19523Y12245D01*
X19519Y12236D01*
X19516Y12225D01*
X19515Y12213D01*
Y12208D01*
X19516Y12204D01*
X19517Y12198D01*
X19519Y12190D01*
X19521Y12182D01*
X19525Y12173D01*
X19530Y12165D01*
X19531Y12164D01*
X19533Y12161D01*
X19537Y12157D01*
X19542Y12153D01*
X19549Y12147D01*
X19556Y12142D01*
X19565Y12137D01*
X19576Y12133D01*
X19578D01*
X19582Y12131D01*
X19589Y12130D01*
X19599Y12128D01*
X19612Y12126D01*
X19629Y12126D01*
X19648Y12124D01*
X19671D01*
X19889D01*
Y12003D01*
X19640D01*
X19639D01*
X19637D01*
X19633D01*
X19629D01*
X19618D01*
X19604Y12002D01*
X19590Y12001D01*
X19576Y12000D01*
X19563Y11998D01*
X19558Y11996D01*
X19554Y11995D01*
X19553D01*
X19551Y11994D01*
X19547Y11993D01*
X19543Y11991D01*
X19533Y11984D01*
X19529Y11980D01*
X19525Y11975D01*
X19524Y11974D01*
X19523Y11973D01*
X19521Y11970D01*
X19520Y11966D01*
X19518Y11961D01*
X19517Y11954D01*
X19515Y11947D01*
Y11934D01*
X19516Y11929D01*
X19517Y11922D01*
X19519Y11914D01*
X19521Y11906D01*
X19525Y11898D01*
X19530Y11889D01*
X19531Y11888D01*
X19533Y11885D01*
X19537Y11881D01*
X19541Y11877D01*
X19548Y11871D01*
X19555Y11866D01*
X19564Y11861D01*
X19574Y11857D01*
X19575D01*
X19580Y11855D01*
X19587Y11854D01*
X19596Y11852D01*
X19610Y11850D01*
X19625Y11850D01*
X19645Y11848D01*
X19668D01*
X19889D01*
Y11727D01*
X19432D01*
Y11838D01*
X19495D01*
X19494Y11839D01*
X19492Y11840D01*
X19489Y11844D01*
X19483Y11849D01*
X19478Y11854D01*
X19472Y11860D01*
X19465Y11869D01*
X19459Y11878D01*
X19452Y11888D01*
X19445Y11899D01*
X19433Y11922D01*
X19428Y11936D01*
X19425Y11950D01*
X19423Y11964D01*
X19422Y11980D01*
Y11987D01*
X19423Y11995D01*
X19424Y12005D01*
X19427Y12017D01*
X19429Y12030D01*
X19434Y12043D01*
X19440Y12055D01*
X19441Y12057D01*
X19444Y12061D01*
X19448Y12067D01*
X19454Y12075D01*
X19462Y12083D01*
X19471Y12092D01*
X19483Y12101D01*
X19496Y12109D01*
X19494Y12111D01*
X19489Y12115D01*
X19483Y12120D01*
X19475Y12128D01*
X19466Y12138D01*
X19457Y12149D01*
X19448Y12161D01*
X19440Y12174D01*
X19439Y12176D01*
X19438Y12180D01*
X19435Y12188D01*
X19431Y12197D01*
X19428Y12208D01*
X19425Y12220D01*
X19423Y12234D01*
X19422Y12249D01*
Y12257D01*
X19423Y12266D01*
X19425Y12278D01*
X19428Y12291D01*
X19431Y12305D01*
X19436Y12320D01*
X19443Y12333D01*
X19444Y12335D01*
X19447Y12339D01*
X19451Y12345D01*
X19458Y12353D01*
X19467Y12362D01*
X19477Y12371D01*
X19489Y12379D01*
X19503Y12386D01*
X19504Y12387D01*
X19509Y12388D01*
X19516Y12390D01*
X19526Y12392D01*
X19539Y12395D01*
X19555Y12397D01*
X19575Y12398D01*
X19598Y12399D01*
X19889D01*
Y12278D01*
D02*
G37*
G36*
Y11494D02*
X19629D01*
X19628D01*
X19626D01*
X19622D01*
X19618D01*
X19606Y11493D01*
X19592Y11492D01*
X19578Y11491D01*
X19563Y11489D01*
X19551Y11486D01*
X19546Y11483D01*
X19541Y11481D01*
X19541Y11481D01*
X19537Y11478D01*
X19533Y11474D01*
X19528Y11469D01*
X19523Y11461D01*
X19519Y11452D01*
X19516Y11441D01*
X19515Y11430D01*
Y11425D01*
X19516Y11420D01*
X19517Y11414D01*
X19519Y11407D01*
X19521Y11399D01*
X19525Y11389D01*
X19530Y11381D01*
X19531Y11380D01*
X19533Y11378D01*
X19537Y11374D01*
X19542Y11369D01*
X19549Y11364D01*
X19556Y11358D01*
X19565Y11354D01*
X19576Y11349D01*
X19578D01*
X19582Y11348D01*
X19589Y11347D01*
X19599Y11345D01*
X19612Y11343D01*
X19629Y11342D01*
X19648Y11340D01*
X19671D01*
X19889D01*
Y11219D01*
X19640D01*
X19639D01*
X19637D01*
X19633D01*
X19629D01*
X19618D01*
X19604Y11218D01*
X19590Y11217D01*
X19576Y11216D01*
X19563Y11215D01*
X19558Y11213D01*
X19554Y11212D01*
X19553D01*
X19551Y11211D01*
X19547Y11209D01*
X19543Y11207D01*
X19533Y11201D01*
X19529Y11196D01*
X19525Y11192D01*
X19524Y11191D01*
X19523Y11189D01*
X19521Y11186D01*
X19520Y11183D01*
X19518Y11177D01*
X19517Y11171D01*
X19515Y11164D01*
Y11151D01*
X19516Y11145D01*
X19517Y11139D01*
X19519Y11131D01*
X19521Y11123D01*
X19525Y11114D01*
X19530Y11105D01*
X19531Y11104D01*
X19533Y11102D01*
X19537Y11098D01*
X19541Y11093D01*
X19548Y11088D01*
X19555Y11082D01*
X19564Y11078D01*
X19574Y11073D01*
X19575D01*
X19580Y11072D01*
X19587Y11071D01*
X19596Y11069D01*
X19610Y11067D01*
X19625Y11066D01*
X19645Y11064D01*
X19668D01*
X19889D01*
Y10943D01*
X19432D01*
Y11054D01*
X19495D01*
X19494Y11055D01*
X19492Y11057D01*
X19489Y11061D01*
X19483Y11065D01*
X19478Y11071D01*
X19472Y11077D01*
X19465Y11085D01*
X19459Y11094D01*
X19452Y11104D01*
X19445Y11115D01*
X19433Y11139D01*
X19428Y11153D01*
X19425Y11166D01*
X19423Y11181D01*
X19422Y11196D01*
Y11204D01*
X19423Y11212D01*
X19424Y11222D01*
X19427Y11234D01*
X19429Y11246D01*
X19434Y11259D01*
X19440Y11272D01*
X19441Y11274D01*
X19444Y11277D01*
X19448Y11284D01*
X19454Y11291D01*
X19462Y11299D01*
X19471Y11308D01*
X19483Y11317D01*
X19496Y11326D01*
X19494Y11328D01*
X19489Y11331D01*
X19483Y11337D01*
X19475Y11345D01*
X19466Y11355D01*
X19457Y11366D01*
X19448Y11378D01*
X19440Y11390D01*
X19439Y11392D01*
X19438Y11397D01*
X19435Y11404D01*
X19431Y11413D01*
X19428Y11424D01*
X19425Y11437D01*
X19423Y11451D01*
X19422Y11465D01*
Y11473D01*
X19423Y11482D01*
X19425Y11494D01*
X19428Y11508D01*
X19431Y11522D01*
X19436Y11536D01*
X19443Y11550D01*
X19444Y11552D01*
X19447Y11555D01*
X19451Y11562D01*
X19458Y11570D01*
X19467Y11578D01*
X19477Y11587D01*
X19489Y11595D01*
X19503Y11603D01*
X19504Y11604D01*
X19509Y11604D01*
X19516Y11606D01*
X19526Y11609D01*
X19539Y11612D01*
X19555Y11614D01*
X19575Y11614D01*
X19598Y11615D01*
X19889D01*
Y11494D01*
D02*
G37*
G36*
X19763Y10790D02*
X19889D01*
Y10673D01*
X19763D01*
Y10415D01*
X19658D01*
X19256Y10688D01*
Y10790D01*
X19657D01*
Y10868D01*
X19763D01*
Y10790D01*
D02*
G37*
G36*
X19889Y10216D02*
X19768D01*
Y10337D01*
X19889D01*
Y10216D01*
D02*
G37*
G36*
X19691Y10126D02*
X19698D01*
X19706Y10124D01*
X19715Y10123D01*
X19725Y10121D01*
X19746Y10116D01*
X19770Y10108D01*
X19783Y10102D01*
X19795Y10097D01*
X19807Y10089D01*
X19818Y10081D01*
X19819Y10080D01*
X19822Y10079D01*
X19826Y10075D01*
X19831Y10070D01*
X19837Y10064D01*
X19845Y10056D01*
X19852Y10047D01*
X19859Y10037D01*
X19868Y10025D01*
X19875Y10012D01*
X19882Y9998D01*
X19889Y9983D01*
X19894Y9966D01*
X19898Y9949D01*
X19900Y9930D01*
X19901Y9910D01*
Y9902D01*
X19900Y9895D01*
X19899Y9888D01*
X19899Y9879D01*
X19898Y9870D01*
X19896Y9859D01*
X19890Y9837D01*
X19881Y9813D01*
X19877Y9801D01*
X19870Y9789D01*
X19863Y9778D01*
X19855Y9767D01*
X19854Y9766D01*
X19853Y9764D01*
X19850Y9761D01*
X19847Y9758D01*
X19841Y9754D01*
X19836Y9749D01*
X19829Y9744D01*
X19822Y9739D01*
X19813Y9732D01*
X19804Y9727D01*
X19782Y9717D01*
X19757Y9708D01*
X19744Y9705D01*
X19729Y9702D01*
X19716Y9823D01*
X19718D01*
X19723Y9823D01*
X19731Y9825D01*
X19740Y9828D01*
X19750Y9832D01*
X19761Y9837D01*
X19771Y9844D01*
X19781Y9853D01*
X19782Y9854D01*
X19785Y9857D01*
X19788Y9863D01*
X19793Y9870D01*
X19797Y9878D01*
X19801Y9888D01*
X19804Y9900D01*
X19805Y9912D01*
Y9914D01*
X19804Y9918D01*
X19803Y9925D01*
X19801Y9935D01*
X19797Y9945D01*
X19792Y9956D01*
X19784Y9966D01*
X19774Y9977D01*
X19772Y9977D01*
X19768Y9981D01*
X19761Y9985D01*
X19750Y9990D01*
X19737Y9995D01*
X19722Y9999D01*
X19703Y10002D01*
X19681Y10003D01*
X19680D01*
X19678D01*
X19675D01*
X19671D01*
X19661Y10002D01*
X19648Y9999D01*
X19633Y9997D01*
X19619Y9992D01*
X19605Y9986D01*
X19593Y9977D01*
X19592Y9976D01*
X19589Y9972D01*
X19584Y9966D01*
X19578Y9958D01*
X19572Y9948D01*
X19568Y9936D01*
X19564Y9923D01*
X19563Y9908D01*
Y9903D01*
X19564Y9899D01*
X19566Y9890D01*
X19569Y9877D01*
X19574Y9863D01*
X19582Y9847D01*
X19588Y9839D01*
X19594Y9831D01*
X19602Y9823D01*
X19610Y9814D01*
X19596Y9717D01*
X19267Y9779D01*
Y10099D01*
X19380D01*
Y9870D01*
X19488Y9851D01*
Y9852D01*
X19487Y9853D01*
X19484Y9858D01*
X19481Y9866D01*
X19477Y9876D01*
X19473Y9889D01*
X19470Y9903D01*
X19468Y9918D01*
X19467Y9934D01*
Y9942D01*
X19468Y9947D01*
X19469Y9954D01*
X19469Y9962D01*
X19471Y9971D01*
X19474Y9981D01*
X19481Y10002D01*
X19486Y10014D01*
X19491Y10025D01*
X19499Y10037D01*
X19507Y10048D01*
X19516Y10059D01*
X19526Y10070D01*
X19527Y10071D01*
X19529Y10073D01*
X19532Y10076D01*
X19537Y10079D01*
X19542Y10083D01*
X19550Y10089D01*
X19558Y10093D01*
X19567Y10099D01*
X19577Y10104D01*
X19589Y10109D01*
X19602Y10114D01*
X19614Y10118D01*
X19629Y10121D01*
X19644Y10124D01*
X19661Y10126D01*
X19678Y10127D01*
X19679D01*
X19682D01*
X19685D01*
X19691Y10126D01*
D02*
G37*
G36*
Y9636D02*
X19698D01*
X19706Y9634D01*
X19715Y9633D01*
X19725Y9631D01*
X19746Y9626D01*
X19770Y9618D01*
X19783Y9612D01*
X19795Y9607D01*
X19807Y9599D01*
X19818Y9591D01*
X19819Y9590D01*
X19822Y9588D01*
X19826Y9585D01*
X19831Y9580D01*
X19837Y9574D01*
X19845Y9566D01*
X19852Y9557D01*
X19859Y9547D01*
X19868Y9535D01*
X19875Y9522D01*
X19882Y9508D01*
X19889Y9493D01*
X19894Y9476D01*
X19898Y9459D01*
X19900Y9440D01*
X19901Y9420D01*
Y9412D01*
X19900Y9405D01*
X19899Y9398D01*
X19899Y9389D01*
X19898Y9380D01*
X19896Y9369D01*
X19890Y9347D01*
X19881Y9322D01*
X19877Y9311D01*
X19870Y9299D01*
X19863Y9288D01*
X19855Y9277D01*
X19854Y9276D01*
X19853Y9274D01*
X19850Y9271D01*
X19847Y9268D01*
X19841Y9264D01*
X19836Y9259D01*
X19829Y9254D01*
X19822Y9249D01*
X19813Y9242D01*
X19804Y9237D01*
X19782Y9227D01*
X19757Y9218D01*
X19744Y9215D01*
X19729Y9212D01*
X19716Y9332D01*
X19718D01*
X19723Y9333D01*
X19731Y9335D01*
X19740Y9338D01*
X19750Y9342D01*
X19761Y9347D01*
X19771Y9354D01*
X19781Y9362D01*
X19782Y9363D01*
X19785Y9367D01*
X19788Y9373D01*
X19793Y9380D01*
X19797Y9388D01*
X19801Y9398D01*
X19804Y9410D01*
X19805Y9422D01*
Y9424D01*
X19804Y9428D01*
X19803Y9435D01*
X19801Y9444D01*
X19797Y9455D01*
X19792Y9465D01*
X19784Y9476D01*
X19774Y9486D01*
X19772Y9487D01*
X19768Y9491D01*
X19761Y9495D01*
X19750Y9500D01*
X19737Y9505D01*
X19722Y9509D01*
X19703Y9512D01*
X19681Y9513D01*
X19680D01*
X19678D01*
X19675D01*
X19671D01*
X19661Y9512D01*
X19648Y9509D01*
X19633Y9506D01*
X19619Y9502D01*
X19605Y9495D01*
X19593Y9486D01*
X19592Y9485D01*
X19589Y9482D01*
X19584Y9475D01*
X19578Y9468D01*
X19572Y9458D01*
X19568Y9446D01*
X19564Y9433D01*
X19563Y9418D01*
Y9413D01*
X19564Y9409D01*
X19566Y9400D01*
X19569Y9387D01*
X19574Y9373D01*
X19582Y9357D01*
X19588Y9349D01*
X19594Y9341D01*
X19602Y9332D01*
X19610Y9324D01*
X19596Y9227D01*
X19267Y9289D01*
Y9608D01*
X19380D01*
Y9380D01*
X19488Y9361D01*
Y9362D01*
X19487Y9362D01*
X19484Y9368D01*
X19481Y9376D01*
X19477Y9386D01*
X19473Y9399D01*
X19470Y9413D01*
X19468Y9428D01*
X19467Y9444D01*
Y9452D01*
X19468Y9457D01*
X19469Y9464D01*
X19469Y9472D01*
X19471Y9481D01*
X19474Y9491D01*
X19481Y9512D01*
X19486Y9524D01*
X19491Y9535D01*
X19499Y9547D01*
X19507Y9558D01*
X19516Y9569D01*
X19526Y9580D01*
X19527Y9581D01*
X19529Y9583D01*
X19532Y9586D01*
X19537Y9589D01*
X19542Y9593D01*
X19550Y9598D01*
X19558Y9603D01*
X19567Y9608D01*
X19577Y9614D01*
X19589Y9618D01*
X19602Y9624D01*
X19614Y9628D01*
X19629Y9631D01*
X19644Y9634D01*
X19661Y9636D01*
X19678Y9637D01*
X19679D01*
X19682D01*
X19685D01*
X19691Y9636D01*
D02*
G37*
G36*
X10230Y23766D02*
X10242Y23764D01*
X10256Y23761D01*
X10269Y23757D01*
X10284Y23753D01*
X10297Y23745D01*
X10299Y23745D01*
X10303Y23742D01*
X10309Y23737D01*
X10317Y23731D01*
X10326Y23722D01*
X10335Y23712D01*
X10343Y23700D01*
X10350Y23685D01*
X10351Y23684D01*
X10352Y23680D01*
X10354Y23673D01*
X10357Y23663D01*
X10359Y23650D01*
X10361Y23633D01*
X10362Y23613D01*
X10363Y23591D01*
Y23299D01*
X10242D01*
Y23560D01*
Y23561D01*
Y23562D01*
Y23566D01*
Y23571D01*
X10241Y23582D01*
X10240Y23596D01*
X10239Y23611D01*
X10236Y23625D01*
X10234Y23638D01*
X10231Y23643D01*
X10229Y23647D01*
X10228Y23648D01*
X10225Y23652D01*
X10222Y23655D01*
X10216Y23661D01*
X10209Y23665D01*
X10200Y23670D01*
X10189Y23673D01*
X10177Y23674D01*
X10173D01*
X10168Y23673D01*
X10162Y23672D01*
X10154Y23670D01*
X10146Y23667D01*
X10137Y23663D01*
X10129Y23658D01*
X10128Y23657D01*
X10125Y23655D01*
X10122Y23652D01*
X10117Y23646D01*
X10112Y23640D01*
X10106Y23633D01*
X10102Y23623D01*
X10097Y23612D01*
Y23611D01*
X10095Y23607D01*
X10094Y23600D01*
X10092Y23590D01*
X10091Y23576D01*
X10090Y23560D01*
X10088Y23541D01*
Y23518D01*
Y23299D01*
X9967D01*
Y23549D01*
Y23550D01*
Y23551D01*
Y23555D01*
Y23560D01*
Y23571D01*
X9966Y23584D01*
X9965Y23599D01*
X9964Y23612D01*
X9962Y23625D01*
X9960Y23631D01*
X9959Y23634D01*
Y23635D01*
X9959Y23638D01*
X9957Y23642D01*
X9955Y23645D01*
X9948Y23655D01*
X9944Y23660D01*
X9939Y23663D01*
X9938Y23664D01*
X9937Y23665D01*
X9934Y23667D01*
X9930Y23669D01*
X9925Y23671D01*
X9918Y23672D01*
X9911Y23674D01*
X9898D01*
X9893Y23673D01*
X9887Y23672D01*
X9878Y23670D01*
X9870Y23667D01*
X9862Y23663D01*
X9853Y23658D01*
X9852Y23657D01*
X9849Y23655D01*
X9846Y23652D01*
X9841Y23647D01*
X9836Y23641D01*
X9830Y23633D01*
X9826Y23624D01*
X9821Y23614D01*
Y23613D01*
X9819Y23609D01*
X9818Y23602D01*
X9816Y23592D01*
X9815Y23579D01*
X9814Y23563D01*
X9812Y23543D01*
Y23520D01*
Y23299D01*
X9691D01*
Y23756D01*
X9802D01*
Y23694D01*
X9803Y23694D01*
X9805Y23696D01*
X9808Y23700D01*
X9813Y23705D01*
X9818Y23711D01*
X9825Y23716D01*
X9833Y23724D01*
X9842Y23730D01*
X9852Y23736D01*
X9863Y23744D01*
X9887Y23756D01*
X9900Y23760D01*
X9914Y23764D01*
X9928Y23766D01*
X9944Y23766D01*
X9951D01*
X9959Y23766D01*
X9969Y23765D01*
X9981Y23762D01*
X9994Y23759D01*
X10007Y23755D01*
X10020Y23748D01*
X10021Y23747D01*
X10025Y23745D01*
X10031Y23741D01*
X10039Y23735D01*
X10047Y23726D01*
X10056Y23717D01*
X10065Y23705D01*
X10073Y23693D01*
X10075Y23694D01*
X10079Y23699D01*
X10084Y23705D01*
X10092Y23714D01*
X10102Y23723D01*
X10113Y23732D01*
X10125Y23741D01*
X10138Y23748D01*
X10140Y23749D01*
X10144Y23751D01*
X10152Y23754D01*
X10161Y23757D01*
X10172Y23761D01*
X10184Y23764D01*
X10198Y23766D01*
X10213Y23766D01*
X10221D01*
X10230Y23766D01*
D02*
G37*
G36*
X9447D02*
X9458Y23764D01*
X9472Y23761D01*
X9486Y23757D01*
X9500Y23753D01*
X9514Y23745D01*
X9516Y23745D01*
X9519Y23742D01*
X9526Y23737D01*
X9534Y23731D01*
X9542Y23722D01*
X9551Y23712D01*
X9559Y23700D01*
X9567Y23685D01*
X9568Y23684D01*
X9569Y23680D01*
X9570Y23673D01*
X9573Y23663D01*
X9576Y23650D01*
X9578Y23633D01*
X9579Y23613D01*
X9580Y23591D01*
Y23299D01*
X9458D01*
Y23560D01*
Y23561D01*
Y23562D01*
Y23566D01*
Y23571D01*
X9457Y23582D01*
X9457Y23596D01*
X9456Y23611D01*
X9453Y23625D01*
X9450Y23638D01*
X9447Y23643D01*
X9446Y23647D01*
X9445Y23648D01*
X9442Y23652D01*
X9438Y23655D01*
X9433Y23661D01*
X9426Y23665D01*
X9416Y23670D01*
X9406Y23673D01*
X9394Y23674D01*
X9389D01*
X9385Y23673D01*
X9378Y23672D01*
X9371Y23670D01*
X9363Y23667D01*
X9354Y23663D01*
X9345Y23658D01*
X9344Y23657D01*
X9342Y23655D01*
X9338Y23652D01*
X9334Y23646D01*
X9328Y23640D01*
X9323Y23633D01*
X9318Y23623D01*
X9314Y23612D01*
Y23611D01*
X9312Y23607D01*
X9311Y23600D01*
X9309Y23590D01*
X9307Y23576D01*
X9306Y23560D01*
X9304Y23541D01*
Y23518D01*
Y23299D01*
X9183D01*
Y23549D01*
Y23550D01*
Y23551D01*
Y23555D01*
Y23560D01*
Y23571D01*
X9182Y23584D01*
X9181Y23599D01*
X9181Y23612D01*
X9179Y23625D01*
X9177Y23631D01*
X9176Y23634D01*
Y23635D01*
X9175Y23638D01*
X9173Y23642D01*
X9171Y23645D01*
X9165Y23655D01*
X9160Y23660D01*
X9156Y23663D01*
X9155Y23664D01*
X9153Y23665D01*
X9150Y23667D01*
X9147Y23669D01*
X9141Y23671D01*
X9135Y23672D01*
X9128Y23674D01*
X9115D01*
X9109Y23673D01*
X9103Y23672D01*
X9095Y23670D01*
X9087Y23667D01*
X9078Y23663D01*
X9069Y23658D01*
X9068Y23657D01*
X9066Y23655D01*
X9062Y23652D01*
X9058Y23647D01*
X9052Y23641D01*
X9047Y23633D01*
X9042Y23624D01*
X9037Y23614D01*
Y23613D01*
X9036Y23609D01*
X9035Y23602D01*
X9033Y23592D01*
X9031Y23579D01*
X9030Y23563D01*
X9028Y23543D01*
Y23520D01*
Y23299D01*
X8907D01*
Y23756D01*
X9018D01*
Y23694D01*
X9019Y23694D01*
X9021Y23696D01*
X9025Y23700D01*
X9029Y23705D01*
X9035Y23711D01*
X9041Y23716D01*
X9049Y23724D01*
X9058Y23730D01*
X9068Y23736D01*
X9079Y23744D01*
X9103Y23756D01*
X9117Y23760D01*
X9130Y23764D01*
X9145Y23766D01*
X9160Y23766D01*
X9168D01*
X9176Y23766D01*
X9186Y23765D01*
X9198Y23762D01*
X9211Y23759D01*
X9223Y23755D01*
X9236Y23748D01*
X9238Y23747D01*
X9242Y23745D01*
X9248Y23741D01*
X9255Y23735D01*
X9263Y23726D01*
X9273Y23717D01*
X9282Y23705D01*
X9290Y23693D01*
X9292Y23694D01*
X9295Y23699D01*
X9301Y23705D01*
X9309Y23714D01*
X9319Y23723D01*
X9330Y23732D01*
X9342Y23741D01*
X9355Y23748D01*
X9356Y23749D01*
X9361Y23751D01*
X9368Y23754D01*
X9377Y23757D01*
X9388Y23761D01*
X9401Y23764D01*
X9415Y23766D01*
X9429Y23766D01*
X9437D01*
X9447Y23766D01*
D02*
G37*
G36*
X8063Y23808D02*
X7834D01*
X7815Y23701D01*
X7816D01*
X7817Y23702D01*
X7822Y23704D01*
X7830Y23707D01*
X7840Y23712D01*
X7853Y23715D01*
X7867Y23718D01*
X7882Y23721D01*
X7898Y23722D01*
X7906D01*
X7911Y23721D01*
X7918Y23720D01*
X7926Y23719D01*
X7935Y23717D01*
X7945Y23715D01*
X7966Y23707D01*
X7978Y23703D01*
X7989Y23697D01*
X8001Y23690D01*
X8013Y23682D01*
X8024Y23673D01*
X8034Y23663D01*
X8035Y23662D01*
X8037Y23660D01*
X8040Y23656D01*
X8044Y23652D01*
X8047Y23646D01*
X8053Y23639D01*
X8057Y23631D01*
X8063Y23622D01*
X8068Y23612D01*
X8073Y23600D01*
X8078Y23587D01*
X8082Y23574D01*
X8085Y23560D01*
X8088Y23544D01*
X8090Y23528D01*
X8091Y23510D01*
Y23510D01*
Y23507D01*
Y23503D01*
X8090Y23498D01*
Y23490D01*
X8088Y23482D01*
X8087Y23473D01*
X8085Y23464D01*
X8080Y23442D01*
X8072Y23418D01*
X8066Y23406D01*
X8061Y23394D01*
X8054Y23382D01*
X8045Y23370D01*
X8044Y23369D01*
X8043Y23367D01*
X8039Y23363D01*
X8034Y23357D01*
X8028Y23351D01*
X8020Y23344D01*
X8011Y23336D01*
X8001Y23329D01*
X7989Y23321D01*
X7976Y23314D01*
X7963Y23306D01*
X7947Y23300D01*
X7931Y23295D01*
X7913Y23291D01*
X7894Y23288D01*
X7874Y23287D01*
X7866D01*
X7860Y23288D01*
X7852Y23289D01*
X7843Y23290D01*
X7834Y23291D01*
X7823Y23293D01*
X7801Y23298D01*
X7777Y23307D01*
X7765Y23312D01*
X7753Y23318D01*
X7742Y23326D01*
X7731Y23334D01*
X7730Y23335D01*
X7728Y23336D01*
X7726Y23338D01*
X7722Y23342D01*
X7718Y23347D01*
X7713Y23353D01*
X7708Y23359D01*
X7703Y23367D01*
X7696Y23376D01*
X7691Y23385D01*
X7681Y23407D01*
X7672Y23431D01*
X7669Y23445D01*
X7666Y23459D01*
X7787Y23472D01*
Y23470D01*
X7788Y23466D01*
X7789Y23458D01*
X7792Y23449D01*
X7796Y23438D01*
X7801Y23428D01*
X7809Y23418D01*
X7817Y23408D01*
X7818Y23407D01*
X7821Y23404D01*
X7827Y23400D01*
X7834Y23396D01*
X7842Y23391D01*
X7852Y23387D01*
X7864Y23385D01*
X7876Y23384D01*
X7878D01*
X7882Y23385D01*
X7890Y23386D01*
X7899Y23387D01*
X7909Y23391D01*
X7920Y23397D01*
X7931Y23405D01*
X7941Y23415D01*
X7942Y23417D01*
X7945Y23420D01*
X7949Y23428D01*
X7954Y23438D01*
X7959Y23451D01*
X7963Y23467D01*
X7966Y23486D01*
X7967Y23508D01*
Y23509D01*
Y23510D01*
Y23513D01*
Y23518D01*
X7966Y23528D01*
X7963Y23541D01*
X7961Y23555D01*
X7956Y23570D01*
X7950Y23583D01*
X7941Y23595D01*
X7940Y23596D01*
X7936Y23600D01*
X7930Y23604D01*
X7922Y23611D01*
X7912Y23616D01*
X7901Y23621D01*
X7887Y23624D01*
X7872Y23625D01*
X7867D01*
X7863Y23624D01*
X7854Y23623D01*
X7841Y23620D01*
X7827Y23614D01*
X7811Y23606D01*
X7803Y23601D01*
X7795Y23594D01*
X7787Y23587D01*
X7778Y23579D01*
X7681Y23592D01*
X7743Y23921D01*
X8063D01*
Y23808D01*
D02*
G37*
G36*
X8301Y23299D02*
X8180D01*
Y23420D01*
X8301D01*
Y23299D01*
D02*
G37*
G36*
X7529Y23531D02*
X7607D01*
Y23426D01*
X7529D01*
Y23299D01*
X7412D01*
Y23426D01*
X7154D01*
Y23530D01*
X7427Y23932D01*
X7529D01*
Y23531D01*
D02*
G37*
G36*
X8619Y23932D02*
X8627Y23931D01*
X8636Y23930D01*
X8645Y23928D01*
X8656Y23925D01*
X8668Y23921D01*
X8679Y23917D01*
X8690Y23912D01*
X8702Y23906D01*
X8714Y23898D01*
X8726Y23889D01*
X8737Y23879D01*
X8747Y23868D01*
X8748Y23867D01*
X8750Y23864D01*
X8752Y23859D01*
X8757Y23853D01*
X8761Y23844D01*
X8767Y23833D01*
X8772Y23821D01*
X8778Y23806D01*
X8783Y23789D01*
X8790Y23770D01*
X8794Y23749D01*
X8799Y23725D01*
X8803Y23700D01*
X8806Y23673D01*
X8808Y23643D01*
X8809Y23610D01*
Y23609D01*
Y23608D01*
Y23605D01*
Y23602D01*
Y23592D01*
X8808Y23581D01*
X8807Y23566D01*
X8805Y23549D01*
X8803Y23530D01*
X8802Y23510D01*
X8798Y23489D01*
X8793Y23468D01*
X8789Y23447D01*
X8782Y23426D01*
X8776Y23405D01*
X8767Y23386D01*
X8758Y23367D01*
X8747Y23352D01*
X8746Y23351D01*
X8744Y23349D01*
X8741Y23346D01*
X8738Y23342D01*
X8732Y23337D01*
X8726Y23332D01*
X8718Y23326D01*
X8710Y23320D01*
X8700Y23314D01*
X8689Y23307D01*
X8678Y23302D01*
X8665Y23297D01*
X8651Y23294D01*
X8636Y23290D01*
X8620Y23288D01*
X8604Y23287D01*
X8600D01*
X8595Y23288D01*
X8588D01*
X8581Y23289D01*
X8572Y23291D01*
X8562Y23293D01*
X8551Y23296D01*
X8539Y23300D01*
X8527Y23305D01*
X8515Y23310D01*
X8503Y23317D01*
X8490Y23325D01*
X8478Y23335D01*
X8466Y23345D01*
X8455Y23357D01*
X8454Y23358D01*
X8453Y23361D01*
X8450Y23366D01*
X8447Y23371D01*
X8443Y23379D01*
X8438Y23389D01*
X8433Y23402D01*
X8428Y23416D01*
X8423Y23432D01*
X8417Y23450D01*
X8413Y23471D01*
X8409Y23494D01*
X8405Y23520D01*
X8403Y23548D01*
X8401Y23578D01*
X8400Y23611D01*
Y23612D01*
Y23612D01*
Y23615D01*
Y23619D01*
Y23628D01*
X8401Y23640D01*
X8402Y23654D01*
X8403Y23672D01*
X8405Y23690D01*
X8407Y23710D01*
X8411Y23731D01*
X8414Y23752D01*
X8420Y23774D01*
X8425Y23795D01*
X8433Y23815D01*
X8441Y23834D01*
X8450Y23852D01*
X8461Y23868D01*
X8462Y23868D01*
X8464Y23870D01*
X8466Y23874D01*
X8471Y23878D01*
X8475Y23883D01*
X8482Y23889D01*
X8490Y23894D01*
X8498Y23900D01*
X8508Y23907D01*
X8518Y23912D01*
X8530Y23918D01*
X8543Y23923D01*
X8556Y23927D01*
X8572Y23930D01*
X8587Y23932D01*
X8604Y23933D01*
X8613D01*
X8619Y23932D01*
D02*
G37*
%LPC*%
G36*
X-1929Y10394D02*
X-1957D01*
X-1958D01*
X-1959D01*
X-1963D01*
X-1972D01*
X-1983Y10393D01*
X-1994D01*
X-2009Y10392D01*
X-2025Y10391D01*
X-2042Y10389D01*
X-2076Y10384D01*
X-2094Y10382D01*
X-2110Y10378D01*
X-2126Y10374D01*
X-2140Y10369D01*
X-2153Y10364D01*
X-2164Y10357D01*
X-2165D01*
X-2166Y10355D01*
X-2168Y10353D01*
X-2172Y10351D01*
X-2180Y10343D01*
X-2190Y10333D01*
X-2199Y10319D01*
X-2208Y10303D01*
X-2211Y10295D01*
X-2214Y10286D01*
X-2215Y10276D01*
X-2216Y10266D01*
Y10261D01*
X-2215Y10257D01*
X-2213Y10247D01*
X-2210Y10235D01*
X-2205Y10221D01*
X-2197Y10207D01*
X-2191Y10200D01*
X-2186Y10192D01*
X-2178Y10186D01*
X-2170Y10179D01*
X-2169D01*
X-2168Y10178D01*
X-2164Y10176D01*
X-2159Y10173D01*
X-2152Y10170D01*
X-2144Y10167D01*
X-2134Y10164D01*
X-2122Y10160D01*
X-2108Y10157D01*
X-2093Y10153D01*
X-2076Y10149D01*
X-2056Y10147D01*
X-2035Y10144D01*
X-2011Y10142D01*
X-1985Y10141D01*
X-1957Y10140D01*
X-1955D01*
X-1951D01*
X-1943D01*
X-1932Y10141D01*
X-1920D01*
X-1905Y10142D01*
X-1890Y10143D01*
X-1873Y10145D01*
X-1838Y10149D01*
X-1820Y10152D01*
X-1804Y10156D01*
X-1789Y10159D01*
X-1774Y10165D01*
X-1761Y10170D01*
X-1750Y10177D01*
X-1749D01*
X-1749Y10179D01*
X-1742Y10183D01*
X-1734Y10191D01*
X-1725Y10201D01*
X-1716Y10215D01*
X-1708Y10231D01*
X-1701Y10248D01*
X-1700Y10257D01*
X-1699Y10267D01*
Y10272D01*
X-1700Y10276D01*
X-1702Y10285D01*
X-1706Y10298D01*
X-1712Y10312D01*
X-1721Y10327D01*
X-1727Y10334D01*
X-1734Y10342D01*
X-1741Y10349D01*
X-1750Y10356D01*
X-1751D01*
X-1753Y10358D01*
X-1756Y10360D01*
X-1760Y10362D01*
X-1767Y10365D01*
X-1775Y10368D01*
X-1784Y10372D01*
X-1795Y10375D01*
X-1809Y10378D01*
X-1823Y10382D01*
X-1841Y10385D01*
X-1859Y10388D01*
X-1881Y10390D01*
X-1903Y10392D01*
X-1929Y10394D01*
D02*
G37*
G36*
Y9903D02*
X-1957D01*
X-1958D01*
X-1959D01*
X-1963D01*
X-1972D01*
X-1983Y9903D01*
X-1994D01*
X-2009Y9902D01*
X-2025Y9901D01*
X-2042Y9899D01*
X-2076Y9894D01*
X-2094Y9892D01*
X-2110Y9888D01*
X-2126Y9884D01*
X-2140Y9879D01*
X-2153Y9873D01*
X-2164Y9867D01*
X-2165D01*
X-2166Y9865D01*
X-2168Y9863D01*
X-2172Y9861D01*
X-2180Y9852D01*
X-2190Y9842D01*
X-2199Y9829D01*
X-2208Y9813D01*
X-2211Y9805D01*
X-2214Y9796D01*
X-2215Y9786D01*
X-2216Y9776D01*
Y9770D01*
X-2215Y9767D01*
X-2213Y9757D01*
X-2210Y9745D01*
X-2205Y9731D01*
X-2197Y9717D01*
X-2191Y9709D01*
X-2186Y9702D01*
X-2178Y9696D01*
X-2170Y9689D01*
X-2169D01*
X-2168Y9688D01*
X-2164Y9686D01*
X-2159Y9683D01*
X-2152Y9680D01*
X-2144Y9677D01*
X-2134Y9674D01*
X-2122Y9670D01*
X-2108Y9667D01*
X-2093Y9663D01*
X-2076Y9659D01*
X-2056Y9657D01*
X-2035Y9654D01*
X-2011Y9652D01*
X-1985Y9651D01*
X-1957Y9650D01*
X-1955D01*
X-1951D01*
X-1943D01*
X-1932Y9651D01*
X-1920D01*
X-1905Y9652D01*
X-1890Y9653D01*
X-1873Y9655D01*
X-1838Y9659D01*
X-1820Y9662D01*
X-1804Y9666D01*
X-1789Y9669D01*
X-1774Y9675D01*
X-1761Y9680D01*
X-1750Y9687D01*
X-1749D01*
X-1749Y9688D01*
X-1742Y9693D01*
X-1734Y9701D01*
X-1725Y9711D01*
X-1716Y9725D01*
X-1708Y9740D01*
X-1701Y9758D01*
X-1700Y9767D01*
X-1699Y9777D01*
Y9782D01*
X-1700Y9786D01*
X-1702Y9795D01*
X-1706Y9808D01*
X-1712Y9821D01*
X-1721Y9837D01*
X-1727Y9844D01*
X-1734Y9852D01*
X-1741Y9859D01*
X-1750Y9866D01*
X-1751D01*
X-1753Y9868D01*
X-1756Y9870D01*
X-1760Y9872D01*
X-1767Y9875D01*
X-1775Y9878D01*
X-1784Y9882D01*
X-1795Y9885D01*
X-1809Y9888D01*
X-1823Y9892D01*
X-1841Y9895D01*
X-1859Y9898D01*
X-1881Y9900D01*
X-1903Y9902D01*
X-1929Y9903D01*
D02*
G37*
G36*
X-2895Y21054D02*
X-2923D01*
X-2924D01*
X-2925D01*
X-2930D01*
X-2938D01*
X-2949Y21053D01*
X-2961D01*
X-2975Y21052D01*
X-2991Y21051D01*
X-3008Y21049D01*
X-3043Y21044D01*
X-3060Y21042D01*
X-3076Y21038D01*
X-3092Y21034D01*
X-3106Y21029D01*
X-3119Y21024D01*
X-3130Y21017D01*
X-3131D01*
X-3132Y21015D01*
X-3135Y21013D01*
X-3138Y21011D01*
X-3146Y21003D01*
X-3156Y20993D01*
X-3166Y20979D01*
X-3174Y20963D01*
X-3177Y20955D01*
X-3180Y20946D01*
X-3181Y20936D01*
X-3182Y20926D01*
Y20921D01*
X-3181Y20917D01*
X-3179Y20907D01*
X-3176Y20895D01*
X-3171Y20881D01*
X-3163Y20867D01*
X-3157Y20860D01*
X-3152Y20852D01*
X-3145Y20846D01*
X-3136Y20839D01*
X-3135D01*
X-3134Y20838D01*
X-3130Y20836D01*
X-3125Y20833D01*
X-3118Y20830D01*
X-3110Y20827D01*
X-3100Y20824D01*
X-3088Y20820D01*
X-3074Y20817D01*
X-3059Y20813D01*
X-3042Y20809D01*
X-3023Y20807D01*
X-3001Y20804D01*
X-2977Y20802D01*
X-2951Y20801D01*
X-2923Y20800D01*
X-2921D01*
X-2917D01*
X-2909D01*
X-2898Y20801D01*
X-2886D01*
X-2871Y20802D01*
X-2856Y20803D01*
X-2839Y20805D01*
X-2804Y20809D01*
X-2787Y20812D01*
X-2770Y20816D01*
X-2755Y20819D01*
X-2740Y20825D01*
X-2727Y20830D01*
X-2716Y20837D01*
X-2716D01*
X-2715Y20839D01*
X-2708Y20843D01*
X-2700Y20851D01*
X-2691Y20861D01*
X-2682Y20875D01*
X-2674Y20891D01*
X-2667Y20908D01*
X-2666Y20917D01*
X-2665Y20927D01*
Y20932D01*
X-2666Y20936D01*
X-2668Y20945D01*
X-2672Y20958D01*
X-2678Y20972D01*
X-2687Y20987D01*
X-2693Y20994D01*
X-2700Y21002D01*
X-2707Y21009D01*
X-2716Y21016D01*
X-2717D01*
X-2719Y21018D01*
X-2722Y21020D01*
X-2726Y21022D01*
X-2733Y21025D01*
X-2741Y21028D01*
X-2750Y21032D01*
X-2761Y21035D01*
X-2775Y21038D01*
X-2789Y21042D01*
X-2807Y21045D01*
X-2825Y21048D01*
X-2847Y21050D01*
X-2869Y21052D01*
X-2895Y21054D01*
D02*
G37*
G36*
X-2835Y20479D02*
X-3117D01*
X-2835Y20280D01*
Y20479D01*
D02*
G37*
G36*
X8888Y-1249D02*
X8882D01*
X8879Y-1250D01*
X8868Y-1251D01*
X8857Y-1254D01*
X8843Y-1260D01*
X8828Y-1268D01*
X8821Y-1273D01*
X8814Y-1279D01*
X8807Y-1286D01*
X8801Y-1294D01*
Y-1295D01*
X8799Y-1297D01*
X8797Y-1301D01*
X8795Y-1305D01*
X8792Y-1312D01*
X8788Y-1321D01*
X8786Y-1331D01*
X8782Y-1343D01*
X8778Y-1356D01*
X8775Y-1372D01*
X8771Y-1389D01*
X8768Y-1408D01*
X8766Y-1430D01*
X8764Y-1454D01*
X8763Y-1479D01*
X8762Y-1507D01*
Y-1509D01*
Y-1514D01*
Y-1522D01*
X8763Y-1533D01*
Y-1545D01*
X8764Y-1559D01*
X8765Y-1575D01*
X8766Y-1591D01*
X8771Y-1627D01*
X8774Y-1644D01*
X8777Y-1661D01*
X8781Y-1676D01*
X8787Y-1691D01*
X8792Y-1703D01*
X8798Y-1714D01*
Y-1715D01*
X8800Y-1716D01*
X8805Y-1722D01*
X8813Y-1731D01*
X8823Y-1740D01*
X8837Y-1749D01*
X8852Y-1757D01*
X8869Y-1763D01*
X8879Y-1764D01*
X8889Y-1765D01*
X8894D01*
X8898Y-1764D01*
X8907Y-1763D01*
X8920Y-1759D01*
X8933Y-1753D01*
X8949Y-1743D01*
X8956Y-1738D01*
X8963Y-1731D01*
X8971Y-1723D01*
X8978Y-1714D01*
Y-1713D01*
X8980Y-1712D01*
X8981Y-1709D01*
X8983Y-1704D01*
X8987Y-1698D01*
X8990Y-1690D01*
X8993Y-1681D01*
X8997Y-1670D01*
X9000Y-1656D01*
X9003Y-1641D01*
X9007Y-1624D01*
X9010Y-1606D01*
X9012Y-1584D01*
X9013Y-1561D01*
X9015Y-1536D01*
Y-1507D01*
Y-1507D01*
Y-1506D01*
Y-1501D01*
Y-1493D01*
X9014Y-1482D01*
Y-1470D01*
X9013Y-1456D01*
X9012Y-1440D01*
X9011Y-1423D01*
X9006Y-1388D01*
X9003Y-1371D01*
X9000Y-1354D01*
X8996Y-1339D01*
X8991Y-1324D01*
X8985Y-1312D01*
X8979Y-1301D01*
Y-1300D01*
X8977Y-1299D01*
X8975Y-1296D01*
X8972Y-1292D01*
X8964Y-1284D01*
X8954Y-1274D01*
X8940Y-1265D01*
X8925Y-1257D01*
X8917Y-1253D01*
X8908Y-1251D01*
X8898Y-1250D01*
X8888Y-1249D01*
D02*
G37*
G36*
X7664D02*
X7657D01*
X7649Y-1251D01*
X7638Y-1252D01*
X7626Y-1256D01*
X7613Y-1261D01*
X7601Y-1268D01*
X7589Y-1278D01*
X7589Y-1279D01*
X7585Y-1282D01*
X7580Y-1289D01*
X7576Y-1297D01*
X7570Y-1307D01*
X7566Y-1319D01*
X7562Y-1332D01*
X7561Y-1346D01*
Y-1347D01*
Y-1348D01*
X7562Y-1353D01*
X7563Y-1362D01*
X7565Y-1372D01*
X7569Y-1384D01*
X7573Y-1395D01*
X7580Y-1408D01*
X7589Y-1419D01*
X7590Y-1420D01*
X7595Y-1424D01*
X7601Y-1428D01*
X7610Y-1433D01*
X7620Y-1438D01*
X7633Y-1443D01*
X7648Y-1446D01*
X7664Y-1447D01*
X7666D01*
X7671Y-1446D01*
X7680Y-1445D01*
X7691Y-1444D01*
X7702Y-1440D01*
X7714Y-1435D01*
X7727Y-1428D01*
X7738Y-1419D01*
X7739Y-1418D01*
X7742Y-1414D01*
X7747Y-1408D01*
X7753Y-1400D01*
X7758Y-1390D01*
X7763Y-1378D01*
X7766Y-1364D01*
X7767Y-1350D01*
Y-1349D01*
Y-1348D01*
Y-1343D01*
X7765Y-1334D01*
X7763Y-1324D01*
X7760Y-1313D01*
X7754Y-1302D01*
X7747Y-1290D01*
X7737Y-1278D01*
X7736Y-1277D01*
X7732Y-1273D01*
X7725Y-1269D01*
X7717Y-1263D01*
X7706Y-1258D01*
X7694Y-1253D01*
X7680Y-1250D01*
X7664Y-1249D01*
D02*
G37*
G36*
X7661Y-1510D02*
X7656D01*
X7652Y-1511D01*
X7642Y-1512D01*
X7630Y-1515D01*
X7615Y-1519D01*
X7600Y-1526D01*
X7585Y-1535D01*
X7571Y-1547D01*
X7569Y-1548D01*
X7566Y-1553D01*
X7560Y-1561D01*
X7554Y-1571D01*
X7547Y-1585D01*
X7541Y-1600D01*
X7538Y-1618D01*
X7536Y-1637D01*
Y-1639D01*
Y-1642D01*
X7537Y-1649D01*
X7538Y-1657D01*
X7539Y-1667D01*
X7542Y-1678D01*
X7546Y-1689D01*
X7550Y-1701D01*
X7551Y-1701D01*
X7553Y-1706D01*
X7557Y-1712D01*
X7562Y-1718D01*
X7569Y-1726D01*
X7577Y-1734D01*
X7586Y-1742D01*
X7597Y-1749D01*
X7599Y-1750D01*
X7602Y-1752D01*
X7609Y-1754D01*
X7617Y-1757D01*
X7627Y-1760D01*
X7639Y-1763D01*
X7651Y-1764D01*
X7664Y-1765D01*
X7670D01*
X7673Y-1764D01*
X7684Y-1763D01*
X7697Y-1761D01*
X7712Y-1756D01*
X7727Y-1751D01*
X7742Y-1742D01*
X7756Y-1730D01*
X7758Y-1728D01*
X7762Y-1723D01*
X7768Y-1715D01*
X7774Y-1705D01*
X7781Y-1692D01*
X7787Y-1677D01*
X7791Y-1659D01*
X7793Y-1640D01*
Y-1639D01*
Y-1637D01*
Y-1634D01*
X7792Y-1630D01*
X7791Y-1620D01*
X7788Y-1607D01*
X7783Y-1593D01*
X7777Y-1578D01*
X7768Y-1562D01*
X7755Y-1548D01*
X7753Y-1546D01*
X7749Y-1542D01*
X7741Y-1536D01*
X7730Y-1528D01*
X7716Y-1522D01*
X7700Y-1516D01*
X7681Y-1512D01*
X7661Y-1510D01*
D02*
G37*
G36*
X16384Y-2280D02*
X16186Y-2562D01*
X16384D01*
Y-2280D01*
D02*
G37*
G36*
X16832Y-2215D02*
X16826D01*
X16822Y-2216D01*
X16812Y-2218D01*
X16801Y-2220D01*
X16787Y-2226D01*
X16772Y-2234D01*
X16765Y-2239D01*
X16758Y-2245D01*
X16751Y-2252D01*
X16745Y-2260D01*
Y-2261D01*
X16743Y-2263D01*
X16741Y-2267D01*
X16739Y-2271D01*
X16736Y-2279D01*
X16732Y-2287D01*
X16730Y-2297D01*
X16726Y-2309D01*
X16722Y-2322D01*
X16719Y-2338D01*
X16715Y-2355D01*
X16712Y-2374D01*
X16709Y-2396D01*
X16708Y-2420D01*
X16707Y-2445D01*
X16706Y-2474D01*
Y-2475D01*
Y-2480D01*
Y-2488D01*
X16707Y-2499D01*
Y-2511D01*
X16708Y-2525D01*
X16709Y-2541D01*
X16710Y-2557D01*
X16715Y-2593D01*
X16718Y-2610D01*
X16721Y-2627D01*
X16725Y-2642D01*
X16730Y-2657D01*
X16736Y-2669D01*
X16742Y-2680D01*
Y-2681D01*
X16744Y-2682D01*
X16749Y-2689D01*
X16757Y-2697D01*
X16767Y-2706D01*
X16781Y-2715D01*
X16796Y-2723D01*
X16813Y-2730D01*
X16822Y-2730D01*
X16832Y-2731D01*
X16838D01*
X16842Y-2730D01*
X16851Y-2729D01*
X16863Y-2725D01*
X16877Y-2719D01*
X16893Y-2710D01*
X16900Y-2704D01*
X16907Y-2697D01*
X16914Y-2689D01*
X16922Y-2680D01*
Y-2679D01*
X16924Y-2678D01*
X16925Y-2675D01*
X16927Y-2670D01*
X16931Y-2664D01*
X16934Y-2656D01*
X16937Y-2647D01*
X16941Y-2636D01*
X16944Y-2622D01*
X16947Y-2607D01*
X16951Y-2590D01*
X16954Y-2572D01*
X16955Y-2550D01*
X16957Y-2527D01*
X16959Y-2502D01*
Y-2474D01*
Y-2473D01*
Y-2472D01*
Y-2467D01*
Y-2459D01*
X16958Y-2448D01*
Y-2436D01*
X16957Y-2422D01*
X16956Y-2406D01*
X16955Y-2389D01*
X16950Y-2354D01*
X16947Y-2337D01*
X16944Y-2321D01*
X16940Y-2305D01*
X16934Y-2290D01*
X16929Y-2278D01*
X16923Y-2267D01*
Y-2266D01*
X16921Y-2265D01*
X16919Y-2262D01*
X16916Y-2259D01*
X16908Y-2250D01*
X16898Y-2240D01*
X16884Y-2231D01*
X16869Y-2223D01*
X16861Y-2219D01*
X16852Y-2217D01*
X16842Y-2216D01*
X16832Y-2215D01*
D02*
G37*
G36*
X4533Y2778D02*
X4529D01*
X4525Y2777D01*
X4516Y2776D01*
X4505Y2773D01*
X4492Y2769D01*
X4479Y2762D01*
X4465Y2752D01*
X4451Y2740D01*
X4450Y2738D01*
X4446Y2732D01*
X4440Y2724D01*
X4435Y2712D01*
X4429Y2698D01*
X4423Y2680D01*
X4420Y2659D01*
X4418Y2635D01*
Y2633D01*
Y2628D01*
X4419Y2619D01*
X4420Y2609D01*
X4420Y2598D01*
X4423Y2585D01*
X4426Y2572D01*
X4430Y2558D01*
X4599Y2754D01*
X4598Y2755D01*
X4594Y2758D01*
X4588Y2762D01*
X4580Y2766D01*
X4571Y2771D01*
X4560Y2774D01*
X4547Y2777D01*
X4533Y2778D01*
D02*
G37*
G36*
X4636Y2701D02*
X4468Y2507D01*
X4469Y2506D01*
X4473Y2505D01*
X4479Y2501D01*
X4487Y2497D01*
X4496Y2494D01*
X4507Y2490D01*
X4519Y2488D01*
X4532Y2487D01*
X4537D01*
X4541Y2488D01*
X4550Y2489D01*
X4562Y2492D01*
X4574Y2496D01*
X4588Y2503D01*
X4602Y2512D01*
X4615Y2524D01*
X4617Y2526D01*
X4621Y2531D01*
X4626Y2539D01*
X4633Y2551D01*
X4638Y2566D01*
X4644Y2583D01*
X4647Y2604D01*
X4649Y2628D01*
Y2628D01*
Y2629D01*
Y2635D01*
X4648Y2642D01*
X4647Y2652D01*
X4646Y2664D01*
X4644Y2676D01*
X4641Y2689D01*
X4636Y2701D01*
D02*
G37*
G36*
X12216Y19551D02*
X12212D01*
X12208Y19550D01*
X12199Y19549D01*
X12188Y19547D01*
X12175Y19542D01*
X12162Y19535D01*
X12148Y19526D01*
X12134Y19513D01*
X12132Y19511D01*
X12129Y19505D01*
X12123Y19497D01*
X12118Y19485D01*
X12111Y19471D01*
X12106Y19453D01*
X12102Y19432D01*
X12101Y19408D01*
Y19406D01*
Y19401D01*
X12101Y19393D01*
X12102Y19383D01*
X12103Y19371D01*
X12106Y19358D01*
X12109Y19345D01*
X12112Y19332D01*
X12282Y19527D01*
X12281Y19528D01*
X12277Y19531D01*
X12271Y19535D01*
X12263Y19539D01*
X12254Y19544D01*
X12243Y19547D01*
X12230Y19550D01*
X12216Y19551D01*
D02*
G37*
G36*
X12319Y19475D02*
X12151Y19280D01*
X12152Y19280D01*
X12156Y19278D01*
X12162Y19274D01*
X12170Y19270D01*
X12179Y19267D01*
X12190Y19263D01*
X12202Y19261D01*
X12215Y19260D01*
X12220D01*
X12224Y19261D01*
X12233Y19262D01*
X12244Y19265D01*
X12257Y19270D01*
X12271Y19276D01*
X12285Y19285D01*
X12298Y19297D01*
X12300Y19299D01*
X12304Y19304D01*
X12309Y19312D01*
X12316Y19324D01*
X12321Y19339D01*
X12326Y19356D01*
X12330Y19377D01*
X12332Y19401D01*
Y19402D01*
Y19403D01*
Y19408D01*
X12331Y19415D01*
X12330Y19425D01*
X12329Y19437D01*
X12326Y19449D01*
X12324Y19462D01*
X12319Y19475D01*
D02*
G37*
G36*
X11578Y2265D02*
X11573D01*
X11569Y2264D01*
X11560Y2263D01*
X11549Y2261D01*
X11537Y2256D01*
X11523Y2249D01*
X11509Y2240D01*
X11496Y2227D01*
X11494Y2225D01*
X11490Y2220D01*
X11485Y2211D01*
X11479Y2200D01*
X11473Y2185D01*
X11467Y2167D01*
X11464Y2146D01*
X11462Y2122D01*
Y2120D01*
Y2115D01*
X11463Y2107D01*
X11464Y2097D01*
X11465Y2085D01*
X11467Y2072D01*
X11470Y2059D01*
X11474Y2046D01*
X11643Y2242D01*
X11642Y2242D01*
X11639Y2245D01*
X11632Y2249D01*
X11624Y2253D01*
X11615Y2258D01*
X11604Y2262D01*
X11591Y2264D01*
X11578Y2265D01*
D02*
G37*
G36*
X11681Y2189D02*
X11512Y1995D01*
X11513Y1994D01*
X11518Y1992D01*
X11523Y1988D01*
X11531Y1985D01*
X11540Y1981D01*
X11551Y1977D01*
X11563Y1976D01*
X11577Y1975D01*
X11581D01*
X11585Y1976D01*
X11594Y1976D01*
X11606Y1979D01*
X11619Y1984D01*
X11632Y1990D01*
X11646Y1999D01*
X11660Y2011D01*
X11661Y2013D01*
X11665Y2018D01*
X11671Y2027D01*
X11677Y2038D01*
X11682Y2053D01*
X11688Y2070D01*
X11692Y2091D01*
X11693Y2115D01*
Y2116D01*
Y2117D01*
Y2122D01*
X11692Y2129D01*
X11692Y2139D01*
X11691Y2151D01*
X11688Y2163D01*
X11685Y2176D01*
X11681Y2189D01*
D02*
G37*
G36*
X4421Y19327D02*
X4417D01*
X4413Y19326D01*
X4404Y19325D01*
X4393Y19322D01*
X4380Y19318D01*
X4367Y19311D01*
X4353Y19301D01*
X4339Y19289D01*
X4338Y19287D01*
X4334Y19281D01*
X4328Y19273D01*
X4323Y19261D01*
X4317Y19247D01*
X4311Y19229D01*
X4308Y19208D01*
X4306Y19184D01*
Y19182D01*
Y19177D01*
X4307Y19168D01*
X4308Y19158D01*
X4308Y19147D01*
X4311Y19134D01*
X4314Y19121D01*
X4318Y19107D01*
X4487Y19303D01*
X4486Y19304D01*
X4482Y19307D01*
X4476Y19311D01*
X4468Y19315D01*
X4459Y19320D01*
X4448Y19323D01*
X4435Y19326D01*
X4421Y19327D01*
D02*
G37*
G36*
X4524Y19250D02*
X4356Y19056D01*
X4357Y19055D01*
X4361Y19054D01*
X4367Y19050D01*
X4375Y19046D01*
X4384Y19043D01*
X4395Y19039D01*
X4407Y19037D01*
X4420Y19036D01*
X4425D01*
X4429Y19037D01*
X4438Y19038D01*
X4450Y19041D01*
X4462Y19045D01*
X4476Y19052D01*
X4490Y19061D01*
X4503Y19073D01*
X4505Y19075D01*
X4509Y19080D01*
X4514Y19088D01*
X4521Y19100D01*
X4526Y19115D01*
X4532Y19132D01*
X4535Y19153D01*
X4537Y19177D01*
Y19178D01*
Y19178D01*
Y19184D01*
X4536Y19191D01*
X4535Y19201D01*
X4534Y19213D01*
X4532Y19225D01*
X4529Y19238D01*
X4524Y19250D01*
D02*
G37*
G36*
X19657Y10673D02*
X19440D01*
X19657Y10527D01*
Y10673D01*
D02*
G37*
G36*
X7412Y23748D02*
X7266Y23531D01*
X7412D01*
Y23748D01*
D02*
G37*
G36*
X8604Y23833D02*
X8600D01*
X8596Y23832D01*
X8591Y23831D01*
X8585Y23829D01*
X8578Y23827D01*
X8571Y23823D01*
X8565Y23818D01*
X8564Y23817D01*
X8562Y23816D01*
X8559Y23812D01*
X8556Y23807D01*
X8551Y23800D01*
X8547Y23792D01*
X8543Y23781D01*
X8539Y23768D01*
Y23767D01*
X8538Y23766D01*
Y23763D01*
X8537Y23759D01*
X8536Y23754D01*
X8536Y23747D01*
X8535Y23740D01*
X8534Y23731D01*
X8532Y23720D01*
X8531Y23709D01*
X8530Y23695D01*
X8529Y23682D01*
X8528Y23665D01*
Y23649D01*
X8527Y23630D01*
Y23610D01*
Y23609D01*
Y23605D01*
Y23599D01*
Y23592D01*
Y23582D01*
X8528Y23572D01*
Y23561D01*
X8529Y23549D01*
X8530Y23523D01*
X8532Y23498D01*
X8533Y23486D01*
X8535Y23475D01*
X8536Y23465D01*
X8538Y23456D01*
X8539Y23454D01*
X8540Y23449D01*
X8543Y23442D01*
X8546Y23434D01*
X8550Y23425D01*
X8555Y23416D01*
X8560Y23408D01*
X8566Y23401D01*
X8566Y23400D01*
X8568Y23399D01*
X8572Y23397D01*
X8577Y23395D01*
X8582Y23392D01*
X8588Y23389D01*
X8596Y23388D01*
X8604Y23387D01*
X8608D01*
X8612Y23388D01*
X8617Y23389D01*
X8623Y23391D01*
X8629Y23393D01*
X8636Y23397D01*
X8642Y23401D01*
X8643Y23402D01*
X8645Y23404D01*
X8648Y23408D01*
X8652Y23413D01*
X8656Y23419D01*
X8660Y23428D01*
X8665Y23438D01*
X8669Y23451D01*
Y23452D01*
X8669Y23453D01*
Y23457D01*
X8670Y23460D01*
X8671Y23466D01*
X8672Y23472D01*
X8674Y23479D01*
X8675Y23489D01*
X8676Y23499D01*
X8678Y23510D01*
X8679Y23523D01*
X8679Y23538D01*
X8680Y23553D01*
Y23571D01*
X8681Y23590D01*
Y23610D01*
Y23611D01*
Y23614D01*
Y23621D01*
Y23628D01*
Y23637D01*
X8680Y23647D01*
Y23659D01*
X8679Y23671D01*
X8679Y23696D01*
X8677Y23721D01*
X8675Y23733D01*
X8673Y23745D01*
X8671Y23755D01*
X8669Y23763D01*
Y23764D01*
X8669Y23765D01*
X8668Y23769D01*
X8665Y23776D01*
X8662Y23786D01*
X8658Y23795D01*
X8653Y23804D01*
X8648Y23812D01*
X8642Y23818D01*
X8641Y23819D01*
X8639Y23821D01*
X8636Y23823D01*
X8631Y23826D01*
X8626Y23828D01*
X8619Y23831D01*
X8612Y23832D01*
X8604Y23833D01*
D02*
G37*
%LPD*%
D11*
X17008Y20472D02*
G03*
X17008Y20472I-630J0D01*
G01*
X1969D02*
G03*
X1969Y20472I-630J0D01*
G01*
Y1457D02*
G03*
X1969Y1457I-630J0D01*
G01*
X17008D02*
G03*
X17008Y1457I-630J0D01*
G01*
X-2069Y0D02*
X-159D01*
X-2069Y20472D02*
X17D01*
X-1969Y0D02*
Y8246D01*
Y12027D02*
Y20472D01*
Y0D02*
X-1769Y600D01*
X-2168D02*
X-1969Y0D01*
X-2168Y19872D02*
X-1969Y20472D01*
X-1769Y19872D01*
X-2069Y20472D02*
X17D01*
X-2069Y21811D02*
X-159D01*
X-1969D02*
Y22811D01*
Y19472D02*
Y20472D01*
Y21811D02*
X-1769Y22411D01*
X-2168D02*
X-1969Y21811D01*
X-2168Y19872D02*
X-1969Y20472D01*
X-1769Y19872D01*
X1339Y-1596D02*
Y136D01*
X16378Y-1596D02*
Y136D01*
X1339Y-1496D02*
X6868D01*
X10648D02*
X16378D01*
X1339D02*
X1939Y-1696D01*
X1339Y-1496D02*
X1939Y-1296D01*
X15778D02*
X16378Y-1496D01*
X15778Y-1696D02*
X16378Y-1496D01*
Y-1596D02*
Y136D01*
X17717Y-1596D02*
Y-159D01*
Y-1496D02*
X18717D01*
X15378D02*
X16378D01*
X17717D02*
X18317Y-1696D01*
X17717Y-1496D02*
X18317Y-1296D01*
X15778D02*
X16378Y-1496D01*
X15778Y-1696D02*
X16378Y-1496D01*
X186Y304D02*
X893Y1011D01*
X327Y728D02*
X893Y1011D01*
X610Y446D02*
X893Y1011D01*
X3408Y3526D02*
X4197Y2736D01*
X1784Y1902D02*
X3408Y3526D01*
X1784Y1902D02*
X2350Y2185D01*
X1784Y1902D02*
X2067Y2468D01*
X17008Y20472D02*
X18008D01*
X17008D02*
X17608Y20272D01*
X17008Y20472D02*
X17608Y20672D01*
X10917Y20472D02*
X11880Y19509D01*
X10917Y20472D02*
X15748D01*
X15148Y20672D02*
X15748Y20472D01*
X15148Y20272D02*
X15748Y20472D01*
X17008Y1457D02*
X18008D01*
X17008D02*
X17608Y1257D01*
X17008Y1457D02*
X17608Y1657D01*
X10475Y1457D02*
X11242Y2223D01*
X10475Y1457D02*
X15748D01*
X15148Y1657D02*
X15748Y1457D01*
X15148Y1257D02*
X15748Y1457D01*
X186Y21625D02*
X893Y20918D01*
X610Y21484D02*
X893Y20918D01*
X327Y21201D02*
X893Y20918D01*
X3306Y18505D02*
X4085Y19285D01*
X1784Y20027D02*
X3306Y18505D01*
X1784Y20027D02*
X2067Y19461D01*
X1784Y20027D02*
X2350Y19744D01*
X17876Y21811D02*
X19667D01*
X17876Y0D02*
X19667D01*
X19567Y12499D02*
Y21811D01*
Y0D02*
Y9112D01*
X19367Y21211D02*
X19567Y21811D01*
X19767Y21211D01*
X19567Y0D02*
X19767Y600D01*
X19367D02*
X19567Y0D01*
X0Y21970D02*
Y23722D01*
X17717Y21970D02*
Y23722D01*
X0Y23622D02*
X7054D01*
X10463D02*
X17717D01*
X0D02*
X600Y23422D01*
X0Y23622D02*
X600Y23822D01*
X17117D02*
X17717Y23622D01*
X17117Y23422D02*
X17717Y23622D01*
D12*
X3504Y2795D02*
Y6343D01*
Y7598D02*
Y11146D01*
X-197Y15594D02*
X3504D01*
X-197Y2795D02*
Y6339D01*
Y7598D02*
Y11142D01*
X14134Y6343D02*
X17835D01*
X-197Y11146D02*
X3504D01*
X14134Y2795D02*
Y6343D01*
X-197D02*
X3504D01*
X17835Y2799D02*
Y6343D01*
X-197Y12047D02*
X3504D01*
Y15594D01*
X14134Y2795D02*
X17835D01*
X-197Y12047D02*
Y15591D01*
Y7598D02*
X3504D01*
X-197Y2795D02*
X3504D01*
D16*
X0Y0D02*
Y21811D01*
Y0D02*
X17717Y0D01*
Y21811D01*
X0D02*
X17717D01*
D76*
X984Y15433D02*
Y15669D01*
X866Y15551D02*
X1102D01*
X1654Y15236D02*
Y15866D01*
X315Y15236D02*
X1654D01*
X315D02*
Y15866D01*
X1654D01*
M02*
