G04*
G04 #@! TF.GenerationSoftware,Altium Limited,Altium Designer,24.10.1 (45)*
G04*
G04 Layer_Color=32896*
%FSLAX24Y24*%
%MOIN*%
G70*
G04*
G04 #@! TF.SameCoordinates,A2B8B827-00CD-4321-91CD-3D45FF0E1E4C*
G04*
G04*
G04 #@! TF.FilePolarity,Positive*
G04*
G01*
G75*
%ADD12C,0.0079*%
%ADD69C,0.0157*%
G36*
X3524Y20774D02*
X3207Y20773D01*
X3206Y20769D01*
X3212Y20759D01*
X3241Y20701D01*
X3247Y20699D01*
X3583Y20698D01*
X3587Y20697D01*
X3596Y20695D01*
X3603Y20692D01*
X3612Y20687D01*
X3614Y20685D01*
X3622Y20680D01*
X3624Y20678D01*
X3626Y20677D01*
X3641Y20662D01*
X3642Y20660D01*
X3645Y20657D01*
X3647Y20655D01*
X3652Y20647D01*
X3658Y20637D01*
X3666Y20618D01*
X3670Y20611D01*
X3677Y20587D01*
X3679Y20579D01*
X3681Y20574D01*
X3682Y20570D01*
X3683Y20560D01*
X3686Y20546D01*
X3687Y20532D01*
X3688Y20527D01*
X3687Y20434D01*
X3686Y20430D01*
X3684Y20419D01*
X3683Y20412D01*
X3682Y20407D01*
X3681Y20396D01*
X3678Y20391D01*
X3676Y20379D01*
X3674Y20374D01*
X3669Y20361D01*
X3665Y20350D01*
X3662Y20344D01*
X3654Y20329D01*
X3647Y20319D01*
X3643Y20312D01*
X3640Y20310D01*
X3639Y20307D01*
X3626Y20295D01*
X3624Y20294D01*
X3622Y20292D01*
X3620Y20290D01*
X3617Y20288D01*
X3610Y20284D01*
X3598Y20278D01*
X3592Y20277D01*
X3587Y20275D01*
X3571Y20273D01*
X3224Y20272D01*
X3223Y20267D01*
X3224Y20200D01*
X3230Y20198D01*
X3592Y20199D01*
X3596Y20200D01*
X3603Y20203D01*
X3616Y20205D01*
X3620Y20206D01*
X3626Y20209D01*
X3633Y20212D01*
X3645Y20217D01*
X3647Y20219D01*
X3661Y20227D01*
X3665Y20230D01*
X3667Y20231D01*
X3673Y20236D01*
X3677Y20239D01*
X3693Y20255D01*
X3694Y20257D01*
X3699Y20262D01*
X3700Y20265D01*
X3703Y20267D01*
X3704Y20269D01*
X3709Y20277D01*
X3710Y20279D01*
X3715Y20285D01*
X3716Y20288D01*
X3719Y20293D01*
X3730Y20316D01*
X3738Y20338D01*
X3740Y20344D01*
X3742Y20352D01*
X3745Y20363D01*
X3747Y20368D01*
X3748Y20374D01*
X3750Y20380D01*
X3752Y20394D01*
X3753Y20399D01*
X3754Y20414D01*
X3755Y20418D01*
X3756Y20433D01*
X3758Y20463D01*
X3759Y20481D01*
X3757Y20530D01*
X3756Y20549D01*
X3753Y20571D01*
X3752Y20576D01*
X3750Y20591D01*
X3747Y20603D01*
X3745Y20611D01*
X3742Y20621D01*
X3740Y20628D01*
X3738Y20634D01*
X3736Y20640D01*
X3734Y20646D01*
X3731Y20652D01*
X3728Y20661D01*
X3716Y20684D01*
X3711Y20692D01*
X3706Y20700D01*
X3705Y20702D01*
X3700Y20708D01*
X3697Y20712D01*
X3693Y20716D01*
X3692Y20718D01*
X3687Y20723D01*
X3686Y20725D01*
X3682Y20728D01*
X3675Y20735D01*
X3672Y20736D01*
X3668Y20741D01*
X3666Y20742D01*
X3658Y20747D01*
X3656Y20749D01*
X3654Y20751D01*
X3631Y20762D01*
X3617Y20767D01*
X3611Y20768D01*
X3603Y20770D01*
X3597Y20772D01*
X3589Y20773D01*
X3555Y20774D01*
X3525D01*
X3524D01*
D02*
G37*
G36*
X3940Y20699D02*
X4201Y20698D01*
X4206Y20696D01*
X4214Y20694D01*
X4219Y20692D01*
X4228Y20687D01*
X4236Y20682D01*
X4238Y20680D01*
X4240Y20678D01*
X4243Y20677D01*
X4257Y20662D01*
X4259Y20660D01*
X4262Y20657D01*
X4263Y20655D01*
X4265Y20652D01*
X4266Y20650D01*
X4274Y20638D01*
X4275Y20635D01*
X4284Y20616D01*
X4288Y20605D01*
X4289Y20601D01*
X4292Y20594D01*
X4294Y20588D01*
X4295Y20581D01*
X4296Y20578D01*
X4299Y20565D01*
X4300Y20557D01*
X4301Y20547D01*
X4303Y20544D01*
X4304Y20536D01*
X4305Y20518D01*
X4306Y20474D01*
X4305Y20463D01*
X4304Y20433D01*
X4303Y20429D01*
X4300Y20416D01*
X4299Y20405D01*
X4296Y20396D01*
X4295Y20390D01*
X4294Y20385D01*
X4292Y20378D01*
X4289Y20371D01*
X4288Y20365D01*
X4285Y20359D01*
X4282Y20352D01*
X4279Y20346D01*
X4270Y20327D01*
X4259Y20312D01*
X4256Y20310D01*
X4255Y20307D01*
X4242Y20294D01*
X4239Y20293D01*
X4237Y20290D01*
X4235Y20289D01*
X4224Y20283D01*
X4214Y20278D01*
X4210Y20277D01*
X4204Y20275D01*
X4189Y20273D01*
X3841Y20272D01*
X3839Y20267D01*
X3840Y20201D01*
X3843Y20198D01*
X4209Y20199D01*
X4212Y20200D01*
X4220Y20203D01*
X4232Y20205D01*
X4237Y20206D01*
X4243Y20209D01*
X4250Y20212D01*
X4262Y20217D01*
X4263Y20219D01*
X4278Y20227D01*
X4281Y20230D01*
X4283Y20231D01*
X4289Y20236D01*
X4293Y20239D01*
X4311Y20257D01*
X4312Y20259D01*
X4316Y20262D01*
X4317Y20265D01*
X4320Y20268D01*
X4321Y20270D01*
X4327Y20278D01*
X4328Y20280D01*
X4332Y20287D01*
X4348Y20318D01*
X4350Y20326D01*
X4352Y20331D01*
X4356Y20341D01*
X4357Y20347D01*
X4360Y20356D01*
X4362Y20361D01*
X4363Y20371D01*
X4366Y20379D01*
X4368Y20390D01*
X4369Y20400D01*
X4370Y20409D01*
X4372Y20420D01*
X4373Y20443D01*
X4374Y20463D01*
X4375Y20510D01*
X4374Y20513D01*
X4372Y20552D01*
X4370Y20563D01*
X4368Y20580D01*
X4365Y20597D01*
X4363Y20601D01*
X4361Y20612D01*
X4359Y20619D01*
X4357Y20627D01*
X4349Y20649D01*
X4348Y20654D01*
X4342Y20666D01*
X4332Y20684D01*
X4328Y20692D01*
X4322Y20700D01*
X4321Y20702D01*
X4316Y20708D01*
X4313Y20712D01*
X4311Y20714D01*
X4310Y20716D01*
X4305Y20722D01*
X4304Y20724D01*
X4302Y20725D01*
X4300Y20727D01*
X4297Y20730D01*
X4293Y20733D01*
X4291Y20735D01*
X4289Y20736D01*
X4284Y20741D01*
X4282Y20742D01*
X4274Y20747D01*
X4272Y20749D01*
X4270Y20751D01*
X4245Y20763D01*
X4239Y20764D01*
X4233Y20767D01*
X4227Y20768D01*
X4219Y20770D01*
X4213Y20772D01*
X4205Y20773D01*
X4171Y20774D01*
X3823Y20773D01*
X3822Y20769D01*
X3826Y20763D01*
X3858Y20701D01*
X3864Y20699D01*
X3939D01*
X3940D01*
D02*
G37*
G36*
X5001Y20566D02*
X4991Y20562D01*
X4983Y20558D01*
X4979Y20557D01*
X4968Y20554D01*
X4962Y20552D01*
X4958Y20551D01*
X4952Y20549D01*
X4939Y20545D01*
X4934Y20543D01*
X4925Y20541D01*
X4919Y20539D01*
X4914Y20538D01*
X4901Y20535D01*
X4897Y20534D01*
X4888Y20531D01*
X4881Y20530D01*
X4875Y20528D01*
X4871Y20527D01*
X4863Y20525D01*
X4854Y20523D01*
X4848Y20521D01*
X4844Y20520D01*
X4837Y20519D01*
X4832Y20517D01*
X4827Y20516D01*
X4821Y20515D01*
X4817Y20513D01*
X4806Y20510D01*
X4802Y20509D01*
X4796Y20508D01*
X4791Y20506D01*
X4786Y20505D01*
X4780Y20503D01*
X4768Y20499D01*
X4763Y20498D01*
X4756Y20495D01*
X4749Y20493D01*
X4743Y20490D01*
X4729Y20485D01*
X4724Y20484D01*
X4714Y20479D01*
X4705Y20476D01*
X4673Y20460D01*
X4671Y20457D01*
X4663Y20453D01*
X4650Y20443D01*
X4648Y20441D01*
X4646Y20440D01*
X4630Y20424D01*
X4629Y20422D01*
X4626Y20418D01*
X4624Y20416D01*
X4622Y20414D01*
X4621Y20412D01*
X4617Y20405D01*
X4610Y20391D01*
X4607Y20383D01*
X4606Y20379D01*
X4604Y20370D01*
X4602Y20355D01*
X4604Y20327D01*
X4605Y20324D01*
X4606Y20313D01*
X4607Y20309D01*
X4613Y20295D01*
X4623Y20276D01*
X4626Y20273D01*
X4627Y20271D01*
X4632Y20265D01*
X4634Y20262D01*
X4636Y20261D01*
X4639Y20257D01*
X4649Y20246D01*
X4651Y20245D01*
X4655Y20242D01*
X4657Y20241D01*
X4671Y20231D01*
X4679Y20227D01*
X4693Y20220D01*
X4703Y20216D01*
X4713Y20212D01*
X4718Y20210D01*
X4723Y20209D01*
X4728Y20207D01*
X4736Y20205D01*
X4740Y20204D01*
X4752Y20201D01*
X4758Y20199D01*
X4769Y20198D01*
X4778Y20195D01*
X4803Y20193D01*
X4814Y20192D01*
X4818Y20190D01*
X4821Y20188D01*
X4955Y20189D01*
X4960Y20192D01*
X4980Y20193D01*
X4989Y20194D01*
X4999Y20195D01*
X5005Y20196D01*
X5009Y20198D01*
X5024Y20199D01*
X5035Y20203D01*
X5045Y20204D01*
X5056Y20206D01*
X5062Y20208D01*
X5067Y20209D01*
X5074Y20211D01*
X5083Y20213D01*
X5088Y20215D01*
X5094Y20216D01*
X5106Y20220D01*
X5112Y20222D01*
X5119Y20224D01*
X5125Y20226D01*
X5131Y20228D01*
X5133Y20231D01*
X5134Y20233D01*
X5131Y20239D01*
X5128Y20246D01*
X5106Y20289D01*
X5099Y20289D01*
X5095Y20288D01*
X5078Y20283D01*
X5071Y20282D01*
X5066Y20279D01*
X5061Y20278D01*
X5050Y20276D01*
X5041Y20273D01*
X5035Y20272D01*
X5027Y20271D01*
X5022Y20270D01*
X5016Y20268D01*
X5008Y20267D01*
X4992Y20265D01*
X4975Y20262D01*
X4965Y20261D01*
X4952Y20260D01*
X4942Y20259D01*
X4936Y20258D01*
X4916Y20257D01*
X4851Y20256D01*
X4848Y20257D01*
X4824Y20259D01*
X4821Y20260D01*
X4794Y20262D01*
X4779Y20265D01*
X4773Y20266D01*
X4769Y20267D01*
X4762Y20268D01*
X4757Y20271D01*
X4752Y20272D01*
X4746Y20273D01*
X4741Y20276D01*
X4734Y20278D01*
X4724Y20283D01*
X4718Y20286D01*
X4711Y20290D01*
X4708Y20293D01*
X4706Y20294D01*
X4703Y20297D01*
X4701Y20298D01*
X4693Y20306D01*
X4691Y20309D01*
X4689Y20311D01*
X4688Y20313D01*
X4684Y20323D01*
X4680Y20334D01*
X4679Y20341D01*
X4680Y20359D01*
X4684Y20367D01*
X4689Y20377D01*
X4694Y20383D01*
X4696Y20384D01*
X4697Y20387D01*
X4700Y20389D01*
X4702Y20390D01*
X4706Y20395D01*
X4708Y20396D01*
X4712Y20399D01*
X4717Y20402D01*
X4725Y20407D01*
X4752Y20420D01*
X4763Y20424D01*
X4768Y20426D01*
X4775Y20428D01*
X4781Y20430D01*
X4785Y20431D01*
X4796Y20435D01*
X4800Y20436D01*
X4806Y20437D01*
X4811Y20439D01*
X4817Y20441D01*
X4824Y20442D01*
X4829Y20444D01*
X4835Y20446D01*
X4846Y20448D01*
X4856Y20451D01*
X4867Y20454D01*
X4880Y20457D01*
X4887Y20458D01*
X4891Y20459D01*
X4901Y20462D01*
X4910Y20463D01*
X4919Y20466D01*
X4927Y20468D01*
X4932Y20469D01*
X4936Y20470D01*
X4941Y20472D01*
X4946Y20473D01*
X4953Y20474D01*
X4960Y20477D01*
X4967Y20479D01*
X4972Y20480D01*
X4984Y20484D01*
X4989Y20485D01*
X4996Y20488D01*
X5002Y20490D01*
X5011Y20493D01*
X5017Y20495D01*
X5027Y20499D01*
X5031Y20500D01*
X5044Y20506D01*
X5071Y20520D01*
X5085Y20529D01*
X5091Y20534D01*
X5095Y20538D01*
X5097Y20539D01*
X5112Y20554D01*
X5113Y20556D01*
X5117Y20559D01*
X5118Y20561D01*
X5121Y20565D01*
X5125Y20572D01*
X5133Y20589D01*
X5136Y20596D01*
X5137Y20602D01*
X5138Y20608D01*
X5139Y20626D01*
X5140Y20628D01*
X5139Y20632D01*
X5138Y20654D01*
X5136Y20657D01*
X5135Y20663D01*
X5133Y20668D01*
X5130Y20675D01*
X5125Y20687D01*
X5123Y20689D01*
X5119Y20696D01*
X5111Y20706D01*
X5106Y20712D01*
X5096Y20722D01*
X5094Y20723D01*
X5092Y20725D01*
X5090Y20727D01*
X5086Y20730D01*
X5084Y20731D01*
X5077Y20736D01*
X5069Y20741D01*
X5046Y20752D01*
X5035Y20756D01*
X5030Y20757D01*
X5026Y20758D01*
X5018Y20762D01*
X5010Y20763D01*
X4997Y20767D01*
X4991Y20768D01*
X4980Y20770D01*
X4976Y20771D01*
X4970Y20772D01*
X4960Y20773D01*
X4945Y20775D01*
X4934Y20776D01*
X4905Y20778D01*
X4874Y20779D01*
X4839Y20778D01*
X4825Y20777D01*
X4813Y20775D01*
X4802Y20774D01*
X4788Y20773D01*
X4775Y20771D01*
X4771Y20770D01*
X4765Y20769D01*
X4755Y20768D01*
X4746Y20766D01*
X4741Y20764D01*
X4721Y20761D01*
X4712Y20758D01*
X4707Y20757D01*
X4699Y20756D01*
X4694Y20754D01*
X4682Y20751D01*
X4676Y20750D01*
X4667Y20747D01*
X4660Y20746D01*
X4654Y20744D01*
X4651Y20741D01*
X4652Y20736D01*
X4679Y20682D01*
X4681Y20680D01*
X4689Y20682D01*
X4692Y20683D01*
X4701Y20685D01*
X4713Y20688D01*
X4717Y20689D01*
X4726Y20690D01*
X4732Y20693D01*
X4742Y20694D01*
X4747Y20695D01*
X4756Y20696D01*
X4761Y20697D01*
X4767Y20699D01*
X4782Y20701D01*
X4786Y20702D01*
X4791Y20703D01*
X4826Y20707D01*
X4842Y20708D01*
X4849Y20710D01*
X4919Y20710D01*
X4923Y20709D01*
X4936Y20707D01*
X4947Y20706D01*
X4975Y20702D01*
X4981Y20700D01*
X4989Y20699D01*
X5005Y20694D01*
X5011Y20691D01*
X5018Y20688D01*
X5030Y20682D01*
X5044Y20671D01*
X5053Y20662D01*
X5054Y20660D01*
X5058Y20654D01*
X5061Y20645D01*
X5063Y20639D01*
X5064Y20632D01*
X5063Y20618D01*
X5059Y20611D01*
X5055Y20603D01*
X5050Y20597D01*
X5041Y20588D01*
X5039Y20587D01*
X5036Y20584D01*
X5030Y20580D01*
X5020Y20575D01*
X5004Y20567D01*
X5002Y20566D01*
X5001D01*
D02*
G37*
G36*
X5468Y20188D02*
X5581Y20189D01*
X5583Y20192D01*
X5602Y20193D01*
X5617Y20195D01*
X5621Y20196D01*
X5628Y20198D01*
X5634Y20199D01*
X5640Y20200D01*
X5649Y20203D01*
X5653Y20204D01*
X5660Y20205D01*
X5669Y20209D01*
X5674Y20210D01*
X5679Y20212D01*
X5684Y20213D01*
X5691Y20216D01*
X5712Y20226D01*
X5714Y20227D01*
X5720Y20231D01*
X5730Y20237D01*
X5738Y20242D01*
X5740Y20243D01*
X5742Y20245D01*
X5745Y20246D01*
X5749Y20251D01*
X5751Y20252D01*
X5756Y20256D01*
X5758Y20257D01*
X5766Y20266D01*
X5767Y20268D01*
X5774Y20274D01*
X5775Y20277D01*
X5777Y20279D01*
X5778Y20281D01*
X5780Y20283D01*
X5784Y20289D01*
X5788Y20295D01*
X5798Y20316D01*
X5799Y20321D01*
X5802Y20328D01*
X5804Y20335D01*
X5806Y20340D01*
X5807Y20348D01*
X5808Y20352D01*
X5809Y20363D01*
X5810Y20391D01*
X5809Y20767D01*
X5807Y20768D01*
X5737Y20767D01*
X5735Y20766D01*
X5734Y20362D01*
X5733Y20359D01*
X5732Y20354D01*
X5729Y20346D01*
X5720Y20329D01*
X5712Y20320D01*
X5709Y20316D01*
X5708Y20314D01*
X5705Y20311D01*
X5703Y20310D01*
X5696Y20304D01*
X5694Y20302D01*
X5692Y20300D01*
X5690Y20299D01*
X5682Y20294D01*
X5668Y20286D01*
X5660Y20283D01*
X5650Y20278D01*
X5636Y20273D01*
X5629Y20271D01*
X5623Y20269D01*
X5619Y20268D01*
X5612Y20267D01*
X5603Y20264D01*
X5592Y20262D01*
X5578Y20261D01*
X5564Y20259D01*
X5558Y20258D01*
X5526Y20257D01*
X5519Y20256D01*
X5516Y20257D01*
X5481Y20259D01*
X5478Y20260D01*
X5452Y20262D01*
X5445Y20263D01*
X5440Y20265D01*
X5435Y20266D01*
X5429Y20267D01*
X5423Y20268D01*
X5417Y20271D01*
X5413Y20272D01*
X5399Y20277D01*
X5390Y20280D01*
X5384Y20283D01*
X5379Y20285D01*
X5367Y20292D01*
X5356Y20299D01*
X5350Y20303D01*
X5348Y20305D01*
X5346Y20306D01*
X5341Y20310D01*
X5339Y20311D01*
X5336Y20315D01*
X5329Y20323D01*
X5328Y20325D01*
X5322Y20333D01*
X5317Y20345D01*
X5313Y20352D01*
X5312Y20357D01*
X5311Y20364D01*
X5309Y20370D01*
X5308Y20766D01*
X5306Y20768D01*
X5236Y20767D01*
X5234Y20766D01*
X5235Y20363D01*
X5236Y20360D01*
X5238Y20345D01*
X5240Y20334D01*
X5242Y20329D01*
X5244Y20324D01*
X5246Y20319D01*
X5248Y20312D01*
X5259Y20291D01*
X5265Y20283D01*
X5266Y20281D01*
X5268Y20279D01*
X5269Y20277D01*
X5274Y20271D01*
X5293Y20252D01*
X5295Y20251D01*
X5300Y20246D01*
X5302Y20245D01*
X5304Y20243D01*
X5306Y20242D01*
X5317Y20234D01*
X5319Y20233D01*
X5327Y20229D01*
X5357Y20215D01*
X5361Y20213D01*
X5369Y20210D01*
X5373Y20209D01*
X5379Y20207D01*
X5386Y20205D01*
X5391Y20204D01*
X5398Y20202D01*
X5405Y20199D01*
X5416Y20198D01*
X5422Y20196D01*
X5429Y20195D01*
X5448Y20193D01*
X5459Y20192D01*
X5463Y20190D01*
X5463Y20188D01*
X5467D01*
X5468D01*
D02*
G37*
G36*
X6230Y20324D02*
X6231Y20696D01*
X6232Y20698D01*
X6237Y20699D01*
X6436Y20699D01*
X6441Y20700D01*
X6444Y20702D01*
X6475Y20764D01*
X6473Y20768D01*
X5912Y20768D01*
X5909Y20766D01*
X5942Y20701D01*
X5947Y20699D01*
X6152Y20698D01*
X6155Y20695D01*
X6156Y20200D01*
X6161Y20198D01*
X6168Y20199D01*
X6171Y20198D01*
X6216Y20199D01*
X6219Y20198D01*
X6221Y20199D01*
X6224Y20198D01*
X6228Y20200D01*
X6230Y20204D01*
Y20323D01*
Y20324D01*
D02*
G37*
G36*
X7009Y20373D02*
X7010Y20201D01*
X7011Y20199D01*
X7018Y20198D01*
X7021Y20199D01*
X7024Y20198D01*
X7070Y20199D01*
X7077Y20198D01*
X7081Y20199D01*
X7083Y20200D01*
X7083Y20481D01*
X7082Y20483D01*
X7077Y20484D01*
X6740Y20485D01*
X6737Y20486D01*
X6717Y20488D01*
X6702Y20489D01*
X6689Y20491D01*
X6680Y20493D01*
X6669Y20495D01*
X6663Y20498D01*
X6659Y20499D01*
X6651Y20502D01*
X6634Y20511D01*
X6631Y20515D01*
X6629Y20516D01*
X6620Y20525D01*
X6619Y20527D01*
X6614Y20534D01*
X6610Y20544D01*
X6609Y20548D01*
X6606Y20554D01*
X6604Y20562D01*
X6603Y20579D01*
X6602Y20602D01*
X6603Y20605D01*
X6605Y20621D01*
X6606Y20626D01*
X6609Y20635D01*
X6611Y20642D01*
X6614Y20647D01*
X6617Y20652D01*
X6622Y20658D01*
X6632Y20668D01*
X6634Y20669D01*
X6637Y20672D01*
X6660Y20683D01*
X6669Y20685D01*
X6676Y20688D01*
X6680Y20689D01*
X6692Y20691D01*
X6698Y20692D01*
X6712Y20694D01*
X6729Y20695D01*
X6758Y20696D01*
X6782Y20697D01*
X7065Y20699D01*
X7068Y20701D01*
X7099Y20761D01*
X7100Y20764D01*
X7099Y20768D01*
X6736Y20768D01*
X6732Y20767D01*
X6715Y20766D01*
X6705Y20764D01*
X6697Y20763D01*
X6682Y20762D01*
X6677Y20761D01*
X6670Y20758D01*
X6665Y20757D01*
X6659Y20756D01*
X6653Y20754D01*
X6646Y20752D01*
X6642Y20751D01*
X6636Y20749D01*
X6631Y20747D01*
X6626Y20745D01*
X6618Y20742D01*
X6597Y20731D01*
X6589Y20725D01*
X6587Y20724D01*
X6577Y20717D01*
X6572Y20711D01*
X6570Y20710D01*
X6568Y20708D01*
X6567Y20706D01*
X6558Y20697D01*
X6557Y20695D01*
X6547Y20681D01*
X6541Y20667D01*
X6536Y20657D01*
X6534Y20650D01*
X6533Y20644D01*
X6530Y20630D01*
X6528Y20616D01*
X6527Y20609D01*
X6526Y20576D01*
X6527Y20572D01*
X6528Y20559D01*
X6530Y20556D01*
X6531Y20544D01*
X6532Y20540D01*
X6535Y20529D01*
X6536Y20525D01*
X6541Y20515D01*
X6542Y20511D01*
X6546Y20504D01*
X6553Y20492D01*
X6560Y20482D01*
X6562Y20480D01*
X6564Y20478D01*
X6575Y20466D01*
X6577Y20465D01*
X6582Y20461D01*
X6584Y20460D01*
X6586Y20457D01*
X6588Y20456D01*
X6590Y20454D01*
X6593Y20453D01*
X6601Y20448D01*
X6625Y20437D01*
X6632Y20434D01*
X6637Y20432D01*
X6639Y20430D01*
X6640Y20427D01*
X6528Y20202D01*
X6530Y20199D01*
X6538Y20198D01*
X6541Y20199D01*
X6545Y20198D01*
X6601Y20199D01*
X6606Y20198D01*
X6611Y20201D01*
X6613Y20203D01*
X6615Y20209D01*
X6706Y20392D01*
X6717Y20413D01*
X6719Y20415D01*
X6753Y20413D01*
X6756Y20412D01*
X7006Y20411D01*
X7009Y20409D01*
Y20374D01*
Y20373D01*
D02*
G37*
G36*
X7226Y20574D02*
X7227Y20201D01*
X7229Y20199D01*
X7240Y20198D01*
X7242Y20199D01*
X7245Y20198D01*
X7287Y20199D01*
X7289Y20198D01*
X7291Y20199D01*
X7295Y20198D01*
X7300Y20201D01*
X7301Y20766D01*
X7298Y20768D01*
X7228Y20767D01*
X7226Y20762D01*
Y20576D01*
Y20574D01*
D02*
G37*
G36*
X8191Y20830D02*
X8193Y20828D01*
X8192Y20824D01*
X8162Y20763D01*
X8158Y20761D01*
X8083Y20760D01*
X8081Y20761D01*
X8080Y20764D01*
X8098Y20803D01*
X8106Y20817D01*
X8107Y20822D01*
X8109Y20823D01*
X8109Y20824D01*
Y20825D01*
X8114Y20829D01*
X8185Y20830D01*
X8191Y20830D01*
D02*
G37*
G36*
X8603Y20969D02*
X8600Y20968D01*
X8496Y20761D01*
X8491Y20758D01*
X8415Y20759D01*
X8414Y20762D01*
X8421Y20779D01*
X8423Y20782D01*
X8423Y20783D01*
X8516Y20968D01*
X8517Y20973D01*
X8602Y20974D01*
X8603Y20969D01*
D02*
G37*
G36*
X8407Y20757D02*
X8408Y20755D01*
X8309Y20556D01*
X8308Y20552D01*
X8303Y20544D01*
X8303Y20544D01*
X8251Y20439D01*
X8133Y20201D01*
X8129Y20195D01*
X8128Y20189D01*
X8045Y20188D01*
X8045Y20191D01*
X8323Y20748D01*
X8325Y20754D01*
X8328Y20756D01*
X8330Y20757D01*
X8333Y20758D01*
X8337Y20758D01*
X8392Y20758D01*
X8396Y20757D01*
X8402Y20758D01*
X8407Y20757D01*
D02*
G37*
G36*
X8587Y20615D02*
X8588Y20612D01*
X8542Y20518D01*
X8542Y20518D01*
X8521Y20477D01*
X8514Y20473D01*
X8513Y20473D01*
X8440Y20474D01*
X8439Y20477D01*
X8507Y20614D01*
X8510Y20616D01*
X8587Y20615D01*
D02*
G37*
G36*
X8074Y20766D02*
X8071Y20760D01*
X7829Y20276D01*
X7795Y20206D01*
X7791Y20200D01*
X7785Y20198D01*
X7781Y20199D01*
X7778Y20198D01*
X7723Y20199D01*
X7713Y20198D01*
X7707Y20200D01*
X7671Y20271D01*
X7671Y20272D01*
X7586Y20440D01*
X7521Y20573D01*
X7516Y20581D01*
X7430Y20754D01*
X7425Y20763D01*
X7426Y20767D01*
X7505Y20768D01*
X7506Y20767D01*
X7737Y20306D01*
X7746Y20288D01*
X7749Y20286D01*
X7751Y20287D01*
X7817Y20417D01*
X7824Y20432D01*
X7885Y20554D01*
X7892Y20568D01*
X7952Y20688D01*
X7991Y20766D01*
X7992Y20767D01*
X8072Y20768D01*
X8074Y20766D01*
D02*
G37*
G36*
X8432Y20472D02*
X8434Y20469D01*
X8302Y20204D01*
X8297Y20195D01*
X8295Y20189D01*
X8257Y20188D01*
X8256D01*
X8212Y20189D01*
X8290Y20346D01*
X8340Y20448D01*
X8343Y20454D01*
X8345Y20458D01*
X8349Y20465D01*
X8350Y20469D01*
X8354Y20473D01*
X8432Y20472D01*
D02*
G37*
G36*
X8204Y20685D02*
X8205Y20683D01*
X8154Y20581D01*
X8152Y20575D01*
X8151Y20574D01*
X8007Y20287D01*
X7969Y20209D01*
X7966Y20204D01*
X7963Y20196D01*
X7961Y20194D01*
X7960Y20189D01*
X7877Y20188D01*
X7876Y20190D01*
X8123Y20683D01*
X8125Y20686D01*
X8204Y20685D01*
D02*
G37*
G36*
X12933Y5692D02*
X12952Y5689D01*
X12970Y5684D01*
X12984Y5680D01*
X12996Y5675D01*
X13004Y5671D01*
X13010Y5668D01*
X13012Y5667D01*
X13026Y5657D01*
X13039Y5645D01*
X13050Y5633D01*
X13059Y5622D01*
X13066Y5612D01*
X13072Y5604D01*
X13075Y5599D01*
X13076Y5598D01*
Y5597D01*
X13081Y5588D01*
X13085Y5579D01*
X13094Y5557D01*
X13101Y5534D01*
X13108Y5512D01*
X13111Y5502D01*
X13114Y5492D01*
X13116Y5483D01*
X13118Y5476D01*
X13120Y5469D01*
X13121Y5465D01*
X13122Y5461D01*
Y5460D01*
X13126Y5444D01*
X13130Y5429D01*
X13134Y5416D01*
X13137Y5403D01*
X13141Y5393D01*
X13145Y5383D01*
X13148Y5375D01*
X13151Y5367D01*
X13154Y5361D01*
X13157Y5356D01*
X13158Y5352D01*
X13160Y5349D01*
X13163Y5344D01*
X13164Y5344D01*
X13170Y5337D01*
X13177Y5333D01*
X13183Y5330D01*
X13189Y5328D01*
X13194Y5326D01*
X13198Y5325D01*
X13201D01*
X13202D01*
X13211Y5326D01*
X13218Y5328D01*
X13226Y5332D01*
X13231Y5335D01*
X13236Y5339D01*
X13239Y5343D01*
X13240Y5344D01*
X13241Y5345D01*
X13249Y5358D01*
X13255Y5372D01*
X13259Y5386D01*
X13262Y5400D01*
X13264Y5412D01*
X13265Y5422D01*
Y5431D01*
X13264Y5450D01*
X13261Y5467D01*
X13258Y5480D01*
X13254Y5491D01*
X13250Y5500D01*
X13247Y5507D01*
X13244Y5510D01*
X13243Y5511D01*
X13234Y5520D01*
X13223Y5529D01*
X13212Y5535D01*
X13200Y5539D01*
X13190Y5543D01*
X13182Y5545D01*
X13176Y5547D01*
X13175D01*
X13174D01*
X13178Y5674D01*
X13195Y5673D01*
X13209Y5671D01*
X13224Y5667D01*
X13237Y5662D01*
X13249Y5658D01*
X13261Y5652D01*
X13271Y5647D01*
X13281Y5641D01*
X13290Y5635D01*
X13297Y5630D01*
X13303Y5624D01*
X13309Y5620D01*
X13312Y5616D01*
X13315Y5613D01*
X13317Y5611D01*
X13318Y5610D01*
X13327Y5599D01*
X13335Y5586D01*
X13342Y5572D01*
X13349Y5558D01*
X13353Y5543D01*
X13358Y5529D01*
X13364Y5499D01*
X13366Y5486D01*
X13368Y5474D01*
X13369Y5462D01*
X13370Y5452D01*
X13371Y5444D01*
Y5433D01*
X13370Y5406D01*
X13367Y5383D01*
X13363Y5362D01*
X13360Y5344D01*
X13357Y5335D01*
X13355Y5328D01*
X13353Y5323D01*
X13352Y5317D01*
X13350Y5314D01*
X13349Y5311D01*
X13348Y5309D01*
Y5308D01*
X13339Y5290D01*
X13329Y5274D01*
X13318Y5261D01*
X13308Y5250D01*
X13299Y5241D01*
X13291Y5235D01*
X13286Y5231D01*
X13285Y5230D01*
X13284D01*
X13269Y5221D01*
X13252Y5214D01*
X13237Y5210D01*
X13223Y5207D01*
X13211Y5205D01*
X13202Y5203D01*
X13198D01*
X13196D01*
X13195D01*
X13194D01*
X13180Y5204D01*
X13167Y5206D01*
X13155Y5209D01*
X13143Y5212D01*
X13121Y5221D01*
X13102Y5232D01*
X13094Y5237D01*
X13087Y5242D01*
X13081Y5247D01*
X13075Y5252D01*
X13072Y5255D01*
X13069Y5258D01*
X13067Y5260D01*
X13066Y5261D01*
X13060Y5269D01*
X13054Y5279D01*
X13047Y5289D01*
X13042Y5301D01*
X13031Y5324D01*
X13022Y5347D01*
X13018Y5359D01*
X13014Y5369D01*
X13012Y5379D01*
X13009Y5387D01*
X13007Y5394D01*
X13005Y5399D01*
X13004Y5403D01*
Y5404D01*
X13001Y5418D01*
X12997Y5431D01*
X12994Y5443D01*
X12992Y5454D01*
X12989Y5463D01*
X12987Y5471D01*
X12984Y5478D01*
X12983Y5485D01*
X12982Y5490D01*
X12980Y5495D01*
X12978Y5501D01*
X12976Y5505D01*
Y5506D01*
X12972Y5518D01*
X12967Y5527D01*
X12963Y5535D01*
X12958Y5541D01*
X12954Y5546D01*
X12952Y5549D01*
X12950Y5550D01*
X12949Y5551D01*
X12942Y5556D01*
X12936Y5559D01*
X12930Y5561D01*
X12924Y5563D01*
X12919Y5564D01*
X12914Y5565D01*
X12911D01*
X12911D01*
X12898Y5564D01*
X12887Y5560D01*
X12876Y5555D01*
X12867Y5549D01*
X12860Y5543D01*
X12854Y5539D01*
X12850Y5535D01*
X12850Y5533D01*
X12841Y5520D01*
X12835Y5506D01*
X12830Y5490D01*
X12828Y5476D01*
X12826Y5462D01*
X12824Y5451D01*
Y5441D01*
X12825Y5420D01*
X12829Y5402D01*
X12833Y5386D01*
X12839Y5373D01*
X12844Y5362D01*
X12849Y5354D01*
X12852Y5350D01*
X12853Y5348D01*
X12866Y5336D01*
X12880Y5327D01*
X12895Y5319D01*
X12911Y5314D01*
X12924Y5309D01*
X12935Y5305D01*
X12939Y5304D01*
X12942D01*
X12944Y5303D01*
X12945D01*
X12933Y5180D01*
X12914Y5182D01*
X12896Y5186D01*
X12879Y5191D01*
X12863Y5196D01*
X12849Y5202D01*
X12835Y5209D01*
X12823Y5215D01*
X12812Y5221D01*
X12803Y5228D01*
X12795Y5234D01*
X12788Y5240D01*
X12781Y5245D01*
X12777Y5249D01*
X12774Y5252D01*
X12772Y5254D01*
X12771Y5255D01*
X12761Y5268D01*
X12753Y5282D01*
X12746Y5296D01*
X12739Y5312D01*
X12735Y5326D01*
X12730Y5342D01*
X12724Y5372D01*
X12721Y5385D01*
X12719Y5398D01*
X12718Y5409D01*
X12717Y5419D01*
X12717Y5427D01*
Y5439D01*
X12717Y5468D01*
X12720Y5495D01*
X12724Y5518D01*
X12726Y5529D01*
X12728Y5539D01*
X12730Y5547D01*
X12732Y5554D01*
X12734Y5560D01*
X12736Y5566D01*
X12737Y5570D01*
X12738Y5573D01*
X12739Y5575D01*
Y5576D01*
X12749Y5596D01*
X12760Y5612D01*
X12771Y5628D01*
X12783Y5640D01*
X12793Y5649D01*
X12802Y5656D01*
X12808Y5660D01*
X12809Y5662D01*
X12809D01*
X12828Y5672D01*
X12845Y5680D01*
X12862Y5685D01*
X12879Y5689D01*
X12891Y5691D01*
X12898Y5692D01*
X12902Y5692D01*
X12906D01*
X12909D01*
X12911D01*
X12911D01*
X12933Y5692D01*
D02*
G37*
G36*
X13359Y5002D02*
X13109Y4857D01*
X13359Y4709D01*
Y4560D01*
X12993Y4791D01*
X12728D01*
Y4918D01*
X12993D01*
X13359Y5149D01*
Y5002D01*
D02*
G37*
G36*
X12933Y4516D02*
X12952Y4514D01*
X12970Y4509D01*
X12984Y4505D01*
X12996Y4500D01*
X13004Y4495D01*
X13010Y4493D01*
X13012Y4492D01*
X13026Y4482D01*
X13039Y4470D01*
X13050Y4458D01*
X13059Y4447D01*
X13066Y4437D01*
X13072Y4429D01*
X13075Y4423D01*
X13076Y4423D01*
Y4422D01*
X13081Y4413D01*
X13085Y4403D01*
X13094Y4382D01*
X13101Y4359D01*
X13108Y4337D01*
X13111Y4327D01*
X13114Y4317D01*
X13116Y4308D01*
X13118Y4300D01*
X13120Y4294D01*
X13121Y4290D01*
X13122Y4286D01*
Y4285D01*
X13126Y4269D01*
X13130Y4254D01*
X13134Y4240D01*
X13137Y4228D01*
X13141Y4218D01*
X13145Y4208D01*
X13148Y4199D01*
X13151Y4192D01*
X13154Y4186D01*
X13157Y4181D01*
X13158Y4177D01*
X13160Y4174D01*
X13163Y4169D01*
X13164Y4168D01*
X13170Y4162D01*
X13177Y4157D01*
X13183Y4155D01*
X13189Y4153D01*
X13194Y4151D01*
X13198Y4150D01*
X13201D01*
X13202D01*
X13211Y4151D01*
X13218Y4153D01*
X13226Y4157D01*
X13231Y4160D01*
X13236Y4164D01*
X13239Y4167D01*
X13240Y4169D01*
X13241Y4170D01*
X13249Y4183D01*
X13255Y4197D01*
X13259Y4211D01*
X13262Y4225D01*
X13264Y4237D01*
X13265Y4247D01*
Y4256D01*
X13264Y4275D01*
X13261Y4291D01*
X13258Y4305D01*
X13254Y4316D01*
X13250Y4325D01*
X13247Y4331D01*
X13244Y4335D01*
X13243Y4336D01*
X13234Y4345D01*
X13223Y4353D01*
X13212Y4360D01*
X13200Y4364D01*
X13190Y4368D01*
X13182Y4370D01*
X13176Y4372D01*
X13175D01*
X13174D01*
X13178Y4499D01*
X13195Y4498D01*
X13209Y4495D01*
X13224Y4492D01*
X13237Y4487D01*
X13249Y4483D01*
X13261Y4477D01*
X13271Y4472D01*
X13281Y4466D01*
X13290Y4460D01*
X13297Y4454D01*
X13303Y4449D01*
X13309Y4444D01*
X13312Y4441D01*
X13315Y4438D01*
X13317Y4436D01*
X13318Y4435D01*
X13327Y4423D01*
X13335Y4411D01*
X13342Y4397D01*
X13349Y4382D01*
X13353Y4368D01*
X13358Y4353D01*
X13364Y4324D01*
X13366Y4310D01*
X13368Y4299D01*
X13369Y4287D01*
X13370Y4277D01*
X13371Y4269D01*
Y4258D01*
X13370Y4231D01*
X13367Y4208D01*
X13363Y4187D01*
X13360Y4168D01*
X13357Y4160D01*
X13355Y4153D01*
X13353Y4147D01*
X13352Y4142D01*
X13350Y4138D01*
X13349Y4136D01*
X13348Y4134D01*
Y4133D01*
X13339Y4115D01*
X13329Y4099D01*
X13318Y4085D01*
X13308Y4075D01*
X13299Y4065D01*
X13291Y4060D01*
X13286Y4055D01*
X13285Y4054D01*
X13284D01*
X13269Y4045D01*
X13252Y4039D01*
X13237Y4034D01*
X13223Y4032D01*
X13211Y4030D01*
X13202Y4028D01*
X13198D01*
X13196D01*
X13195D01*
X13194D01*
X13180Y4029D01*
X13167Y4031D01*
X13155Y4034D01*
X13143Y4037D01*
X13121Y4046D01*
X13102Y4057D01*
X13094Y4062D01*
X13087Y4067D01*
X13081Y4072D01*
X13075Y4076D01*
X13072Y4080D01*
X13069Y4083D01*
X13067Y4085D01*
X13066Y4085D01*
X13060Y4094D01*
X13054Y4104D01*
X13047Y4114D01*
X13042Y4126D01*
X13031Y4148D01*
X13022Y4172D01*
X13018Y4184D01*
X13014Y4194D01*
X13012Y4204D01*
X13009Y4212D01*
X13007Y4218D01*
X13005Y4224D01*
X13004Y4228D01*
Y4229D01*
X13001Y4243D01*
X12997Y4256D01*
X12994Y4268D01*
X12992Y4279D01*
X12989Y4288D01*
X12987Y4296D01*
X12984Y4303D01*
X12983Y4310D01*
X12982Y4315D01*
X12980Y4320D01*
X12978Y4326D01*
X12976Y4330D01*
Y4331D01*
X12972Y4342D01*
X12967Y4351D01*
X12963Y4360D01*
X12958Y4366D01*
X12954Y4371D01*
X12952Y4373D01*
X12950Y4375D01*
X12949Y4376D01*
X12942Y4381D01*
X12936Y4384D01*
X12930Y4386D01*
X12924Y4388D01*
X12919Y4389D01*
X12914Y4390D01*
X12911D01*
X12911D01*
X12898Y4389D01*
X12887Y4385D01*
X12876Y4380D01*
X12867Y4374D01*
X12860Y4368D01*
X12854Y4363D01*
X12850Y4360D01*
X12850Y4358D01*
X12841Y4345D01*
X12835Y4331D01*
X12830Y4315D01*
X12828Y4300D01*
X12826Y4287D01*
X12824Y4276D01*
Y4266D01*
X12825Y4245D01*
X12829Y4227D01*
X12833Y4211D01*
X12839Y4198D01*
X12844Y4187D01*
X12849Y4179D01*
X12852Y4175D01*
X12853Y4173D01*
X12866Y4161D01*
X12880Y4152D01*
X12895Y4144D01*
X12911Y4138D01*
X12924Y4134D01*
X12935Y4130D01*
X12939Y4129D01*
X12942D01*
X12944Y4128D01*
X12945D01*
X12933Y4004D01*
X12914Y4007D01*
X12896Y4011D01*
X12879Y4016D01*
X12863Y4021D01*
X12849Y4027D01*
X12835Y4034D01*
X12823Y4040D01*
X12812Y4046D01*
X12803Y4053D01*
X12795Y4059D01*
X12788Y4065D01*
X12781Y4070D01*
X12777Y4074D01*
X12774Y4077D01*
X12772Y4079D01*
X12771Y4080D01*
X12761Y4093D01*
X12753Y4106D01*
X12746Y4121D01*
X12739Y4136D01*
X12735Y4151D01*
X12730Y4167D01*
X12724Y4197D01*
X12721Y4210D01*
X12719Y4223D01*
X12718Y4234D01*
X12717Y4244D01*
X12717Y4252D01*
Y4264D01*
X12717Y4293D01*
X12720Y4320D01*
X12724Y4343D01*
X12726Y4353D01*
X12728Y4363D01*
X12730Y4372D01*
X12732Y4379D01*
X12734Y4385D01*
X12736Y4391D01*
X12737Y4395D01*
X12738Y4398D01*
X12739Y4400D01*
Y4401D01*
X12749Y4421D01*
X12760Y4437D01*
X12771Y4453D01*
X12783Y4464D01*
X12793Y4474D01*
X12802Y4481D01*
X12808Y4484D01*
X12809Y4486D01*
X12809D01*
X12828Y4496D01*
X12845Y4505D01*
X12862Y4510D01*
X12879Y4514D01*
X12891Y4515D01*
X12898Y4516D01*
X12902Y4517D01*
X12906D01*
X12909D01*
X12911D01*
X12911D01*
X12933Y4516D01*
D02*
G37*
G36*
X13359Y3838D02*
X12892Y3684D01*
X13359Y3523D01*
Y3386D01*
X12728Y3612D01*
Y3749D01*
X13359Y3973D01*
Y3838D01*
D02*
G37*
G36*
X5464Y4998D02*
X5475Y4996D01*
X5495Y4988D01*
X5513Y4980D01*
X5520Y4976D01*
X5527Y4971D01*
X5533Y4966D01*
X5538Y4963D01*
X5542Y4958D01*
X5547Y4956D01*
X5550Y4953D01*
X5552Y4950D01*
X5553Y4949D01*
X5553Y4948D01*
X5560Y4939D01*
X5566Y4931D01*
X5571Y4921D01*
X5575Y4912D01*
X5582Y4892D01*
X5586Y4875D01*
X5588Y4866D01*
X5588Y4859D01*
X5589Y4851D01*
X5590Y4845D01*
X5591Y4840D01*
Y4834D01*
X5590Y4818D01*
X5588Y4802D01*
X5585Y4789D01*
X5580Y4775D01*
X5575Y4763D01*
X5569Y4752D01*
X5564Y4742D01*
X5557Y4732D01*
X5551Y4724D01*
X5545Y4717D01*
X5540Y4711D01*
X5534Y4705D01*
X5530Y4702D01*
X5527Y4699D01*
X5525Y4697D01*
X5524Y4697D01*
X5515Y4690D01*
X5505Y4684D01*
X5496Y4680D01*
X5486Y4676D01*
X5467Y4669D01*
X5449Y4665D01*
X5442Y4663D01*
X5435Y4662D01*
X5428Y4661D01*
X5422D01*
X5418Y4660D01*
X5415D01*
X5413D01*
X5412D01*
X5398Y4661D01*
X5385Y4662D01*
X5373Y4665D01*
X5361Y4668D01*
X5351Y4670D01*
X5341Y4675D01*
X5331Y4679D01*
X5323Y4683D01*
X5316Y4687D01*
X5309Y4691D01*
X5303Y4695D01*
X5299Y4698D01*
X5295Y4701D01*
X5292Y4703D01*
X5291Y4705D01*
X5290Y4705D01*
X5282Y4714D01*
X5275Y4723D01*
X5268Y4732D01*
X5263Y4742D01*
X5258Y4751D01*
X5254Y4760D01*
X5249Y4777D01*
X5246Y4785D01*
X5245Y4792D01*
X5244Y4799D01*
X5244Y4804D01*
X5243Y4808D01*
Y4815D01*
X5244Y4827D01*
X5246Y4840D01*
X5248Y4851D01*
X5251Y4861D01*
X5254Y4869D01*
X5257Y4875D01*
X5259Y4880D01*
X5260Y4880D01*
Y4881D01*
X5174Y4866D01*
Y4683D01*
X5083D01*
Y4939D01*
X5346Y4988D01*
X5357Y4910D01*
X5351Y4904D01*
X5345Y4897D01*
X5340Y4891D01*
X5335Y4884D01*
X5329Y4872D01*
X5324Y4860D01*
X5322Y4850D01*
X5321Y4843D01*
X5320Y4840D01*
Y4835D01*
X5321Y4824D01*
X5324Y4813D01*
X5327Y4803D01*
X5332Y4795D01*
X5337Y4789D01*
X5341Y4784D01*
X5343Y4781D01*
X5344Y4781D01*
X5354Y4773D01*
X5365Y4768D01*
X5376Y4765D01*
X5388Y4762D01*
X5398Y4760D01*
X5406Y4759D01*
X5410D01*
X5412D01*
X5413D01*
X5414D01*
X5432Y4760D01*
X5447Y4762D01*
X5459Y4766D01*
X5470Y4770D01*
X5478Y4774D01*
X5484Y4777D01*
X5487Y4780D01*
X5488Y4781D01*
X5497Y4789D01*
X5503Y4797D01*
X5507Y4806D01*
X5510Y4814D01*
X5512Y4821D01*
X5513Y4827D01*
X5513Y4831D01*
Y4832D01*
X5513Y4842D01*
X5510Y4851D01*
X5507Y4859D01*
X5504Y4866D01*
X5500Y4872D01*
X5497Y4876D01*
X5495Y4879D01*
X5494Y4880D01*
X5486Y4886D01*
X5478Y4892D01*
X5470Y4896D01*
X5462Y4899D01*
X5454Y4902D01*
X5448Y4903D01*
X5444Y4904D01*
X5443D01*
X5453Y5000D01*
X5464Y4998D01*
D02*
G37*
G36*
X5581Y4458D02*
Y4348D01*
X5077Y4169D01*
Y4278D01*
X5450Y4401D01*
X5077Y4529D01*
Y4639D01*
X5581Y4458D01*
D02*
G37*
G36*
X5367Y11076D02*
X5356Y11053D01*
X5350Y11042D01*
X5343Y11032D01*
X5338Y11022D01*
X5332Y11013D01*
X5326Y11005D01*
X5321Y10998D01*
X5316Y10992D01*
X5312Y10987D01*
X5308Y10983D01*
X5306Y10980D01*
X5305Y10978D01*
X5304Y10978D01*
X5669D01*
Y10881D01*
X5162D01*
Y10959D01*
X5179Y10967D01*
X5194Y10976D01*
X5209Y10986D01*
X5220Y10997D01*
X5230Y11005D01*
X5237Y11013D01*
X5240Y11016D01*
X5242Y11019D01*
X5243Y11020D01*
X5244Y11021D01*
X5255Y11037D01*
X5265Y11052D01*
X5273Y11066D01*
X5279Y11078D01*
X5284Y11089D01*
X5287Y11096D01*
X5288Y11099D01*
X5289Y11101D01*
X5289Y11102D01*
Y11102D01*
X5377D01*
X5367Y11076D01*
D02*
G37*
G36*
X5669Y10409D02*
X5580D01*
Y10602D01*
X5570Y10596D01*
X5562Y10589D01*
X5558Y10586D01*
X5556Y10584D01*
X5554Y10583D01*
X5553Y10582D01*
X5550Y10579D01*
X5547Y10576D01*
X5539Y10567D01*
X5529Y10558D01*
X5520Y10548D01*
X5511Y10539D01*
X5504Y10531D01*
X5501Y10528D01*
X5499Y10526D01*
X5498Y10524D01*
X5497Y10524D01*
X5482Y10508D01*
X5470Y10494D01*
X5458Y10483D01*
X5449Y10475D01*
X5442Y10468D01*
X5437Y10464D01*
X5433Y10461D01*
X5432Y10460D01*
X5420Y10451D01*
X5408Y10443D01*
X5397Y10436D01*
X5388Y10431D01*
X5380Y10427D01*
X5373Y10424D01*
X5370Y10422D01*
X5368Y10421D01*
X5357Y10417D01*
X5345Y10414D01*
X5334Y10412D01*
X5324Y10411D01*
X5316Y10410D01*
X5309Y10409D01*
X5305D01*
X5303D01*
X5292Y10410D01*
X5281Y10411D01*
X5271Y10413D01*
X5262Y10416D01*
X5245Y10423D01*
X5230Y10430D01*
X5224Y10435D01*
X5219Y10438D01*
X5214Y10442D01*
X5210Y10446D01*
X5207Y10448D01*
X5204Y10450D01*
X5203Y10451D01*
X5203Y10452D01*
X5195Y10460D01*
X5189Y10470D01*
X5184Y10478D01*
X5179Y10489D01*
X5172Y10508D01*
X5167Y10526D01*
X5166Y10535D01*
X5164Y10543D01*
X5163Y10551D01*
X5163Y10557D01*
X5162Y10562D01*
Y10569D01*
X5163Y10582D01*
X5163Y10594D01*
X5167Y10616D01*
X5173Y10635D01*
X5176Y10644D01*
X5179Y10652D01*
X5182Y10659D01*
X5186Y10665D01*
X5189Y10671D01*
X5191Y10675D01*
X5194Y10679D01*
X5195Y10681D01*
X5196Y10682D01*
X5197Y10683D01*
X5204Y10691D01*
X5211Y10698D01*
X5220Y10705D01*
X5230Y10711D01*
X5249Y10720D01*
X5267Y10727D01*
X5276Y10729D01*
X5284Y10731D01*
X5292Y10733D01*
X5298Y10734D01*
X5304Y10736D01*
X5308D01*
X5311Y10736D01*
X5311D01*
X5321Y10640D01*
X5306Y10639D01*
X5294Y10636D01*
X5283Y10633D01*
X5275Y10629D01*
X5268Y10626D01*
X5264Y10623D01*
X5261Y10621D01*
X5260Y10620D01*
X5254Y10613D01*
X5250Y10605D01*
X5246Y10597D01*
X5244Y10589D01*
X5243Y10583D01*
X5242Y10577D01*
Y10572D01*
X5243Y10561D01*
X5245Y10551D01*
X5248Y10543D01*
X5251Y10536D01*
X5254Y10531D01*
X5257Y10526D01*
X5259Y10524D01*
X5260Y10524D01*
X5267Y10518D01*
X5275Y10513D01*
X5283Y10510D01*
X5291Y10508D01*
X5298Y10507D01*
X5305Y10506D01*
X5308D01*
X5309D01*
X5310D01*
X5321Y10507D01*
X5331Y10509D01*
X5341Y10513D01*
X5350Y10516D01*
X5358Y10520D01*
X5364Y10524D01*
X5367Y10526D01*
X5369Y10526D01*
X5373Y10529D01*
X5378Y10534D01*
X5385Y10540D01*
X5391Y10545D01*
X5405Y10559D01*
X5419Y10572D01*
X5432Y10585D01*
X5437Y10591D01*
X5442Y10596D01*
X5446Y10601D01*
X5449Y10604D01*
X5451Y10606D01*
X5452Y10607D01*
X5466Y10621D01*
X5479Y10634D01*
X5491Y10647D01*
X5502Y10658D01*
X5513Y10668D01*
X5523Y10677D01*
X5532Y10685D01*
X5541Y10691D01*
X5548Y10697D01*
X5555Y10702D01*
X5560Y10707D01*
X5565Y10709D01*
X5568Y10712D01*
X5571Y10714D01*
X5572Y10715D01*
X5573D01*
X5590Y10725D01*
X5607Y10732D01*
X5623Y10738D01*
X5638Y10742D01*
X5651Y10745D01*
X5656Y10746D01*
X5661Y10747D01*
X5664Y10747D01*
X5667Y10748D01*
X5669D01*
X5669D01*
Y10409D01*
D02*
G37*
G36*
Y10193D02*
Y10082D01*
X5165Y9903D01*
Y10012D01*
X5538Y10135D01*
X5165Y10263D01*
Y10373D01*
X5669Y10193D01*
D02*
G37*
G36*
X5483Y9675D02*
X5475Y9667D01*
X5469Y9658D01*
X5464Y9650D01*
X5459Y9642D01*
X5456Y9634D01*
X5450Y9620D01*
X5446Y9608D01*
X5445Y9603D01*
X5445Y9598D01*
X5444Y9595D01*
Y9590D01*
X5445Y9578D01*
X5448Y9564D01*
X5451Y9550D01*
X5456Y9537D01*
X5460Y9526D01*
X5462Y9520D01*
X5464Y9516D01*
X5465Y9512D01*
X5467Y9510D01*
X5467Y9508D01*
Y9507D01*
X5472Y9495D01*
X5476Y9484D01*
X5480Y9475D01*
X5482Y9468D01*
X5484Y9463D01*
X5486Y9458D01*
X5486Y9456D01*
Y9456D01*
X5488Y9443D01*
X5489Y9437D01*
Y9432D01*
X5490Y9428D01*
Y9422D01*
X5489Y9410D01*
X5488Y9400D01*
X5486Y9390D01*
X5483Y9381D01*
X5480Y9374D01*
X5478Y9368D01*
X5477Y9364D01*
X5476Y9363D01*
X5470Y9353D01*
X5465Y9344D01*
X5460Y9337D01*
X5455Y9330D01*
X5451Y9325D01*
X5448Y9321D01*
X5445Y9319D01*
X5445Y9319D01*
X5352D01*
X5361Y9328D01*
X5369Y9337D01*
X5375Y9345D01*
X5381Y9353D01*
X5384Y9359D01*
X5387Y9364D01*
X5389Y9367D01*
X5389Y9369D01*
X5393Y9378D01*
X5396Y9386D01*
X5397Y9394D01*
X5399Y9400D01*
X5400Y9405D01*
X5400Y9409D01*
Y9413D01*
X5400Y9420D01*
X5397Y9429D01*
X5394Y9440D01*
X5391Y9451D01*
X5388Y9461D01*
X5385Y9469D01*
X5384Y9472D01*
X5383Y9475D01*
X5382Y9476D01*
Y9477D01*
X5376Y9493D01*
X5370Y9507D01*
X5366Y9518D01*
X5363Y9527D01*
X5361Y9534D01*
X5359Y9539D01*
X5359Y9542D01*
Y9542D01*
X5356Y9556D01*
X5355Y9563D01*
Y9569D01*
X5354Y9574D01*
Y9582D01*
X5355Y9593D01*
X5357Y9604D01*
X5359Y9614D01*
X5362Y9622D01*
X5369Y9640D01*
X5378Y9655D01*
X5382Y9661D01*
X5386Y9667D01*
X5390Y9672D01*
X5394Y9676D01*
X5397Y9679D01*
X5399Y9682D01*
X5400Y9683D01*
X5401Y9684D01*
X5491D01*
X5483Y9675D01*
D02*
G37*
G36*
X5669Y8743D02*
X5580D01*
Y8935D01*
X5570Y8929D01*
X5562Y8923D01*
X5558Y8920D01*
X5556Y8918D01*
X5554Y8916D01*
X5553Y8915D01*
X5550Y8912D01*
X5547Y8910D01*
X5539Y8901D01*
X5529Y8891D01*
X5520Y8882D01*
X5511Y8872D01*
X5504Y8864D01*
X5501Y8861D01*
X5499Y8859D01*
X5498Y8858D01*
X5497Y8857D01*
X5482Y8841D01*
X5470Y8828D01*
X5458Y8817D01*
X5449Y8808D01*
X5442Y8802D01*
X5437Y8797D01*
X5433Y8794D01*
X5432Y8794D01*
X5420Y8784D01*
X5408Y8776D01*
X5397Y8770D01*
X5388Y8764D01*
X5380Y8760D01*
X5373Y8757D01*
X5370Y8756D01*
X5368Y8755D01*
X5357Y8751D01*
X5345Y8748D01*
X5334Y8746D01*
X5324Y8744D01*
X5316Y8743D01*
X5309Y8743D01*
X5305D01*
X5303D01*
X5292Y8743D01*
X5281Y8745D01*
X5271Y8746D01*
X5262Y8749D01*
X5245Y8756D01*
X5230Y8764D01*
X5224Y8768D01*
X5219Y8772D01*
X5214Y8775D01*
X5210Y8779D01*
X5207Y8782D01*
X5204Y8783D01*
X5203Y8785D01*
X5203Y8786D01*
X5195Y8794D01*
X5189Y8803D01*
X5184Y8812D01*
X5179Y8822D01*
X5172Y8841D01*
X5167Y8860D01*
X5166Y8869D01*
X5164Y8877D01*
X5163Y8884D01*
X5163Y8891D01*
X5162Y8896D01*
Y8903D01*
X5163Y8915D01*
X5163Y8927D01*
X5167Y8950D01*
X5173Y8969D01*
X5176Y8977D01*
X5179Y8985D01*
X5182Y8993D01*
X5186Y8998D01*
X5189Y9004D01*
X5191Y9009D01*
X5194Y9012D01*
X5195Y9015D01*
X5196Y9016D01*
X5197Y9017D01*
X5204Y9025D01*
X5211Y9032D01*
X5220Y9039D01*
X5230Y9044D01*
X5249Y9053D01*
X5267Y9060D01*
X5276Y9063D01*
X5284Y9065D01*
X5292Y9067D01*
X5298Y9068D01*
X5304Y9069D01*
X5308D01*
X5311Y9070D01*
X5311D01*
X5321Y8974D01*
X5306Y8972D01*
X5294Y8969D01*
X5283Y8966D01*
X5275Y8963D01*
X5268Y8960D01*
X5264Y8957D01*
X5261Y8955D01*
X5260Y8954D01*
X5254Y8947D01*
X5250Y8939D01*
X5246Y8931D01*
X5244Y8923D01*
X5243Y8916D01*
X5242Y8910D01*
Y8905D01*
X5243Y8894D01*
X5245Y8885D01*
X5248Y8877D01*
X5251Y8869D01*
X5254Y8864D01*
X5257Y8860D01*
X5259Y8858D01*
X5260Y8857D01*
X5267Y8851D01*
X5275Y8847D01*
X5283Y8844D01*
X5291Y8842D01*
X5298Y8840D01*
X5305Y8840D01*
X5308D01*
X5309D01*
X5310D01*
X5321Y8840D01*
X5331Y8842D01*
X5341Y8846D01*
X5350Y8850D01*
X5358Y8853D01*
X5364Y8857D01*
X5367Y8859D01*
X5369Y8860D01*
X5373Y8863D01*
X5378Y8867D01*
X5385Y8873D01*
X5391Y8879D01*
X5405Y8892D01*
X5419Y8905D01*
X5432Y8918D01*
X5437Y8924D01*
X5442Y8930D01*
X5446Y8934D01*
X5449Y8937D01*
X5451Y8939D01*
X5452Y8940D01*
X5466Y8955D01*
X5479Y8968D01*
X5491Y8980D01*
X5502Y8991D01*
X5513Y9001D01*
X5523Y9010D01*
X5532Y9018D01*
X5541Y9025D01*
X5548Y9031D01*
X5555Y9036D01*
X5560Y9040D01*
X5565Y9043D01*
X5568Y9046D01*
X5571Y9047D01*
X5572Y9049D01*
X5573D01*
X5590Y9058D01*
X5607Y9066D01*
X5623Y9071D01*
X5638Y9076D01*
X5651Y9079D01*
X5656Y9079D01*
X5661Y9080D01*
X5664Y9081D01*
X5667Y9082D01*
X5669D01*
X5669D01*
Y8743D01*
D02*
G37*
G36*
X5568Y8487D02*
X5669D01*
Y8393D01*
X5568D01*
Y8331D01*
X5483D01*
Y8393D01*
X5163D01*
Y8475D01*
X5484Y8694D01*
X5568D01*
Y8487D01*
D02*
G37*
G36*
X5669Y8134D02*
Y8024D01*
X5165Y7844D01*
Y7953D01*
X5538Y8076D01*
X5165Y8205D01*
Y8315D01*
X5669Y8134D01*
D02*
G37*
G36*
X4909Y5561D02*
Y5424D01*
X4279Y5200D01*
Y5336D01*
X4745Y5490D01*
X4279Y5650D01*
Y5787D01*
X4909Y5561D01*
D02*
G37*
G36*
Y4862D02*
X4909Y4846D01*
Y4819D01*
X4908Y4808D01*
Y4791D01*
X4907Y4784D01*
Y4775D01*
X4906Y4772D01*
Y4768D01*
X4903Y4750D01*
X4898Y4733D01*
X4894Y4719D01*
X4888Y4706D01*
X4884Y4696D01*
X4879Y4689D01*
X4877Y4684D01*
X4876Y4682D01*
X4866Y4670D01*
X4855Y4660D01*
X4845Y4650D01*
X4834Y4642D01*
X4825Y4636D01*
X4817Y4631D01*
X4813Y4629D01*
X4811Y4628D01*
X4796Y4621D01*
X4781Y4616D01*
X4766Y4612D01*
X4754Y4610D01*
X4743Y4609D01*
X4735Y4608D01*
X4729D01*
X4728D01*
X4727D01*
X4707Y4609D01*
X4689Y4612D01*
X4673Y4618D01*
X4659Y4623D01*
X4648Y4629D01*
X4640Y4634D01*
X4634Y4638D01*
X4632Y4639D01*
X4618Y4651D01*
X4606Y4665D01*
X4596Y4681D01*
X4589Y4694D01*
X4582Y4707D01*
X4578Y4718D01*
X4577Y4722D01*
X4576Y4724D01*
X4575Y4726D01*
Y4727D01*
X4567Y4712D01*
X4559Y4700D01*
X4549Y4689D01*
X4540Y4680D01*
X4532Y4673D01*
X4526Y4668D01*
X4521Y4664D01*
X4520Y4663D01*
X4505Y4655D01*
X4491Y4649D01*
X4478Y4645D01*
X4465Y4641D01*
X4454Y4640D01*
X4446Y4639D01*
X4440D01*
X4439D01*
X4438D01*
X4424Y4640D01*
X4409Y4641D01*
X4397Y4645D01*
X4387Y4649D01*
X4377Y4652D01*
X4370Y4656D01*
X4366Y4658D01*
X4365Y4659D01*
X4353Y4666D01*
X4343Y4674D01*
X4334Y4682D01*
X4325Y4690D01*
X4320Y4697D01*
X4315Y4702D01*
X4313Y4706D01*
X4312Y4707D01*
X4305Y4718D01*
X4299Y4730D01*
X4294Y4741D01*
X4291Y4751D01*
X4288Y4760D01*
X4286Y4766D01*
X4285Y4771D01*
Y4773D01*
X4284Y4788D01*
X4282Y4805D01*
X4281Y4824D01*
X4280Y4842D01*
X4279Y4858D01*
Y5135D01*
X4909D01*
Y4862D01*
D02*
G37*
G36*
X4653Y4500D02*
X4671D01*
X4686Y4499D01*
X4701Y4498D01*
X4714Y4497D01*
X4725Y4497D01*
X4736Y4495D01*
X4745Y4494D01*
X4754Y4493D01*
X4761Y4492D01*
X4766Y4491D01*
X4771Y4490D01*
X4774D01*
X4775Y4489D01*
X4776D01*
X4790Y4485D01*
X4803Y4480D01*
X4815Y4474D01*
X4825Y4468D01*
X4834Y4463D01*
X4841Y4458D01*
X4845Y4455D01*
X4847Y4454D01*
X4858Y4443D01*
X4869Y4431D01*
X4878Y4418D01*
X4887Y4406D01*
X4893Y4396D01*
X4898Y4387D01*
X4900Y4382D01*
X4901Y4381D01*
Y4380D01*
X4905Y4371D01*
X4908Y4361D01*
X4913Y4338D01*
X4917Y4315D01*
X4919Y4293D01*
X4919Y4283D01*
X4920Y4273D01*
Y4265D01*
X4921Y4257D01*
Y4242D01*
X4920Y4216D01*
X4919Y4192D01*
X4915Y4171D01*
X4911Y4154D01*
X4910Y4147D01*
X4909Y4139D01*
X4907Y4134D01*
X4905Y4129D01*
X4904Y4126D01*
X4903Y4123D01*
X4902Y4122D01*
Y4121D01*
X4895Y4105D01*
X4886Y4090D01*
X4878Y4077D01*
X4869Y4067D01*
X4862Y4058D01*
X4857Y4052D01*
X4853Y4048D01*
X4851Y4047D01*
X4838Y4037D01*
X4825Y4029D01*
X4812Y4023D01*
X4799Y4017D01*
X4788Y4014D01*
X4779Y4011D01*
X4776Y4010D01*
X4774D01*
X4773Y4009D01*
X4772D01*
X4762Y4007D01*
X4751Y4005D01*
X4739Y4004D01*
X4727Y4003D01*
X4700Y4001D01*
X4673Y3999D01*
X4662D01*
X4650D01*
X4639Y3998D01*
X4630D01*
X4622D01*
X4616D01*
X4612D01*
X4612D01*
X4279D01*
Y4126D01*
X4629D01*
X4642D01*
X4655D01*
X4667Y4127D01*
X4678D01*
X4687Y4128D01*
X4696D01*
X4704Y4128D01*
X4712D01*
X4723Y4130D01*
X4731Y4131D01*
X4735Y4132D01*
X4737D01*
X4749Y4135D01*
X4759Y4139D01*
X4768Y4145D01*
X4776Y4150D01*
X4783Y4156D01*
X4787Y4160D01*
X4790Y4164D01*
X4791Y4165D01*
X4798Y4176D01*
X4804Y4190D01*
X4807Y4202D01*
X4810Y4216D01*
X4812Y4228D01*
X4813Y4237D01*
Y4246D01*
X4812Y4265D01*
X4809Y4282D01*
X4806Y4296D01*
X4801Y4309D01*
X4797Y4318D01*
X4794Y4325D01*
X4791Y4329D01*
X4790Y4331D01*
X4781Y4341D01*
X4770Y4349D01*
X4760Y4356D01*
X4750Y4361D01*
X4741Y4364D01*
X4734Y4367D01*
X4729Y4369D01*
X4727D01*
X4722Y4370D01*
X4716Y4371D01*
X4709D01*
X4701Y4372D01*
X4683Y4373D01*
X4665D01*
X4649Y4374D01*
X4642D01*
X4634D01*
X4629D01*
X4625D01*
X4622D01*
X4622D01*
X4279D01*
Y4501D01*
X4616D01*
X4635D01*
X4653Y4500D01*
D02*
G37*
G36*
X4724Y3894D02*
X4742Y3891D01*
X4759Y3885D01*
X4775Y3881D01*
X4789Y3874D01*
X4803Y3868D01*
X4815Y3862D01*
X4826Y3855D01*
X4835Y3849D01*
X4843Y3842D01*
X4850Y3837D01*
X4857Y3831D01*
X4861Y3828D01*
X4864Y3824D01*
X4866Y3822D01*
X4867Y3821D01*
X4877Y3809D01*
X4885Y3795D01*
X4892Y3780D01*
X4898Y3765D01*
X4903Y3750D01*
X4908Y3735D01*
X4914Y3705D01*
X4917Y3691D01*
X4919Y3678D01*
X4919Y3668D01*
X4920Y3657D01*
X4921Y3649D01*
Y3637D01*
X4920Y3608D01*
X4918Y3582D01*
X4914Y3558D01*
X4912Y3548D01*
X4909Y3538D01*
X4908Y3530D01*
X4906Y3523D01*
X4904Y3516D01*
X4902Y3511D01*
X4900Y3506D01*
X4899Y3504D01*
X4898Y3502D01*
Y3501D01*
X4888Y3481D01*
X4878Y3464D01*
X4867Y3449D01*
X4855Y3437D01*
X4845Y3428D01*
X4836Y3421D01*
X4830Y3417D01*
X4829Y3415D01*
X4828D01*
X4810Y3405D01*
X4793Y3397D01*
X4775Y3391D01*
X4759Y3388D01*
X4746Y3386D01*
X4740Y3385D01*
X4735Y3384D01*
X4732D01*
X4729D01*
X4727D01*
X4726D01*
X4704Y3385D01*
X4685Y3388D01*
X4668Y3392D01*
X4653Y3397D01*
X4642Y3401D01*
X4633Y3406D01*
X4628Y3409D01*
X4626Y3410D01*
X4612Y3420D01*
X4599Y3432D01*
X4588Y3443D01*
X4579Y3454D01*
X4571Y3464D01*
X4566Y3473D01*
X4562Y3478D01*
X4561Y3479D01*
Y3480D01*
X4557Y3489D01*
X4552Y3498D01*
X4544Y3520D01*
X4537Y3543D01*
X4530Y3565D01*
X4527Y3575D01*
X4524Y3585D01*
X4521Y3594D01*
X4520Y3601D01*
X4518Y3607D01*
X4517Y3612D01*
X4516Y3616D01*
Y3616D01*
X4511Y3633D01*
X4508Y3647D01*
X4504Y3661D01*
X4500Y3674D01*
X4497Y3684D01*
X4493Y3694D01*
X4489Y3702D01*
X4487Y3709D01*
X4484Y3716D01*
X4481Y3720D01*
X4479Y3725D01*
X4478Y3728D01*
X4475Y3732D01*
X4474Y3733D01*
X4468Y3739D01*
X4461Y3744D01*
X4455Y3747D01*
X4448Y3749D01*
X4444Y3750D01*
X4439Y3751D01*
X4437D01*
X4436D01*
X4427Y3750D01*
X4419Y3749D01*
X4412Y3745D01*
X4407Y3741D01*
X4402Y3738D01*
X4399Y3734D01*
X4397Y3732D01*
X4397Y3731D01*
X4388Y3719D01*
X4383Y3705D01*
X4378Y3690D01*
X4376Y3677D01*
X4374Y3665D01*
X4373Y3655D01*
Y3646D01*
X4374Y3627D01*
X4376Y3610D01*
X4380Y3596D01*
X4384Y3586D01*
X4387Y3576D01*
X4391Y3570D01*
X4394Y3566D01*
X4395Y3565D01*
X4404Y3556D01*
X4415Y3548D01*
X4426Y3542D01*
X4438Y3537D01*
X4448Y3534D01*
X4456Y3532D01*
X4462Y3530D01*
X4463D01*
X4464D01*
X4459Y3402D01*
X4443Y3403D01*
X4428Y3406D01*
X4414Y3410D01*
X4401Y3414D01*
X4388Y3419D01*
X4376Y3424D01*
X4366Y3430D01*
X4356Y3435D01*
X4348Y3442D01*
X4341Y3447D01*
X4335Y3453D01*
X4329Y3457D01*
X4325Y3461D01*
X4323Y3463D01*
X4321Y3465D01*
X4320Y3466D01*
X4311Y3478D01*
X4303Y3491D01*
X4295Y3504D01*
X4289Y3519D01*
X4284Y3534D01*
X4280Y3548D01*
X4274Y3577D01*
X4272Y3591D01*
X4270Y3603D01*
X4269Y3615D01*
X4268Y3625D01*
X4267Y3633D01*
Y3644D01*
X4268Y3670D01*
X4271Y3694D01*
X4274Y3715D01*
X4278Y3733D01*
X4281Y3741D01*
X4283Y3749D01*
X4284Y3754D01*
X4286Y3760D01*
X4288Y3763D01*
X4289Y3766D01*
X4290Y3768D01*
Y3769D01*
X4299Y3787D01*
X4309Y3802D01*
X4320Y3816D01*
X4330Y3827D01*
X4339Y3836D01*
X4346Y3842D01*
X4352Y3846D01*
X4353Y3847D01*
X4354D01*
X4369Y3856D01*
X4386Y3862D01*
X4401Y3867D01*
X4415Y3870D01*
X4427Y3872D01*
X4436Y3873D01*
X4439D01*
X4442D01*
X4443D01*
X4444D01*
X4458Y3872D01*
X4471Y3871D01*
X4483Y3868D01*
X4495Y3864D01*
X4517Y3855D01*
X4536Y3844D01*
X4544Y3840D01*
X4550Y3834D01*
X4557Y3830D01*
X4562Y3825D01*
X4566Y3821D01*
X4569Y3819D01*
X4571Y3817D01*
X4571Y3816D01*
X4578Y3808D01*
X4584Y3798D01*
X4591Y3788D01*
X4596Y3776D01*
X4607Y3753D01*
X4616Y3729D01*
X4620Y3718D01*
X4623Y3708D01*
X4626Y3698D01*
X4629Y3689D01*
X4631Y3683D01*
X4632Y3678D01*
X4633Y3674D01*
Y3673D01*
X4637Y3658D01*
X4641Y3646D01*
X4643Y3634D01*
X4646Y3623D01*
X4649Y3614D01*
X4651Y3606D01*
X4653Y3598D01*
X4655Y3592D01*
X4656Y3586D01*
X4658Y3582D01*
X4660Y3575D01*
X4662Y3572D01*
Y3571D01*
X4666Y3559D01*
X4671Y3550D01*
X4675Y3542D01*
X4680Y3535D01*
X4683Y3531D01*
X4686Y3528D01*
X4688Y3526D01*
X4689Y3525D01*
X4695Y3521D01*
X4702Y3517D01*
X4708Y3515D01*
X4714Y3514D01*
X4719Y3513D01*
X4724Y3512D01*
X4726D01*
X4727D01*
X4740Y3513D01*
X4751Y3516D01*
X4762Y3522D01*
X4771Y3527D01*
X4778Y3534D01*
X4784Y3538D01*
X4787Y3542D01*
X4788Y3544D01*
X4796Y3556D01*
X4803Y3571D01*
X4807Y3586D01*
X4810Y3601D01*
X4812Y3615D01*
X4814Y3626D01*
Y3636D01*
X4813Y3657D01*
X4809Y3675D01*
X4805Y3690D01*
X4799Y3704D01*
X4794Y3715D01*
X4789Y3722D01*
X4786Y3727D01*
X4785Y3729D01*
X4772Y3740D01*
X4758Y3749D01*
X4743Y3758D01*
X4727Y3763D01*
X4714Y3768D01*
X4703Y3771D01*
X4699Y3772D01*
X4695D01*
X4694Y3773D01*
X4693D01*
X4704Y3897D01*
X4724Y3894D01*
D02*
G37*
G36*
X4871Y10325D02*
Y10188D01*
X4241Y9964D01*
Y10099D01*
X4707Y10253D01*
X4241Y10414D01*
Y10551D01*
X4871Y10325D01*
D02*
G37*
G36*
X4589Y9921D02*
X4614Y9918D01*
X4639Y9914D01*
X4661Y9909D01*
X4681Y9903D01*
X4702Y9896D01*
X4719Y9889D01*
X4734Y9882D01*
X4749Y9874D01*
X4762Y9867D01*
X4772Y9860D01*
X4781Y9854D01*
X4787Y9849D01*
X4793Y9845D01*
X4795Y9842D01*
X4796Y9842D01*
X4812Y9826D01*
X4825Y9810D01*
X4836Y9792D01*
X4845Y9775D01*
X4854Y9758D01*
X4861Y9740D01*
X4866Y9724D01*
X4871Y9709D01*
X4875Y9693D01*
X4877Y9679D01*
X4879Y9667D01*
X4880Y9657D01*
X4881Y9647D01*
X4882Y9641D01*
Y9636D01*
X4881Y9616D01*
X4880Y9599D01*
X4877Y9582D01*
X4874Y9566D01*
X4870Y9552D01*
X4866Y9538D01*
X4862Y9525D01*
X4856Y9514D01*
X4852Y9504D01*
X4847Y9494D01*
X4844Y9486D01*
X4840Y9480D01*
X4836Y9474D01*
X4834Y9471D01*
X4833Y9469D01*
X4832Y9468D01*
X4822Y9456D01*
X4811Y9445D01*
X4786Y9425D01*
X4761Y9409D01*
X4736Y9396D01*
X4724Y9391D01*
X4713Y9386D01*
X4703Y9382D01*
X4695Y9379D01*
X4688Y9376D01*
X4682Y9374D01*
X4679Y9373D01*
X4678D01*
X4640Y9497D01*
X4664Y9504D01*
X4685Y9513D01*
X4702Y9521D01*
X4717Y9530D01*
X4728Y9537D01*
X4735Y9544D01*
X4740Y9548D01*
X4742Y9550D01*
X4753Y9565D01*
X4760Y9579D01*
X4765Y9594D01*
X4770Y9606D01*
X4772Y9618D01*
X4773Y9628D01*
X4773Y9632D01*
Y9637D01*
X4773Y9649D01*
X4772Y9661D01*
X4765Y9683D01*
X4758Y9702D01*
X4748Y9718D01*
X4739Y9730D01*
X4732Y9739D01*
X4728Y9743D01*
X4725Y9746D01*
X4724Y9747D01*
X4723Y9748D01*
X4713Y9755D01*
X4702Y9761D01*
X4689Y9768D01*
X4675Y9772D01*
X4647Y9780D01*
X4619Y9785D01*
X4605Y9787D01*
X4593Y9788D01*
X4581Y9790D01*
X4571D01*
X4564Y9790D01*
X4558D01*
X4553D01*
X4552D01*
X4531Y9790D01*
X4512Y9789D01*
X4495Y9787D01*
X4478Y9784D01*
X4464Y9780D01*
X4450Y9777D01*
X4438Y9773D01*
X4427Y9769D01*
X4418Y9765D01*
X4410Y9761D01*
X4404Y9758D01*
X4398Y9754D01*
X4394Y9751D01*
X4391Y9750D01*
X4389Y9748D01*
X4388D01*
X4379Y9739D01*
X4371Y9730D01*
X4364Y9721D01*
X4359Y9711D01*
X4350Y9692D01*
X4343Y9674D01*
X4340Y9658D01*
X4339Y9651D01*
X4338Y9646D01*
X4337Y9640D01*
Y9634D01*
X4338Y9616D01*
X4342Y9599D01*
X4346Y9585D01*
X4352Y9572D01*
X4357Y9562D01*
X4362Y9555D01*
X4365Y9550D01*
X4366Y9548D01*
X4377Y9536D01*
X4390Y9525D01*
X4403Y9517D01*
X4415Y9511D01*
X4426Y9506D01*
X4435Y9504D01*
X4438Y9502D01*
X4441D01*
X4442Y9501D01*
X4443D01*
X4413Y9375D01*
X4386Y9384D01*
X4364Y9394D01*
X4343Y9405D01*
X4327Y9415D01*
X4314Y9425D01*
X4309Y9429D01*
X4304Y9432D01*
X4302Y9435D01*
X4299Y9438D01*
X4297Y9439D01*
Y9440D01*
X4285Y9453D01*
X4274Y9469D01*
X4265Y9483D01*
X4258Y9499D01*
X4251Y9515D01*
X4245Y9531D01*
X4241Y9546D01*
X4237Y9561D01*
X4234Y9575D01*
X4232Y9587D01*
X4231Y9598D01*
X4230Y9608D01*
X4229Y9616D01*
Y9627D01*
X4230Y9651D01*
X4232Y9675D01*
X4237Y9696D01*
X4242Y9717D01*
X4249Y9735D01*
X4256Y9753D01*
X4264Y9769D01*
X4272Y9783D01*
X4281Y9797D01*
X4289Y9808D01*
X4296Y9818D01*
X4302Y9826D01*
X4308Y9832D01*
X4313Y9837D01*
X4315Y9840D01*
X4316Y9841D01*
X4333Y9855D01*
X4352Y9867D01*
X4371Y9878D01*
X4391Y9887D01*
X4412Y9895D01*
X4432Y9902D01*
X4452Y9907D01*
X4471Y9912D01*
X4490Y9915D01*
X4507Y9917D01*
X4522Y9919D01*
X4535Y9921D01*
X4546D01*
X4554Y9922D01*
X4559D01*
X4560D01*
X4561D01*
X4589Y9921D01*
D02*
G37*
G36*
Y9285D02*
X4614Y9282D01*
X4639Y9279D01*
X4661Y9273D01*
X4681Y9268D01*
X4702Y9260D01*
X4719Y9253D01*
X4734Y9246D01*
X4749Y9238D01*
X4762Y9231D01*
X4772Y9224D01*
X4781Y9218D01*
X4787Y9213D01*
X4793Y9209D01*
X4795Y9207D01*
X4796Y9206D01*
X4812Y9190D01*
X4825Y9174D01*
X4836Y9156D01*
X4845Y9139D01*
X4854Y9122D01*
X4861Y9105D01*
X4866Y9088D01*
X4871Y9073D01*
X4875Y9057D01*
X4877Y9043D01*
X4879Y9031D01*
X4880Y9021D01*
X4881Y9012D01*
X4882Y9005D01*
Y9000D01*
X4881Y8981D01*
X4880Y8963D01*
X4877Y8946D01*
X4874Y8931D01*
X4870Y8916D01*
X4866Y8902D01*
X4862Y8890D01*
X4856Y8878D01*
X4852Y8868D01*
X4847Y8859D01*
X4844Y8850D01*
X4840Y8844D01*
X4836Y8838D01*
X4834Y8835D01*
X4833Y8833D01*
X4832Y8832D01*
X4822Y8820D01*
X4811Y8809D01*
X4786Y8789D01*
X4761Y8773D01*
X4736Y8760D01*
X4724Y8755D01*
X4713Y8750D01*
X4703Y8746D01*
X4695Y8743D01*
X4688Y8740D01*
X4682Y8738D01*
X4679Y8737D01*
X4678D01*
X4640Y8861D01*
X4664Y8869D01*
X4685Y8877D01*
X4702Y8885D01*
X4717Y8894D01*
X4728Y8901D01*
X4735Y8908D01*
X4740Y8912D01*
X4742Y8914D01*
X4753Y8929D01*
X4760Y8943D01*
X4765Y8958D01*
X4770Y8971D01*
X4772Y8982D01*
X4773Y8992D01*
X4773Y8996D01*
Y9001D01*
X4773Y9013D01*
X4772Y9025D01*
X4765Y9047D01*
X4758Y9066D01*
X4748Y9082D01*
X4739Y9094D01*
X4732Y9104D01*
X4728Y9107D01*
X4725Y9110D01*
X4724Y9111D01*
X4723Y9112D01*
X4713Y9119D01*
X4702Y9125D01*
X4689Y9132D01*
X4675Y9136D01*
X4647Y9144D01*
X4619Y9149D01*
X4605Y9151D01*
X4593Y9152D01*
X4581Y9154D01*
X4571D01*
X4564Y9155D01*
X4558D01*
X4553D01*
X4552D01*
X4531Y9154D01*
X4512Y9153D01*
X4495Y9151D01*
X4478Y9148D01*
X4464Y9145D01*
X4450Y9141D01*
X4438Y9137D01*
X4427Y9133D01*
X4418Y9129D01*
X4410Y9125D01*
X4404Y9122D01*
X4398Y9118D01*
X4394Y9115D01*
X4391Y9114D01*
X4389Y9112D01*
X4388D01*
X4379Y9104D01*
X4371Y9094D01*
X4364Y9085D01*
X4359Y9075D01*
X4350Y9056D01*
X4343Y9038D01*
X4340Y9023D01*
X4339Y9015D01*
X4338Y9010D01*
X4337Y9004D01*
Y8998D01*
X4338Y8980D01*
X4342Y8963D01*
X4346Y8949D01*
X4352Y8936D01*
X4357Y8926D01*
X4362Y8919D01*
X4365Y8914D01*
X4366Y8912D01*
X4377Y8900D01*
X4390Y8890D01*
X4403Y8881D01*
X4415Y8875D01*
X4426Y8870D01*
X4435Y8868D01*
X4438Y8866D01*
X4441D01*
X4442Y8865D01*
X4443D01*
X4413Y8739D01*
X4386Y8748D01*
X4364Y8758D01*
X4343Y8769D01*
X4327Y8779D01*
X4314Y8789D01*
X4309Y8793D01*
X4304Y8797D01*
X4302Y8799D01*
X4299Y8802D01*
X4297Y8803D01*
Y8804D01*
X4285Y8818D01*
X4274Y8833D01*
X4265Y8848D01*
X4258Y8863D01*
X4251Y8880D01*
X4245Y8895D01*
X4241Y8910D01*
X4237Y8925D01*
X4234Y8939D01*
X4232Y8951D01*
X4231Y8962D01*
X4230Y8972D01*
X4229Y8981D01*
Y8992D01*
X4230Y9015D01*
X4232Y9039D01*
X4237Y9060D01*
X4242Y9081D01*
X4249Y9099D01*
X4256Y9117D01*
X4264Y9133D01*
X4272Y9147D01*
X4281Y9161D01*
X4289Y9172D01*
X4296Y9182D01*
X4302Y9190D01*
X4308Y9197D01*
X4313Y9201D01*
X4315Y9204D01*
X4316Y9205D01*
X4333Y9219D01*
X4352Y9231D01*
X4371Y9242D01*
X4391Y9251D01*
X4412Y9259D01*
X4432Y9266D01*
X4452Y9271D01*
X4471Y9276D01*
X4490Y9279D01*
X4507Y9281D01*
X4522Y9283D01*
X4535Y9285D01*
X4546D01*
X4554Y9286D01*
X4559D01*
X4560D01*
X4561D01*
X4589Y9285D01*
D02*
G37*
G36*
X4872Y15002D02*
X4871Y14987D01*
Y14959D01*
X4870Y14949D01*
Y14931D01*
X4869Y14925D01*
Y14916D01*
X4868Y14912D01*
Y14908D01*
X4865Y14890D01*
X4861Y14874D01*
X4856Y14859D01*
X4851Y14847D01*
X4846Y14836D01*
X4842Y14829D01*
X4839Y14825D01*
X4838Y14823D01*
X4828Y14810D01*
X4817Y14800D01*
X4807Y14790D01*
X4796Y14783D01*
X4787Y14776D01*
X4780Y14772D01*
X4775Y14769D01*
X4773Y14768D01*
X4758Y14762D01*
X4743Y14756D01*
X4729Y14753D01*
X4716Y14751D01*
X4705Y14749D01*
X4697Y14748D01*
X4691D01*
X4691D01*
X4690D01*
X4670Y14749D01*
X4651Y14753D01*
X4636Y14758D01*
X4621Y14764D01*
X4610Y14769D01*
X4602Y14775D01*
X4597Y14778D01*
X4595Y14779D01*
X4580Y14792D01*
X4569Y14806D01*
X4558Y14821D01*
X4551Y14835D01*
X4545Y14847D01*
X4540Y14858D01*
X4539Y14862D01*
X4538Y14865D01*
X4538Y14867D01*
Y14867D01*
X4529Y14853D01*
X4521Y14840D01*
X4511Y14829D01*
X4503Y14820D01*
X4495Y14814D01*
X4488Y14808D01*
X4484Y14805D01*
X4482Y14804D01*
X4467Y14795D01*
X4454Y14789D01*
X4440Y14785D01*
X4427Y14782D01*
X4416Y14780D01*
X4408Y14779D01*
X4403D01*
X4402D01*
X4401D01*
X4386Y14780D01*
X4372Y14782D01*
X4360Y14785D01*
X4349Y14789D01*
X4340Y14793D01*
X4333Y14796D01*
X4329Y14798D01*
X4327Y14799D01*
X4315Y14806D01*
X4305Y14815D01*
X4296Y14823D01*
X4288Y14830D01*
X4282Y14837D01*
X4278Y14843D01*
X4275Y14847D01*
X4274Y14847D01*
X4267Y14858D01*
X4261Y14870D01*
X4257Y14881D01*
X4253Y14891D01*
X4251Y14900D01*
X4249Y14907D01*
X4248Y14911D01*
Y14913D01*
X4246Y14928D01*
X4244Y14946D01*
X4243Y14964D01*
X4242Y14982D01*
X4241Y14999D01*
Y15276D01*
X4872D01*
Y15002D01*
D02*
G37*
G36*
X4759Y14673D02*
X4769Y14672D01*
X4788Y14667D01*
X4804Y14661D01*
X4818Y14653D01*
X4829Y14646D01*
X4837Y14640D01*
X4843Y14635D01*
X4844Y14633D01*
X4845D01*
X4857Y14617D01*
X4866Y14599D01*
X4873Y14581D01*
X4877Y14562D01*
X4880Y14547D01*
X4881Y14540D01*
Y14534D01*
X4882Y14529D01*
Y14522D01*
X4881Y14508D01*
X4879Y14493D01*
X4877Y14480D01*
X4875Y14469D01*
X4872Y14460D01*
X4869Y14453D01*
X4868Y14448D01*
X4867Y14447D01*
X4861Y14434D01*
X4855Y14421D01*
X4846Y14410D01*
X4839Y14400D01*
X4833Y14392D01*
X4827Y14386D01*
X4824Y14382D01*
X4823Y14380D01*
X4826Y14379D01*
X4831Y14377D01*
X4835Y14376D01*
X4835Y14376D01*
X4836D01*
X4845Y14373D01*
X4852Y14371D01*
X4858Y14369D01*
X4863Y14367D01*
X4866Y14366D01*
X4870Y14365D01*
X4871Y14364D01*
X4872D01*
Y14244D01*
X4860Y14250D01*
X4849Y14254D01*
X4839Y14258D01*
X4830Y14262D01*
X4823Y14263D01*
X4816Y14265D01*
X4813Y14266D01*
X4812D01*
X4800Y14268D01*
X4785Y14269D01*
X4771Y14271D01*
X4756D01*
X4743Y14272D01*
X4732D01*
X4728D01*
X4725D01*
X4723D01*
X4722D01*
X4581Y14270D01*
X4567D01*
X4554Y14271D01*
X4542Y14272D01*
X4531Y14273D01*
X4521Y14273D01*
X4512Y14275D01*
X4504Y14276D01*
X4497Y14278D01*
X4491Y14280D01*
X4487Y14281D01*
X4478Y14284D01*
X4475Y14285D01*
X4473Y14286D01*
X4463Y14294D01*
X4453Y14302D01*
X4445Y14311D01*
X4437Y14321D01*
X4432Y14329D01*
X4428Y14336D01*
X4425Y14341D01*
X4425Y14342D01*
Y14343D01*
X4421Y14351D01*
X4418Y14359D01*
X4413Y14378D01*
X4409Y14398D01*
X4407Y14417D01*
X4405Y14436D01*
Y14443D01*
X4405Y14449D01*
Y14479D01*
X4406Y14494D01*
X4407Y14509D01*
X4410Y14521D01*
X4412Y14534D01*
X4415Y14545D01*
X4418Y14555D01*
X4421Y14564D01*
X4424Y14571D01*
X4427Y14579D01*
X4430Y14584D01*
X4432Y14590D01*
X4435Y14593D01*
X4435Y14596D01*
X4437Y14597D01*
Y14598D01*
X4451Y14613D01*
X4466Y14626D01*
X4483Y14637D01*
X4498Y14646D01*
X4513Y14652D01*
X4519Y14655D01*
X4525Y14657D01*
X4529Y14659D01*
X4533Y14660D01*
X4535Y14661D01*
X4536D01*
X4556Y14552D01*
X4545Y14548D01*
X4536Y14543D01*
X4528Y14539D01*
X4521Y14533D01*
X4517Y14529D01*
X4514Y14526D01*
X4512Y14524D01*
X4511Y14523D01*
X4507Y14516D01*
X4503Y14508D01*
X4501Y14499D01*
X4499Y14490D01*
X4498Y14483D01*
X4497Y14478D01*
Y14472D01*
X4498Y14456D01*
X4500Y14442D01*
X4502Y14431D01*
X4505Y14422D01*
X4508Y14416D01*
X4510Y14411D01*
X4512Y14408D01*
X4513Y14407D01*
X4519Y14401D01*
X4527Y14396D01*
X4535Y14394D01*
X4543Y14391D01*
X4551Y14390D01*
X4558Y14389D01*
X4561D01*
X4563D01*
X4575D01*
X4578Y14396D01*
X4580Y14404D01*
X4586Y14421D01*
X4590Y14441D01*
X4595Y14460D01*
X4599Y14478D01*
X4601Y14487D01*
X4602Y14494D01*
X4603Y14499D01*
X4604Y14504D01*
X4605Y14507D01*
Y14508D01*
X4609Y14529D01*
X4614Y14550D01*
X4619Y14566D01*
X4623Y14580D01*
X4628Y14591D01*
X4630Y14598D01*
X4632Y14602D01*
X4633Y14604D01*
X4640Y14616D01*
X4647Y14626D01*
X4655Y14635D01*
X4662Y14642D01*
X4669Y14648D01*
X4674Y14652D01*
X4678Y14654D01*
X4680Y14655D01*
X4691Y14662D01*
X4703Y14666D01*
X4714Y14669D01*
X4725Y14671D01*
X4734Y14673D01*
X4742Y14673D01*
X4746D01*
X4748D01*
X4759Y14673D01*
D02*
G37*
G36*
X4511Y14145D02*
X4711D01*
X4722D01*
X4732D01*
X4743D01*
X4751Y14144D01*
X4765D01*
X4777Y14143D01*
X4786Y14142D01*
X4792D01*
X4795Y14141D01*
X4796D01*
X4806Y14140D01*
X4815Y14137D01*
X4824Y14134D01*
X4830Y14131D01*
X4835Y14129D01*
X4839Y14127D01*
X4842Y14126D01*
X4843Y14125D01*
X4849Y14120D01*
X4855Y14113D01*
X4864Y14100D01*
X4866Y14095D01*
X4869Y14090D01*
X4870Y14087D01*
X4871Y14086D01*
X4875Y14076D01*
X4877Y14066D01*
X4879Y14056D01*
X4880Y14047D01*
X4881Y14038D01*
X4882Y14032D01*
Y14027D01*
X4881Y14007D01*
X4879Y13989D01*
X4876Y13973D01*
X4873Y13959D01*
X4870Y13947D01*
X4867Y13938D01*
X4865Y13933D01*
X4865Y13932D01*
Y13931D01*
X4771Y13942D01*
X4774Y13953D01*
X4777Y13963D01*
X4779Y13971D01*
X4780Y13978D01*
X4781Y13984D01*
X4782Y13987D01*
Y13991D01*
X4781Y13999D01*
X4779Y14006D01*
X4777Y14009D01*
X4776Y14011D01*
X4771Y14017D01*
X4766Y14019D01*
X4763Y14021D01*
X4761Y14022D01*
X4759D01*
X4755Y14023D01*
X4747D01*
X4736D01*
X4725Y14024D01*
X4714D01*
X4705D01*
X4702D01*
X4699D01*
X4697D01*
X4696D01*
X4511D01*
Y13941D01*
X4415D01*
Y14024D01*
X4252D01*
X4323Y14145D01*
X4415D01*
Y14201D01*
X4511D01*
Y14145D01*
D02*
G37*
G36*
X4664Y13892D02*
X4681Y13891D01*
X4697Y13888D01*
X4712Y13885D01*
X4726Y13883D01*
X4739Y13878D01*
X4751Y13874D01*
X4762Y13870D01*
X4772Y13866D01*
X4780Y13862D01*
X4787Y13858D01*
X4794Y13855D01*
X4798Y13852D01*
X4802Y13850D01*
X4804Y13849D01*
X4804Y13848D01*
X4818Y13836D01*
X4830Y13824D01*
X4840Y13811D01*
X4849Y13796D01*
X4856Y13782D01*
X4863Y13767D01*
X4868Y13752D01*
X4872Y13738D01*
X4876Y13725D01*
X4877Y13712D01*
X4879Y13700D01*
X4881Y13690D01*
Y13682D01*
X4882Y13677D01*
Y13671D01*
X4880Y13645D01*
X4876Y13620D01*
X4871Y13599D01*
X4865Y13581D01*
X4861Y13573D01*
X4858Y13567D01*
X4855Y13560D01*
X4853Y13556D01*
X4850Y13552D01*
X4849Y13548D01*
X4847Y13547D01*
Y13547D01*
X4833Y13529D01*
X4817Y13514D01*
X4800Y13501D01*
X4784Y13491D01*
X4769Y13483D01*
X4763Y13480D01*
X4757Y13477D01*
X4753Y13475D01*
X4749Y13474D01*
X4747Y13473D01*
X4746D01*
X4726Y13593D01*
X4738Y13598D01*
X4749Y13602D01*
X4757Y13607D01*
X4764Y13612D01*
X4770Y13616D01*
X4773Y13619D01*
X4775Y13622D01*
X4776Y13623D01*
X4782Y13630D01*
X4785Y13639D01*
X4788Y13647D01*
X4790Y13654D01*
X4791Y13660D01*
X4792Y13666D01*
Y13670D01*
X4791Y13685D01*
X4787Y13699D01*
X4783Y13711D01*
X4777Y13721D01*
X4772Y13730D01*
X4767Y13735D01*
X4763Y13740D01*
X4763Y13741D01*
X4751Y13750D01*
X4737Y13756D01*
X4722Y13762D01*
X4710Y13765D01*
X4697Y13767D01*
X4688Y13768D01*
X4684Y13769D01*
X4681D01*
X4680D01*
X4679D01*
Y13466D01*
X4653D01*
X4630Y13468D01*
X4609Y13471D01*
X4589Y13475D01*
X4569Y13479D01*
X4553Y13484D01*
X4538Y13489D01*
X4524Y13495D01*
X4512Y13500D01*
X4501Y13506D01*
X4493Y13510D01*
X4486Y13515D01*
X4480Y13518D01*
X4476Y13521D01*
X4474Y13523D01*
X4473Y13524D01*
X4461Y13535D01*
X4450Y13547D01*
X4441Y13560D01*
X4434Y13573D01*
X4426Y13587D01*
X4421Y13600D01*
X4416Y13613D01*
X4413Y13626D01*
X4410Y13638D01*
X4408Y13649D01*
X4406Y13659D01*
X4405Y13667D01*
X4405Y13674D01*
Y13684D01*
X4405Y13700D01*
X4407Y13716D01*
X4411Y13731D01*
X4415Y13745D01*
X4419Y13759D01*
X4425Y13771D01*
X4431Y13782D01*
X4436Y13792D01*
X4443Y13802D01*
X4449Y13810D01*
X4455Y13817D01*
X4459Y13823D01*
X4463Y13827D01*
X4466Y13831D01*
X4468Y13833D01*
X4469Y13833D01*
X4482Y13843D01*
X4496Y13853D01*
X4509Y13861D01*
X4524Y13868D01*
X4539Y13874D01*
X4554Y13878D01*
X4582Y13885D01*
X4596Y13888D01*
X4608Y13890D01*
X4619Y13891D01*
X4628Y13892D01*
X4636Y13893D01*
X4642D01*
X4646D01*
X4647D01*
X4664Y13892D01*
D02*
G37*
G36*
X4872Y13251D02*
X4732D01*
X4711D01*
X4691D01*
X4674Y13250D01*
X4659Y13250D01*
X4644D01*
X4632Y13249D01*
X4620Y13248D01*
X4611Y13247D01*
X4603Y13246D01*
X4596Y13245D01*
X4590Y13244D01*
X4586D01*
X4583Y13243D01*
X4580Y13242D01*
X4579D01*
X4566Y13239D01*
X4555Y13234D01*
X4546Y13229D01*
X4539Y13225D01*
X4534Y13221D01*
X4530Y13218D01*
X4528Y13216D01*
X4528Y13215D01*
X4523Y13208D01*
X4519Y13200D01*
X4517Y13193D01*
X4515Y13187D01*
X4514Y13181D01*
X4513Y13176D01*
Y13172D01*
X4514Y13162D01*
X4516Y13152D01*
X4519Y13143D01*
X4523Y13134D01*
X4527Y13127D01*
X4530Y13121D01*
X4532Y13117D01*
X4533Y13116D01*
X4428Y13077D01*
X4420Y13092D01*
X4415Y13106D01*
X4410Y13119D01*
X4407Y13132D01*
X4405Y13142D01*
X4405Y13150D01*
Y13158D01*
X4405Y13168D01*
X4406Y13178D01*
X4409Y13187D01*
X4412Y13194D01*
X4415Y13200D01*
X4416Y13206D01*
X4418Y13209D01*
X4419Y13209D01*
X4425Y13219D01*
X4435Y13227D01*
X4445Y13236D01*
X4455Y13243D01*
X4465Y13250D01*
X4473Y13256D01*
X4478Y13260D01*
X4479Y13260D01*
X4415D01*
Y13373D01*
X4872D01*
Y13251D01*
D02*
G37*
G36*
Y12904D02*
X4415D01*
Y13025D01*
X4872D01*
Y12904D01*
D02*
G37*
G36*
X4354D02*
X4241D01*
Y13025D01*
X4354D01*
Y12904D01*
D02*
G37*
G36*
X4759Y12811D02*
X4769Y12810D01*
X4788Y12806D01*
X4804Y12799D01*
X4818Y12792D01*
X4829Y12785D01*
X4837Y12779D01*
X4843Y12774D01*
X4844Y12772D01*
X4845D01*
X4857Y12756D01*
X4866Y12738D01*
X4873Y12719D01*
X4877Y12701D01*
X4880Y12686D01*
X4881Y12678D01*
Y12673D01*
X4882Y12667D01*
Y12661D01*
X4881Y12646D01*
X4879Y12632D01*
X4877Y12619D01*
X4875Y12608D01*
X4872Y12599D01*
X4869Y12592D01*
X4868Y12587D01*
X4867Y12585D01*
X4861Y12573D01*
X4855Y12560D01*
X4846Y12549D01*
X4839Y12539D01*
X4833Y12531D01*
X4827Y12524D01*
X4824Y12521D01*
X4823Y12519D01*
X4826Y12518D01*
X4831Y12516D01*
X4835Y12515D01*
X4835Y12514D01*
X4836D01*
X4845Y12512D01*
X4852Y12510D01*
X4858Y12508D01*
X4863Y12506D01*
X4866Y12504D01*
X4870Y12503D01*
X4871Y12503D01*
X4872D01*
Y12383D01*
X4860Y12389D01*
X4849Y12393D01*
X4839Y12397D01*
X4830Y12400D01*
X4823Y12402D01*
X4816Y12404D01*
X4813Y12405D01*
X4812D01*
X4800Y12407D01*
X4785Y12408D01*
X4771Y12410D01*
X4756D01*
X4743Y12411D01*
X4732D01*
X4728D01*
X4725D01*
X4723D01*
X4722D01*
X4581Y12409D01*
X4567D01*
X4554Y12410D01*
X4542Y12411D01*
X4531Y12411D01*
X4521Y12412D01*
X4512Y12414D01*
X4504Y12415D01*
X4497Y12417D01*
X4491Y12419D01*
X4487Y12420D01*
X4478Y12422D01*
X4475Y12424D01*
X4473Y12425D01*
X4463Y12432D01*
X4453Y12441D01*
X4445Y12450D01*
X4437Y12460D01*
X4432Y12468D01*
X4428Y12475D01*
X4425Y12480D01*
X4425Y12481D01*
Y12482D01*
X4421Y12490D01*
X4418Y12498D01*
X4413Y12517D01*
X4409Y12537D01*
X4407Y12556D01*
X4405Y12574D01*
Y12582D01*
X4405Y12588D01*
Y12618D01*
X4406Y12633D01*
X4407Y12647D01*
X4410Y12660D01*
X4412Y12673D01*
X4415Y12684D01*
X4418Y12694D01*
X4421Y12703D01*
X4424Y12710D01*
X4427Y12717D01*
X4430Y12723D01*
X4432Y12728D01*
X4435Y12732D01*
X4435Y12735D01*
X4437Y12736D01*
Y12737D01*
X4451Y12752D01*
X4466Y12765D01*
X4483Y12776D01*
X4498Y12785D01*
X4513Y12791D01*
X4519Y12794D01*
X4525Y12796D01*
X4529Y12798D01*
X4533Y12799D01*
X4535Y12799D01*
X4536D01*
X4556Y12691D01*
X4545Y12687D01*
X4536Y12682D01*
X4528Y12677D01*
X4521Y12672D01*
X4517Y12668D01*
X4514Y12665D01*
X4512Y12663D01*
X4511Y12662D01*
X4507Y12655D01*
X4503Y12646D01*
X4501Y12637D01*
X4499Y12629D01*
X4498Y12622D01*
X4497Y12616D01*
Y12611D01*
X4498Y12595D01*
X4500Y12581D01*
X4502Y12570D01*
X4505Y12561D01*
X4508Y12554D01*
X4510Y12550D01*
X4512Y12547D01*
X4513Y12546D01*
X4519Y12540D01*
X4527Y12535D01*
X4535Y12533D01*
X4543Y12530D01*
X4551Y12529D01*
X4558Y12528D01*
X4561D01*
X4563D01*
X4575D01*
X4578Y12534D01*
X4580Y12543D01*
X4586Y12560D01*
X4590Y12580D01*
X4595Y12599D01*
X4599Y12617D01*
X4601Y12625D01*
X4602Y12633D01*
X4603Y12638D01*
X4604Y12643D01*
X4605Y12646D01*
Y12646D01*
X4609Y12668D01*
X4614Y12688D01*
X4619Y12705D01*
X4623Y12718D01*
X4628Y12729D01*
X4630Y12737D01*
X4632Y12741D01*
X4633Y12743D01*
X4640Y12755D01*
X4647Y12765D01*
X4655Y12774D01*
X4662Y12780D01*
X4669Y12787D01*
X4674Y12790D01*
X4678Y12793D01*
X4680Y12794D01*
X4691Y12800D01*
X4703Y12805D01*
X4714Y12808D01*
X4725Y12810D01*
X4734Y12811D01*
X4742Y12812D01*
X4746D01*
X4748D01*
X4759Y12811D01*
D02*
G37*
G36*
X5659Y19809D02*
X5677Y19807D01*
X5694Y19804D01*
X5709Y19800D01*
X5723Y19795D01*
X5737Y19790D01*
X5749Y19784D01*
X5760Y19778D01*
X5770Y19773D01*
X5778Y19766D01*
X5785Y19761D01*
X5791Y19756D01*
X5796Y19752D01*
X5800Y19749D01*
X5801Y19747D01*
X5802Y19746D01*
X5812Y19733D01*
X5822Y19721D01*
X5830Y19707D01*
X5837Y19692D01*
X5842Y19678D01*
X5847Y19663D01*
X5854Y19635D01*
X5857Y19621D01*
X5859Y19609D01*
X5860Y19599D01*
X5861Y19589D01*
X5862Y19581D01*
Y19575D01*
Y19571D01*
Y19570D01*
X5861Y19550D01*
X5859Y19530D01*
X5856Y19513D01*
X5853Y19496D01*
X5848Y19480D01*
X5842Y19466D01*
X5838Y19453D01*
X5832Y19441D01*
X5826Y19430D01*
X5822Y19421D01*
X5816Y19414D01*
X5812Y19407D01*
X5808Y19402D01*
X5805Y19398D01*
X5803Y19396D01*
X5802Y19395D01*
X5791Y19384D01*
X5779Y19374D01*
X5766Y19366D01*
X5752Y19359D01*
X5740Y19353D01*
X5726Y19348D01*
X5713Y19343D01*
X5700Y19341D01*
X5689Y19338D01*
X5678Y19336D01*
X5668Y19334D01*
X5659Y19333D01*
X5653Y19333D01*
X5643D01*
X5627Y19333D01*
X5612Y19334D01*
X5597Y19336D01*
X5584Y19339D01*
X5571Y19342D01*
X5560Y19345D01*
X5549Y19349D01*
X5540Y19353D01*
X5531Y19357D01*
X5524Y19361D01*
X5517Y19364D01*
X5512Y19367D01*
X5508Y19370D01*
X5505Y19372D01*
X5504Y19374D01*
X5503D01*
X5494Y19382D01*
X5484Y19391D01*
X5469Y19411D01*
X5456Y19431D01*
X5447Y19451D01*
X5440Y19469D01*
X5437Y19477D01*
X5434Y19484D01*
X5433Y19489D01*
X5432Y19494D01*
X5431Y19497D01*
Y19497D01*
X5549Y19517D01*
X5553Y19501D01*
X5558Y19486D01*
X5563Y19475D01*
X5568Y19466D01*
X5574Y19458D01*
X5577Y19454D01*
X5580Y19451D01*
X5581Y19450D01*
X5590Y19444D01*
X5599Y19439D01*
X5608Y19435D01*
X5617Y19434D01*
X5626Y19432D01*
X5632Y19431D01*
X5638D01*
X5654Y19433D01*
X5668Y19436D01*
X5680Y19441D01*
X5691Y19447D01*
X5699Y19454D01*
X5705Y19458D01*
X5709Y19462D01*
X5710Y19464D01*
X5715Y19471D01*
X5720Y19478D01*
X5726Y19496D01*
X5731Y19515D01*
X5734Y19534D01*
X5736Y19552D01*
X5737Y19559D01*
Y19566D01*
X5738Y19571D01*
Y19576D01*
Y19578D01*
Y19579D01*
Y19592D01*
X5737Y19605D01*
X5735Y19616D01*
X5733Y19627D01*
X5731Y19636D01*
X5730Y19644D01*
X5724Y19659D01*
X5720Y19670D01*
X5715Y19677D01*
X5712Y19681D01*
X5711Y19683D01*
X5700Y19694D01*
X5689Y19701D01*
X5677Y19707D01*
X5666Y19712D01*
X5655Y19713D01*
X5647Y19714D01*
X5641Y19715D01*
X5639D01*
X5627Y19714D01*
X5617Y19712D01*
X5607Y19710D01*
X5599Y19706D01*
X5593Y19702D01*
X5588Y19700D01*
X5586Y19698D01*
X5585Y19697D01*
X5577Y19690D01*
X5571Y19681D01*
X5566Y19672D01*
X5562Y19664D01*
X5559Y19656D01*
X5557Y19650D01*
X5556Y19646D01*
Y19644D01*
X5437Y19666D01*
X5446Y19691D01*
X5457Y19713D01*
X5469Y19732D01*
X5481Y19747D01*
X5492Y19759D01*
X5500Y19767D01*
X5504Y19770D01*
X5506Y19772D01*
X5507Y19773D01*
X5508D01*
X5528Y19785D01*
X5550Y19794D01*
X5572Y19801D01*
X5593Y19805D01*
X5603Y19807D01*
X5612Y19808D01*
X5620Y19809D01*
X5627D01*
X5633Y19810D01*
X5641D01*
X5659Y19809D01*
D02*
G37*
G36*
X6718Y19510D02*
X6717Y19487D01*
X6715Y19467D01*
X6712Y19450D01*
X6710Y19435D01*
X6707Y19424D01*
X6704Y19415D01*
X6702Y19411D01*
X6702Y19409D01*
X6694Y19396D01*
X6686Y19384D01*
X6678Y19375D01*
X6669Y19367D01*
X6661Y19361D01*
X6654Y19356D01*
X6651Y19353D01*
X6649Y19353D01*
X6635Y19346D01*
X6620Y19341D01*
X6607Y19337D01*
X6593Y19335D01*
X6582Y19333D01*
X6574Y19333D01*
X6566D01*
X6549Y19333D01*
X6534Y19335D01*
X6519Y19339D01*
X6507Y19343D01*
X6496Y19346D01*
X6487Y19350D01*
X6482Y19352D01*
X6480Y19353D01*
X6466Y19361D01*
X6453Y19371D01*
X6441Y19380D01*
X6432Y19390D01*
X6424Y19398D01*
X6418Y19404D01*
X6415Y19409D01*
X6414Y19411D01*
Y19343D01*
X6302D01*
Y19800D01*
X6423D01*
Y19607D01*
Y19589D01*
Y19574D01*
X6424Y19559D01*
X6425Y19547D01*
Y19535D01*
X6426Y19525D01*
X6426Y19517D01*
X6427Y19508D01*
X6428Y19502D01*
X6429Y19497D01*
X6430Y19493D01*
Y19489D01*
X6432Y19485D01*
Y19484D01*
X6436Y19475D01*
X6441Y19466D01*
X6446Y19460D01*
X6452Y19454D01*
X6457Y19448D01*
X6462Y19445D01*
X6465Y19443D01*
X6466Y19442D01*
X6475Y19436D01*
X6485Y19433D01*
X6494Y19429D01*
X6503Y19427D01*
X6510Y19426D01*
X6516Y19425D01*
X6521D01*
X6531Y19426D01*
X6539Y19427D01*
X6548Y19429D01*
X6554Y19432D01*
X6559Y19434D01*
X6563Y19435D01*
X6566Y19436D01*
X6567Y19437D01*
X6573Y19443D01*
X6578Y19448D01*
X6582Y19454D01*
X6585Y19459D01*
X6588Y19465D01*
X6590Y19468D01*
X6590Y19471D01*
Y19472D01*
X6591Y19476D01*
X6592Y19483D01*
X6593Y19491D01*
X6594Y19499D01*
X6595Y19518D01*
X6596Y19539D01*
X6597Y19558D01*
Y19567D01*
Y19574D01*
Y19580D01*
Y19585D01*
Y19589D01*
Y19589D01*
Y19800D01*
X6718D01*
Y19510D01*
D02*
G37*
G36*
X5187Y19809D02*
X5203Y19807D01*
X5218Y19804D01*
X5232Y19800D01*
X5246Y19795D01*
X5258Y19790D01*
X5269Y19783D01*
X5279Y19778D01*
X5289Y19772D01*
X5297Y19765D01*
X5304Y19760D01*
X5310Y19755D01*
X5314Y19752D01*
X5318Y19748D01*
X5320Y19746D01*
X5320Y19745D01*
X5331Y19732D01*
X5340Y19719D01*
X5348Y19705D01*
X5355Y19691D01*
X5361Y19675D01*
X5365Y19660D01*
X5372Y19632D01*
X5375Y19619D01*
X5377Y19607D01*
X5378Y19596D01*
X5379Y19587D01*
X5380Y19578D01*
Y19572D01*
Y19568D01*
Y19568D01*
X5379Y19550D01*
X5378Y19533D01*
X5375Y19517D01*
X5372Y19503D01*
X5370Y19488D01*
X5365Y19476D01*
X5361Y19464D01*
X5357Y19453D01*
X5353Y19443D01*
X5349Y19435D01*
X5345Y19427D01*
X5342Y19421D01*
X5339Y19416D01*
X5337Y19413D01*
X5336Y19411D01*
X5335Y19410D01*
X5323Y19396D01*
X5311Y19384D01*
X5298Y19374D01*
X5283Y19365D01*
X5269Y19358D01*
X5254Y19352D01*
X5239Y19346D01*
X5225Y19343D01*
X5212Y19339D01*
X5199Y19337D01*
X5187Y19335D01*
X5177Y19333D01*
X5169D01*
X5164Y19333D01*
X5158D01*
X5132Y19334D01*
X5107Y19338D01*
X5086Y19343D01*
X5068Y19350D01*
X5060Y19353D01*
X5054Y19356D01*
X5047Y19359D01*
X5043Y19362D01*
X5039Y19364D01*
X5035Y19365D01*
X5034Y19367D01*
X5034D01*
X5016Y19382D01*
X5001Y19397D01*
X4988Y19415D01*
X4978Y19431D01*
X4970Y19445D01*
X4967Y19452D01*
X4964Y19457D01*
X4962Y19462D01*
X4961Y19466D01*
X4960Y19467D01*
Y19468D01*
X5080Y19488D01*
X5085Y19476D01*
X5089Y19466D01*
X5094Y19457D01*
X5099Y19450D01*
X5103Y19445D01*
X5106Y19441D01*
X5109Y19439D01*
X5110Y19438D01*
X5117Y19433D01*
X5126Y19429D01*
X5134Y19426D01*
X5141Y19425D01*
X5147Y19424D01*
X5153Y19423D01*
X5157D01*
X5172Y19424D01*
X5186Y19427D01*
X5198Y19432D01*
X5208Y19437D01*
X5217Y19443D01*
X5222Y19447D01*
X5227Y19451D01*
X5228Y19452D01*
X5237Y19464D01*
X5243Y19477D01*
X5249Y19492D01*
X5252Y19505D01*
X5254Y19517D01*
X5255Y19527D01*
X5256Y19530D01*
Y19533D01*
Y19535D01*
Y19536D01*
X4953D01*
Y19561D01*
X4955Y19584D01*
X4958Y19606D01*
X4962Y19626D01*
X4966Y19645D01*
X4971Y19661D01*
X4976Y19677D01*
X4982Y19691D01*
X4987Y19702D01*
X4993Y19713D01*
X4997Y19722D01*
X5002Y19729D01*
X5005Y19734D01*
X5008Y19739D01*
X5010Y19741D01*
X5011Y19742D01*
X5022Y19753D01*
X5034Y19764D01*
X5047Y19773D01*
X5060Y19781D01*
X5074Y19788D01*
X5087Y19793D01*
X5100Y19798D01*
X5113Y19802D01*
X5125Y19804D01*
X5136Y19806D01*
X5146Y19808D01*
X5154Y19809D01*
X5161Y19810D01*
X5171D01*
X5187Y19809D01*
D02*
G37*
G36*
X5978D02*
X5987Y19808D01*
X5996Y19805D01*
X6004Y19803D01*
X6010Y19800D01*
X6016Y19798D01*
X6018Y19796D01*
X6019Y19795D01*
X6028Y19789D01*
X6037Y19780D01*
X6046Y19770D01*
X6053Y19760D01*
X6060Y19750D01*
X6066Y19742D01*
X6069Y19736D01*
X6070Y19735D01*
Y19800D01*
X6182D01*
Y19343D01*
X6061D01*
Y19483D01*
Y19504D01*
Y19523D01*
X6060Y19540D01*
X6059Y19556D01*
Y19570D01*
X6058Y19582D01*
X6057Y19594D01*
X6057Y19603D01*
X6056Y19611D01*
X6055Y19619D01*
X6054Y19624D01*
Y19629D01*
X6053Y19631D01*
X6052Y19634D01*
Y19636D01*
X6048Y19649D01*
X6044Y19660D01*
X6039Y19669D01*
X6035Y19675D01*
X6031Y19681D01*
X6027Y19684D01*
X6026Y19686D01*
X6025Y19687D01*
X6017Y19691D01*
X6010Y19695D01*
X6003Y19698D01*
X5996Y19700D01*
X5991Y19701D01*
X5986Y19701D01*
X5982D01*
X5972Y19701D01*
X5962Y19699D01*
X5953Y19695D01*
X5944Y19691D01*
X5936Y19688D01*
X5931Y19684D01*
X5926Y19682D01*
X5925Y19681D01*
X5887Y19786D01*
X5902Y19794D01*
X5915Y19800D01*
X5929Y19804D01*
X5942Y19807D01*
X5952Y19809D01*
X5960Y19810D01*
X5967D01*
X5978Y19809D01*
D02*
G37*
G36*
X4613Y19343D02*
X4485D01*
Y19973D01*
X4613D01*
Y19343D01*
D02*
G37*
G36*
X3869Y19866D02*
X3683D01*
Y19343D01*
X3555D01*
Y19866D01*
X3369D01*
Y19973D01*
X3869D01*
Y19866D01*
D02*
G37*
G36*
X7071Y19809D02*
X7094Y19805D01*
X7115Y19801D01*
X7133Y19795D01*
X7141Y19792D01*
X7148Y19789D01*
X7154Y19787D01*
X7159Y19784D01*
X7163Y19783D01*
X7166Y19781D01*
X7168Y19780D01*
X7169D01*
X7188Y19767D01*
X7204Y19753D01*
X7219Y19739D01*
X7231Y19725D01*
X7240Y19712D01*
X7247Y19702D01*
X7250Y19699D01*
X7251Y19696D01*
X7253Y19694D01*
Y19693D01*
X7263Y19672D01*
X7269Y19651D01*
X7275Y19632D01*
X7278Y19615D01*
X7280Y19599D01*
X7281Y19593D01*
Y19588D01*
X7282Y19584D01*
Y19580D01*
Y19578D01*
Y19578D01*
X7281Y19549D01*
X7277Y19523D01*
X7273Y19500D01*
X7270Y19490D01*
X7267Y19481D01*
X7265Y19473D01*
X7262Y19466D01*
X7259Y19459D01*
X7257Y19454D01*
X7255Y19449D01*
X7254Y19446D01*
X7253Y19445D01*
Y19444D01*
X7240Y19425D01*
X7226Y19408D01*
X7212Y19394D01*
X7198Y19382D01*
X7185Y19373D01*
X7175Y19366D01*
X7172Y19363D01*
X7169Y19362D01*
X7167Y19361D01*
X7166D01*
X7144Y19352D01*
X7123Y19344D01*
X7103Y19340D01*
X7084Y19336D01*
X7069Y19334D01*
X7062Y19333D01*
X7057D01*
X7052Y19333D01*
X7046D01*
X7027Y19333D01*
X7009Y19335D01*
X6992Y19339D01*
X6977Y19343D01*
X6961Y19348D01*
X6948Y19353D01*
X6935Y19360D01*
X6923Y19366D01*
X6913Y19373D01*
X6904Y19379D01*
X6896Y19384D01*
X6889Y19389D01*
X6884Y19394D01*
X6880Y19397D01*
X6878Y19399D01*
X6877Y19400D01*
X6866Y19414D01*
X6856Y19427D01*
X6846Y19441D01*
X6838Y19456D01*
X6832Y19470D01*
X6826Y19485D01*
X6822Y19498D01*
X6818Y19512D01*
X6815Y19524D01*
X6814Y19536D01*
X6812Y19546D01*
X6811Y19555D01*
X6810Y19562D01*
Y19568D01*
Y19571D01*
Y19572D01*
X6811Y19591D01*
X6813Y19609D01*
X6816Y19626D01*
X6820Y19642D01*
X6825Y19657D01*
X6831Y19671D01*
X6837Y19684D01*
X6843Y19696D01*
X6849Y19706D01*
X6856Y19716D01*
X6861Y19723D01*
X6866Y19731D01*
X6870Y19735D01*
X6874Y19740D01*
X6876Y19742D01*
X6876Y19742D01*
X6889Y19754D01*
X6903Y19764D01*
X6917Y19773D01*
X6931Y19782D01*
X6946Y19788D01*
X6959Y19793D01*
X6973Y19798D01*
X6987Y19802D01*
X6999Y19804D01*
X7010Y19806D01*
X7020Y19808D01*
X7030Y19809D01*
X7037Y19810D01*
X7047D01*
X7071Y19809D01*
D02*
G37*
G36*
X4182D02*
X4205Y19805D01*
X4225Y19801D01*
X4244Y19795D01*
X4251Y19792D01*
X4258Y19789D01*
X4265Y19787D01*
X4269Y19784D01*
X4274Y19783D01*
X4276Y19781D01*
X4278Y19780D01*
X4279D01*
X4298Y19767D01*
X4315Y19753D01*
X4329Y19739D01*
X4341Y19725D01*
X4350Y19712D01*
X4358Y19702D01*
X4360Y19699D01*
X4361Y19696D01*
X4363Y19694D01*
Y19693D01*
X4373Y19672D01*
X4379Y19651D01*
X4385Y19632D01*
X4389Y19615D01*
X4390Y19599D01*
X4391Y19593D01*
Y19588D01*
X4392Y19584D01*
Y19580D01*
Y19578D01*
Y19578D01*
X4391Y19549D01*
X4388Y19523D01*
X4383Y19500D01*
X4380Y19490D01*
X4378Y19481D01*
X4375Y19473D01*
X4372Y19466D01*
X4369Y19459D01*
X4368Y19454D01*
X4366Y19449D01*
X4364Y19446D01*
X4363Y19445D01*
Y19444D01*
X4350Y19425D01*
X4337Y19408D01*
X4322Y19394D01*
X4308Y19382D01*
X4296Y19373D01*
X4286Y19366D01*
X4282Y19363D01*
X4279Y19362D01*
X4277Y19361D01*
X4276D01*
X4255Y19352D01*
X4234Y19344D01*
X4214Y19340D01*
X4194Y19336D01*
X4179Y19334D01*
X4173Y19333D01*
X4167D01*
X4163Y19333D01*
X4156D01*
X4137Y19333D01*
X4120Y19335D01*
X4102Y19339D01*
X4087Y19343D01*
X4072Y19348D01*
X4058Y19353D01*
X4045Y19360D01*
X4033Y19366D01*
X4023Y19373D01*
X4014Y19379D01*
X4006Y19384D01*
X4000Y19389D01*
X3994Y19394D01*
X3990Y19397D01*
X3989Y19399D01*
X3988Y19400D01*
X3976Y19414D01*
X3966Y19427D01*
X3957Y19441D01*
X3949Y19456D01*
X3942Y19470D01*
X3937Y19485D01*
X3932Y19498D01*
X3928Y19512D01*
X3926Y19524D01*
X3924Y19536D01*
X3922Y19546D01*
X3921Y19555D01*
X3920Y19562D01*
Y19568D01*
Y19571D01*
Y19572D01*
X3921Y19591D01*
X3923Y19609D01*
X3927Y19626D01*
X3930Y19642D01*
X3936Y19657D01*
X3941Y19671D01*
X3948Y19684D01*
X3953Y19696D01*
X3959Y19706D01*
X3966Y19716D01*
X3971Y19723D01*
X3977Y19731D01*
X3980Y19735D01*
X3984Y19740D01*
X3986Y19742D01*
X3987Y19742D01*
X4000Y19754D01*
X4013Y19764D01*
X4027Y19773D01*
X4041Y19782D01*
X4056Y19788D01*
X4070Y19793D01*
X4083Y19798D01*
X4097Y19802D01*
X4109Y19804D01*
X4121Y19806D01*
X4131Y19808D01*
X4140Y19809D01*
X4147Y19810D01*
X4157D01*
X4182Y19809D01*
D02*
G37*
G36*
X7647Y19984D02*
X7671Y19981D01*
X7692Y19978D01*
X7710Y19974D01*
X7718Y19971D01*
X7726Y19969D01*
X7731Y19967D01*
X7736Y19966D01*
X7740Y19964D01*
X7743Y19963D01*
X7745Y19962D01*
X7746D01*
X7764Y19953D01*
X7779Y19943D01*
X7793Y19932D01*
X7804Y19922D01*
X7813Y19913D01*
X7818Y19906D01*
X7823Y19900D01*
X7824Y19899D01*
Y19898D01*
X7833Y19883D01*
X7839Y19866D01*
X7844Y19851D01*
X7847Y19837D01*
X7849Y19825D01*
X7850Y19816D01*
Y19813D01*
Y19810D01*
Y19809D01*
Y19808D01*
X7849Y19794D01*
X7848Y19781D01*
X7845Y19769D01*
X7841Y19757D01*
X7832Y19735D01*
X7821Y19716D01*
X7817Y19708D01*
X7811Y19701D01*
X7807Y19695D01*
X7802Y19690D01*
X7798Y19686D01*
X7796Y19683D01*
X7794Y19681D01*
X7793Y19681D01*
X7785Y19674D01*
X7775Y19668D01*
X7765Y19661D01*
X7753Y19656D01*
X7730Y19645D01*
X7706Y19636D01*
X7695Y19632D01*
X7685Y19629D01*
X7675Y19626D01*
X7666Y19623D01*
X7660Y19621D01*
X7654Y19619D01*
X7651Y19619D01*
X7650D01*
X7635Y19615D01*
X7623Y19611D01*
X7611Y19609D01*
X7600Y19606D01*
X7591Y19603D01*
X7582Y19601D01*
X7575Y19599D01*
X7569Y19597D01*
X7563Y19596D01*
X7559Y19594D01*
X7552Y19592D01*
X7549Y19590D01*
X7548D01*
X7536Y19586D01*
X7527Y19581D01*
X7519Y19577D01*
X7512Y19572D01*
X7508Y19568D01*
X7505Y19566D01*
X7503Y19564D01*
X7502Y19563D01*
X7498Y19557D01*
X7494Y19550D01*
X7492Y19544D01*
X7490Y19538D01*
X7490Y19533D01*
X7489Y19528D01*
Y19526D01*
Y19525D01*
X7490Y19512D01*
X7493Y19501D01*
X7499Y19490D01*
X7504Y19481D01*
X7511Y19474D01*
X7515Y19468D01*
X7519Y19465D01*
X7521Y19464D01*
X7533Y19456D01*
X7548Y19449D01*
X7563Y19445D01*
X7578Y19442D01*
X7592Y19440D01*
X7603Y19438D01*
X7613D01*
X7634Y19439D01*
X7652Y19443D01*
X7667Y19447D01*
X7681Y19453D01*
X7692Y19458D01*
X7699Y19463D01*
X7704Y19466D01*
X7705Y19467D01*
X7717Y19480D01*
X7726Y19494D01*
X7735Y19509D01*
X7740Y19525D01*
X7745Y19538D01*
X7748Y19549D01*
X7749Y19553D01*
Y19557D01*
X7750Y19558D01*
Y19559D01*
X7874Y19548D01*
X7871Y19528D01*
X7868Y19510D01*
X7862Y19493D01*
X7858Y19477D01*
X7851Y19463D01*
X7845Y19449D01*
X7838Y19437D01*
X7832Y19426D01*
X7826Y19417D01*
X7819Y19409D01*
X7814Y19402D01*
X7808Y19395D01*
X7805Y19391D01*
X7801Y19388D01*
X7799Y19386D01*
X7798Y19385D01*
X7786Y19375D01*
X7772Y19367D01*
X7757Y19360D01*
X7742Y19353D01*
X7727Y19349D01*
X7712Y19344D01*
X7682Y19338D01*
X7668Y19335D01*
X7655Y19333D01*
X7644Y19333D01*
X7634Y19332D01*
X7626Y19331D01*
X7614D01*
X7585Y19332D01*
X7559Y19334D01*
X7535Y19338D01*
X7525Y19340D01*
X7515Y19343D01*
X7507Y19344D01*
X7500Y19346D01*
X7493Y19348D01*
X7488Y19350D01*
X7483Y19352D01*
X7480Y19353D01*
X7479Y19353D01*
X7478D01*
X7458Y19363D01*
X7441Y19374D01*
X7426Y19385D01*
X7414Y19397D01*
X7405Y19407D01*
X7398Y19416D01*
X7394Y19422D01*
X7392Y19423D01*
Y19424D01*
X7382Y19442D01*
X7374Y19459D01*
X7368Y19476D01*
X7365Y19493D01*
X7363Y19506D01*
X7362Y19512D01*
X7361Y19517D01*
Y19520D01*
Y19523D01*
Y19525D01*
Y19526D01*
X7362Y19548D01*
X7365Y19567D01*
X7369Y19584D01*
X7374Y19599D01*
X7378Y19610D01*
X7383Y19619D01*
X7386Y19624D01*
X7387Y19626D01*
X7397Y19640D01*
X7408Y19653D01*
X7420Y19664D01*
X7431Y19673D01*
X7441Y19681D01*
X7449Y19686D01*
X7455Y19690D01*
X7456Y19691D01*
X7457D01*
X7466Y19695D01*
X7475Y19700D01*
X7497Y19708D01*
X7520Y19715D01*
X7541Y19722D01*
X7552Y19725D01*
X7562Y19728D01*
X7571Y19731D01*
X7578Y19732D01*
X7584Y19734D01*
X7589Y19735D01*
X7593Y19736D01*
X7593D01*
X7610Y19741D01*
X7624Y19744D01*
X7638Y19748D01*
X7651Y19752D01*
X7661Y19755D01*
X7671Y19759D01*
X7679Y19763D01*
X7686Y19765D01*
X7693Y19768D01*
X7697Y19771D01*
X7702Y19773D01*
X7705Y19774D01*
X7709Y19777D01*
X7710Y19778D01*
X7716Y19784D01*
X7721Y19791D01*
X7724Y19797D01*
X7726Y19804D01*
X7727Y19808D01*
X7728Y19813D01*
Y19815D01*
Y19816D01*
X7727Y19825D01*
X7726Y19833D01*
X7722Y19840D01*
X7718Y19845D01*
X7715Y19850D01*
X7711Y19853D01*
X7709Y19855D01*
X7708Y19855D01*
X7695Y19864D01*
X7682Y19869D01*
X7667Y19874D01*
X7654Y19876D01*
X7642Y19878D01*
X7632Y19879D01*
X7623D01*
X7603Y19878D01*
X7587Y19875D01*
X7573Y19872D01*
X7562Y19868D01*
X7553Y19865D01*
X7547Y19861D01*
X7543Y19858D01*
X7542Y19857D01*
X7533Y19848D01*
X7525Y19837D01*
X7519Y19826D01*
X7514Y19814D01*
X7511Y19804D01*
X7509Y19796D01*
X7507Y19790D01*
Y19789D01*
Y19788D01*
X7379Y19793D01*
X7380Y19809D01*
X7383Y19824D01*
X7387Y19838D01*
X7391Y19851D01*
X7396Y19864D01*
X7401Y19875D01*
X7407Y19886D01*
X7412Y19896D01*
X7419Y19904D01*
X7424Y19911D01*
X7429Y19917D01*
X7434Y19923D01*
X7438Y19927D01*
X7440Y19929D01*
X7442Y19931D01*
X7443Y19932D01*
X7455Y19941D01*
X7468Y19949D01*
X7481Y19957D01*
X7496Y19963D01*
X7511Y19967D01*
X7525Y19972D01*
X7554Y19978D01*
X7568Y19980D01*
X7580Y19982D01*
X7592Y19983D01*
X7602Y19984D01*
X7610Y19985D01*
X7621D01*
X7647Y19984D01*
D02*
G37*
G36*
X1705Y4956D02*
X1718Y4954D01*
X1730Y4952D01*
X1741Y4948D01*
X1752Y4944D01*
X1762Y4939D01*
X1771Y4934D01*
X1779Y4929D01*
X1786Y4924D01*
X1793Y4919D01*
X1798Y4914D01*
X1803Y4910D01*
X1807Y4906D01*
X1809Y4904D01*
X1811Y4902D01*
X1811Y4901D01*
X1819Y4890D01*
X1826Y4878D01*
X1832Y4864D01*
X1838Y4850D01*
X1842Y4835D01*
X1846Y4820D01*
X1849Y4805D01*
X1851Y4790D01*
X1853Y4777D01*
X1855Y4763D01*
X1856Y4752D01*
X1857Y4741D01*
X1857Y4733D01*
Y4726D01*
Y4724D01*
Y4722D01*
Y4721D01*
Y4721D01*
X1857Y4699D01*
X1855Y4678D01*
X1853Y4659D01*
X1850Y4642D01*
X1847Y4626D01*
X1844Y4611D01*
X1840Y4599D01*
X1835Y4587D01*
X1831Y4577D01*
X1827Y4569D01*
X1824Y4561D01*
X1820Y4555D01*
X1817Y4551D01*
X1815Y4548D01*
X1814Y4546D01*
X1813Y4545D01*
X1805Y4536D01*
X1796Y4527D01*
X1786Y4520D01*
X1777Y4514D01*
X1767Y4509D01*
X1758Y4505D01*
X1748Y4501D01*
X1740Y4498D01*
X1731Y4496D01*
X1724Y4494D01*
X1717Y4494D01*
X1711Y4493D01*
X1706D01*
X1703Y4492D01*
X1700D01*
X1688Y4493D01*
X1677Y4494D01*
X1666Y4496D01*
X1657Y4498D01*
X1647Y4502D01*
X1638Y4505D01*
X1630Y4509D01*
X1623Y4513D01*
X1617Y4517D01*
X1611Y4521D01*
X1606Y4524D01*
X1602Y4527D01*
X1599Y4530D01*
X1597Y4532D01*
X1596Y4533D01*
X1595Y4534D01*
X1588Y4542D01*
X1581Y4551D01*
X1576Y4560D01*
X1571Y4569D01*
X1567Y4578D01*
X1563Y4588D01*
X1559Y4606D01*
X1557Y4614D01*
X1556Y4622D01*
X1555Y4628D01*
X1554Y4634D01*
X1554Y4639D01*
Y4643D01*
Y4645D01*
Y4646D01*
X1554Y4658D01*
X1556Y4670D01*
X1558Y4681D01*
X1559Y4691D01*
X1563Y4700D01*
X1566Y4709D01*
X1569Y4718D01*
X1573Y4725D01*
X1577Y4731D01*
X1580Y4737D01*
X1584Y4742D01*
X1587Y4746D01*
X1589Y4750D01*
X1591Y4752D01*
X1592Y4753D01*
X1593Y4754D01*
X1600Y4761D01*
X1608Y4767D01*
X1616Y4773D01*
X1624Y4778D01*
X1632Y4782D01*
X1639Y4785D01*
X1654Y4790D01*
X1660Y4792D01*
X1667Y4794D01*
X1672Y4794D01*
X1677Y4795D01*
X1681Y4796D01*
X1686D01*
X1695Y4795D01*
X1704Y4794D01*
X1712Y4792D01*
X1720Y4790D01*
X1733Y4783D01*
X1745Y4777D01*
X1754Y4769D01*
X1758Y4766D01*
X1762Y4763D01*
X1764Y4760D01*
X1766Y4759D01*
X1767Y4758D01*
X1767Y4757D01*
X1766Y4771D01*
X1765Y4784D01*
X1763Y4796D01*
X1762Y4806D01*
X1760Y4815D01*
X1758Y4824D01*
X1756Y4831D01*
X1753Y4838D01*
X1751Y4843D01*
X1750Y4848D01*
X1748Y4852D01*
X1746Y4855D01*
X1745Y4857D01*
X1744Y4859D01*
X1743Y4860D01*
X1736Y4868D01*
X1728Y4874D01*
X1720Y4879D01*
X1713Y4882D01*
X1706Y4883D01*
X1701Y4884D01*
X1698Y4885D01*
X1697D01*
X1689Y4884D01*
X1682Y4883D01*
X1676Y4881D01*
X1672Y4879D01*
X1668Y4876D01*
X1665Y4874D01*
X1663Y4873D01*
X1662Y4872D01*
X1658Y4867D01*
X1655Y4861D01*
X1651Y4855D01*
X1649Y4849D01*
X1648Y4843D01*
X1647Y4838D01*
X1646Y4836D01*
Y4834D01*
X1562Y4843D01*
X1567Y4863D01*
X1573Y4880D01*
X1580Y4894D01*
X1588Y4906D01*
X1595Y4916D01*
X1598Y4919D01*
X1601Y4922D01*
X1603Y4924D01*
X1605Y4926D01*
X1605Y4927D01*
X1606D01*
X1613Y4933D01*
X1619Y4937D01*
X1634Y4945D01*
X1648Y4950D01*
X1661Y4953D01*
X1673Y4956D01*
X1678Y4956D01*
X1683D01*
X1686Y4957D01*
X1691D01*
X1705Y4956D01*
D02*
G37*
G36*
X2027Y4660D02*
Y4650D01*
X2028Y4641D01*
X2029Y4633D01*
X2029Y4625D01*
X2030Y4618D01*
X2031Y4613D01*
X2032Y4607D01*
X2034Y4603D01*
X2036Y4595D01*
X2038Y4591D01*
X2040Y4588D01*
X2040Y4587D01*
X2046Y4581D01*
X2052Y4577D01*
X2059Y4574D01*
X2067Y4572D01*
X2072Y4571D01*
X2078Y4570D01*
X2083D01*
X2093Y4571D01*
X2103Y4574D01*
X2111Y4578D01*
X2116Y4582D01*
X2122Y4586D01*
X2125Y4590D01*
X2127Y4593D01*
X2128Y4594D01*
X2131Y4601D01*
X2133Y4609D01*
X2135Y4618D01*
X2137Y4628D01*
X2138Y4636D01*
Y4643D01*
X2139Y4645D01*
Y4647D01*
Y4649D01*
Y4649D01*
X2226Y4639D01*
X2225Y4626D01*
X2225Y4614D01*
X2223Y4602D01*
X2220Y4592D01*
X2217Y4582D01*
X2215Y4573D01*
X2212Y4565D01*
X2208Y4557D01*
X2204Y4551D01*
X2201Y4545D01*
X2198Y4540D01*
X2196Y4536D01*
X2193Y4533D01*
X2191Y4531D01*
X2191Y4530D01*
X2190Y4529D01*
X2183Y4523D01*
X2175Y4517D01*
X2167Y4512D01*
X2158Y4508D01*
X2150Y4504D01*
X2141Y4501D01*
X2124Y4496D01*
X2116Y4495D01*
X2109Y4494D01*
X2103Y4493D01*
X2097Y4493D01*
X2093Y4492D01*
X2086D01*
X2066Y4493D01*
X2048Y4496D01*
X2032Y4499D01*
X2025Y4502D01*
X2019Y4504D01*
X2013Y4506D01*
X2008Y4508D01*
X2004Y4510D01*
X2001Y4512D01*
X1998Y4514D01*
X1996Y4514D01*
X1995Y4515D01*
X1994D01*
X1982Y4525D01*
X1972Y4536D01*
X1964Y4546D01*
X1957Y4556D01*
X1952Y4565D01*
X1948Y4573D01*
X1947Y4575D01*
X1947Y4577D01*
X1946Y4578D01*
Y4579D01*
X1943Y4592D01*
X1940Y4606D01*
X1938Y4620D01*
X1937Y4634D01*
X1936Y4647D01*
X1935Y4653D01*
Y4657D01*
Y4661D01*
Y4664D01*
Y4666D01*
Y4666D01*
Y4954D01*
X2027D01*
Y4660D01*
D02*
G37*
G36*
X16028Y4830D02*
X15830D01*
X15852Y4800D01*
X15871Y4769D01*
X15880Y4755D01*
X15888Y4740D01*
X15895Y4726D01*
X15902Y4713D01*
X15908Y4700D01*
X15913Y4689D01*
X15917Y4679D01*
X15921Y4670D01*
X15924Y4664D01*
X15926Y4658D01*
X15927Y4655D01*
X15928Y4654D01*
X15934Y4636D01*
X15940Y4618D01*
X15945Y4600D01*
X15949Y4583D01*
X15953Y4566D01*
X15956Y4550D01*
X15959Y4535D01*
X15961Y4521D01*
X15963Y4509D01*
X15964Y4497D01*
X15965Y4487D01*
X15966Y4479D01*
Y4472D01*
X15967Y4466D01*
Y4464D01*
Y4462D01*
X15883D01*
X15882Y4485D01*
X15880Y4509D01*
X15877Y4532D01*
X15875Y4542D01*
X15873Y4553D01*
X15871Y4562D01*
X15869Y4571D01*
X15868Y4578D01*
X15867Y4585D01*
X15866Y4591D01*
X15864Y4595D01*
X15864Y4597D01*
Y4598D01*
X15855Y4626D01*
X15846Y4653D01*
X15841Y4666D01*
X15836Y4678D01*
X15831Y4689D01*
X15827Y4699D01*
X15822Y4708D01*
X15818Y4717D01*
X15814Y4725D01*
X15812Y4731D01*
X15809Y4736D01*
X15807Y4739D01*
X15806Y4742D01*
X15805Y4742D01*
X15798Y4755D01*
X15791Y4767D01*
X15784Y4777D01*
X15778Y4788D01*
X15771Y4797D01*
X15765Y4805D01*
X15759Y4813D01*
X15753Y4821D01*
X15748Y4827D01*
X15744Y4832D01*
X15740Y4837D01*
X15736Y4841D01*
X15734Y4843D01*
X15732Y4845D01*
X15730Y4847D01*
X15730Y4847D01*
Y4910D01*
X16028D01*
Y4830D01*
D02*
G37*
G36*
X16197Y4622D02*
Y4612D01*
X16198Y4603D01*
X16199Y4595D01*
X16199Y4587D01*
X16201Y4580D01*
X16201Y4575D01*
X16203Y4569D01*
X16204Y4565D01*
X16207Y4557D01*
X16209Y4553D01*
X16210Y4550D01*
X16211Y4549D01*
X16216Y4543D01*
X16222Y4539D01*
X16230Y4536D01*
X16237Y4534D01*
X16243Y4533D01*
X16248Y4532D01*
X16253D01*
X16264Y4533D01*
X16273Y4536D01*
X16281Y4540D01*
X16287Y4544D01*
X16292Y4548D01*
X16295Y4552D01*
X16297Y4555D01*
X16298Y4556D01*
X16301Y4563D01*
X16304Y4571D01*
X16306Y4580D01*
X16307Y4590D01*
X16308Y4598D01*
Y4605D01*
X16309Y4607D01*
Y4609D01*
Y4611D01*
Y4611D01*
X16396Y4601D01*
X16396Y4588D01*
X16395Y4576D01*
X16393Y4564D01*
X16390Y4554D01*
X16388Y4544D01*
X16385Y4534D01*
X16382Y4527D01*
X16378Y4519D01*
X16375Y4513D01*
X16371Y4507D01*
X16369Y4502D01*
X16366Y4498D01*
X16363Y4495D01*
X16361Y4493D01*
X16361Y4492D01*
X16360Y4491D01*
X16353Y4485D01*
X16345Y4479D01*
X16337Y4474D01*
X16329Y4470D01*
X16320Y4466D01*
X16312Y4463D01*
X16295Y4458D01*
X16287Y4457D01*
X16279Y4456D01*
X16274Y4455D01*
X16268Y4454D01*
X16263Y4454D01*
X16257D01*
X16236Y4455D01*
X16218Y4458D01*
X16202Y4461D01*
X16196Y4464D01*
X16189Y4466D01*
X16184Y4468D01*
X16178Y4470D01*
X16175Y4472D01*
X16171Y4473D01*
X16168Y4475D01*
X16166Y4476D01*
X16165Y4477D01*
X16165D01*
X16152Y4487D01*
X16142Y4498D01*
X16134Y4508D01*
X16127Y4518D01*
X16122Y4527D01*
X16119Y4534D01*
X16117Y4537D01*
X16117Y4539D01*
X16116Y4540D01*
Y4541D01*
X16113Y4554D01*
X16110Y4568D01*
X16108Y4582D01*
X16107Y4596D01*
X16106Y4609D01*
X16106Y4615D01*
Y4619D01*
Y4623D01*
Y4626D01*
Y4628D01*
Y4628D01*
Y4916D01*
X16197D01*
Y4622D01*
D02*
G37*
G36*
X1647Y14208D02*
X1659Y14207D01*
X1671Y14204D01*
X1681Y14202D01*
X1689Y14199D01*
X1695Y14196D01*
X1699Y14195D01*
X1700Y14195D01*
X1700D01*
X1711Y14189D01*
X1721Y14182D01*
X1729Y14175D01*
X1735Y14170D01*
X1741Y14164D01*
X1744Y14159D01*
X1747Y14156D01*
X1748Y14155D01*
X1754Y14145D01*
X1759Y14135D01*
X1763Y14124D01*
X1767Y14113D01*
X1769Y14103D01*
X1771Y14096D01*
X1772Y14093D01*
Y14091D01*
X1773Y14090D01*
Y14089D01*
X1693Y14076D01*
X1691Y14086D01*
X1688Y14095D01*
X1685Y14103D01*
X1682Y14109D01*
X1679Y14114D01*
X1676Y14118D01*
X1674Y14120D01*
X1674Y14121D01*
X1668Y14126D01*
X1661Y14130D01*
X1655Y14133D01*
X1649Y14135D01*
X1643Y14136D01*
X1639Y14137D01*
X1636D01*
X1628Y14136D01*
X1620Y14135D01*
X1614Y14132D01*
X1609Y14130D01*
X1604Y14128D01*
X1601Y14125D01*
X1599Y14124D01*
X1599Y14123D01*
X1594Y14118D01*
X1591Y14111D01*
X1588Y14105D01*
X1587Y14099D01*
X1586Y14094D01*
X1585Y14090D01*
Y14088D01*
Y14086D01*
X1586Y14076D01*
X1588Y14068D01*
X1591Y14061D01*
X1594Y14055D01*
X1598Y14050D01*
X1601Y14046D01*
X1603Y14044D01*
X1604Y14043D01*
X1612Y14038D01*
X1620Y14034D01*
X1630Y14031D01*
X1638Y14029D01*
X1646Y14029D01*
X1653Y14028D01*
X1658D01*
X1668Y13958D01*
X1659Y13960D01*
X1652Y13962D01*
X1645Y13963D01*
X1639Y13964D01*
X1634Y13964D01*
X1628D01*
X1618Y13964D01*
X1611Y13961D01*
X1603Y13958D01*
X1597Y13954D01*
X1592Y13951D01*
X1588Y13948D01*
X1586Y13945D01*
X1585Y13945D01*
X1579Y13937D01*
X1575Y13928D01*
X1571Y13920D01*
X1569Y13911D01*
X1567Y13903D01*
X1567Y13897D01*
Y13893D01*
Y13893D01*
Y13892D01*
X1567Y13880D01*
X1569Y13868D01*
X1573Y13859D01*
X1576Y13851D01*
X1580Y13845D01*
X1582Y13840D01*
X1585Y13837D01*
X1586Y13836D01*
X1593Y13830D01*
X1601Y13825D01*
X1608Y13821D01*
X1615Y13819D01*
X1622Y13817D01*
X1626Y13817D01*
X1630Y13816D01*
X1631D01*
X1640Y13817D01*
X1648Y13819D01*
X1655Y13821D01*
X1662Y13825D01*
X1666Y13827D01*
X1670Y13830D01*
X1673Y13832D01*
X1674Y13832D01*
X1680Y13840D01*
X1685Y13847D01*
X1688Y13856D01*
X1691Y13864D01*
X1693Y13871D01*
X1695Y13877D01*
X1695Y13881D01*
Y13882D01*
Y13882D01*
X1779Y13872D01*
X1778Y13861D01*
X1775Y13851D01*
X1769Y13833D01*
X1762Y13817D01*
X1758Y13811D01*
X1754Y13804D01*
X1750Y13798D01*
X1746Y13794D01*
X1742Y13789D01*
X1739Y13786D01*
X1737Y13783D01*
X1735Y13781D01*
X1733Y13780D01*
X1733Y13779D01*
X1725Y13773D01*
X1716Y13767D01*
X1708Y13763D01*
X1699Y13759D01*
X1682Y13752D01*
X1666Y13748D01*
X1658Y13747D01*
X1652Y13746D01*
X1646Y13745D01*
X1641Y13744D01*
X1636Y13744D01*
X1630D01*
X1618Y13744D01*
X1607Y13746D01*
X1596Y13748D01*
X1586Y13750D01*
X1576Y13754D01*
X1567Y13757D01*
X1559Y13761D01*
X1552Y13765D01*
X1545Y13769D01*
X1538Y13773D01*
X1534Y13776D01*
X1529Y13779D01*
X1526Y13782D01*
X1523Y13784D01*
X1522Y13785D01*
X1521Y13786D01*
X1514Y13794D01*
X1507Y13802D01*
X1501Y13811D01*
X1496Y13819D01*
X1492Y13828D01*
X1488Y13837D01*
X1483Y13853D01*
X1481Y13860D01*
X1480Y13867D01*
X1479Y13873D01*
X1478Y13878D01*
X1477Y13882D01*
Y13886D01*
Y13887D01*
Y13888D01*
X1479Y13903D01*
X1481Y13916D01*
X1485Y13929D01*
X1489Y13939D01*
X1494Y13947D01*
X1497Y13953D01*
X1500Y13957D01*
X1501Y13958D01*
X1510Y13968D01*
X1521Y13977D01*
X1531Y13983D01*
X1541Y13989D01*
X1550Y13992D01*
X1557Y13994D01*
X1559Y13996D01*
X1561D01*
X1563Y13996D01*
X1563D01*
X1552Y14004D01*
X1542Y14011D01*
X1533Y14019D01*
X1525Y14027D01*
X1519Y14034D01*
X1514Y14042D01*
X1510Y14050D01*
X1506Y14057D01*
X1503Y14065D01*
X1501Y14071D01*
X1500Y14077D01*
X1499Y14082D01*
X1498Y14086D01*
X1498Y14090D01*
Y14092D01*
Y14092D01*
X1498Y14100D01*
X1499Y14107D01*
X1503Y14122D01*
X1508Y14135D01*
X1514Y14146D01*
X1519Y14155D01*
X1525Y14162D01*
X1527Y14164D01*
X1529Y14166D01*
X1529Y14167D01*
X1530Y14168D01*
X1537Y14175D01*
X1546Y14181D01*
X1554Y14187D01*
X1562Y14191D01*
X1571Y14196D01*
X1580Y14199D01*
X1596Y14204D01*
X1603Y14206D01*
X1611Y14207D01*
X1617Y14208D01*
X1622Y14208D01*
X1627Y14209D01*
X1633D01*
X1647Y14208D01*
D02*
G37*
G36*
X1946Y13912D02*
Y13902D01*
X1946Y13893D01*
X1947Y13885D01*
X1948Y13877D01*
X1949Y13870D01*
X1950Y13865D01*
X1951Y13859D01*
X1952Y13855D01*
X1955Y13847D01*
X1957Y13843D01*
X1958Y13840D01*
X1959Y13839D01*
X1964Y13833D01*
X1971Y13829D01*
X1978Y13826D01*
X1985Y13824D01*
X1991Y13823D01*
X1996Y13822D01*
X2002D01*
X2012Y13823D01*
X2021Y13826D01*
X2029Y13830D01*
X2035Y13834D01*
X2040Y13838D01*
X2044Y13842D01*
X2046Y13845D01*
X2046Y13846D01*
X2049Y13853D01*
X2052Y13861D01*
X2054Y13870D01*
X2055Y13880D01*
X2057Y13888D01*
Y13895D01*
X2057Y13897D01*
Y13899D01*
Y13901D01*
Y13901D01*
X2145Y13891D01*
X2144Y13878D01*
X2143Y13866D01*
X2141Y13854D01*
X2139Y13844D01*
X2136Y13834D01*
X2133Y13825D01*
X2130Y13817D01*
X2126Y13809D01*
X2123Y13803D01*
X2120Y13797D01*
X2117Y13792D01*
X2114Y13788D01*
X2112Y13785D01*
X2110Y13783D01*
X2109Y13782D01*
X2109Y13781D01*
X2101Y13775D01*
X2093Y13769D01*
X2086Y13764D01*
X2077Y13760D01*
X2069Y13756D01*
X2060Y13753D01*
X2043Y13748D01*
X2035Y13747D01*
X2028Y13746D01*
X2022Y13745D01*
X2016Y13744D01*
X2011Y13744D01*
X2005D01*
X1985Y13745D01*
X1966Y13748D01*
X1950Y13751D01*
X1944Y13754D01*
X1937Y13756D01*
X1932Y13758D01*
X1927Y13760D01*
X1923Y13762D01*
X1920Y13764D01*
X1916Y13765D01*
X1914Y13766D01*
X1914Y13767D01*
X1913D01*
X1901Y13777D01*
X1891Y13788D01*
X1882Y13798D01*
X1876Y13808D01*
X1870Y13817D01*
X1867Y13825D01*
X1866Y13827D01*
X1865Y13829D01*
X1864Y13830D01*
Y13831D01*
X1861Y13844D01*
X1859Y13858D01*
X1857Y13872D01*
X1855Y13886D01*
X1855Y13899D01*
X1854Y13905D01*
Y13909D01*
Y13913D01*
Y13916D01*
Y13918D01*
Y13918D01*
Y14206D01*
X1946D01*
Y13912D01*
D02*
G37*
G36*
X1635Y9681D02*
X1646Y9680D01*
X1666Y9677D01*
X1683Y9672D01*
X1691Y9669D01*
X1698Y9666D01*
X1705Y9663D01*
X1710Y9660D01*
X1715Y9657D01*
X1719Y9655D01*
X1722Y9653D01*
X1724Y9651D01*
X1726Y9651D01*
X1726Y9650D01*
X1734Y9643D01*
X1740Y9637D01*
X1746Y9629D01*
X1751Y9620D01*
X1759Y9603D01*
X1766Y9587D01*
X1768Y9578D01*
X1770Y9571D01*
X1772Y9565D01*
X1772Y9559D01*
X1774Y9553D01*
Y9550D01*
X1774Y9548D01*
Y9547D01*
X1688Y9538D01*
X1686Y9551D01*
X1684Y9563D01*
X1681Y9572D01*
X1678Y9580D01*
X1675Y9586D01*
X1673Y9590D01*
X1671Y9592D01*
X1670Y9593D01*
X1663Y9598D01*
X1656Y9602D01*
X1649Y9605D01*
X1642Y9607D01*
X1636Y9609D01*
X1631Y9609D01*
X1626D01*
X1616Y9609D01*
X1608Y9607D01*
X1600Y9604D01*
X1594Y9601D01*
X1589Y9599D01*
X1585Y9596D01*
X1583Y9594D01*
X1583Y9593D01*
X1577Y9587D01*
X1574Y9580D01*
X1571Y9572D01*
X1569Y9565D01*
X1568Y9559D01*
X1567Y9553D01*
Y9550D01*
Y9549D01*
Y9548D01*
X1568Y9538D01*
X1570Y9529D01*
X1573Y9520D01*
X1576Y9512D01*
X1579Y9505D01*
X1583Y9500D01*
X1585Y9496D01*
X1585Y9495D01*
X1588Y9491D01*
X1592Y9487D01*
X1597Y9481D01*
X1602Y9475D01*
X1614Y9463D01*
X1626Y9450D01*
X1638Y9439D01*
X1643Y9433D01*
X1648Y9429D01*
X1652Y9426D01*
X1655Y9423D01*
X1657Y9421D01*
X1658Y9420D01*
X1671Y9408D01*
X1682Y9396D01*
X1694Y9385D01*
X1703Y9375D01*
X1713Y9365D01*
X1720Y9356D01*
X1728Y9348D01*
X1734Y9340D01*
X1739Y9334D01*
X1743Y9328D01*
X1747Y9323D01*
X1750Y9319D01*
X1753Y9316D01*
X1754Y9313D01*
X1755Y9312D01*
Y9311D01*
X1764Y9296D01*
X1770Y9281D01*
X1776Y9266D01*
X1780Y9253D01*
X1782Y9241D01*
X1783Y9237D01*
X1783Y9233D01*
X1784Y9229D01*
X1785Y9227D01*
Y9225D01*
Y9225D01*
X1480D01*
Y9305D01*
X1653D01*
X1648Y9314D01*
X1642Y9321D01*
X1639Y9325D01*
X1637Y9327D01*
X1636Y9328D01*
X1635Y9329D01*
X1633Y9332D01*
X1630Y9335D01*
X1622Y9342D01*
X1614Y9351D01*
X1605Y9359D01*
X1597Y9367D01*
X1589Y9374D01*
X1587Y9376D01*
X1585Y9378D01*
X1583Y9379D01*
X1583Y9380D01*
X1568Y9393D01*
X1557Y9405D01*
X1547Y9415D01*
X1539Y9423D01*
X1533Y9429D01*
X1529Y9434D01*
X1526Y9437D01*
X1526Y9438D01*
X1517Y9449D01*
X1510Y9460D01*
X1504Y9469D01*
X1499Y9478D01*
X1495Y9485D01*
X1493Y9491D01*
X1492Y9494D01*
X1491Y9496D01*
X1487Y9506D01*
X1484Y9517D01*
X1482Y9527D01*
X1481Y9536D01*
X1480Y9543D01*
X1480Y9549D01*
Y9553D01*
Y9554D01*
X1480Y9564D01*
X1482Y9574D01*
X1483Y9583D01*
X1486Y9592D01*
X1492Y9607D01*
X1499Y9620D01*
X1503Y9626D01*
X1506Y9630D01*
X1509Y9635D01*
X1513Y9638D01*
X1515Y9641D01*
X1516Y9643D01*
X1518Y9644D01*
X1518Y9645D01*
X1526Y9651D01*
X1534Y9657D01*
X1542Y9662D01*
X1551Y9666D01*
X1568Y9672D01*
X1585Y9677D01*
X1593Y9678D01*
X1600Y9679D01*
X1607Y9680D01*
X1613Y9681D01*
X1618Y9681D01*
X1624D01*
X1635Y9681D01*
D02*
G37*
G36*
X1944Y9384D02*
Y9374D01*
X1944Y9365D01*
X1945Y9357D01*
X1945Y9349D01*
X1947Y9343D01*
X1947Y9337D01*
X1949Y9332D01*
X1950Y9327D01*
X1953Y9320D01*
X1955Y9315D01*
X1956Y9312D01*
X1957Y9311D01*
X1962Y9305D01*
X1968Y9302D01*
X1976Y9298D01*
X1983Y9296D01*
X1989Y9295D01*
X1994Y9294D01*
X1999D01*
X2010Y9296D01*
X2019Y9298D01*
X2027Y9302D01*
X2033Y9307D01*
X2038Y9311D01*
X2041Y9315D01*
X2043Y9317D01*
X2044Y9319D01*
X2047Y9326D01*
X2050Y9334D01*
X2052Y9343D01*
X2053Y9352D01*
X2054Y9361D01*
Y9367D01*
X2055Y9370D01*
Y9372D01*
Y9373D01*
Y9374D01*
X2142Y9364D01*
X2142Y9351D01*
X2141Y9338D01*
X2139Y9326D01*
X2136Y9316D01*
X2134Y9306D01*
X2131Y9297D01*
X2128Y9289D01*
X2124Y9281D01*
X2121Y9275D01*
X2117Y9269D01*
X2115Y9265D01*
X2112Y9261D01*
X2110Y9258D01*
X2108Y9256D01*
X2107Y9254D01*
X2106Y9254D01*
X2099Y9247D01*
X2091Y9241D01*
X2083Y9237D01*
X2075Y9232D01*
X2066Y9229D01*
X2058Y9225D01*
X2041Y9221D01*
X2033Y9220D01*
X2026Y9218D01*
X2020Y9218D01*
X2014Y9217D01*
X2009Y9216D01*
X2003D01*
X1982Y9218D01*
X1964Y9220D01*
X1948Y9223D01*
X1942Y9226D01*
X1935Y9228D01*
X1930Y9230D01*
X1925Y9233D01*
X1921Y9235D01*
X1917Y9236D01*
X1914Y9238D01*
X1912Y9239D01*
X1911Y9240D01*
X1911D01*
X1898Y9250D01*
X1888Y9260D01*
X1880Y9271D01*
X1873Y9281D01*
X1868Y9290D01*
X1865Y9297D01*
X1864Y9300D01*
X1863Y9302D01*
X1862Y9303D01*
Y9304D01*
X1859Y9316D01*
X1856Y9330D01*
X1854Y9345D01*
X1853Y9359D01*
X1852Y9371D01*
X1852Y9377D01*
Y9382D01*
Y9386D01*
Y9388D01*
Y9390D01*
Y9391D01*
Y9679D01*
X1944D01*
Y9384D01*
D02*
G37*
G36*
X8291Y7145D02*
X8310Y7143D01*
X8327Y7140D01*
X8343Y7136D01*
X8358Y7132D01*
X8373Y7127D01*
X8385Y7122D01*
X8396Y7117D01*
X8407Y7111D01*
X8416Y7106D01*
X8423Y7101D01*
X8430Y7097D01*
X8434Y7093D01*
X8438Y7090D01*
X8440Y7088D01*
X8441Y7088D01*
X8452Y7077D01*
X8461Y7065D01*
X8470Y7052D01*
X8476Y7040D01*
X8482Y7027D01*
X8487Y7015D01*
X8491Y7003D01*
X8495Y6992D01*
X8497Y6981D01*
X8499Y6971D01*
X8501Y6962D01*
X8501Y6955D01*
X8502Y6948D01*
X8503Y6943D01*
Y6939D01*
X8502Y6926D01*
X8501Y6913D01*
X8499Y6901D01*
X8497Y6890D01*
X8494Y6879D01*
X8491Y6869D01*
X8488Y6860D01*
X8484Y6852D01*
X8481Y6844D01*
X8478Y6838D01*
X8475Y6832D01*
X8472Y6827D01*
X8470Y6823D01*
X8468Y6821D01*
X8467Y6819D01*
X8466Y6819D01*
X8459Y6810D01*
X8451Y6802D01*
X8434Y6788D01*
X8415Y6776D01*
X8398Y6767D01*
X8389Y6763D01*
X8381Y6760D01*
X8374Y6757D01*
X8368Y6754D01*
X8363Y6752D01*
X8359Y6751D01*
X8356Y6750D01*
X8356D01*
X8328Y6840D01*
X8346Y6845D01*
X8361Y6851D01*
X8373Y6857D01*
X8384Y6863D01*
X8392Y6869D01*
X8397Y6873D01*
X8400Y6876D01*
X8402Y6878D01*
X8409Y6888D01*
X8415Y6899D01*
X8419Y6909D01*
X8422Y6918D01*
X8423Y6927D01*
X8424Y6934D01*
X8425Y6937D01*
Y6940D01*
X8424Y6949D01*
X8423Y6958D01*
X8419Y6974D01*
X8413Y6987D01*
X8406Y6998D01*
X8400Y7008D01*
X8394Y7014D01*
X8392Y7017D01*
X8390Y7019D01*
X8389Y7019D01*
X8388Y7020D01*
X8381Y7025D01*
X8373Y7030D01*
X8363Y7035D01*
X8354Y7038D01*
X8333Y7043D01*
X8313Y7047D01*
X8303Y7048D01*
X8295Y7049D01*
X8286Y7050D01*
X8279D01*
X8274Y7051D01*
X8269D01*
X8266D01*
X8265D01*
X8250Y7050D01*
X8236Y7050D01*
X8224Y7048D01*
X8212Y7046D01*
X8201Y7044D01*
X8192Y7041D01*
X8183Y7038D01*
X8175Y7035D01*
X8169Y7033D01*
X8163Y7030D01*
X8158Y7027D01*
X8154Y7025D01*
X8151Y7023D01*
X8149Y7021D01*
X8148Y7020D01*
X8147D01*
X8140Y7014D01*
X8135Y7008D01*
X8130Y7001D01*
X8126Y6994D01*
X8119Y6980D01*
X8115Y6967D01*
X8112Y6956D01*
X8112Y6951D01*
X8111Y6947D01*
X8110Y6943D01*
Y6938D01*
X8111Y6925D01*
X8114Y6913D01*
X8117Y6903D01*
X8121Y6894D01*
X8125Y6886D01*
X8128Y6881D01*
X8131Y6878D01*
X8131Y6876D01*
X8139Y6868D01*
X8148Y6860D01*
X8158Y6854D01*
X8167Y6850D01*
X8175Y6846D01*
X8180Y6844D01*
X8183Y6843D01*
X8185D01*
X8186Y6842D01*
X8186D01*
X8165Y6752D01*
X8146Y6758D01*
X8129Y6766D01*
X8115Y6773D01*
X8103Y6781D01*
X8094Y6788D01*
X8090Y6791D01*
X8087Y6793D01*
X8085Y6795D01*
X8083Y6797D01*
X8081Y6798D01*
Y6798D01*
X8073Y6808D01*
X8065Y6819D01*
X8058Y6830D01*
X8053Y6841D01*
X8048Y6853D01*
X8044Y6864D01*
X8041Y6875D01*
X8038Y6886D01*
X8036Y6895D01*
X8035Y6905D01*
X8034Y6913D01*
X8033Y6920D01*
X8032Y6926D01*
Y6934D01*
X8033Y6951D01*
X8035Y6968D01*
X8038Y6983D01*
X8042Y6998D01*
X8047Y7011D01*
X8052Y7024D01*
X8058Y7035D01*
X8064Y7046D01*
X8070Y7056D01*
X8076Y7063D01*
X8081Y7071D01*
X8085Y7077D01*
X8089Y7081D01*
X8093Y7084D01*
X8095Y7086D01*
X8095Y7087D01*
X8108Y7098D01*
X8121Y7106D01*
X8135Y7114D01*
X8149Y7120D01*
X8164Y7126D01*
X8178Y7131D01*
X8193Y7135D01*
X8207Y7138D01*
X8220Y7141D01*
X8232Y7142D01*
X8243Y7143D01*
X8253Y7145D01*
X8260D01*
X8266Y7145D01*
X8270D01*
X8271D01*
X8272D01*
X8291Y7145D01*
D02*
G37*
G36*
X8291Y6689D02*
X8310Y6688D01*
X8327Y6685D01*
X8344Y6681D01*
X8359Y6676D01*
X8373Y6671D01*
X8386Y6666D01*
X8397Y6660D01*
X8407Y6655D01*
X8416Y6649D01*
X8424Y6644D01*
X8430Y6640D01*
X8435Y6636D01*
X8439Y6633D01*
X8441Y6631D01*
X8442Y6630D01*
X8453Y6619D01*
X8462Y6606D01*
X8470Y6594D01*
X8477Y6580D01*
X8483Y6567D01*
X8488Y6553D01*
X8492Y6541D01*
X8495Y6527D01*
X8498Y6516D01*
X8500Y6504D01*
X8501Y6495D01*
X8502Y6486D01*
X8503Y6480D01*
X8503Y6474D01*
Y6470D01*
X8503Y6451D01*
X8501Y6434D01*
X8497Y6418D01*
X8493Y6403D01*
X8489Y6388D01*
X8484Y6375D01*
X8478Y6363D01*
X8472Y6352D01*
X8466Y6343D01*
X8461Y6335D01*
X8456Y6327D01*
X8451Y6321D01*
X8447Y6316D01*
X8444Y6313D01*
X8442Y6311D01*
X8442Y6310D01*
X8429Y6300D01*
X8416Y6291D01*
X8402Y6282D01*
X8388Y6276D01*
X8374Y6270D01*
X8360Y6264D01*
X8345Y6260D01*
X8331Y6257D01*
X8319Y6255D01*
X8306Y6253D01*
X8296Y6252D01*
X8287Y6251D01*
X8279D01*
X8273Y6250D01*
X8270D01*
X8268D01*
X8248Y6251D01*
X8229Y6253D01*
X8211Y6255D01*
X8194Y6259D01*
X8179Y6264D01*
X8165Y6269D01*
X8152Y6274D01*
X8140Y6280D01*
X8130Y6286D01*
X8121Y6291D01*
X8113Y6297D01*
X8106Y6301D01*
X8102Y6304D01*
X8098Y6308D01*
X8096Y6310D01*
X8095Y6310D01*
X8084Y6322D01*
X8074Y6335D01*
X8066Y6348D01*
X8058Y6361D01*
X8053Y6375D01*
X8047Y6388D01*
X8043Y6401D01*
X8040Y6413D01*
X8037Y6425D01*
X8035Y6436D01*
X8034Y6446D01*
X8033Y6455D01*
Y6461D01*
X8032Y6466D01*
Y6471D01*
X8033Y6491D01*
X8035Y6510D01*
X8038Y6526D01*
X8041Y6541D01*
X8043Y6546D01*
X8045Y6552D01*
X8046Y6557D01*
X8048Y6561D01*
X8049Y6564D01*
X8050Y6567D01*
X8051Y6568D01*
Y6569D01*
X8056Y6581D01*
X8062Y6592D01*
X8070Y6602D01*
X8076Y6610D01*
X8082Y6617D01*
X8087Y6623D01*
X8091Y6627D01*
X8091Y6627D01*
X8092Y6628D01*
X8102Y6637D01*
X8114Y6646D01*
X8123Y6653D01*
X8133Y6659D01*
X8142Y6663D01*
X8148Y6667D01*
X8151Y6668D01*
X8153Y6669D01*
X8154Y6670D01*
X8154D01*
X8173Y6676D01*
X8192Y6682D01*
X8212Y6685D01*
X8230Y6688D01*
X8239Y6688D01*
X8247Y6689D01*
X8253Y6689D01*
X8259D01*
X8264Y6690D01*
X8268D01*
X8270D01*
X8271D01*
X8291Y6689D01*
D02*
G37*
G36*
X8495Y6093D02*
X8196D01*
X8495Y5909D01*
Y5817D01*
X8041D01*
Y5902D01*
X8346D01*
X8041Y6089D01*
Y6178D01*
X8495D01*
Y6093D01*
D02*
G37*
G36*
Y5635D02*
X8196D01*
X8495Y5451D01*
Y5359D01*
X8041D01*
Y5444D01*
X8346D01*
X8041Y5631D01*
Y5720D01*
X8495D01*
Y5635D01*
D02*
G37*
G36*
X8222Y5235D02*
X8213Y5214D01*
X8207Y5204D01*
X8201Y5195D01*
X8196Y5187D01*
X8191Y5179D01*
X8186Y5171D01*
X8181Y5165D01*
X8177Y5160D01*
X8173Y5155D01*
X8170Y5151D01*
X8168Y5149D01*
X8167Y5147D01*
X8166Y5147D01*
X8495D01*
Y5059D01*
X8038D01*
Y5130D01*
X8053Y5137D01*
X8067Y5145D01*
X8080Y5154D01*
X8091Y5164D01*
X8099Y5171D01*
X8106Y5179D01*
X8108Y5181D01*
X8110Y5183D01*
X8111Y5185D01*
X8112Y5185D01*
X8122Y5200D01*
X8131Y5213D01*
X8138Y5226D01*
X8144Y5237D01*
X8148Y5246D01*
X8151Y5253D01*
X8152Y5255D01*
X8152Y5257D01*
X8153Y5258D01*
Y5259D01*
X8232D01*
X8222Y5235D01*
D02*
G37*
%LPC*%
G36*
X5483Y8604D02*
X5310Y8487D01*
X5483D01*
Y8604D01*
D02*
G37*
G36*
X4530Y5008D02*
X4384D01*
Y4881D01*
X4385Y4871D01*
Y4847D01*
X4386Y4842D01*
Y4832D01*
X4387Y4828D01*
Y4827D01*
X4388Y4816D01*
X4391Y4806D01*
X4395Y4798D01*
X4398Y4791D01*
X4402Y4786D01*
X4406Y4782D01*
X4407Y4780D01*
X4408Y4779D01*
X4416Y4773D01*
X4424Y4770D01*
X4431Y4766D01*
X4438Y4764D01*
X4446Y4763D01*
X4451Y4763D01*
X4455D01*
X4456D01*
X4467Y4763D01*
X4477Y4765D01*
X4485Y4769D01*
X4492Y4772D01*
X4499Y4775D01*
X4502Y4779D01*
X4505Y4781D01*
X4506Y4782D01*
X4512Y4789D01*
X4517Y4797D01*
X4520Y4805D01*
X4523Y4814D01*
X4526Y4822D01*
X4527Y4827D01*
X4528Y4831D01*
Y4836D01*
X4529Y4842D01*
Y4870D01*
X4530Y4886D01*
Y5008D01*
D02*
G37*
G36*
X4803D02*
X4634D01*
Y4875D01*
X4635Y4863D01*
X4636Y4852D01*
Y4841D01*
X4637Y4832D01*
X4638Y4824D01*
X4639Y4817D01*
X4640Y4811D01*
X4641Y4806D01*
X4642Y4799D01*
X4643Y4794D01*
Y4794D01*
X4647Y4784D01*
X4652Y4776D01*
X4656Y4769D01*
X4662Y4763D01*
X4665Y4759D01*
X4669Y4756D01*
X4672Y4754D01*
X4673Y4753D01*
X4681Y4749D01*
X4689Y4745D01*
X4696Y4742D01*
X4704Y4741D01*
X4711Y4740D01*
X4716Y4739D01*
X4720D01*
X4721D01*
X4733Y4740D01*
X4744Y4742D01*
X4753Y4744D01*
X4760Y4748D01*
X4766Y4752D01*
X4771Y4754D01*
X4774Y4756D01*
X4775Y4757D01*
X4781Y4764D01*
X4786Y4772D01*
X4791Y4780D01*
X4795Y4787D01*
X4796Y4794D01*
X4798Y4799D01*
X4799Y4803D01*
Y4804D01*
X4800Y4807D01*
Y4813D01*
X4801Y4824D01*
X4802Y4839D01*
Y4854D01*
X4803Y4867D01*
Y5008D01*
D02*
G37*
G36*
X4492Y15148D02*
X4346D01*
Y15021D01*
X4347Y15011D01*
Y14988D01*
X4348Y14982D01*
Y14972D01*
X4349Y14969D01*
Y14968D01*
X4351Y14957D01*
X4354Y14947D01*
X4357Y14939D01*
X4361Y14931D01*
X4364Y14927D01*
X4368Y14922D01*
X4370Y14920D01*
X4371Y14919D01*
X4378Y14914D01*
X4386Y14910D01*
X4394Y14907D01*
X4401Y14905D01*
X4408Y14904D01*
X4414Y14903D01*
X4417D01*
X4418D01*
X4429Y14904D01*
X4439Y14906D01*
X4447Y14909D01*
X4455Y14912D01*
X4461Y14916D01*
X4465Y14919D01*
X4467Y14921D01*
X4468Y14922D01*
X4475Y14929D01*
X4479Y14938D01*
X4483Y14946D01*
X4486Y14954D01*
X4488Y14962D01*
X4489Y14968D01*
X4490Y14971D01*
Y14977D01*
X4491Y14982D01*
Y15010D01*
X4492Y15026D01*
Y15148D01*
D02*
G37*
G36*
X4765D02*
X4597D01*
Y15016D01*
X4598Y15003D01*
X4599Y14992D01*
Y14981D01*
X4599Y14972D01*
X4600Y14964D01*
X4601Y14958D01*
X4602Y14951D01*
X4603Y14947D01*
X4604Y14939D01*
X4606Y14935D01*
Y14934D01*
X4609Y14925D01*
X4614Y14917D01*
X4619Y14909D01*
X4624Y14904D01*
X4628Y14899D01*
X4631Y14897D01*
X4634Y14895D01*
X4635Y14894D01*
X4643Y14889D01*
X4651Y14886D01*
X4659Y14883D01*
X4667Y14881D01*
X4673Y14880D01*
X4679Y14879D01*
X4682D01*
X4683D01*
X4695Y14880D01*
X4706Y14882D01*
X4715Y14885D01*
X4722Y14888D01*
X4729Y14892D01*
X4733Y14895D01*
X4736Y14897D01*
X4737Y14898D01*
X4743Y14905D01*
X4749Y14912D01*
X4753Y14920D01*
X4757Y14928D01*
X4759Y14934D01*
X4761Y14939D01*
X4762Y14943D01*
Y14944D01*
X4763Y14948D01*
Y14953D01*
X4763Y14965D01*
X4764Y14980D01*
Y14994D01*
X4765Y15008D01*
Y15148D01*
D02*
G37*
G36*
X4740Y14552D02*
X4736D01*
X4735D01*
X4726Y14551D01*
X4718Y14549D01*
X4711Y14545D01*
X4704Y14540D01*
X4700Y14537D01*
X4696Y14533D01*
X4694Y14530D01*
X4693Y14529D01*
X4690Y14522D01*
X4685Y14513D01*
X4681Y14502D01*
X4679Y14491D01*
X4676Y14480D01*
X4674Y14472D01*
X4673Y14468D01*
X4672Y14466D01*
Y14464D01*
X4669Y14446D01*
X4665Y14431D01*
X4661Y14417D01*
X4659Y14407D01*
X4656Y14399D01*
X4655Y14394D01*
X4653Y14390D01*
Y14389D01*
X4678D01*
X4692D01*
X4705Y14390D01*
X4715Y14391D01*
X4723Y14392D01*
X4729Y14393D01*
X4733Y14394D01*
X4735Y14395D01*
X4736D01*
X4744Y14397D01*
X4753Y14402D01*
X4759Y14406D01*
X4765Y14411D01*
X4770Y14416D01*
X4773Y14419D01*
X4775Y14422D01*
X4776Y14423D01*
X4784Y14434D01*
X4788Y14446D01*
X4792Y14456D01*
X4794Y14466D01*
X4796Y14474D01*
X4797Y14480D01*
Y14486D01*
X4796Y14496D01*
X4794Y14506D01*
X4792Y14514D01*
X4788Y14520D01*
X4784Y14527D01*
X4782Y14530D01*
X4780Y14533D01*
X4779Y14534D01*
X4772Y14540D01*
X4764Y14545D01*
X4757Y14548D01*
X4750Y14550D01*
X4744Y14551D01*
X4740Y14552D01*
D02*
G37*
G36*
X4605Y13767D02*
X4588Y13766D01*
X4572Y13763D01*
X4558Y13760D01*
X4548Y13754D01*
X4538Y13750D01*
X4532Y13745D01*
X4528Y13742D01*
X4527Y13741D01*
X4517Y13731D01*
X4509Y13721D01*
X4505Y13710D01*
X4501Y13700D01*
X4499Y13690D01*
X4497Y13683D01*
Y13677D01*
X4498Y13663D01*
X4502Y13651D01*
X4507Y13640D01*
X4511Y13631D01*
X4517Y13624D01*
X4521Y13618D01*
X4525Y13615D01*
X4526Y13614D01*
X4537Y13606D01*
X4549Y13598D01*
X4563Y13594D01*
X4576Y13590D01*
X4587Y13588D01*
X4597Y13588D01*
X4600Y13587D01*
X4602D01*
X4604D01*
X4605D01*
Y13767D01*
D02*
G37*
G36*
X4740Y12691D02*
X4736D01*
X4735D01*
X4726Y12690D01*
X4718Y12687D01*
X4711Y12684D01*
X4704Y12679D01*
X4700Y12676D01*
X4696Y12672D01*
X4694Y12669D01*
X4693Y12668D01*
X4690Y12661D01*
X4685Y12652D01*
X4681Y12641D01*
X4679Y12630D01*
X4676Y12619D01*
X4674Y12611D01*
X4673Y12607D01*
X4672Y12605D01*
Y12603D01*
X4669Y12585D01*
X4665Y12570D01*
X4661Y12556D01*
X4659Y12546D01*
X4656Y12538D01*
X4655Y12533D01*
X4653Y12529D01*
Y12528D01*
X4678D01*
X4692D01*
X4705Y12529D01*
X4715Y12530D01*
X4723Y12531D01*
X4729Y12532D01*
X4733Y12533D01*
X4735Y12533D01*
X4736D01*
X4744Y12536D01*
X4753Y12541D01*
X4759Y12545D01*
X4765Y12550D01*
X4770Y12554D01*
X4773Y12558D01*
X4775Y12561D01*
X4776Y12562D01*
X4784Y12573D01*
X4788Y12585D01*
X4792Y12595D01*
X4794Y12605D01*
X4796Y12613D01*
X4797Y12619D01*
Y12625D01*
X4796Y12635D01*
X4794Y12645D01*
X4792Y12653D01*
X4788Y12659D01*
X4784Y12666D01*
X4782Y12669D01*
X4780Y12672D01*
X4779Y12673D01*
X4772Y12679D01*
X4764Y12684D01*
X4757Y12687D01*
X4750Y12688D01*
X4744Y12690D01*
X4740Y12691D01*
D02*
G37*
G36*
X5170Y19717D02*
X5164D01*
X5150Y19716D01*
X5138Y19712D01*
X5127Y19708D01*
X5118Y19703D01*
X5111Y19698D01*
X5105Y19693D01*
X5102Y19690D01*
X5101Y19689D01*
X5093Y19678D01*
X5085Y19665D01*
X5081Y19651D01*
X5077Y19639D01*
X5075Y19628D01*
X5075Y19618D01*
X5074Y19614D01*
Y19612D01*
Y19610D01*
Y19609D01*
X5254D01*
X5253Y19627D01*
X5250Y19642D01*
X5247Y19656D01*
X5241Y19667D01*
X5237Y19676D01*
X5232Y19682D01*
X5229Y19687D01*
X5228Y19688D01*
X5218Y19698D01*
X5208Y19705D01*
X5197Y19710D01*
X5187Y19713D01*
X5177Y19715D01*
X5170Y19717D01*
D02*
G37*
G36*
X7050Y19712D02*
X7046D01*
X7029Y19710D01*
X7013Y19706D01*
X7000Y19700D01*
X6989Y19693D01*
X6979Y19687D01*
X6972Y19681D01*
X6968Y19677D01*
X6967Y19675D01*
X6956Y19660D01*
X6948Y19643D01*
X6942Y19626D01*
X6938Y19609D01*
X6936Y19595D01*
X6935Y19588D01*
Y19582D01*
X6934Y19578D01*
Y19574D01*
Y19572D01*
Y19571D01*
X6936Y19548D01*
X6939Y19526D01*
X6944Y19508D01*
X6950Y19493D01*
X6957Y19482D01*
X6961Y19473D01*
X6965Y19468D01*
X6967Y19466D01*
X6979Y19455D01*
X6992Y19445D01*
X7006Y19440D01*
X7019Y19435D01*
X7030Y19433D01*
X7038Y19432D01*
X7041Y19431D01*
X7046D01*
X7063Y19433D01*
X7079Y19436D01*
X7092Y19442D01*
X7103Y19449D01*
X7113Y19456D01*
X7121Y19461D01*
X7124Y19465D01*
X7126Y19466D01*
X7137Y19481D01*
X7144Y19498D01*
X7150Y19516D01*
X7154Y19533D01*
X7156Y19548D01*
X7157Y19554D01*
Y19560D01*
X7158Y19565D01*
Y19568D01*
Y19570D01*
Y19571D01*
X7156Y19595D01*
X7153Y19616D01*
X7148Y19634D01*
X7142Y19649D01*
X7136Y19660D01*
X7131Y19669D01*
X7127Y19673D01*
X7126Y19675D01*
X7113Y19687D01*
X7100Y19696D01*
X7086Y19702D01*
X7073Y19707D01*
X7062Y19710D01*
X7054Y19711D01*
X7050Y19712D01*
D02*
G37*
G36*
X4161D02*
X4156D01*
X4139Y19710D01*
X4123Y19706D01*
X4111Y19700D01*
X4099Y19693D01*
X4090Y19687D01*
X4082Y19681D01*
X4079Y19677D01*
X4077Y19675D01*
X4066Y19660D01*
X4058Y19643D01*
X4052Y19626D01*
X4048Y19609D01*
X4046Y19595D01*
X4045Y19588D01*
Y19582D01*
X4044Y19578D01*
Y19574D01*
Y19572D01*
Y19571D01*
X4046Y19548D01*
X4050Y19526D01*
X4054Y19508D01*
X4061Y19493D01*
X4067Y19482D01*
X4072Y19473D01*
X4075Y19468D01*
X4077Y19466D01*
X4090Y19455D01*
X4102Y19445D01*
X4116Y19440D01*
X4129Y19435D01*
X4140Y19433D01*
X4148Y19432D01*
X4152Y19431D01*
X4156D01*
X4174Y19433D01*
X4189Y19436D01*
X4203Y19442D01*
X4214Y19449D01*
X4224Y19456D01*
X4231Y19461D01*
X4235Y19465D01*
X4236Y19466D01*
X4247Y19481D01*
X4255Y19498D01*
X4260Y19516D01*
X4265Y19533D01*
X4266Y19548D01*
X4267Y19554D01*
Y19560D01*
X4268Y19565D01*
Y19568D01*
Y19570D01*
Y19571D01*
X4266Y19595D01*
X4263Y19616D01*
X4258Y19634D01*
X4252Y19649D01*
X4246Y19660D01*
X4241Y19669D01*
X4237Y19673D01*
X4236Y19675D01*
X4224Y19687D01*
X4210Y19696D01*
X4196Y19702D01*
X4184Y19707D01*
X4173Y19710D01*
X4164Y19711D01*
X4161Y19712D01*
D02*
G37*
G36*
X1704Y4731D02*
X1700D01*
X1691Y4731D01*
X1682Y4728D01*
X1675Y4725D01*
X1668Y4721D01*
X1663Y4717D01*
X1660Y4714D01*
X1657Y4711D01*
X1657Y4710D01*
X1651Y4702D01*
X1646Y4691D01*
X1643Y4680D01*
X1641Y4670D01*
X1639Y4660D01*
X1639Y4652D01*
Y4649D01*
Y4647D01*
Y4645D01*
Y4645D01*
X1639Y4630D01*
X1641Y4617D01*
X1644Y4606D01*
X1647Y4597D01*
X1650Y4591D01*
X1653Y4586D01*
X1655Y4583D01*
X1655Y4582D01*
X1662Y4576D01*
X1668Y4572D01*
X1676Y4569D01*
X1681Y4567D01*
X1687Y4565D01*
X1692Y4564D01*
X1696D01*
X1705Y4565D01*
X1714Y4568D01*
X1721Y4571D01*
X1727Y4576D01*
X1733Y4580D01*
X1737Y4584D01*
X1740Y4586D01*
X1741Y4587D01*
X1747Y4596D01*
X1752Y4607D01*
X1755Y4618D01*
X1757Y4628D01*
X1758Y4638D01*
X1760Y4645D01*
Y4649D01*
Y4651D01*
Y4652D01*
Y4653D01*
X1759Y4666D01*
X1757Y4678D01*
X1754Y4688D01*
X1751Y4697D01*
X1748Y4702D01*
X1745Y4707D01*
X1743Y4710D01*
X1742Y4711D01*
X1736Y4718D01*
X1729Y4723D01*
X1722Y4726D01*
X1715Y4729D01*
X1709Y4730D01*
X1704Y4731D01*
D02*
G37*
G36*
X8275Y6596D02*
X8271D01*
X8268D01*
X8268D01*
X8253Y6595D01*
X8240Y6594D01*
X8228Y6592D01*
X8216Y6590D01*
X8205Y6588D01*
X8196Y6585D01*
X8187Y6582D01*
X8179Y6579D01*
X8172Y6575D01*
X8166Y6572D01*
X8161Y6569D01*
X8157Y6567D01*
X8154Y6565D01*
X8152Y6563D01*
X8150Y6562D01*
X8150Y6562D01*
X8142Y6555D01*
X8137Y6548D01*
X8131Y6540D01*
X8127Y6533D01*
X8123Y6525D01*
X8120Y6517D01*
X8115Y6503D01*
X8112Y6489D01*
X8112Y6484D01*
X8111Y6479D01*
X8110Y6475D01*
Y6470D01*
X8111Y6459D01*
X8112Y6449D01*
X8114Y6440D01*
X8116Y6432D01*
X8123Y6417D01*
X8126Y6409D01*
X8129Y6403D01*
X8133Y6398D01*
X8137Y6393D01*
X8140Y6389D01*
X8143Y6385D01*
X8146Y6382D01*
X8147Y6381D01*
X8148Y6380D01*
X8149Y6379D01*
X8157Y6373D01*
X8165Y6367D01*
X8174Y6363D01*
X8184Y6359D01*
X8203Y6353D01*
X8222Y6349D01*
X8231Y6347D01*
X8240Y6346D01*
X8247Y6346D01*
X8253Y6345D01*
X8259Y6344D01*
X8263D01*
X8266D01*
X8266D01*
X8281Y6345D01*
X8295Y6346D01*
X8307Y6348D01*
X8318Y6350D01*
X8329Y6352D01*
X8339Y6356D01*
X8348Y6359D01*
X8356Y6362D01*
X8363Y6365D01*
X8369Y6369D01*
X8374Y6371D01*
X8379Y6375D01*
X8382Y6377D01*
X8384Y6379D01*
X8385Y6379D01*
X8386Y6380D01*
X8393Y6386D01*
X8399Y6394D01*
X8404Y6402D01*
X8409Y6409D01*
X8412Y6417D01*
X8415Y6424D01*
X8420Y6438D01*
X8423Y6451D01*
X8424Y6456D01*
X8425Y6461D01*
X8425Y6464D01*
Y6470D01*
X8425Y6480D01*
X8423Y6489D01*
X8421Y6499D01*
X8419Y6507D01*
X8413Y6523D01*
X8405Y6535D01*
X8402Y6541D01*
X8398Y6546D01*
X8394Y6550D01*
X8391Y6554D01*
X8389Y6556D01*
X8387Y6558D01*
X8386Y6560D01*
X8385Y6560D01*
X8377Y6566D01*
X8369Y6572D01*
X8360Y6577D01*
X8350Y6581D01*
X8331Y6587D01*
X8312Y6591D01*
X8302Y6592D01*
X8295Y6594D01*
X8287Y6594D01*
X8280Y6595D01*
X8275Y6596D01*
D02*
G37*
%LPD*%
D12*
X-197Y7598D02*
X3504D01*
Y11146D01*
X-197Y7598D02*
Y11146D01*
X3504D01*
X-197Y12047D02*
X3504D01*
Y15594D01*
X-197Y12047D02*
Y15594D01*
X3504D01*
X14134Y6343D02*
X17835D01*
X14134Y2795D02*
Y6343D01*
X17835Y2795D02*
Y6343D01*
X14134Y2795D02*
X17835D01*
X-197D02*
X3504D01*
Y6343D01*
X-197Y2795D02*
Y6343D01*
X3504D01*
X6941Y4972D02*
Y6972D01*
X7941D01*
Y4972D02*
Y6972D01*
X6941Y4972D02*
X7941D01*
D69*
X3701Y13035D02*
X4094D01*
X3898Y12839D02*
Y13232D01*
X3898Y14335D02*
Y14728D01*
X3701Y8587D02*
X4094D01*
X3898Y8390D02*
Y8783D01*
X3898Y9886D02*
Y10280D01*
X3701Y3783D02*
X4094D01*
X3898Y3587D02*
Y3980D01*
X3898Y5083D02*
Y5476D01*
X13740Y3661D02*
Y4055D01*
X13740Y5157D02*
Y5551D01*
X13543Y5354D02*
X13937D01*
M02*
