G04*
G04 #@! TF.GenerationSoftware,Altium Limited,Altium Designer,24.10.1 (45)*
G04*
G04 Layer_Color=8388736*
%FSLAX24Y24*%
%MOIN*%
G70*
G04*
G04 #@! TF.SameCoordinates,A2B8B827-00CD-4321-91CD-3D45FF0E1E4C*
G04*
G04*
G04 #@! TF.FilePolarity,Negative*
G04*
G01*
G75*
G04:AMPARAMS|DCode=22|XSize=60.6mil|YSize=19.7mil|CornerRadius=9.8mil|HoleSize=0mil|Usage=FLASHONLY|Rotation=0.000|XOffset=0mil|YOffset=0mil|HoleType=Round|Shape=RoundedRectangle|*
%AMROUNDEDRECTD22*
21,1,0.0606,0.0000,0,0,0.0*
21,1,0.0409,0.0197,0,0,0.0*
1,1,0.0197,0.0205,0.0000*
1,1,0.0197,-0.0205,0.0000*
1,1,0.0197,-0.0205,0.0000*
1,1,0.0197,0.0205,0.0000*
%
%ADD22ROUNDEDRECTD22*%
%ADD23R,0.0606X0.0197*%
%ADD24R,0.0645X0.0197*%
G04:AMPARAMS|DCode=25|XSize=64.5mil|YSize=19.7mil|CornerRadius=9.8mil|HoleSize=0mil|Usage=FLASHONLY|Rotation=0.000|XOffset=0mil|YOffset=0mil|HoleType=Round|Shape=RoundedRectangle|*
%AMROUNDEDRECTD25*
21,1,0.0645,0.0000,0,0,0.0*
21,1,0.0448,0.0197,0,0,0.0*
1,1,0.0197,0.0224,0.0000*
1,1,0.0197,-0.0224,0.0000*
1,1,0.0197,-0.0224,0.0000*
1,1,0.0197,0.0224,0.0000*
%
%ADD25ROUNDEDRECTD25*%
%ADD41R,0.0671X0.0474*%
%ADD42R,0.0474X0.0671*%
%ADD43R,0.0552X0.0671*%
%ADD44R,0.0671X0.0552*%
%ADD45R,0.1260X0.0984*%
%ADD46R,0.1457X0.0984*%
%ADD47R,0.0474X0.0316*%
%ADD48R,0.0316X0.0474*%
G04:AMPARAMS|DCode=49|XSize=68.6mil|YSize=27.7mil|CornerRadius=13.8mil|HoleSize=0mil|Usage=FLASHONLY|Rotation=180.000|XOffset=0mil|YOffset=0mil|HoleType=Round|Shape=RoundedRectangle|*
%AMROUNDEDRECTD49*
21,1,0.0686,0.0000,0,0,180.0*
21,1,0.0409,0.0277,0,0,180.0*
1,1,0.0277,-0.0205,0.0000*
1,1,0.0277,0.0205,0.0000*
1,1,0.0277,0.0205,0.0000*
1,1,0.0277,-0.0205,0.0000*
%
%ADD49ROUNDEDRECTD49*%
%ADD50R,0.0686X0.0277*%
%ADD51R,0.0560X0.0552*%
%ADD52R,0.1458X0.2324*%
%ADD53R,0.0631X0.0552*%
%ADD54R,0.0552X0.0631*%
%ADD55R,0.0710X0.0867*%
%ADD56R,0.0552X0.0631*%
%ADD57R,0.0631X0.0552*%
%ADD58C,0.0946*%
%ADD59R,0.0946X0.0946*%
%ADD60R,0.0828X0.0828*%
%ADD61C,0.0828*%
%ADD62C,0.2442*%
%ADD63C,0.0631*%
D22*
X12762Y11949D02*
D03*
Y11575D02*
D03*
Y11201D02*
D03*
X11805D02*
D03*
Y11575D02*
D03*
D23*
Y11949D02*
D03*
D24*
X3911Y18012D02*
D03*
D25*
Y17638D02*
D03*
Y17264D02*
D03*
X4829D02*
D03*
Y18012D02*
D03*
D41*
X11457Y8622D02*
D03*
Y9409D02*
D03*
X11614Y19331D02*
D03*
Y20118D02*
D03*
X12835Y4921D02*
D03*
Y5709D02*
D03*
X15236Y15630D02*
D03*
Y16417D02*
D03*
D42*
X11102Y4685D02*
D03*
X10315D02*
D03*
X13858Y8622D02*
D03*
X14646D02*
D03*
D43*
X12939Y18504D02*
D03*
X14226D02*
D03*
X12939Y19370D02*
D03*
X14226D02*
D03*
X15065Y7520D02*
D03*
X16352D02*
D03*
X11628Y5709D02*
D03*
X10341D02*
D03*
D44*
X16457Y5329D02*
D03*
Y4041D02*
D03*
D45*
X8189Y18150D02*
D03*
Y20118D02*
D03*
D46*
X5945Y8622D02*
D03*
Y10591D02*
D03*
Y3819D02*
D03*
Y5787D02*
D03*
D47*
X8343Y8252D02*
D03*
Y8992D02*
D03*
X7483Y8622D02*
D03*
X12129Y14189D02*
D03*
Y13449D02*
D03*
X12989Y13819D02*
D03*
X8343Y3449D02*
D03*
Y4189D02*
D03*
X7483Y3819D02*
D03*
X9409Y16535D02*
D03*
Y17275D02*
D03*
X8549Y16905D02*
D03*
D48*
X7441Y10984D02*
D03*
X8181D02*
D03*
X7811Y11844D02*
D03*
D49*
X8354Y14921D02*
D03*
Y15669D02*
D03*
X9409D02*
D03*
Y15295D02*
D03*
D50*
Y14921D02*
D03*
D51*
Y8699D02*
D03*
Y10199D02*
D03*
Y4209D02*
D03*
Y5709D02*
D03*
D52*
X16831Y12402D02*
D03*
X14980D02*
D03*
D53*
X10394Y11024D02*
D03*
Y11811D02*
D03*
Y9409D02*
D03*
Y10197D02*
D03*
X4843Y18976D02*
D03*
Y19764D02*
D03*
X10512Y20118D02*
D03*
Y19331D02*
D03*
X6890Y13268D02*
D03*
Y14055D02*
D03*
X9252Y13465D02*
D03*
Y12677D02*
D03*
X6890Y15669D02*
D03*
Y16457D02*
D03*
X12835Y4016D02*
D03*
Y3228D02*
D03*
D54*
X10236Y7638D02*
D03*
X9449D02*
D03*
X12126Y14843D02*
D03*
X11339D02*
D03*
X14134Y16417D02*
D03*
X13346D02*
D03*
X11339Y15630D02*
D03*
X12126D02*
D03*
Y16417D02*
D03*
X11339D02*
D03*
X11102Y3465D02*
D03*
X11890D02*
D03*
X10197Y3449D02*
D03*
X9409D02*
D03*
X16339Y8543D02*
D03*
X15551D02*
D03*
D55*
X12992Y10276D02*
D03*
X11811D02*
D03*
D56*
X13898Y12835D02*
D03*
X13110D02*
D03*
X16339Y9449D02*
D03*
X15551D02*
D03*
X16339Y10315D02*
D03*
X15551D02*
D03*
X1378Y14567D02*
D03*
X591D02*
D03*
X1378Y15551D02*
D03*
X591D02*
D03*
D57*
X6024Y18110D02*
D03*
Y18898D02*
D03*
X6890Y18110D02*
D03*
Y18898D02*
D03*
X8386Y13465D02*
D03*
Y12677D02*
D03*
D58*
X2953Y10122D02*
D03*
Y14571D02*
D03*
X14685Y3819D02*
D03*
X2953Y5319D02*
D03*
D59*
Y8622D02*
D03*
Y13071D02*
D03*
X14685Y5319D02*
D03*
X2953Y3819D02*
D03*
D60*
X7441Y5472D02*
D03*
D61*
Y6472D02*
D03*
D62*
X16378Y20472D02*
D03*
Y1457D02*
D03*
X1339Y20472D02*
D03*
Y1457D02*
D03*
D63*
X7008Y1890D02*
D03*
X6102D02*
D03*
X5118D02*
D03*
X12402Y12795D02*
D03*
X7480Y17244D02*
D03*
X6850Y21260D02*
D03*
X5866D02*
D03*
X4843D02*
D03*
X11339Y17283D02*
D03*
X10276Y16535D02*
D03*
X15000Y19370D02*
D03*
X15197Y14764D02*
D03*
X16102D02*
D03*
X16378Y16299D02*
D03*
X9094Y11063D02*
D03*
X13819Y2205D02*
D03*
X13858Y10906D02*
D03*
X14646Y2205D02*
D03*
X9567Y20157D02*
D03*
X2165Y18386D02*
D03*
X2165Y17638D02*
D03*
X6024Y17244D02*
D03*
X10039Y12717D02*
D03*
X10315Y15315D02*
D03*
X7441Y9764D02*
D03*
X14606Y10197D02*
D03*
X13858Y9488D02*
D03*
X14606D02*
D03*
X13858Y10197D02*
D03*
M02*
