G04*
G04 #@! TF.GenerationSoftware,Altium Limited,Altium Designer,24.10.1 (45)*
G04*
G04 Layer_Color=8421504*
%FSLAX24Y24*%
%MOIN*%
G70*
G04*
G04 #@! TF.SameCoordinates,A2B8B827-00CD-4321-91CD-3D45FF0E1E4C*
G04*
G04*
G04 #@! TF.FilePolarity,Positive*
G04*
G01*
G75*
G04:AMPARAMS|DCode=22|XSize=60.6mil|YSize=19.7mil|CornerRadius=9.8mil|HoleSize=0mil|Usage=FLASHONLY|Rotation=0.000|XOffset=0mil|YOffset=0mil|HoleType=Round|Shape=RoundedRectangle|*
%AMROUNDEDRECTD22*
21,1,0.0606,0.0000,0,0,0.0*
21,1,0.0409,0.0197,0,0,0.0*
1,1,0.0197,0.0205,0.0000*
1,1,0.0197,-0.0205,0.0000*
1,1,0.0197,-0.0205,0.0000*
1,1,0.0197,0.0205,0.0000*
%
%ADD22ROUNDEDRECTD22*%
%ADD23R,0.0606X0.0197*%
%ADD24R,0.0645X0.0197*%
G04:AMPARAMS|DCode=25|XSize=64.5mil|YSize=19.7mil|CornerRadius=9.8mil|HoleSize=0mil|Usage=FLASHONLY|Rotation=0.000|XOffset=0mil|YOffset=0mil|HoleType=Round|Shape=RoundedRectangle|*
%AMROUNDEDRECTD25*
21,1,0.0645,0.0000,0,0,0.0*
21,1,0.0448,0.0197,0,0,0.0*
1,1,0.0197,0.0224,0.0000*
1,1,0.0197,-0.0224,0.0000*
1,1,0.0197,-0.0224,0.0000*
1,1,0.0197,0.0224,0.0000*
%
%ADD25ROUNDEDRECTD25*%
%ADD26R,0.0591X0.0394*%
%ADD27R,0.0394X0.0591*%
%ADD28R,0.0472X0.0591*%
%ADD29R,0.0591X0.0472*%
%ADD30R,0.1181X0.0906*%
%ADD31R,0.1378X0.0906*%
%ADD32R,0.0394X0.0236*%
%ADD33R,0.0236X0.0394*%
%ADD34R,0.0480X0.0472*%
%ADD35R,0.1378X0.2244*%
%ADD36R,0.0551X0.0472*%
%ADD37R,0.0472X0.0551*%
%ADD38R,0.0630X0.0787*%
%ADD39R,0.0472X0.0551*%
%ADD40R,0.0551X0.0472*%
D22*
X12762Y11949D02*
D03*
Y11575D02*
D03*
Y11201D02*
D03*
X11805D02*
D03*
Y11575D02*
D03*
X8354Y14921D02*
D03*
Y15669D02*
D03*
X9409D02*
D03*
Y15295D02*
D03*
D23*
X11805Y11949D02*
D03*
X9409Y14921D02*
D03*
D24*
X3911Y18012D02*
D03*
D25*
Y17638D02*
D03*
Y17264D02*
D03*
X4829D02*
D03*
Y18012D02*
D03*
D26*
X11457Y8622D02*
D03*
Y9409D02*
D03*
X11614Y19331D02*
D03*
Y20118D02*
D03*
X12835Y4921D02*
D03*
Y5709D02*
D03*
X15236Y15630D02*
D03*
Y16417D02*
D03*
D27*
X11102Y4685D02*
D03*
X10315D02*
D03*
X13858Y8622D02*
D03*
X14646D02*
D03*
D28*
X12939Y18504D02*
D03*
X14226D02*
D03*
X12939Y19370D02*
D03*
X14226D02*
D03*
X15065Y7520D02*
D03*
X16352D02*
D03*
X11628Y5709D02*
D03*
X10341D02*
D03*
D29*
X16457Y5329D02*
D03*
Y4041D02*
D03*
D30*
X8189Y18150D02*
D03*
Y20118D02*
D03*
D31*
X5945Y8622D02*
D03*
Y10591D02*
D03*
Y3819D02*
D03*
Y5787D02*
D03*
D32*
X8343Y8252D02*
D03*
Y8992D02*
D03*
X7483Y8622D02*
D03*
X12129Y14189D02*
D03*
Y13449D02*
D03*
X12989Y13819D02*
D03*
X8343Y3449D02*
D03*
Y4189D02*
D03*
X7483Y3819D02*
D03*
X9409Y16535D02*
D03*
Y17275D02*
D03*
X8549Y16905D02*
D03*
D33*
X7441Y10984D02*
D03*
X8181D02*
D03*
X7811Y11844D02*
D03*
D34*
X9409Y8699D02*
D03*
Y10199D02*
D03*
Y4209D02*
D03*
Y5709D02*
D03*
D35*
X16831Y12402D02*
D03*
X14980D02*
D03*
D36*
X10394Y11024D02*
D03*
Y11811D02*
D03*
Y9409D02*
D03*
Y10197D02*
D03*
X4843Y18976D02*
D03*
Y19764D02*
D03*
X10512Y20118D02*
D03*
Y19331D02*
D03*
X6890Y13268D02*
D03*
Y14055D02*
D03*
X9252Y13465D02*
D03*
Y12677D02*
D03*
X6890Y15669D02*
D03*
Y16457D02*
D03*
X12835Y4016D02*
D03*
Y3228D02*
D03*
D37*
X10236Y7638D02*
D03*
X9449D02*
D03*
X12126Y14843D02*
D03*
X11339D02*
D03*
X14134Y16417D02*
D03*
X13346D02*
D03*
X11339Y15630D02*
D03*
X12126D02*
D03*
Y16417D02*
D03*
X11339D02*
D03*
X11102Y3465D02*
D03*
X11890D02*
D03*
X10197Y3449D02*
D03*
X9409D02*
D03*
X16339Y8543D02*
D03*
X15551D02*
D03*
D38*
X12992Y10276D02*
D03*
X11811D02*
D03*
D39*
X13898Y12835D02*
D03*
X13110D02*
D03*
X16339Y9449D02*
D03*
X15551D02*
D03*
X16339Y10315D02*
D03*
X15551D02*
D03*
X1378Y14567D02*
D03*
X591D02*
D03*
X1378Y15551D02*
D03*
X591D02*
D03*
D40*
X6024Y18110D02*
D03*
Y18898D02*
D03*
X6890Y18110D02*
D03*
Y18898D02*
D03*
X8386Y13465D02*
D03*
Y12677D02*
D03*
M02*
