%FSTAX24Y24*%
%MOIN*%
%SFA1B1*%

%IPPOS*%
%AMD22*
4,1,8,0.020500,0.009800,-0.020500,0.009800,-0.030300,0.000000,-0.030300,0.000000,-0.020500,-0.009800,0.020500,-0.009800,0.030300,0.000000,0.030300,0.000000,0.020500,0.009800,0.0*
1,1,0.019600,0.020500,0.000000*
1,1,0.019600,-0.020500,0.000000*
1,1,0.019600,-0.020500,0.000000*
1,1,0.019600,0.020500,0.000000*
%
%AMD25*
4,1,8,0.022400,0.009800,-0.022400,0.009800,-0.032200,0.000000,-0.032200,0.000000,-0.022400,-0.009800,0.022400,-0.009800,0.032200,0.000000,0.032200,0.000000,0.022400,0.009800,0.0*
1,1,0.019600,0.022400,0.000000*
1,1,0.019600,-0.022400,0.000000*
1,1,0.019600,-0.022400,0.000000*
1,1,0.019600,0.022400,0.000000*
%
%AMD49*
4,1,8,-0.020500,-0.013800,0.020500,-0.013800,0.034300,0.000000,0.034300,0.000000,0.020500,0.013800,-0.020500,0.013800,-0.034300,0.000000,-0.034300,0.000000,-0.020500,-0.013800,0.0*
1,1,0.027600,-0.020500,0.000000*
1,1,0.027600,0.020500,0.000000*
1,1,0.027600,0.020500,0.000000*
1,1,0.027600,-0.020500,0.000000*
%
G04~CAMADD=22~8~0.0~0.0~606.0~197.0~98.0~0.0~15~0.0~0.0~0.0~0.0~0~0.0~0.0~0.0~0.0~0~0.0~0.0~0.0~0.0~606.0~197.0*
%ADD22D22*%
%ADD23R,0.060600X0.019700*%
%ADD24R,0.064500X0.019700*%
G04~CAMADD=25~8~0.0~0.0~645.0~197.0~98.0~0.0~15~0.0~0.0~0.0~0.0~0~0.0~0.0~0.0~0.0~0~0.0~0.0~0.0~0.0~645.0~197.0*
%ADD25D25*%
%ADD41R,0.067100X0.047400*%
%ADD42R,0.047400X0.067100*%
%ADD43R,0.055200X0.067100*%
%ADD44R,0.067100X0.055200*%
%ADD45R,0.126000X0.098400*%
%ADD46R,0.145700X0.098400*%
%ADD47R,0.047400X0.031600*%
%ADD48R,0.031600X0.047400*%
G04~CAMADD=49~8~0.0~0.0~686.0~277.0~138.0~0.0~15~0.0~0.0~0.0~0.0~0~0.0~0.0~0.0~0.0~0~0.0~0.0~0.0~180.0~685.0~276.0*
%ADD49D49*%
%ADD50R,0.068600X0.027700*%
%ADD51R,0.056000X0.055200*%
%ADD52R,0.145800X0.232400*%
%ADD53R,0.063100X0.055200*%
%ADD54R,0.055200X0.063100*%
%ADD55R,0.071000X0.086700*%
%ADD56R,0.055200X0.063100*%
%ADD57R,0.063100X0.055200*%
%ADD58C,0.094600*%
%ADD59R,0.094600X0.094600*%
%ADD60R,0.082800X0.082800*%
%ADD61C,0.082800*%
%ADD62C,0.244200*%
%ADD63C,0.063100*%
%LNpcb_source_iot-1*%
%LPD*%
G54D22*
X012762Y011949D03*
Y011575D03*
Y011201D03*
X011805D03*
Y011575D03*
G54D23*
X011805Y011949D03*
G54D24*
X003911Y018012D03*
G54D25*
X003911Y017638D03*
Y017264D03*
X004829D03*
Y018012D03*
G54D41*
X011457Y008622D03*
Y009409D03*
X011614Y019331D03*
Y020118D03*
X012835Y004921D03*
Y005709D03*
X015236Y01563D03*
Y016417D03*
G54D42*
X011102Y004685D03*
X010315D03*
X013858Y008622D03*
X014646D03*
G54D43*
X012939Y018504D03*
X014226D03*
X012939Y01937D03*
X014226D03*
X015065Y00752D03*
X016352D03*
X011628Y005709D03*
X010341D03*
G54D44*
X016457Y005329D03*
Y004041D03*
G54D45*
X008189Y01815D03*
Y020118D03*
G54D46*
X005945Y008622D03*
Y010591D03*
Y003819D03*
Y005787D03*
G54D47*
X008343Y008252D03*
Y008992D03*
X007483Y008622D03*
X012129Y014189D03*
Y013449D03*
X012989Y013819D03*
X008343Y003449D03*
Y004189D03*
X007483Y003819D03*
X009409Y016535D03*
Y017275D03*
X008549Y016905D03*
G54D48*
X007441Y010984D03*
X008181D03*
X007811Y011844D03*
G54D49*
X008354Y014921D03*
Y015669D03*
X009409D03*
Y015295D03*
G54D50*
X009409Y014921D03*
G54D51*
X009409Y008699D03*
Y010199D03*
Y004209D03*
Y005709D03*
G54D52*
X016831Y012402D03*
X01498D03*
G54D53*
X010394Y011024D03*
Y011811D03*
Y009409D03*
Y010197D03*
X004843Y018976D03*
Y019764D03*
X010512Y020118D03*
Y019331D03*
X00689Y013268D03*
Y014055D03*
X009252Y013465D03*
Y012677D03*
X00689Y015669D03*
Y016457D03*
X012835Y004016D03*
Y003228D03*
G54D54*
X010236Y007638D03*
X009449D03*
X012126Y014843D03*
X011339D03*
X014134Y016417D03*
X013346D03*
X011339Y01563D03*
X012126D03*
Y016417D03*
X011339D03*
X011102Y003465D03*
X01189D03*
X010197Y003449D03*
X009409D03*
X016339Y008543D03*
X015551D03*
G54D55*
X012992Y010276D03*
X011811D03*
G54D56*
X013898Y012835D03*
X01311D03*
X016339Y009449D03*
X015551D03*
X016339Y010315D03*
X015551D03*
X001378Y014567D03*
X000591D03*
X001378Y015551D03*
X000591D03*
G54D57*
X006024Y01811D03*
Y018898D03*
X00689Y01811D03*
Y018898D03*
X008386Y013465D03*
Y012677D03*
G54D58*
X002953Y010122D03*
Y014571D03*
X014685Y003819D03*
X002953Y005319D03*
G54D59*
X002953Y008622D03*
Y013071D03*
X014685Y005319D03*
X002953Y003819D03*
G54D60*
X007441Y005472D03*
G54D61*
X007441Y006472D03*
G54D62*
X016378Y020472D03*
Y001457D03*
X001339Y020472D03*
Y001457D03*
G54D63*
X007008Y00189D03*
X006102D03*
X005118D03*
X012402Y012795D03*
X00748Y017244D03*
X00685Y02126D03*
X005866D03*
X004843D03*
X011339Y017283D03*
X010276Y016535D03*
X015Y01937D03*
X015197Y014764D03*
X016102D03*
X016378Y016299D03*
X009094Y011063D03*
X013819Y002205D03*
X013858Y010906D03*
X014646Y002205D03*
X009567Y020157D03*
X002165Y018386D03*
Y017638D03*
X006024Y017244D03*
X010039Y012717D03*
X010315Y015315D03*
X007441Y009764D03*
X014606Y010197D03*
X013858Y009488D03*
X014606D03*
X013858Y010197D03*
M02*