%FSTAX24Y24*%
%MOIN*%
%SFA1B1*%

%IPPOS*%
%ADD11C,0.010000*%
%ADD12C,0.007900*%
%ADD16C,0.011800*%
%ADD76C,0.003900*%
%LNpcb_source_iot-1*%
%LPD*%
G36*
X-001646Y011849D02*
X-001933D01*
X-001934*
X-001935*
X-001941*
X-001949*
X-001959Y011848*
X-00197*
X-001981Y011847*
X-001992Y011845*
X-002Y011842*
X-002001*
X-002004Y01184*
X-002007Y011838*
X-002012Y011836*
X-002017Y011832*
X-002023Y011827*
X-002028Y011822*
X-002034Y011815*
X-002035Y011814*
Y011811*
X-002037Y011807*
X-00204Y011801*
X-002043Y011795*
X-002045Y011787*
Y011778*
X-002046Y011768*
Y011764*
X-002045Y01176*
Y011751*
X-002043Y01174*
X-002038Y011727*
X-002033Y011714*
X-002025Y0117*
X-002014Y011687*
X-002012Y011686*
X-002007Y011683*
X-002Y011677*
X-001989Y011672*
X-001974Y011665*
X-001957Y011661*
X-001936Y011657*
X-001912Y011655*
X-001646*
Y011578*
X-001943*
X-001945*
X-001947*
X-001951*
X-001961Y011577*
X-001972Y011575*
X-001984Y011573*
X-001997Y01157*
X-002009Y011565*
X-00202Y011559*
X-002021Y011558*
X-002025Y011555*
X-002028Y011551*
X-002034Y011544*
X-002038Y011536*
X-002043Y011525*
X-002045Y011512*
X-002046Y011497*
Y011491*
X-002045Y011485*
Y011478*
X-002042Y011469*
X-002039Y011458*
X-002035Y011448*
X-002029Y011437*
X-002028Y011436*
X-002025Y011432*
X-002022Y011428*
X-002016Y011421*
X-002009Y011415*
X-002Y011408*
X-00199Y011402*
X-001978Y011397*
X-001976Y011396*
X-001972Y011395*
X-001964Y011393*
X-001954Y01139*
X-001941Y011387*
X-001924Y011386*
X-001905Y011385*
X-001883Y011384*
X-001646*
Y011306*
X-002104*
Y011376*
X-002038*
X-00204Y011377*
X-002044Y011379*
X-00205Y011385*
X-002057Y011391*
X-002066Y011399*
X-002076Y011409*
X-002085Y01142*
X-002093Y011433*
X-002094Y011435*
X-002096Y011439*
X-002099Y011447*
X-002104Y011457*
X-002107Y011469*
X-00211Y011482*
X-002113Y011498*
X-002114Y011514*
Y011522*
X-002113Y011532*
X-002111Y011543*
X-002108Y011557*
X-002105Y011571*
X-002099Y011584*
X-002092Y011597*
X-002091Y011599*
X-002088Y011602*
X-002084Y011608*
X-002076Y011615*
X-002068Y011623*
X-002058Y011631*
X-002046Y011638*
X-002033Y011643*
X-002034Y011644*
X-002036Y011646*
X-00204Y011649*
X-002045Y011653*
X-002052Y011659*
X-002058Y011665*
X-002066Y011673*
X-002074Y011682*
X-002081Y011692*
X-002088Y011702*
X-002095Y011714*
X-002101Y011726*
X-002107Y01174*
X-00211Y011755*
X-002113Y011769*
X-002114Y011786*
Y011792*
X-002113Y011797*
Y011803*
X-002112Y011809*
X-002109Y011825*
X-002105Y011841*
X-002097Y011858*
X-002088Y011876*
X-002076Y01189*
X-002074Y011892*
X-002068Y011896*
X-00206Y011902*
X-002054Y011905*
X-002047Y011909*
X-002039Y011912*
X-002031Y011915*
X-002022Y011919*
X-002011Y011921*
X-002Y011923*
X-001987Y011925*
X-001974Y011927*
X-00196*
X-001646*
Y011849*
G37*
G36*
Y011115D02*
X-001933D01*
X-001934*
X-001935*
X-001941*
X-001949*
X-001959Y011114*
X-00197Y011113*
X-001981Y011112*
X-001992Y011111*
X-002Y011108*
X-002001*
X-002004Y011106*
X-002007Y011104*
X-002012Y011101*
X-002017Y011098*
X-002023Y011093*
X-002028Y011088*
X-002034Y01108*
X-002035*
Y011077*
X-002037Y011073*
X-00204Y011067*
X-002043Y01106*
X-002045Y011052*
Y011044*
X-002046Y011034*
Y011029*
X-002045Y011026*
Y011017*
X-002043Y011006*
X-002038Y010993*
X-002033Y010979*
X-002025Y010966*
X-002014Y010953*
X-002012Y010952*
X-002007Y010948*
X-002Y010943*
X-001989Y010937*
X-001974Y010931*
X-001957Y010927*
X-001936Y010923*
X-001912Y010921*
X-001646*
Y010844*
X-001943*
X-001945*
X-001947*
X-001951*
X-001961Y010843*
X-001972Y010841*
X-001984Y010839*
X-001997Y010835*
X-002009Y010831*
X-00202Y010824*
X-002021*
X-002025Y010821*
X-002028Y010816*
X-002034Y01081*
X-002038Y010802*
X-002043Y010791*
X-002045Y010778*
X-002046Y010763*
Y010757*
X-002045Y010751*
Y010743*
X-002042Y010734*
X-002039Y010723*
X-002035Y010713*
X-002029Y010702*
X-002028*
X-002025Y010698*
X-002022Y010693*
X-002016Y010687*
X-002009Y010681*
X-002Y010674*
X-00199Y010668*
X-001978Y010662*
X-001976Y010661*
X-001972*
X-001964Y010659*
X-001954Y010656*
X-001941Y010653*
X-001924Y010651*
X-001905Y01065*
X-001883*
X-001646*
Y010572*
X-002104*
Y010641*
X-002038*
X-00204Y010642*
X-002044Y010645*
X-00205Y01065*
X-002057Y010657*
X-002066Y010665*
X-002076Y010675*
X-002085Y010686*
X-002093Y010699*
X-002094Y010701*
X-002096Y010705*
X-002099Y010712*
X-002104Y010722*
X-002107Y010734*
X-00211Y010748*
X-002113Y010763*
X-002114Y01078*
Y010788*
X-002113Y010798*
X-002111Y010809*
X-002108Y010823*
X-002105Y010836*
X-002099Y01085*
X-002092Y010863*
X-002091Y010865*
X-002088Y010868*
X-002084Y010874*
X-002076Y010881*
X-002068Y010888*
X-002058Y010896*
X-002046Y010904*
X-002033Y010909*
X-002034Y01091*
X-002036Y010912*
X-00204Y010915*
X-002045Y010919*
X-002052Y010925*
X-002058Y010931*
X-002066Y010938*
X-002074Y010947*
X-002081Y010957*
X-002088Y010968*
X-002095Y010979*
X-002101Y010992*
X-002107Y011006*
X-00211Y01102*
X-002113Y011035*
X-002114Y011051*
Y011058*
X-002113Y011062*
Y011069*
X-002112Y011075*
X-002109Y01109*
X-002105Y011107*
X-002097Y011124*
X-002088Y011142*
X-002076Y011156*
X-002074Y011158*
X-002068Y011162*
X-00206Y011168*
X-002054Y011171*
X-002047Y011174*
X-002039Y011178*
X-002031Y011181*
X-002022Y011184*
X-002011Y011187*
X-002Y011189*
X-001987Y011191*
X-001974Y011193*
X-00196*
X-001646*
Y011115*
G37*
G36*
X-001929Y010472D02*
X-001918D01*
X-001906Y010471*
X-001893Y01047*
X-001864Y010467*
X-001834Y010463*
X-001805Y010457*
X-001791Y010454*
X-001778Y010449*
X-001777*
X-001775Y010448*
X-001771Y010446*
X-001767Y010445*
X-00176Y010443*
X-001754Y010439*
X-001738Y010432*
X-001722Y010423*
X-001704Y010411*
X-001687Y010397*
X-001672Y010381*
Y01038*
X-00167Y010379*
X-001668Y010376*
X-001667Y010373*
X-001664Y010368*
X-00166Y010364*
X-001654Y01035*
X-001647Y010333*
X-001641Y010314*
X-001637Y010292*
X-001636Y010267*
Y010258*
Y010251*
X-001637Y010244*
X-001639Y010235*
X-001641Y010225*
X-001644Y010214*
X-001647Y010203*
X-001651Y010191*
X-001656Y010179*
X-001663Y010168*
X-00167Y010156*
X-001679Y010144*
X-001689Y010133*
X-0017Y010123*
X-001701Y010122*
X-001704Y01012*
X-001708Y010118*
X-001716Y010113*
X-001724Y010108*
X-001735Y010104*
X-001748Y010098*
X-001762Y010092*
X-001779Y010087*
X-001798Y010081*
X-001819Y010076*
X-001842Y010071*
X-001868Y010067*
X-001895Y010064*
X-001925Y010062*
X-001957Y010061*
X-001958*
X-001962*
X-001968*
X-001975*
X-001985Y010062*
X-001996*
X-002008Y010063*
X-002022Y010064*
X-00205Y010067*
X-00208Y010071*
X-00211Y010077*
X-002124Y01008*
X-002137Y010084*
X-002138*
X-00214Y010085*
X-002144Y010087*
X-002148Y010088*
X-002155Y01009*
X-002161Y010094*
X-002177Y010101*
X-002193Y01011*
X-00221Y010122*
X-002228Y010136*
X-002242Y010152*
Y010153*
X-002244Y010154*
X-002246Y010157*
X-002248Y01016*
X-002251Y010165*
X-002254Y01017*
X-002261Y010184*
X-002268Y0102*
X-002274Y01022*
X-002278Y010242*
X-00228Y010267*
Y010275*
X-002279Y010285*
X-002277Y010297*
X-002274Y010311*
X-002271Y010325*
X-002266Y010341*
X-002259Y010355*
Y010356*
X-002258Y010357*
X-002255Y010362*
X-00225Y010369*
X-002244Y010378*
X-002235Y010388*
X-002225Y010399*
X-002213Y010409*
X-002199Y010419*
X-002198Y01042*
X-002193Y010424*
X-002185Y010427*
X-002173Y010434*
X-002159Y010439*
X-002144Y010446*
X-002126Y010453*
X-002106Y010458*
X-002105*
X-002103Y010459*
X-0021Y01046*
X-002096Y010461*
X-00209Y010462*
X-002084Y010463*
X-002076Y010465*
X-002066Y010466*
X-002056Y010467*
X-002045Y010468*
X-002033Y010469*
X-00202Y010471*
X-002005Y010472*
X-001991*
X-001974Y010473*
X-001957*
X-001956*
X-001953*
X-001946*
X-001939*
X-001929Y010472*
G37*
G36*
Y009982D02*
X-001918D01*
X-001906Y009981*
X-001893Y00998*
X-001864Y009977*
X-001834Y009973*
X-001805Y009967*
X-001791Y009964*
X-001778Y009959*
X-001777*
X-001775Y009958*
X-001771Y009956*
X-001767Y009954*
X-00176Y009953*
X-001754Y009949*
X-001738Y009942*
X-001722Y009933*
X-001704Y009921*
X-001687Y009907*
X-001672Y009891*
Y00989*
X-00167Y009889*
X-001668Y009886*
X-001667Y009883*
X-001664Y009878*
X-00166Y009873*
X-001654Y00986*
X-001647Y009843*
X-001641Y009824*
X-001637Y009801*
X-001636Y009777*
Y009768*
Y009761*
X-001637Y009754*
X-001639Y009745*
X-001641Y009735*
X-001644Y009724*
X-001647Y009713*
X-001651Y009701*
X-001656Y009689*
X-001663Y009678*
X-00167Y009666*
X-001679Y009654*
X-001689Y009643*
X-0017Y009633*
X-001701Y009632*
X-001704Y00963*
X-001708Y009627*
X-001716Y009623*
X-001724Y009618*
X-001735Y009614*
X-001748Y009607*
X-001762Y009602*
X-001779Y009596*
X-001798Y009591*
X-001819Y009586*
X-001842Y009581*
X-001868Y009576*
X-001895Y009574*
X-001925Y009572*
X-001957Y009571*
X-001958*
X-001962*
X-001968*
X-001975*
X-001985Y009572*
X-001996*
X-002008Y009573*
X-002022Y009574*
X-00205Y009576*
X-00208Y009581*
X-00211Y009586*
X-002124Y00959*
X-002137Y009594*
X-002138*
X-00214Y009595*
X-002144Y009596*
X-002148Y009598*
X-002155Y0096*
X-002161Y009604*
X-002177Y009611*
X-002193Y00962*
X-00221Y009632*
X-002228Y009646*
X-002242Y009662*
Y009663*
X-002244Y009664*
X-002246Y009667*
X-002248Y00967*
X-002251Y009675*
X-002254Y00968*
X-002261Y009694*
X-002268Y00971*
X-002274Y009729*
X-002278Y009752*
X-00228Y009777*
Y009785*
X-002279Y009795*
X-002277Y009807*
X-002274Y009821*
X-002271Y009835*
X-002266Y009851*
X-002259Y009865*
Y009866*
X-002258Y009867*
X-002255Y009872*
X-00225Y009879*
X-002244Y009888*
X-002235Y009898*
X-002225Y009909*
X-002213Y009919*
X-002199Y009929*
X-002198Y00993*
X-002193Y009934*
X-002185Y009937*
X-002173Y009944*
X-002159Y009949*
X-002144Y009956*
X-002126Y009963*
X-002106Y009968*
X-002105*
X-002103Y009969*
X-0021Y00997*
X-002096Y009971*
X-00209Y009972*
X-002084Y009973*
X-002076Y009975*
X-002066*
X-002056Y009977*
X-002045Y009978*
X-002033Y009979*
X-00202Y009981*
X-002005Y009982*
X-001991*
X-001974Y009983*
X-001957*
X-001956*
X-001953*
X-001946*
X-001939*
X-001929Y009982*
G37*
G36*
X-001646Y00937D02*
X-001735D01*
Y009458*
X-001646*
Y00937*
G37*
G36*
Y008825D02*
X-001647D01*
X-001651*
X-001656*
X-001664Y008826*
X-001672Y008827*
X-001681Y008828*
X-00169Y00883*
X-0017Y008834*
X-001701*
X-001702Y008835*
X-001708Y008837*
X-001716Y00884*
X-001727Y008846*
X-001739Y008853*
X-001754Y008862*
X-001769Y008872*
X-001784Y008885*
X-001785*
X-001786Y008887*
X-001791Y008891*
X-0018Y0089*
X-001811Y008911*
X-001825Y008925*
X-001841Y008942*
X-00186Y008963*
X-001879Y008986*
X-00188Y008987*
X-001882Y008991*
X-001887Y008996*
X-001892Y009002*
X-0019Y009011*
X-001908Y009021*
X-001917Y009031*
X-001927Y009043*
X-001949Y009065*
X-001971Y009088*
X-001982Y009099*
X-001993Y009109*
X-002003Y009118*
X-002013Y009125*
X-002014*
X-002015Y009127*
X-002017Y009129*
X-002021Y009131*
X-002031Y009137*
X-002043Y009145*
X-002057Y009151*
X-002073Y009157*
X-00209Y009161*
X-002107Y009163*
X-002108*
X-002114Y009162*
X-002123Y009161*
X-002133Y009158*
X-002146Y009155*
X-002158Y009148*
X-002171Y00914*
X-002184Y009129*
X-002186Y009127*
X-002189Y009123*
X-002194Y009116*
X-0022Y009106*
X-002206Y009094*
X-002211Y009079*
X-002215Y009062*
X-002216Y009043*
Y009037*
X-002215Y009033*
X-002214Y009023*
X-002211Y00901*
X-002208Y008996*
X-002201Y008981*
X-002193Y008966*
X-002182Y008952*
X-00218Y008951*
X-002176Y008947*
X-002168Y008941*
X-002158Y008936*
X-002145Y00893*
X-002128Y008924*
X-00211Y00892*
X-002089Y008919*
X-002097Y008839*
X-002098*
X-002101Y00884*
X-002106*
X-002112Y008841*
X-002119Y008843*
X-002127Y008845*
X-002137Y008848*
X-002148Y00885*
X-002169Y008858*
X-002191Y008869*
X-002202Y008875*
X-002213Y008883*
X-002223Y008891*
X-002232Y0089*
X-002233Y008901*
X-002234Y008903*
X-002237Y008906*
X-00224Y00891*
X-002243Y008916*
X-002247Y008922*
X-002251Y00893*
X-002256Y008939*
X-00226Y008949*
X-002265Y00896*
X-002269Y008972*
X-002272Y008984*
X-002275Y008998*
X-002278Y009013*
X-002279Y009028*
X-00228Y009044*
Y009054*
X-002279Y00906*
X-002278Y009067*
X-002277Y009076*
X-002275Y009086*
X-002273Y009096*
X-002267Y00912*
X-002258Y009144*
X-002252Y009156*
X-002246Y009167*
X-002238Y009178*
X-002229Y009188*
X-002228Y009189*
X-002227Y009191*
X-002223Y009193*
X-002219Y009197*
X-002215Y009201*
X-002209Y009206*
X-002202Y00921*
X-002194Y009216*
X-002177Y009225*
X-002155Y009234*
X-002144Y009238*
X-002131Y009239*
X-002118Y009241*
X-002105Y009242*
X-002103*
X-002098*
X-002091Y009241*
X-002081Y00924*
X-00207Y009238*
X-002057Y009235*
X-002044Y009231*
X-00203Y009226*
X-002028Y009225*
X-002024Y009223*
X-002016Y009219*
X-002006Y009214*
X-001995Y009207*
X-001982Y009197*
X-001968Y009186*
X-001953Y009174*
X-001951Y009172*
X-001945Y009167*
X-001941Y009163*
X-001936Y009158*
X-001931Y009153*
X-001923Y009146*
X-001916Y009138*
X-001908Y009129*
X-001899Y00912*
X-001889Y009109*
X-001879Y009097*
X-001867Y009084*
X-001855Y00907*
X-001842Y009055*
X-001841Y009054*
X-00184Y009053*
X-001837Y009049*
X-001833Y009044*
X-001828Y009039*
X-001822Y009033*
X-00181Y009018*
X-001797Y009002*
X-001783Y008988*
X-001771Y008975*
X-001767Y00897*
X-001762Y008965*
X-001761Y008964*
X-001759Y008961*
X-001755Y008958*
X-001749Y008953*
X-001743Y008949*
X-001737Y008943*
X-001721Y008932*
Y009243*
X-001646*
Y008825*
G37*
G36*
X-001845Y008763D02*
X-001838Y008762D01*
X-00183Y008761*
X-00182Y008759*
X-00181Y008757*
X-001786Y008752*
X-001761Y008743*
X-001749Y008737*
X-001737Y00873*
X-001724Y008723*
X-001712Y008714*
X-001711Y008713*
X-001708Y008711*
X-001705Y008707*
X-0017Y008703*
X-001695Y008696*
X-001687Y008689*
X-001681Y00868*
X-001674Y00867*
X-001667Y008659*
X-00166Y008646*
X-001654Y008633*
X-001647Y008618*
X-001643Y008603*
X-001639Y008585*
X-001636Y008567*
Y008548*
Y00854*
Y008533*
X-001637Y008526*
X-001638Y008518*
X-001639Y008508*
X-001642Y008498*
X-001647Y008475*
X-001656Y008452*
X-001661Y00844*
X-001667Y008429*
X-001675Y008418*
X-001683Y008407*
X-001684Y008406*
X-001685Y008404*
X-001688Y008402*
X-001692Y008398*
X-001697Y008394*
X-001702Y008389*
X-001709Y008384*
X-001718Y008379*
X-001726Y008374*
X-001736Y008368*
X-001758Y008358*
X-001783Y00835*
X-001797Y008347*
X-001811Y008346*
X-001818Y008427*
X-001817*
X-001815*
X-001812Y008428*
X-001808Y008429*
X-001798Y008431*
X-001784Y008435*
X-00177Y00844*
X-001755Y008448*
X-001741Y008457*
X-001728Y008468*
Y00847*
X-001724Y008473*
X-001719Y00848*
X-001714Y00849*
X-001708Y008501*
X-001704Y008515*
X-0017Y008531*
X-001699Y008548*
Y008553*
X-0017Y008557*
X-001701Y008568*
X-001705Y008581*
X-001709Y008596*
X-001717Y008612*
X-001728Y008628*
X-001734Y008635*
X-001741Y008643*
X-001742Y008644*
X-001743*
X-001746Y008646*
X-001749Y008649*
X-001759Y008655*
X-001771Y008663*
X-001787Y008669*
X-001806Y008675*
X-001829Y00868*
X-001841Y008682*
X-001853*
X-001854*
X-001856*
X-00186*
X-001864Y008681*
X-00187*
X-001876Y00868*
X-001891Y008677*
X-001908Y008673*
X-001925Y008666*
X-001942Y008657*
X-001957Y008644*
X-001958*
X-001959Y008643*
X-001963Y008638*
X-00197Y00863*
X-001977Y008619*
X-001984Y008604*
X-00199Y008588*
X-001994Y008569*
X-001996Y008558*
Y008541*
X-001995Y008533*
X-001994Y008524*
X-001992Y008513*
X-001989Y008502*
X-001984Y00849*
X-001979Y008479*
X-001978Y008478*
X-001976Y008474*
X-001972Y008469*
X-001967Y008461*
X-001961Y008454*
X-001953Y008447*
X-001944Y008439*
X-001934Y008432*
X-001944Y008359*
X-002269Y00842*
Y008734*
X-002195*
Y008481*
X-002025Y008448*
Y008449*
X-002026Y00845*
X-002028Y008453*
X-002031Y008458*
X-002034Y008463*
X-002037Y00847*
X-002045Y008484*
X-002052Y008502*
X-002058Y008522*
X-002063Y008544*
X-002065Y008555*
Y008575*
X-002064Y008581*
X-002063Y008588*
X-002062Y008596*
X-00206Y008605*
X-002057Y008615*
X-002051Y008637*
X-002046Y008649*
X-00204Y008661*
X-002034Y008673*
X-002026Y008685*
X-002017Y008695*
X-002007Y008706*
X-002006Y008707*
X-002004Y008709*
X-002002Y008712*
X-001997Y008716*
X-001991Y00872*
X-001984Y008725*
X-001976Y00873*
X-001967Y008736*
X-001957Y00874*
X-001946Y008746*
X-001933Y00875*
X-001921Y008755*
X-001907Y008758*
X-001892Y008761*
X-001876Y008763*
X-00186Y008764*
X-001859*
X-001856*
X-001851*
X-001845Y008763*
G37*
G36*
X-002613Y022509D02*
X-0029D01*
X-002901*
X-002907*
X-002915*
X-002925Y022508*
X-002936*
X-002947Y022507*
X-002958Y022505*
X-002966Y022502*
X-002967*
X-00297Y0225*
X-002973Y022498*
X-002978Y022496*
X-002983Y022492*
X-002989Y022487*
X-002994Y022482*
X-003Y022475*
X-003001Y022474*
X-003002Y022471*
X-003003Y022467*
X-003006Y022461*
X-003009Y022455*
X-003011Y022446*
X-003012Y022438*
X-003013Y022428*
Y022424*
X-003012Y02242*
X-003011Y022411*
X-003009Y0224*
X-003004Y022387*
X-002999Y022374*
X-002991Y02236*
X-00298Y022347*
X-002978Y022346*
X-002973Y022343*
X-002966Y022337*
X-002955Y022332*
X-002941Y022325*
X-002923Y022321*
X-002902Y022317*
X-002878Y022315*
X-002613*
Y022238*
X-002909*
X-00291*
X-002911*
X-002913*
X-002917*
X-002927Y022237*
X-002938Y022235*
X-002951Y022233*
X-002963Y02223*
X-002975Y022225*
X-002986Y022219*
X-002987Y022218*
X-002991Y022215*
X-002994Y022211*
X-003Y022204*
X-003004Y022196*
X-003009Y022185*
X-003012Y022172*
X-003013Y022157*
Y022151*
X-003012Y022145*
X-003011Y022138*
X-003008Y022129*
X-003005Y022118*
X-003001Y022108*
X-002995Y022097*
X-002994Y022096*
X-002992Y022092*
X-002988Y022088*
X-002982Y022081*
X-002975Y022075*
X-002966Y022068*
X-002956Y022062*
X-002944Y022057*
X-002942Y022056*
X-002938Y022055*
X-002931Y022053*
X-002921Y02205*
X-002907Y022047*
X-00289Y022046*
X-002871Y022045*
X-002849Y022044*
X-002613*
Y021966*
X-00307*
Y022036*
X-003004*
X-003006Y022037*
X-00301Y022039*
X-003016Y022045*
X-003023Y022051*
X-003033Y022059*
X-003042Y022069*
X-003051Y02208*
X-003059Y022093*
X-00306Y022095*
X-003063Y022099*
X-003065Y022107*
X-00307Y022117*
X-003074Y022129*
X-003076Y022142*
X-003079Y022158*
X-00308Y022174*
Y022182*
X-003079Y022192*
X-003077Y022203*
X-003074Y022217*
X-003071Y022231*
X-003065Y022244*
X-003058Y022257*
X-003057Y022259*
X-003054Y022262*
X-00305Y022268*
X-003043Y022275*
X-003034Y022283*
X-003024Y022291*
X-003013Y022298*
X-002999Y022303*
X-003Y022304*
X-003002Y022306*
X-003006Y022309*
X-003012Y022313*
X-003018Y022319*
X-003024Y022325*
X-003032Y022333*
X-00304Y022342*
X-003047Y022352*
X-003054Y022362*
X-003061Y022374*
X-003067Y022386*
X-003073Y0224*
X-003076Y022415*
X-003079Y022429*
X-00308Y022446*
Y022452*
X-003079Y022457*
Y022463*
X-003078Y022469*
X-003075Y022485*
X-003071Y022501*
X-003064Y022518*
X-003054Y022536*
X-003042Y02255*
X-00304Y022552*
X-003034Y022556*
X-003026Y022562*
X-00302Y022565*
X-003013Y022569*
X-003005Y022572*
X-002997Y022575*
X-002988Y022579*
X-002977Y022581*
X-002966Y022583*
X-002953Y022585*
X-002941Y022587*
X-002926*
X-002613*
Y022509*
G37*
G36*
Y021775D02*
X-0029D01*
X-002901*
X-002907*
X-002915*
X-002925Y021774*
X-002936Y021773*
X-002947Y021772*
X-002958Y021771*
X-002966Y021768*
X-002967*
X-00297Y021766*
X-002973Y021764*
X-002978Y021761*
X-002983Y021758*
X-002989Y021753*
X-002994Y021748*
X-003Y02174*
X-003001*
X-003002Y021737*
X-003003Y021733*
X-003006Y021727*
X-003009Y02172*
X-003011Y021712*
X-003012Y021704*
X-003013Y021694*
Y021689*
X-003012Y021686*
X-003011Y021677*
X-003009Y021666*
X-003004Y021653*
X-002999Y021639*
X-002991Y021626*
X-00298Y021613*
X-002978Y021612*
X-002973Y021608*
X-002966Y021603*
X-002955Y021597*
X-002941Y021591*
X-002923Y021587*
X-002902Y021583*
X-002878Y021581*
X-002613*
Y021504*
X-002909*
X-00291*
X-002911*
X-002913*
X-002917*
X-002927Y021503*
X-002938Y021501*
X-002951Y021499*
X-002963Y021495*
X-002975Y021491*
X-002986Y021484*
X-002987*
X-002991Y021481*
X-002994Y021476*
X-003Y02147*
X-003004Y021462*
X-003009Y021451*
X-003012Y021438*
X-003013Y021423*
Y021417*
X-003012Y021411*
X-003011Y021403*
X-003008Y021394*
X-003005Y021383*
X-003001Y021373*
X-002995Y021362*
X-002994Y021361*
X-002992Y021358*
X-002988Y021353*
X-002982Y021347*
X-002975Y021341*
X-002966Y021334*
X-002956Y021328*
X-002944Y021322*
X-002942Y021321*
X-002938*
X-002931Y021319*
X-002921Y021316*
X-002907Y021313*
X-00289Y021311*
X-002871Y02131*
X-002849*
X-002613*
Y021232*
X-00307*
Y021301*
X-003004*
X-003006Y021302*
X-00301Y021305*
X-003016Y02131*
X-003023Y021317*
X-003033Y021325*
X-003042Y021335*
X-003051Y021346*
X-003059Y021359*
X-00306Y021361*
X-003063Y021365*
X-003065Y021372*
X-00307Y021382*
X-003074Y021394*
X-003076Y021408*
X-003079Y021423*
X-00308Y02144*
Y021448*
X-003079Y021458*
X-003077Y021469*
X-003074Y021483*
X-003071Y021496*
X-003065Y02151*
X-003058Y021523*
X-003057Y021525*
X-003054Y021528*
X-00305Y021534*
X-003043Y021541*
X-003034Y021548*
X-003024Y021556*
X-003013Y021564*
X-002999Y021569*
X-003Y02157*
X-003002Y021572*
X-003006Y021575*
X-003012Y021579*
X-003018Y021585*
X-003024Y021591*
X-003032Y021598*
X-00304Y021607*
X-003047Y021617*
X-003054Y021628*
X-003061Y021639*
X-003067Y021652*
X-003073Y021666*
X-003076Y02168*
X-003079Y021695*
X-00308Y021711*
Y021718*
X-003079Y021722*
Y021729*
X-003078Y021735*
X-003075Y02175*
X-003071Y021767*
X-003064Y021784*
X-003054Y021802*
X-003042Y021816*
X-00304Y021818*
X-003034Y021822*
X-003026Y021828*
X-00302Y021831*
X-003013Y021834*
X-003005Y021838*
X-002997Y021841*
X-002988Y021844*
X-002977Y021847*
X-002966Y021849*
X-002953Y021851*
X-002941Y021853*
X-002926*
X-002613*
Y021775*
G37*
G36*
X-002895Y021132D02*
X-002884D01*
X-002872Y021131*
X-002859Y02113*
X-00283Y021127*
X-0028Y021123*
X-002771Y021117*
X-002757Y021114*
X-002744Y021109*
X-002743*
X-002741Y021108*
X-002737Y021106*
X-002733Y021105*
X-002726Y021103*
X-00272Y021099*
X-002705Y021092*
X-002688Y021083*
X-00267Y021071*
X-002654Y021057*
X-002638Y021041*
Y02104*
X-002636Y021039*
X-002634Y021036*
X-002633Y021033*
X-00263Y021028*
X-002626Y021024*
X-00262Y02101*
X-002613Y020993*
X-002607Y020974*
X-002603Y020952*
X-002602Y020927*
Y020918*
X-002603Y020911*
Y020904*
X-002605Y020895*
X-002607Y020885*
X-00261Y020874*
X-002613Y020863*
X-002617Y020851*
X-002623Y020839*
X-002629Y020828*
X-002636Y020816*
X-002645Y020804*
X-002655Y020793*
X-002666Y020783*
X-002667Y020782*
X-00267Y02078*
X-002675Y020778*
X-002682Y020773*
X-00269Y020768*
X-002701Y020764*
X-002714Y020758*
X-002728Y020752*
X-002745Y020747*
X-002764Y020741*
X-002785Y020736*
X-002808Y020731*
X-002834Y020727*
X-002861Y020724*
X-002891Y020722*
X-002923Y020721*
X-002924*
X-002928*
X-002934*
X-002941*
X-002951Y020722*
X-002962*
X-002974Y020723*
X-002988Y020724*
X-003016Y020727*
X-003046Y020731*
X-003076Y020737*
X-00309Y02074*
X-003104Y020744*
X-003105*
X-003106Y020745*
X-00311Y020747*
X-003115Y020748*
X-003121Y02075*
X-003127Y020754*
X-003143Y020761*
X-003159Y02077*
X-003176Y020782*
X-003194Y020796*
X-003208Y020812*
Y020813*
X-00321Y020814*
X-003212Y020817*
X-003214Y02082*
X-003217Y020825*
X-00322Y02083*
X-003228Y020844*
X-003234Y02086*
X-00324Y02088*
X-003244Y020902*
X-003246Y020927*
Y020935*
X-003245Y020945*
X-003243Y020957*
X-00324Y020971*
X-003237Y020985*
X-003232Y021001*
X-003225Y021015*
Y021016*
X-003224Y021017*
X-003221Y021022*
X-003217Y021029*
X-00321Y021038*
X-003201Y021048*
X-003191Y021059*
X-003179Y021069*
X-003166Y021079*
X-003164Y02108*
X-003159Y021084*
X-003151Y021087*
X-003139Y021094*
X-003125Y021099*
X-00311Y021106*
X-003092Y021113*
X-003072Y021118*
X-003071*
X-003069Y021119*
X-003066Y02112*
X-003062Y021121*
X-003056Y021122*
X-00305Y021123*
X-003042Y021125*
X-003033Y021126*
X-003023Y021127*
X-003012Y021128*
X-002999Y021129*
X-002986Y021131*
X-002972Y021132*
X-002957*
X-002941Y021133*
X-002923*
X-002922*
X-002919*
X-002912*
X-002905*
X-002895Y021132*
G37*
G36*
X-002764Y020556D02*
X-002613D01*
Y020479*
X-002764*
Y020205*
X-002835*
X-003243Y020493*
Y020556*
X-002835*
Y020642*
X-002764*
Y020556*
G37*
G36*
X-002613Y02003D02*
X-002701D01*
Y020118*
X-002613*
Y02003*
G37*
G36*
X-002785Y019908D02*
X-002777D01*
X-002769Y019906*
X-00276Y019904*
X-00275Y019902*
X-002728Y019895*
X-002716Y019889*
X-002706Y019884*
X-002694Y019877*
X-002682Y019868*
X-00267Y019859*
X-002659Y019848*
X-002658Y019847*
X-002656Y019846*
X-002654Y019842*
X-00265Y019837*
X-002645Y019832*
X-002641Y019825*
X-002635Y019816*
X-002631Y019806*
X-002625Y019796*
X-00262Y019785*
X-002615Y019773*
X-002611Y019759*
X-002607Y019744*
X-002604Y019729*
X-002603Y019713*
X-002602Y019696*
Y019688*
X-002603Y019683*
Y019675*
X-002604Y019667*
X-002606Y019658*
X-002608Y019648*
X-002613Y019626*
X-002623Y019603*
X-002628Y019591*
X-002634Y01958*
X-002643Y01957*
X-002651Y019559*
X-002652Y019558*
X-002654Y019556*
X-002656Y019553*
X-00266Y01955*
X-002665Y019546*
X-002671Y019541*
X-002677Y019536*
X-002685Y01953*
X-002695Y019525*
X-002704Y019519*
X-002726Y019509*
X-002751Y019501*
X-002765Y019498*
X-002779Y019497*
X-002789Y019574*
X-002788*
X-002787Y019575*
X-002783Y019576*
X-002778Y019577*
X-002773Y019578*
X-002767Y01958*
X-002753Y019584*
X-002736Y019591*
X-002721Y019599*
X-002706Y019608*
X-002694Y019619*
X-002693Y019621*
X-002689Y019624*
X-002685Y019632*
X-00268Y019641*
X-002675Y019652*
X-00267Y019665*
X-002666Y019681*
X-002665Y019697*
Y019703*
X-002666Y019706*
X-002667Y019716*
X-00267Y019729*
X-002675Y019744*
X-002681Y019759*
X-00269Y019775*
X-002703Y019789*
X-002705Y019791*
X-00271Y019795*
X-002718Y019801*
X-002729Y019808*
X-002743Y019816*
X-002758Y019821*
X-002777Y019826*
X-002797Y019827*
X-002798*
X-002799*
X-002802*
X-002806Y019826*
X-002816*
X-002828Y019823*
X-002842Y019819*
X-002857Y019813*
X-002871Y019804*
X-002885Y019792*
X-002887Y01979*
X-00289Y019785*
X-002896Y019778*
X-002902Y019768*
X-002909Y019755*
X-002914Y01974*
X-002918Y019723*
X-00292Y019703*
Y019695*
X-002919Y019689*
X-002918Y019681*
X-002916Y019672*
X-002914Y019661*
X-002911Y019649*
X-00298Y019658*
Y019662*
X-002979Y019666*
Y019678*
X-002981Y019688*
X-002982Y0197*
X-002985Y019713*
X-00299Y019729*
X-002996Y019744*
X-003004Y019759*
Y01976*
X-003005Y019761*
X-003009Y019765*
X-003015Y019772*
X-003023Y019779*
X-003035Y019786*
X-003049Y019793*
X-003064Y019797*
X-003074Y019799*
X-003084*
X-003085*
X-003091*
X-003098Y019797*
X-003108Y019795*
X-003119Y019792*
X-003131Y019787*
X-003143Y01978*
X-003154Y01977*
X-003155Y019769*
X-003158Y019765*
X-003163Y019758*
X-003168Y01975*
X-003173Y019739*
X-003177Y019726*
X-003181Y019712*
X-003182Y019695*
Y019688*
X-00318Y01968*
X-003178Y019669*
X-003175Y019657*
X-00317Y019645*
X-003163Y019632*
X-003154Y019621*
X-003153Y01962*
X-003148Y019616*
X-003142Y019611*
X-003133Y019604*
X-003121Y019598*
X-003106Y019591*
X-003089Y019586*
X-003069Y019582*
X-003083Y019505*
X-003084*
X-003086Y019506*
X-00309Y019507*
X-003095Y019508*
X-003102Y019509*
X-003109Y019512*
X-003126Y019518*
X-003146Y019527*
X-003166Y019538*
X-003186Y019551*
X-003203Y019569*
X-003204Y01957*
X-003205Y019571*
X-003207Y019574*
X-003209Y019578*
X-003213Y019582*
X-003217Y019589*
X-00322Y019595*
X-003225Y019603*
X-003232Y019621*
X-003239Y019642*
X-003244Y019667*
X-003246Y01968*
Y019703*
X-003245Y019713*
X-003243Y019724*
X-00324Y019739*
X-003236Y019755*
X-00323Y019772*
X-003223Y019788*
Y019789*
X-003222Y01979*
X-003219Y019795*
X-003214Y019804*
X-003207Y019813*
X-003198Y019824*
X-003188Y019835*
X-003176Y019846*
X-003163Y019855*
X-003161Y019856*
X-003156Y019858*
X-003148Y019862*
X-003138Y019867*
X-003126Y019871*
X-003113Y019875*
X-003097Y019877*
X-003082Y019878*
X-00308*
X-003074*
X-003067Y019877*
X-003057Y019876*
X-003045Y019873*
X-003033Y019868*
X-00302Y019863*
X-003007Y019856*
X-003005Y019855*
X-003002Y019852*
X-002995Y019847*
X-002988Y019839*
X-00298Y01983*
X-002971Y019819*
X-002962Y019806*
X-002954Y019791*
Y019792*
X-002953Y019794*
X-002952Y019796*
X-002951Y0198*
X-002948Y01981*
X-002942Y019823*
X-002935Y019837*
X-002926Y019852*
X-002914Y019866*
X-0029Y019878*
X-002899Y019879*
X-002893Y019883*
X-002884Y019888*
X-002872Y019894*
X-002858Y019899*
X-00284Y019905*
X-00282Y019908*
X-002798Y019909*
X-002795*
X-00279*
X-002785Y019908*
G37*
G36*
X010418Y-001352D02*
X010424D01*
X010431Y-001353*
X010446Y-001355*
X010463Y-00136*
X01048Y-001367*
X010497Y-001376*
X010512Y-001389*
X010514Y-001391*
X010517Y-001396*
X010524Y-001405*
X010527Y-001411*
X01053Y-001417*
X010534Y-001425*
X010537Y-001434*
X01054Y-001443*
X010543Y-001454*
X010545Y-001465*
X010547Y-001477*
X010548Y-00149*
Y-001505*
Y-001818*
X010471*
Y-001531*
Y-00153*
Y-001529*
Y-001524*
Y-001516*
X01047Y-001506*
X010469Y-001495*
X010468Y-001484*
X010466Y-001473*
X010464Y-001465*
Y-001464*
X010462Y-001461*
X01046Y-001457*
X010457Y-001453*
X010454Y-001447*
X010449Y-001442*
X010444Y-001436*
X010436Y-001431*
X010435Y-00143*
X010433Y-001429*
X010429Y-001427*
X010423Y-001425*
X010416Y-001422*
X010408Y-00142*
X0104Y-001419*
X01039Y-001418*
X010385*
X010382Y-001419*
X010373Y-00142*
X010362Y-001422*
X010349Y-001426*
X010335Y-001432*
X010322Y-00144*
X010309Y-001451*
X010308Y-001453*
X010304Y-001457*
X010299Y-001465*
X010293Y-001476*
X010287Y-00149*
X010282Y-001507*
X010279Y-001528*
X010277Y-001553*
Y-001818*
X010199*
Y-001522*
Y-001521*
Y-001519*
Y-001517*
Y-001514*
Y-001504*
X010197Y-001493*
X010195Y-00148*
X010191Y-001467*
X010187Y-001456*
X01018Y-001445*
X010179Y-001444*
X010177Y-00144*
X010172Y-001436*
X010166Y-001431*
X010158Y-001426*
X010147Y-001422*
X010134Y-001419*
X010118Y-001418*
X010113*
X010107Y-001419*
X010099Y-00142*
X01009Y-001423*
X010079Y-001425*
X010069Y-00143*
X010058Y-001435*
X010057Y-001436*
X010054Y-001439*
X010049Y-001443*
X010043Y-001448*
X010036Y-001456*
X01003Y-001465*
X010024Y-001475*
X010018Y-001487*
X010017Y-001488*
X010016Y-001493*
X010015Y-0015*
X010012Y-00151*
X010009Y-001524*
X010007Y-00154*
X010006Y-001559*
X010005Y-001581*
Y-001818*
X009928*
Y-001361*
X009997*
Y-001426*
X009998Y-001425*
X010001Y-001421*
X010006Y-001415*
X010013Y-001407*
X010021Y-001398*
X010031Y-001389*
X010042Y-00138*
X010055Y-001372*
X010056Y-001371*
X010061Y-001368*
X010068Y-001365*
X010078Y-001361*
X01009Y-001357*
X010104Y-001354*
X010119Y-001352*
X010136Y-001351*
X010144*
X010154Y-001352*
X010165Y-001353*
X010179Y-001356*
X010192Y-00136*
X010206Y-001365*
X010219Y-001373*
X01022Y-001374*
X010224Y-001376*
X01023Y-001381*
X010237Y-001388*
X010244Y-001396*
X010252Y-001406*
X01026Y-001418*
X010265Y-001432*
X010266Y-001431*
X010268Y-001428*
X010271Y-001425*
X010275Y-001419*
X010281Y-001413*
X010287Y-001406*
X010294Y-001399*
X010303Y-001391*
X010313Y-001384*
X010323Y-001376*
X010335Y-00137*
X010348Y-001364*
X010362Y-001358*
X010376Y-001354*
X010391Y-001352*
X010407Y-001351*
X010414*
X010418Y-001352*
G37*
G36*
X009684D02*
X00969D01*
X009697Y-001353*
X009712Y-001355*
X009728Y-00136*
X009746Y-001367*
X009763Y-001376*
X009778Y-001389*
X009779Y-001391*
X009783Y-001396*
X00979Y-001405*
X009792Y-001411*
X009796Y-001417*
X0098Y-001425*
X009802Y-001434*
X009806Y-001443*
X009809Y-001454*
X00981Y-001465*
X009812Y-001477*
X009814Y-00149*
Y-001505*
Y-001818*
X009737*
Y-001531*
Y-00153*
Y-001529*
Y-001524*
Y-001516*
X009736Y-001506*
X009735Y-001495*
X009734Y-001484*
X009732Y-001473*
X009729Y-001465*
Y-001464*
X009728Y-001461*
X009726Y-001457*
X009723Y-001453*
X009719Y-001447*
X009715Y-001442*
X009709Y-001436*
X009702Y-001431*
X009701Y-00143*
X009698Y-001429*
X009695Y-001427*
X009688Y-001425*
X009682Y-001422*
X009674Y-00142*
X009666Y-001419*
X009656Y-001418*
X009651*
X009647Y-001419*
X009638Y-00142*
X009627Y-001422*
X009615Y-001426*
X009601Y-001432*
X009587Y-00144*
X009575Y-001451*
X009574Y-001453*
X00957Y-001457*
X009564Y-001465*
X009559Y-001476*
X009553Y-00149*
X009548Y-001507*
X009544Y-001528*
X009543Y-001553*
Y-001818*
X009465*
Y-001522*
Y-001521*
Y-001519*
Y-001517*
Y-001514*
X009464Y-001504*
X009462Y-001493*
X009461Y-00148*
X009457Y-001467*
X009452Y-001456*
X009446Y-001445*
X009445Y-001444*
X009442Y-00144*
X009438Y-001436*
X009431Y-001431*
X009423Y-001426*
X009412Y-001422*
X0094Y-001419*
X009384Y-001418*
X009379*
X009372Y-001419*
X009365Y-00142*
X009356Y-001423*
X009345Y-001425*
X009335Y-00143*
X009324Y-001435*
X009323Y-001436*
X009319Y-001439*
X009315Y-001443*
X009309Y-001448*
X009302Y-001456*
X009296Y-001465*
X009289Y-001475*
X009284Y-001487*
X009283Y-001488*
X009282Y-001493*
X00928Y-0015*
X009278Y-00151*
X009275Y-001524*
X009273Y-00154*
X009272Y-001559*
X009271Y-001581*
Y-001818*
X009194*
Y-001361*
X009263*
Y-001426*
X009264Y-001425*
X009267Y-001421*
X009272Y-001415*
X009278Y-001407*
X009287Y-001398*
X009297Y-001389*
X009308Y-00138*
X00932Y-001372*
X009322Y-001371*
X009327Y-001368*
X009334Y-001365*
X009344Y-001361*
X009356Y-001357*
X00937Y-001354*
X009385Y-001352*
X009401Y-001351*
X00941*
X00942Y-001352*
X009431Y-001353*
X009444Y-001356*
X009458Y-00136*
X009472Y-001365*
X009484Y-001373*
X009486Y-001374*
X00949Y-001376*
X009495Y-001381*
X009503Y-001388*
X00951Y-001396*
X009518Y-001406*
X009525Y-001418*
X009531Y-001432*
X009532Y-001431*
X009534Y-001428*
X009536Y-001425*
X009541Y-001419*
X009546Y-001413*
X009553Y-001406*
X00956Y-001399*
X009569Y-001391*
X009579Y-001384*
X009589Y-001376*
X009601Y-00137*
X009614Y-001364*
X009627Y-001358*
X009642Y-001354*
X009657Y-001352*
X009673Y-001351*
X009679*
X009684Y-001352*
G37*
G36*
X007184Y-001186D02*
X007196Y-001188D01*
X00721Y-00119*
X007227Y-001195*
X007243Y-0012*
X00726Y-001208*
X007261*
Y-001209*
X007267Y-001211*
X007275Y-001217*
X007284Y-001223*
X007295Y-001232*
X007306Y-001242*
X007317Y-001254*
X007326Y-001268*
X007327Y-00127*
X00733Y-001274*
X007333Y-001282*
X007338Y-001292*
X007343Y-001304*
X007346Y-001318*
X007349Y-001333*
X00735Y-001349*
Y-001351*
Y-001356*
X007349Y-001364*
X007347Y-001374*
X007344Y-001385*
X00734Y-001398*
X007334Y-001411*
X007327Y-001424*
X007326Y-001425*
X007323Y-001429*
X007318Y-001435*
X007311Y-001443*
X007302Y-001451*
X007291Y-00146*
X007278Y-001468*
X007262Y-001476*
X007263*
X007265Y-001477*
X007268Y-001478*
X007272Y-001479*
X007282Y-001483*
X007294Y-001488*
X007309Y-001496*
X007323Y-001505*
X007337Y-001517*
X00735Y-00153*
X007351Y-001532*
X007354Y-001538*
X00736Y-001547*
X007365Y-001558*
X007371Y-001573*
X007376Y-00159*
X00738Y-00161*
X007381Y-001632*
Y-001633*
Y-001636*
Y-00164*
X00738Y-001646*
X007379Y-001653*
X007377Y-001661*
X007375Y-001671*
X007374Y-001681*
X007366Y-001702*
X007361Y-001714*
X007355Y-001725*
X007348Y-001737*
X00734Y-001749*
X007331Y-001761*
X00732Y-001772*
X007319Y-001773*
X007317Y-001774*
X007313Y-001777*
X007309Y-001781*
X007303Y-001785*
X007296Y-00179*
X007288Y-001795*
X007278Y-0018*
X007268Y-001805*
X007256Y-001811*
X007244Y-001815*
X007231Y-00182*
X007216Y-001824*
X0072Y-001826*
X007185Y-001828*
X007168Y-001829*
X007159*
X007154Y-001828*
X007147Y-001827*
X007139Y-001826*
X007129Y-001824*
X007119Y-001823*
X007098Y-001817*
X007075Y-001808*
X007063Y-001803*
X007052Y-001796*
X007041Y-001788*
X00703Y-00178*
X007029Y-001779*
X007027Y-001777*
X007025Y-001774*
X007022Y-001771*
X007017Y-001766*
X007013Y-00176*
X007007Y-001753*
X007002Y-001745*
X006996Y-001736*
X006991Y-001727*
X006981Y-001705*
X006973Y-00168*
X00697Y-001666*
X006968Y-001651*
X007046Y-001641*
Y-001642*
Y-001644*
X007047Y-001648*
X007048Y-001652*
X007049Y-001658*
X007051Y-001664*
X007056Y-001678*
X007062Y-001694*
X00707Y-00171*
X007079Y-001724*
X00709Y-001737*
X007092Y-001738*
X007096Y-001742*
X007103Y-001746*
X007112Y-001751*
X007123Y-001756*
X007137Y-001761*
X007152Y-001764*
X007169Y-001765*
X007174*
X007178Y-001764*
X007188Y-001763*
X0072Y-001761*
X007215Y-001756*
X007231Y-00175*
X007246Y-001741*
X007261Y-001728*
X007262Y-001726*
X007267Y-001721*
X007272Y-001712*
X00728Y-001701*
X007287Y-001688*
X007292Y-001672*
X007297Y-001654*
X007299Y-001634*
Y-001633*
Y-001631*
Y-001629*
X007298Y-001625*
X007297Y-001615*
X007294Y-001603*
X007291Y-001589*
X007284Y-001574*
X007275Y-001559*
X007263Y-001546*
X007261Y-001544*
X007257Y-00154*
X00725Y-001535*
X00724Y-001528*
X007227Y-001522*
X007211Y-001517*
X007194Y-001513*
X007175Y-001511*
X007167*
X00716Y-001512*
X007152Y-001513*
X007143Y-001515*
X007132Y-001517*
X00712Y-001519*
X007129Y-001451*
X007134*
X007138Y-001452*
X007149*
X007159Y-00145*
X007171Y-001448*
X007185Y-001445*
X0072Y-001441*
X007215Y-001435*
X007231Y-001426*
X007232Y-001425*
X007237Y-001422*
X007243Y-001415*
X007251Y-001407*
X007258Y-001395*
X007264Y-001382*
X007269Y-001366*
X007271Y-001357*
Y-001347*
Y-001346*
Y-001345*
Y-00134*
X007269Y-001333*
X007267Y-001323*
X007263Y-001312*
X007259Y-0013*
X007251Y-001288*
X007241Y-001277*
Y-001276*
X007236Y-001272*
X00723Y-001268*
X007221Y-001262*
X00721Y-001258*
X007198Y-001253*
X007183Y-00125*
X007167Y-001249*
X007159*
X007151Y-001251*
X00714Y-001252*
X007128Y-001256*
X007117Y-001261*
X007104Y-001268*
X007092Y-001277*
X007091Y-001278*
X007087Y-001282*
X007082Y-001289*
X007076Y-001298*
X007069Y-00131*
X007063Y-001324*
X007057Y-001342*
X007054Y-001362*
X006976Y-001348*
Y-001347*
X006977Y-001344*
X006978Y-001341*
X006979Y-001335*
X006981Y-001329*
X006984Y-001322*
X006989Y-001304*
X006998Y-001284*
X007009Y-001264*
X007023Y-001245*
X00704Y-001228*
X007041Y-001227*
X007043Y-001226*
X007046Y-001224*
X007049Y-001221*
X007054Y-001218*
X00706Y-001214*
X007067Y-00121*
X007075Y-001206*
X007093Y-001199*
X007114Y-001191*
X007139Y-001187*
X007151Y-001185*
X007174*
X007184Y-001186*
G37*
G36*
X008417D02*
X008424Y-001187D01*
X008433Y-001188*
X008443Y-00119*
X008453Y-001191*
X008477Y-001198*
X0085Y-001207*
X008512Y-001212*
X008524Y-001219*
X008535Y-001227*
X008545Y-001236*
X008546Y-001237*
X008548Y-001238*
X00855Y-001241*
X008553Y-001245*
X008558Y-00125*
X008562Y-001256*
X008567Y-001262*
X008572Y-001271*
X008582Y-001288*
X008591Y-00131*
X008594Y-001321*
X008596Y-001333*
X008598Y-001346*
X008599Y-00136*
Y-001362*
Y-001366*
X008598Y-001374*
X008597Y-001384*
X008595Y-001394*
X008592Y-001407*
X008588Y-001421*
X008582Y-001435*
Y-001436*
X00858Y-001441*
X008576Y-001448*
X008571Y-001458*
X008563Y-001469*
X008554Y-001483*
X008543Y-001497*
X008531Y-001512*
X008529Y-001514*
X008524Y-001519*
X00852Y-001524*
X008515Y-001528*
X00851Y-001534*
X008502Y-001541*
X008495Y-001548*
X008486Y-001557*
X008477Y-001566*
X008466Y-001576*
X008454Y-001586*
X008441Y-001598*
X008427Y-001609*
X008412Y-001622*
X008411Y-001623*
X008409Y-001625*
X008406Y-001628*
X008401Y-001631*
X008396Y-001637*
X008389Y-001642*
X008375Y-001654*
X008359Y-001668*
X008345Y-001681*
X008332Y-001693*
X008326Y-001698*
X008322Y-001702*
X008321Y-001703*
X008318Y-001706*
X008315Y-00171*
X00831Y-001715*
X008306Y-001722*
X0083Y-001728*
X008289Y-001743*
X0086*
Y-001818*
X008182*
Y-001817*
Y-001814*
Y-001808*
X008183Y-001801*
Y-001793*
X008185Y-001783*
X008187Y-001774*
X008191Y-001764*
Y-001763*
X008192*
X008193Y-001757*
X008197Y-001749*
X008203Y-001738*
X00821Y-001725*
X008219Y-001711*
X008229Y-001696*
X008242Y-001681*
Y-00168*
X008244Y-001679*
X008248Y-001673*
X008256Y-001665*
X008268Y-001653*
X008282Y-00164*
X008299Y-001623*
X00832Y-001605*
X008343Y-001586*
X008344Y-001585*
X008347Y-001582*
X008353Y-001578*
X008359Y-001572*
X008367Y-001565*
X008377Y-001557*
X008387Y-001548*
X008399Y-001538*
X008422Y-001516*
X008445Y-001494*
X008456Y-001483*
X008466Y-001472*
X008475Y-001462*
X008482Y-001452*
Y-001451*
X008484Y-00145*
X008486Y-001447*
X008488Y-001444*
X008494Y-001434*
X008501Y-001422*
X008508Y-001407*
X008514Y-001392*
X008518Y-001374*
X00852Y-001358*
Y-001357*
Y-001356*
X008519Y-001351*
X008518Y-001342*
X008515Y-001332*
X008511Y-001319*
X008505Y-001306*
X008497Y-001293*
X008486Y-001281*
X008484Y-001279*
X008479Y-001275*
X008473Y-001271*
X008463Y-001264*
X00845Y-001259*
X008436Y-001253*
X008418Y-00125*
X008399Y-001249*
X008394*
X00839Y-00125*
X008379Y-001251*
X008367Y-001253*
X008353Y-001257*
X008337Y-001263*
X008323Y-001271*
X008309Y-001282*
X008307Y-001284*
X008304Y-001289*
X008298Y-001296*
X008293Y-001307*
X008286Y-00132*
X008281Y-001336*
X008277Y-001354*
X008275Y-001375*
X008196Y-001367*
Y-001366*
X008197Y-001364*
Y-001359*
X008198Y-001353*
X0082Y-001345*
X008202Y-001337*
X008204Y-001327*
X008207Y-001317*
X008214Y-001295*
X008225Y-001273*
X008232Y-001262*
X00824Y-001251*
X008248Y-001241*
X008257Y-001232*
X008258Y-001231*
X00826*
X008263Y-001228*
X008267Y-001225*
X008273Y-001221*
X008279Y-001218*
X008286Y-001213*
X008295Y-001209*
X008306Y-001204*
X008316Y-0012*
X008328Y-001196*
X008341Y-001192*
X008355Y-00119*
X008369Y-001187*
X008385Y-001186*
X008401Y-001185*
X00841*
X008417Y-001186*
G37*
G36*
X00808Y-001818D02*
X007991D01*
Y-00173*
X00808*
Y-001818*
G37*
G36*
X008907Y-001186D02*
X008919Y-001188D01*
X008932Y-00119*
X008947Y-001194*
X008962Y-001199*
X008977Y-001206*
X008978*
X008979Y-001207*
X008983Y-00121*
X008991Y-001214*
X009Y-00122*
X00901Y-00123*
X009021Y-00124*
X009031Y-001251*
X009041Y-001265*
X009042Y-001267*
X009045Y-001271*
X009049Y-00128*
X009055Y-001292*
X009061Y-001305*
X009068Y-001321*
X009074Y-001339*
X00908Y-001359*
Y-00136*
X009081Y-001362*
X009082Y-001364*
X009083Y-001369*
Y-001374*
X009084Y-001381*
X009086Y-001389*
X009087Y-001398*
X009089Y-001408*
X00909Y-001419*
X009091Y-001432*
X009093Y-001445*
X009094Y-001459*
Y-001474*
Y-00149*
Y-001507*
Y-001508*
Y-001512*
Y-001518*
Y-001526*
Y-001536*
Y-001547*
X009093Y-001558*
X009092Y-001571*
X009089Y-0016*
X009084Y-00163*
X009079Y-00166*
X009075Y-001673*
X009071Y-001687*
Y-001688*
X00907Y-00169*
X009068Y-001693*
X009066Y-001698*
X009064Y-001704*
X009061Y-001711*
X009053Y-001726*
X009044Y-001742*
X009032Y-001761*
X009019Y-001777*
X009002Y-001793*
X009001Y-001794*
X008998Y-001796*
X008994Y-001798*
X00899Y-001801*
X008985Y-001804*
X008971Y-001811*
X008955Y-001817*
X008936Y-001824*
X008913Y-001827*
X008889Y-001829*
X008879*
X008873Y-001828*
X008866Y-001827*
X008857Y-001825*
X008847Y-001824*
X008836Y-001821*
X008825Y-001817*
X008813Y-001814*
X008801Y-001808*
X008789Y-001802*
X008777Y-001794*
X008766Y-001785*
X008755Y-001775*
X008745Y-001764*
X008744Y-001763*
X008742Y-001761*
X008739Y-001756*
X008735Y-001749*
X00873Y-001741*
X008725Y-00173*
X008719Y-001717*
X008714Y-001702*
X008708Y-001686*
X008703Y-001667*
X008697Y-001646*
X008693Y-001622*
X008688Y-001597*
X008685Y-001569*
X008684Y-001539*
X008683Y-001507*
Y-001503*
Y-001497*
Y-001489*
X008684Y-001479*
Y-001468*
Y-001456*
X008685Y-001443*
X008688Y-001415*
X008693Y-001384*
X008698Y-001354*
X008702Y-001341*
X008705Y-001327*
Y-001326*
X008706Y-001324*
X008708Y-001321*
X00871Y-001316*
X008712Y-00131*
X008715Y-001303*
X008723Y-001288*
X008732Y-001271*
X008744Y-001254*
X008757Y-001237*
X008774Y-001222*
X008775*
X008776Y-00122*
X008778Y-001219*
X008782Y-001217*
X008787Y-001213*
X008792Y-00121*
X008806Y-001203*
X008822Y-001197*
X008841Y-00119*
X008864Y-001187*
X008889Y-001185*
X008897*
X008907Y-001186*
G37*
G36*
X007676D02*
X007683Y-001187D01*
X007691Y-001188*
X007701Y-001189*
X00771Y-001191*
X007732Y-001197*
X007753Y-001205*
X007764Y-00121*
X007775Y-001217*
X007785Y-001225*
X007795Y-001233*
X007796Y-001234*
X007797Y-001235*
X0078Y-001238*
X007804Y-001241*
X007807Y-001247*
X007812Y-001252*
X007821Y-001266*
X00783Y-001283*
X007838Y-001303*
X007845Y-001326*
Y-001338*
X007846Y-001351*
Y-001352*
Y-001353*
Y-001358*
X007845Y-001366*
X007844Y-001376*
X007841Y-001389*
X007836Y-001402*
X007831Y-001415*
X007823Y-001427*
X007822Y-001429*
X007818Y-001433*
X007813Y-001438*
X007805Y-001445*
X007795Y-001454*
X007783Y-001462*
X00777Y-00147*
X007753Y-001477*
X007754*
X007756Y-001478*
X007759Y-001479*
X007763Y-001481*
X007773Y-001486*
X007786Y-001492*
X0078Y-001501*
X007814Y-001511*
X007828Y-001524*
X007841Y-001538*
Y-001539*
X007842Y-00154*
X007845Y-001546*
X007851Y-001555*
X007856Y-001567*
X007862Y-001581*
X007867Y-001599*
X007871Y-001618*
X007872Y-001639*
Y-00164*
Y-001642*
Y-001647*
X007871Y-001652*
X00787Y-001659*
X007869Y-001667*
X007867Y-001676*
X007865Y-001686*
X007858Y-001707*
X007854Y-001719*
X007847Y-00173*
X007841Y-001742*
X007834Y-001753*
X007824Y-001763*
X007814Y-001774*
Y-001775*
X007812Y-001777*
X007809Y-00178*
X007804Y-001783*
X007798Y-001787*
X007792Y-001792*
X007783Y-001796*
X007774Y-001802*
X007764Y-001807*
X007753Y-001812*
X00774Y-001816*
X007727Y-001821*
X007712Y-001824*
X007697Y-001826*
X007681Y-001828*
X007664Y-001829*
X007655*
X007649Y-001828*
X00764Y-001827*
X007631Y-001826*
X007621Y-001824*
X00761Y-001822*
X007586Y-001815*
X007573Y-001811*
X007561Y-001806*
X007548Y-0018*
X007536Y-001793*
X007524Y-001784*
X007513Y-001774*
X007512Y-001773*
X00751Y-001772*
X007507Y-001769*
X007504Y-001764*
X0075Y-001759*
X007495Y-001753*
X00749Y-001745*
X007485Y-001736*
X007479Y-001727*
X007475Y-001716*
X007466Y-001693*
X007462Y-00168*
X007459Y-001666*
X007457Y-001651*
X007456Y-001637*
Y-001636*
Y-001634*
Y-00163*
X007457Y-001627*
Y-001621*
X007458Y-001615*
X00746Y-0016*
X007464Y-001584*
X007469Y-001568*
X007477Y-00155*
X007487Y-001534*
Y-001533*
X007489Y-001532*
X007493Y-001527*
X0075Y-00152*
X00751Y-001511*
X007523Y-001502*
X007538Y-001492*
X007556Y-001484*
X007577Y-001477*
X007576*
X007575Y-001476*
X007572*
X007569Y-001474*
X00756Y-00147*
X007549Y-001465*
X007538Y-001457*
X007526Y-001448*
X007515Y-001438*
X007505Y-001427*
X007504Y-001425*
X007501Y-001422*
X007497Y-001415*
X007494Y-001405*
X007489Y-001394*
X007486Y-00138*
X007483Y-001364*
X007482Y-001348*
Y-001347*
Y-001345*
Y-001342*
X007483Y-001336*
X007484Y-001331*
X007485Y-001323*
X007488Y-001308*
X007494Y-00129*
X007503Y-001271*
X007508Y-001261*
X007515Y-001251*
X007523Y-001241*
X007531Y-001232*
X007532Y-001231*
X007534*
X007537Y-001228*
X00754Y-001225*
X007545Y-001221*
X007551Y-001218*
X007558Y-001213*
X007566Y-001209*
X007575Y-001204*
X007585Y-0012*
X007596Y-001196*
X007608Y-001192*
X007633Y-001187*
X007648Y-001186*
X007662Y-001185*
X007671*
X007676Y-001186*
G37*
G36*
X018362Y-002318D02*
X018368D01*
X018375Y-002319*
X01839Y-002321*
X018407Y-002326*
X018424Y-002333*
X018441Y-002342*
X018456Y-002355*
X018458Y-002357*
X018461Y-002362*
X018468Y-002371*
X01847Y-002377*
X018474Y-002383*
X018478Y-002392*
X01848Y-0024*
X018484Y-002409*
X018487Y-00242*
X018489Y-002431*
X01849Y-002444*
X018492Y-002456*
Y-002471*
Y-002784*
X018415*
Y-002497*
Y-002496*
Y-002495*
Y-00249*
Y-002482*
X018414Y-002472*
X018413Y-002461*
X018412Y-00245*
X01841Y-002439*
X018408Y-002431*
Y-00243*
X018406Y-002427*
X018404Y-002423*
X018401Y-002419*
X018398Y-002413*
X018393Y-002408*
X018388Y-002403*
X01838Y-002397*
X018379Y-002396*
X018377Y-002395*
X018373Y-002393*
X018367Y-002391*
X01836Y-002388*
X018352Y-002386*
X018344Y-002385*
X018334Y-002384*
X018329*
X018326Y-002385*
X018316Y-002386*
X018306Y-002388*
X018293Y-002392*
X018279Y-002398*
X018265Y-002406*
X018253Y-002417*
X018252Y-002419*
X018248Y-002423*
X018243Y-002431*
X018237Y-002442*
X018231Y-002456*
X018226Y-002474*
X018223Y-002495*
X018221Y-002519*
Y-002784*
X018143*
Y-002488*
Y-002487*
Y-002485*
Y-002484*
Y-00248*
X018142Y-00247*
X018141Y-002459*
X018139Y-002446*
X018135Y-002433*
X018131Y-002422*
X018124Y-002411*
X018123Y-00241*
X018121Y-002406*
X018116Y-002403*
X01811Y-002397*
X018101Y-002392*
X018091Y-002388*
X018078Y-002385*
X018062Y-002384*
X018057*
X01805Y-002385*
X018043Y-002386*
X018034Y-002389*
X018023Y-002392*
X018013Y-002396*
X018002Y-002402*
X018001Y-002403*
X017998Y-002405*
X017993Y-002409*
X017987Y-002414*
X01798Y-002422*
X017974Y-002431*
X017968Y-002441*
X017962Y-002453*
X017961Y-002454*
X01796Y-002459*
X017958Y-002466*
X017956Y-002476*
X017953Y-00249*
X017951Y-002506*
X01795Y-002525*
X017949Y-002547*
Y-002784*
X017872*
Y-002327*
X017941*
Y-002392*
X017942Y-002391*
X017945Y-002387*
X01795Y-002381*
X017957Y-002373*
X017965Y-002364*
X017975Y-002355*
X017986Y-002346*
X017999Y-002338*
X018Y-002337*
X018005Y-002334*
X018012Y-002331*
X018022Y-002327*
X018034Y-002323*
X018048Y-002321*
X018063Y-002318*
X01808Y-002317*
X018088*
X018098Y-002318*
X018109Y-00232*
X018122Y-002322*
X018136Y-002326*
X01815Y-002331*
X018163Y-002339*
X018164Y-00234*
X018168Y-002342*
X018173Y-002347*
X018181Y-002354*
X018188Y-002362*
X018196Y-002372*
X018204Y-002384*
X018209Y-002398*
X01821Y-002397*
X018212Y-002394*
X018214Y-002391*
X018219Y-002385*
X018224Y-002379*
X018231Y-002372*
X018238Y-002365*
X018247Y-002357*
X018257Y-00235*
X018267Y-002342*
X018279Y-002336*
X018292Y-00233*
X018306Y-002324*
X01832Y-002321*
X018335Y-002318*
X018351Y-002317*
X018357*
X018362Y-002318*
G37*
G36*
X017628D02*
X017634D01*
X017641Y-002319*
X017656Y-002321*
X017672Y-002326*
X01769Y-002333*
X017707Y-002342*
X017722Y-002355*
X017723Y-002357*
X017727Y-002362*
X017733Y-002371*
X017736Y-002377*
X01774Y-002383*
X017743Y-002392*
X017746Y-0024*
X01775Y-002409*
X017753Y-00242*
X017754Y-002431*
X017756Y-002444*
X017758Y-002456*
Y-002471*
Y-002784*
X017681*
Y-002497*
Y-002496*
Y-002495*
Y-00249*
Y-002482*
X01768Y-002472*
X017679Y-002461*
X017678Y-00245*
X017676Y-002439*
X017673Y-002431*
Y-00243*
X017671Y-002427*
X01767Y-002423*
X017667Y-002419*
X017663Y-002413*
X017659Y-002408*
X017653Y-002403*
X017646Y-002397*
X017645Y-002396*
X017642Y-002395*
X017639Y-002393*
X017632Y-002391*
X017626Y-002388*
X017618Y-002386*
X01761Y-002385*
X0176Y-002384*
X017595*
X017591Y-002385*
X017582Y-002386*
X017571Y-002388*
X017559Y-002392*
X017545Y-002398*
X017531Y-002406*
X017518Y-002417*
Y-002419*
X017514Y-002423*
X017508Y-002431*
X017503Y-002442*
X017497Y-002456*
X017492Y-002474*
X017488Y-002495*
X017487Y-002519*
Y-002784*
X017409*
Y-002488*
Y-002487*
Y-002485*
Y-002484*
Y-00248*
X017408Y-00247*
X017406Y-002459*
X017405Y-002446*
X017401Y-002433*
X017396Y-002422*
X01739Y-002411*
X017389Y-00241*
X017386Y-002406*
X017382Y-002403*
X017375Y-002397*
X017367Y-002392*
X017356Y-002388*
X017344Y-002385*
X017328Y-002384*
X017323*
X017316Y-002385*
X017309Y-002386*
X0173Y-002389*
X017289Y-002392*
X017279Y-002396*
X017268Y-002402*
X017267Y-002403*
X017263Y-002405*
X017259Y-002409*
X017252Y-002414*
X017246Y-002422*
X01724Y-002431*
X017233Y-002441*
X017228Y-002453*
X017227Y-002454*
X017226Y-002459*
X017224Y-002466*
X017221Y-002476*
X017219Y-00249*
X017217Y-002506*
X017216Y-002525*
X017215Y-002547*
Y-002784*
X017138*
Y-002327*
X017207*
Y-002392*
X017208Y-002391*
X017211Y-002387*
X017216Y-002381*
X017222Y-002373*
X017231Y-002364*
X017241Y-002355*
X017252Y-002346*
X017264Y-002338*
X017266Y-002337*
X017271Y-002334*
X017278Y-002331*
X017288Y-002327*
X0173Y-002323*
X017313Y-002321*
X017329Y-002318*
X017345Y-002317*
X017354*
X017364Y-002318*
X017375Y-00232*
X017388Y-002322*
X017402Y-002326*
X017415Y-002331*
X017428Y-002339*
X01743Y-00234*
X017434Y-002342*
X017439Y-002347*
X017446Y-002354*
X017454Y-002362*
X017462Y-002372*
X017469Y-002384*
X017475Y-002398*
X017476Y-002397*
X017477Y-002394*
X01748Y-002391*
X017485Y-002385*
X01749Y-002379*
X017497Y-002372*
X017504Y-002365*
X017513Y-002357*
X017523Y-00235*
X017533Y-002342*
X017545Y-002336*
X017558Y-00233*
X017571Y-002324*
X017586Y-002321*
X0176Y-002318*
X017617Y-002317*
X017623*
X017628Y-002318*
G37*
G36*
X015618Y-002152D02*
X01563Y-002154D01*
X015645Y-002157*
X015661Y-002161*
X015677Y-002167*
X015694Y-002174*
X015695*
X015696Y-002175*
X015701Y-002177*
X015709Y-002183*
X015718Y-002189*
X015729Y-002198*
X01574Y-002208*
X015751Y-00222*
X01576Y-002234*
X015761Y-002236*
X015764Y-00224*
X015768Y-002249*
X015772Y-002259*
X015777Y-00227*
X01578Y-002284*
X015783Y-0023*
X015784Y-002315*
Y-002317*
Y-002322*
X015783Y-00233*
X015781Y-00234*
X015778Y-002351*
X015774Y-002364*
X015768Y-002377*
X015761Y-00239*
X01576Y-002392*
X015757Y-002395*
X015752Y-002402*
X015745Y-002409*
X015736Y-002417*
X015725Y-002426*
X015712Y-002434*
X015696Y-002443*
X015697*
X015699Y-002444*
X015702*
X015706Y-002445*
X015716Y-002449*
X015728Y-002454*
X015743Y-002462*
X015757Y-002471*
X015771Y-002483*
X015784Y-002496*
X015785Y-002498*
X015788Y-002504*
X015794Y-002513*
X015799Y-002525*
X015805Y-002539*
X01581Y-002556*
X015814Y-002577*
X015815Y-002598*
Y-002599*
Y-002602*
Y-002607*
X015814Y-002612*
X015813Y-002619*
X015811Y-002628*
X015809Y-002637*
X015808Y-002647*
X0158Y-002669*
X015795Y-00268*
X015789Y-002691*
X015782Y-002703*
X015774Y-002715*
X015765Y-002727*
X015754Y-002738*
X015753Y-002739*
X015751Y-00274*
X015747Y-002743*
X015743Y-002747*
X015737Y-002751*
X01573Y-002756*
X015722Y-002761*
X015712Y-002766*
X015702Y-002771*
X01569Y-002777*
X015678Y-002781*
X015665Y-002786*
X01565Y-00279*
X015634Y-002792*
X015619Y-002794*
X015602Y-002795*
X015594*
X015588Y-002794*
X015581Y-002793*
X015573Y-002792*
X015563Y-002791*
X015553Y-002789*
X015532Y-002783*
X015509Y-002774*
X015497Y-002769*
X015486Y-002762*
X015475Y-002754*
X015464Y-002746*
X015463Y-002745*
X015461Y-002743*
X015459Y-00274*
X015456Y-002737*
X015451Y-002732*
X015447Y-002726*
X015441Y-00272*
X015436Y-002711*
X01543Y-002702*
X015425Y-002693*
X015415Y-002671*
X015407Y-002646*
X015404Y-002632*
X015402Y-002618*
X01548Y-002607*
Y-002608*
X015481Y-00261*
Y-002614*
X015482Y-002618*
X015483Y-002624*
X015485Y-00263*
X01549Y-002644*
X015496Y-00266*
X015504Y-002676*
X015513Y-00269*
X015524Y-002703*
X015526Y-002704*
X01553Y-002708*
X015537Y-002712*
X015546Y-002717*
X015557Y-002722*
X015571Y-002727*
X015586Y-00273*
X015603Y-002731*
X015608*
X015612Y-00273*
X015622*
X015634Y-002727*
X015649Y-002722*
X015665Y-002716*
X01568Y-002707*
X015695Y-002694*
X015696Y-002692*
X015701Y-002687*
X015706Y-002679*
X015714Y-002668*
X015721Y-002654*
X015726Y-002638*
X015731Y-00262*
X015733Y-0026*
Y-002599*
Y-002597*
Y-002595*
X015732Y-002591*
X015731Y-002581*
X015728Y-002569*
X015725Y-002555*
X015718Y-00254*
X015709Y-002525*
X015697Y-002512*
X015696Y-00251*
X015691Y-002506*
X015684Y-002501*
X015674Y-002495*
X015661Y-002488*
X015645Y-002483*
X015628Y-002479*
X015609Y-002477*
X015601*
X015594Y-002478*
X015586Y-002479*
X015577Y-002481*
X015566Y-002483*
X015554Y-002485*
X015563Y-002417*
X015568*
X015572Y-002418*
X015583*
X015594Y-002416*
X015605Y-002414*
X015619Y-002412*
X015634Y-002407*
X015649Y-002401*
X015665Y-002392*
X015666*
X015671Y-002388*
X015677Y-002382*
X015685Y-002373*
X015692Y-002362*
X015698Y-002348*
X015703Y-002332*
X015705Y-002323*
Y-002313*
Y-002312*
Y-002311*
Y-002306*
X015703Y-002299*
X015701Y-002289*
X015697Y-002278*
X015693Y-002266*
X015686Y-002254*
X015675Y-002243*
Y-002242*
X01567Y-002239*
X015664Y-002234*
X015655Y-002229*
X015645Y-002224*
X015632Y-002219*
X015617Y-002216*
X015601Y-002215*
X015594*
X015585Y-002217*
X015574Y-002218*
X015563Y-002222*
X015551Y-002227*
X015538Y-002234*
X015526Y-002243*
X015525Y-002244*
X015522Y-002249*
X015516Y-002255*
X01551Y-002264*
X015503Y-002276*
X015497Y-00229*
X015491Y-002308*
X015488Y-002328*
X01541Y-002314*
Y-002313*
X015411Y-00231*
X015412Y-002307*
X015413Y-002301*
X015415Y-002295*
X015418Y-002288*
X015423Y-00227*
X015432Y-00225*
X015443Y-00223*
X015457Y-002211*
X015474Y-002194*
X015475Y-002193*
X015477Y-002192*
X01548Y-00219*
X015483Y-002188*
X015488Y-002184*
X015494Y-00218*
X015501Y-002177*
X015509Y-002172*
X015527Y-002165*
X015548Y-002157*
X015573Y-002153*
X015585Y-002151*
X015608*
X015618Y-002152*
G37*
G36*
X016462Y-002562D02*
X016547D01*
Y-002633*
X016462*
Y-002784*
X016384*
Y-002633*
X01611*
Y-002562*
X016399Y-002154*
X016462*
Y-002562*
G37*
G36*
X016023Y-002784D02*
X015935D01*
Y-002696*
X016023*
Y-002784*
G37*
G36*
X016851Y-002152D02*
X016863Y-002154D01*
X016876Y-002157*
X016891Y-00216*
X016906Y-002165*
X016921Y-002172*
X016922*
X016923Y-002173*
X016927Y-002176*
X016934Y-00218*
X016944Y-002187*
X016954Y-002196*
X016965Y-002206*
X016975Y-002218*
X016985Y-002231*
X016986Y-002233*
X016989Y-002238*
X016993Y-002246*
X016999Y-002258*
X017005Y-002271*
X017012Y-002287*
X017018Y-002305*
X017024Y-002325*
Y-002326*
X017025Y-002328*
X017026Y-002331*
Y-002335*
X017027Y-002341*
X017028Y-002347*
X01703Y-002355*
X017031Y-002364*
X017033Y-002374*
X017034Y-002385*
X017035Y-002398*
X017037Y-002411*
Y-002425*
Y-00244*
X017038Y-002456*
Y-002474*
Y-002478*
Y-002484*
Y-002492*
X017037Y-002502*
Y-002513*
Y-002525*
X017036Y-002537*
X017033Y-002566*
X017028Y-002597*
X017023Y-002626*
X017019Y-002639*
X017015Y-002653*
Y-002654*
X017014Y-002656*
X017012Y-002659*
X01701Y-002664*
X017008Y-00267*
X017005Y-002677*
X016997Y-002692*
X016988Y-002709*
X016976Y-002727*
X016963Y-002743*
X016946Y-002759*
X016945*
Y-002761*
X016942Y-002762*
X016938Y-002764*
X016934Y-002767*
X016929Y-002771*
X016915Y-002777*
X016899Y-002783*
X01688Y-00279*
X016857Y-002793*
X016832Y-002795*
X016823*
X016817Y-002794*
X01681Y-002793*
X016801Y-002792*
X016791Y-00279*
X01678Y-002787*
X016769Y-002783*
X016757Y-00278*
X016745Y-002774*
X016733Y-002768*
X016721Y-002761*
X016709Y-002751*
X016699Y-002741*
X016689Y-00273*
X016688*
X016686Y-002727*
X016683Y-002722*
X016679Y-002715*
X016674Y-002707*
X016669Y-002696*
X016663Y-002683*
X016658Y-002669*
X016652Y-002652*
X016647Y-002633*
X016641Y-002612*
X016637Y-002588*
X016632Y-002563*
X016629Y-002536*
X016627Y-002505*
Y-002474*
Y-002473*
Y-002469*
Y-002463*
Y-002455*
Y-002445*
Y-002434*
X016628Y-002423*
X016629Y-002409*
X016632Y-002381*
X016637Y-002351*
X016642Y-002321*
X016646Y-002307*
X016649Y-002293*
Y-002292*
X01665Y-00229*
X016652Y-002287*
X016654Y-002282*
X016656Y-002276*
X016659Y-00227*
X016667Y-002254*
X016676Y-002238*
X016688Y-00222*
X016701Y-002203*
X016718Y-002188*
X016719*
Y-002187*
X016722Y-002185*
X016726Y-002183*
X01673Y-002179*
X016736Y-002177*
X01675Y-002169*
X016766Y-002163*
X016785Y-002157*
X016808Y-002153*
X016832Y-002151*
X016841*
X016851Y-002152*
G37*
G36*
X00476Y002845D02*
X004714Y002792D01*
X004715Y00279*
X004718Y002786*
X004723Y00278*
X004728Y002771*
X004735Y002761*
X004741Y002748*
X004748Y002734*
X004754Y002719*
X004755Y002717*
X004757Y002711*
X004758Y002703*
X004762Y002692*
X004765Y002679*
X004767Y002664*
X004768Y002649*
X004769Y002631*
Y00263*
Y002627*
Y002621*
X004768Y002614*
Y002606*
X004766Y002595*
X004764Y002584*
X004761Y002571*
X004757Y002558*
X004753Y002545*
X004747Y00253*
X00474Y002516*
X004733Y002502*
X004724Y002487*
X004713Y002474*
X004701Y002461*
X0047Y00246*
X004698Y002458*
X004694Y002455*
X004689Y00245*
X004682Y002445*
X004675Y00244*
X004665Y002434*
X004655Y002427*
X004643Y002421*
X00463Y002414*
X004616Y002409*
X004601Y002404*
X004585Y0024*
X004568Y002396*
X004551Y002394*
X004532Y002393*
X004524*
X004519Y002394*
X004512*
X004505Y002395*
X004497Y002396*
X004488Y002398*
X004467Y002403*
X004445Y002408*
X004422Y002417*
X004399Y002429*
X00435Y002373*
X004303Y002413*
X004353Y00247*
X004352Y002472*
X004348Y002475*
X004344Y002482*
X004338Y002491*
X004331Y002502*
X004325Y002515*
X004318Y002529*
X004312Y002545*
Y002546*
X004311Y002547*
X00431Y002552*
X004307Y002561*
X004305Y002572*
X004302Y002586*
X0043Y002601*
X004298Y002617*
X004297Y002634*
Y002635*
Y002639*
X004298Y002644*
Y002651*
X004299Y002659*
X004301Y00267*
X004303Y002681*
X004306Y002694*
X004309Y002707*
X004314Y002721*
X004318Y002735*
X004325Y002749*
X004333Y002763*
X004341Y002777*
X004351Y002791*
X004363Y002803*
X004364Y002804*
X004366Y002806*
X00437Y00281*
X004375Y002814*
X004381Y002819*
X004389Y002824*
X004399Y002831*
X00441Y002837*
X00442Y002844*
X004434Y00285*
X004448Y002855*
X004462Y00286*
X004479Y002864*
X004496Y002868*
X004513Y00287*
X004532Y002871*
X00454*
X004545Y00287*
X004553*
X00456Y002869*
X004569Y002867*
X004578Y002866*
X0046Y002862*
X004622Y002854*
X004645Y002844*
X004656Y002839*
X004667Y002832*
X004713Y002884*
X00476Y002845*
G37*
G36*
X007646Y00287D02*
X007658Y002868D01*
X007672Y002865*
X007685Y002862*
X0077Y002857*
X007714Y00285*
X007716Y002849*
X007719Y002846*
X007726Y002842*
X007734Y002835*
X007742Y002826*
X007751Y002816*
X007759Y002804*
X007767Y00279*
Y002789*
X007768Y002784*
X00777Y002777*
X007773Y002767*
X007776Y002754*
X007777Y002738*
X007778Y002718*
X007779Y002695*
Y002403*
X007658*
Y002664*
Y002665*
Y002667*
Y00267*
Y002675*
X007657Y002687*
X007656Y0027*
X007655Y002715*
X007653Y00273*
X00765Y002742*
X007647Y002747*
X007645Y002751*
X007644Y002752*
X007642Y002756*
X007638Y00276*
X007633Y002765*
X007625Y00277*
X007616Y002774*
X007605Y002777*
X007593Y002778*
X007589*
X007584Y002777*
X007578Y002776*
X007571Y002774*
X007562Y002772*
X007553Y002768*
X007545Y002762*
X007544*
X007542Y00276*
X007538Y002756*
X007533Y002751*
X007528Y002744*
X007522Y002737*
X007518Y002728*
X007513Y002717*
Y002715*
X007511Y002711*
Y002704*
X007509Y002694*
X007507Y00268*
X007506Y002664*
X007504Y002645*
Y002622*
Y002403*
X007383*
Y002653*
Y002654*
Y002656*
Y002659*
Y002664*
Y002675*
X007382Y002689*
X007381Y002703*
X00738Y002717*
X007378Y00273*
X007377Y002735*
X007376Y002739*
Y00274*
X007375Y002742*
X007373Y002746*
X007371Y00275*
X007365Y00276*
X00736Y002764*
X007356Y002768*
X007355Y002769*
X007353Y00277*
X00735Y002772*
X007347Y002773*
X007341Y002775*
X007335Y002776*
X007327Y002778*
X007315*
X007309Y002777*
X007303Y002776*
X007295Y002774*
X007286Y002772*
X007278Y002768*
X007269Y002762*
X007268*
X007265Y00276*
X007262Y002756*
X007257Y002751*
X007252Y002745*
X007246Y002738*
X007242Y002729*
X007237Y002719*
Y002718*
X007235Y002713*
Y002706*
X007233Y002697*
X007231Y002683*
X00723Y002668*
X007228Y002648*
Y002625*
Y002403*
X007107*
Y002861*
X007218*
Y002798*
X007219Y002799*
X007221Y002801*
X007224Y002804*
X007229Y00281*
X007235Y002815*
X007241Y002821*
X007249Y002828*
X007258Y002834*
X007268Y002841*
X007279Y002848*
X007303Y00286*
X007316Y002864*
X00733Y002868*
X007345Y00287*
X00736Y002871*
X007368*
X007376Y00287*
X007386Y002869*
X007398Y002866*
X00741Y002864*
X007423Y002859*
X007436Y002853*
X007438Y002852*
X007441Y002849*
X007448Y002845*
X007455Y002839*
X007463Y002831*
X007472Y002822*
X007481Y00281*
X00749Y002797*
X007491Y002799*
X007495Y002803*
X007501Y00281*
X007509Y002818*
X007519Y002827*
X00753Y002836*
X007542Y002845*
X007554Y002853*
X007556Y002854*
X007561Y002855*
X007568Y002858*
X007577Y002862*
X007588Y002865*
X007601Y002868*
X007614Y00287*
X007629Y002871*
X007637*
X007646Y00287*
G37*
G36*
X006863D02*
X006875Y002868D01*
X006888Y002865*
X006902Y002862*
X006917Y002857*
X00693Y00285*
X006932Y002849*
X006936Y002846*
X006942Y002842*
X00695Y002835*
X006958Y002826*
X006968Y002816*
X006976Y002804*
X006983Y00279*
X006984Y002789*
X006985Y002784*
X006987Y002777*
X006989Y002767*
X006992Y002754*
X006994Y002738*
X006995Y002718*
X006996Y002695*
Y002403*
X006875*
Y002664*
Y002665*
Y002667*
Y00267*
Y002675*
X006874Y002687*
X006873Y0027*
X006872Y002715*
X006869Y00273*
X006866Y002742*
X006864Y002747*
X006862Y002751*
X006861Y002752*
X006858Y002756*
X006855Y00276*
X006849Y002765*
X006842Y00277*
X006833Y002774*
X006822Y002777*
X00681Y002778*
X006805*
X006801Y002777*
X006794Y002776*
X006787Y002774*
X006779Y002772*
X00677Y002768*
X006762Y002762*
X006761*
X006758Y00276*
X006754Y002756*
X00675Y002751*
X006744Y002744*
X006739Y002737*
X006734Y002728*
X00673Y002717*
Y002715*
X006728Y002711*
X006727Y002704*
X006725Y002694*
X006723Y00268*
Y002664*
X006721Y002645*
Y002622*
Y002403*
X0066*
Y002653*
Y002654*
Y002656*
Y002659*
Y002664*
Y002675*
X006599Y002689*
X006598Y002703*
X006597Y002717*
X006595Y00273*
X006593Y002735*
X006592Y002739*
Y00274*
X006591Y002742*
X00659Y002746*
X006588Y00275*
X006581Y00276*
X006577Y002764*
X006572Y002768*
X006571Y002769*
X006569Y00277*
X006567Y002772*
X006563Y002773*
X006558Y002775*
X006551Y002776*
X006544Y002778*
X006531*
X006526Y002777*
X006519Y002776*
X006511Y002774*
X006503Y002772*
X006495Y002768*
X006486Y002762*
X006485*
X006482Y00276*
X006478Y002756*
X006474Y002751*
X006468Y002745*
X006463Y002738*
X006458Y002729*
X006454Y002719*
Y002718*
X006452Y002713*
X006451Y002706*
X006449Y002697*
X006447Y002683*
X006446Y002668*
X006445Y002648*
Y002625*
Y002403*
X006324*
Y002861*
X006435*
Y002798*
X006436Y002799*
X006437Y002801*
X006441Y002804*
X006446Y00281*
X006451Y002815*
X006457Y002821*
X006466Y002828*
X006475Y002834*
X006485Y002841*
X006496Y002848*
X006519Y00286*
X006533Y002864*
X006547Y002868*
X006561Y00287*
X006577Y002871*
X006584*
X006592Y00287*
X006602Y002869*
X006614Y002866*
X006627Y002864*
X00664Y002859*
X006652Y002853*
X006654Y002852*
X006658Y002849*
X006664Y002845*
X006672Y002839*
X00668Y002831*
X006689Y002822*
X006698Y00281*
X006706Y002797*
X006708Y002799*
X006712Y002803*
X006717Y00281*
X006725Y002818*
X006735Y002827*
X006746Y002836*
X006758Y002845*
X006771Y002853*
X006773Y002854*
X006777Y002855*
X006784Y002858*
X006794Y002862*
X006805Y002865*
X006817Y002868*
X006831Y00287*
X006846Y002871*
X006854*
X006863Y00287*
G37*
G36*
X005294Y003037D02*
X005302Y003036D01*
X00531Y003035*
X005321Y003033*
X005331Y00303*
X005353Y003024*
X005365Y003019*
X005378Y003013*
X00539Y003007*
X005401Y002999*
X005413Y00299*
X005423Y00298*
Y002979*
X005424Y002978*
X005427Y002976*
X00543Y002972*
X005437Y002963*
X005445Y00295*
X005454Y002935*
X00546Y002916*
X005465Y002896*
X005466Y002886*
X005467Y002875*
Y002874*
Y002872*
X005466Y002867*
X005465Y002862*
X005464Y002854*
X005463Y002846*
X00546Y002837*
X005456Y002827*
X005451Y002817*
X005445Y002806*
X005438Y002795*
X005429Y002784*
X005418Y002773*
X005406Y002762*
X005392Y002752*
X005376Y002742*
X005377*
X005379Y002741*
X005382*
X005385Y00274*
X005395Y002737*
X005407Y002731*
X005421Y002724*
X005435Y002715*
X00545Y002703*
X005463Y00269*
X005464Y002688*
X005468Y002682*
X005473Y002674*
X005479Y002662*
X005485Y002649*
X00549Y002631*
X005494Y002613*
X005495Y002592*
Y002591*
Y002588*
Y002584*
X005494Y002578*
Y002571*
X005492Y002563*
X00549Y002553*
X005488Y002543*
X005481Y002521*
X005475Y002509*
X00547Y002496*
X005463Y002485*
X005454Y002473*
X005445Y002461*
X005434Y00245*
X005433Y002449*
X005432Y002447*
X005428Y002444*
X005423Y002441*
X005417Y002436*
X005411Y002432*
X005402Y002426*
X005392Y002421*
X005382Y002415*
X005371Y00241*
X005358Y002405*
X005345Y002401*
X005331Y002397*
X005316Y002394*
X0053Y002393*
X005283Y002392*
X005275*
X005269Y002393*
X005261*
X005253Y002394*
X005244Y002396*
X005233Y002398*
X005211Y002403*
X005187Y002413*
X005175Y002418*
X005164Y002424*
X005152Y002433*
X005141Y002441*
X00514Y002442*
X005138Y002444*
X005136Y002446*
X005132Y00245*
X005127Y002455*
X005123Y002461*
X005117Y002467*
X005112Y002475*
X005106Y002485*
X0051Y002494*
X00509Y002516*
X005082Y002541*
X005078Y002555*
X005076Y002569*
X005193Y002584*
Y002583*
Y002582*
X005194Y002577*
X005196Y002568*
X005198Y002558*
X005203Y002547*
X005208Y002536*
X005215Y002525*
X005223Y002515*
X005224Y002514*
X005228Y002511*
X005233Y002507*
X005239Y002504*
X005249Y002499*
X005259Y002495*
X005269Y002493*
X005282Y002492*
X005284*
X005289Y002493*
X005295Y002494*
X005304Y002495*
X005314Y002499*
X005324Y002504*
X005335Y002511*
X005345Y00252*
X005346Y002521*
X00535Y002526*
X005353Y002532*
X005359Y00254*
X005363Y002551*
X005368Y002565*
X005371Y00258*
X005372Y002598*
Y002599*
Y002605*
X005371Y002613*
X005369Y002624*
X005365Y002636*
X005361Y002648*
X005354Y002659*
X005346Y00267*
X005345Y002671*
X005341Y002675*
X005336Y00268*
X00533Y002684*
X005321Y00269*
X00531Y002693*
X0053Y002697*
X005287Y002698*
X005278*
X005271Y002697*
X005263Y002696*
X005253Y002694*
X005243Y002691*
X005231Y002689*
X005244Y002786*
X005252*
X005261Y002787*
X005272Y002788*
X005284Y002791*
X005297Y002794*
X005309Y0028*
X00532Y002807*
X005321Y002808*
X005324Y002812*
X005328Y002816*
X005333Y002823*
X005338Y002832*
X005342Y002842*
X005345Y002854*
X005346Y002867*
Y002869*
Y002873*
X005345Y002878*
X005343Y002885*
X005341Y002894*
X005338Y002902*
X005333Y002911*
X005327Y002918*
X005326Y002919*
X005323Y002921*
X00532Y002925*
X005313Y002928*
X005306Y002931*
X005298Y002935*
X005287Y002936*
X005276Y002937*
X00527*
X005265Y002936*
X005258Y002935*
X005249Y002932*
X00524Y002928*
X005231Y002923*
X005223Y002915*
X005222*
X005219Y002912*
X005216Y002906*
X005211Y002899*
X005207Y002891*
X005203Y00288*
X005199Y002867*
X005197Y002853*
X005085Y002871*
Y002872*
X005086Y002874*
Y002876*
X005087Y002881*
X00509Y002891*
X005094Y002905*
X005099Y002919*
X005105Y002935*
X005112Y002949*
X00512Y002963*
X005121Y002965*
X005125Y002968*
X00513Y002975*
X005137Y002983*
X005146Y002991*
X005157Y003*
X005171Y003009*
X005186Y003018*
X005187*
X005193Y00302*
X005202Y003024*
X005213Y003028*
X005227Y003031*
X005243Y003035*
X00526Y003037*
X005279Y003038*
X005288*
X005294Y003037*
G37*
G36*
X006039D02*
X006047Y003036D01*
X006057Y003035*
X006067Y003033*
X006078Y003031*
X006101Y003025*
X006125Y003016*
X006138Y00301*
X006149Y003004*
X00616Y002996*
X00617Y002987*
X006171Y002986*
X006173Y002985*
X006175Y002981*
X006179Y002977*
X006183Y002973*
X006188Y002966*
X006192Y00296*
X006198Y002952*
X006207Y002934*
X006216Y002913*
X00622Y002901*
X006221Y002888*
X006223Y002874*
X006224Y002861*
Y002859*
Y002854*
X006223Y002845*
X006222Y002835*
X006221Y002823*
X006218Y002809*
X006214Y002794*
X006209Y00278*
X006208Y002778*
X006206Y002773*
X006202Y002765*
X006197Y002755*
X006191Y002743*
X006182Y00273*
X006172Y002715*
X00616Y0027*
Y002699*
X006156Y002694*
X00615Y002688*
X006142Y002679*
X006131Y002668*
X006118Y002653*
X006101Y002638*
X006081Y002618*
X00608*
X006078Y002617*
X006076Y002614*
X006072Y00261*
X006062Y002601*
X00605Y00259*
X006038Y002578*
X006027Y002567*
X006016Y002557*
X006012Y002552*
X006008Y002548*
X006007Y002547*
X006006Y002546*
X006003Y002542*
X005999Y002537*
X005991Y002527*
X005984Y002516*
X006224*
Y002403*
X005801*
Y002404*
Y002406*
X005802Y00241*
Y002414*
X005803Y00242*
X005804Y002426*
X005808Y002443*
X005813Y002461*
X005821Y002481*
X00583Y002503*
X005842Y002524*
Y002525*
X005843Y002526*
X005845Y00253*
X005849Y002534*
X005853Y00254*
X005858Y002547*
X005864Y002555*
X005872Y002564*
X00588Y002575*
X00589Y002586*
X005901Y002598*
X005914Y002612*
X005927Y002626*
X005943Y002641*
X005959Y002658*
X005977Y002675*
X005978Y002676*
X005981Y002679*
X005985Y002682*
X00599Y002688*
X005997Y002693*
X006005Y0027*
X006021Y002717*
X006037Y002734*
X006054Y002751*
X006061Y002759*
X006068Y002767*
X006074Y002773*
X006078Y002779*
Y002781*
X006081Y002785*
X006086Y002792*
X00609Y002803*
X006095Y002813*
X006099Y002826*
X006102Y002839*
X006103Y002853*
Y002854*
Y002859*
X006102Y002867*
X0061Y002876*
X006098Y002886*
X006094Y002896*
X006088Y002906*
X006081Y002915*
X00608Y002916*
X006078Y002919*
X006072Y002923*
X006066Y002926*
X006057Y00293*
X006047Y002934*
X006035Y002936*
X006021Y002937*
X006015*
X006007Y002936*
X005999Y002935*
X005989Y002932*
X005979Y002927*
X005969Y002922*
X00596Y002915*
X005959Y002914*
X005956Y00291*
X005953Y002905*
X005949Y002896*
X005945Y002886*
X005941Y002873*
X005937Y002857*
X005935Y002839*
X005815Y002851*
Y002852*
X005816Y002855*
Y00286*
X005818Y002867*
X005819Y002875*
X005822Y002884*
X005824Y002895*
X005827Y002906*
X005836Y002929*
X005847Y002953*
X005854Y002965*
X005863Y002976*
X005872Y002985*
X005882Y002994*
X005883Y002995*
X005884Y002996*
X005887Y002997*
X005892Y003001*
X005897Y003004*
X005904Y003007*
X005912Y003012*
X005921Y003016*
X005931Y00302*
X005942Y003024*
X005965Y003031*
X005994Y003036*
X006008Y003037*
X006024Y003038*
X006033*
X006039Y003037*
G37*
G36*
X005718Y002403D02*
X005597D01*
Y002525*
X005718*
Y002403*
G37*
G36*
X012443Y019618D02*
X012397Y019565D01*
X012398Y019563*
X012401Y019559*
X012406Y019553*
X012411Y019544*
X012418Y019534*
X012424Y019521*
X012431Y019507*
X012437Y019492*
X012438Y01949*
X012439Y019485*
X012441Y019476*
X012445Y019465*
X012448Y019452*
X012449Y019437*
X012451Y019422*
X012452Y019404*
Y019403*
Y0194*
Y019394*
X012451Y019387*
X01245Y019379*
X012449Y019368*
X012447Y019357*
X012444Y019344*
X01244Y019332*
X012436Y019318*
X01243Y019303*
X012423Y019289*
X012416Y019275*
X012407Y01926*
X012396Y019247*
X012384Y019234*
X012383Y019233*
X012381Y019231*
X012377Y019228*
X012372Y019223*
X012365Y019219*
X012357Y019213*
X012348Y019207*
X012337Y0192*
X012326Y019194*
X012313Y019188*
X012299Y019182*
X012284Y019178*
X012268Y019173*
X012251Y019169*
X012234Y019168*
X012214Y019167*
X012207*
X012202Y019168*
X012195*
X012188*
X01218Y019169*
X012171Y019171*
X01215Y019176*
X012128Y019181*
X012105Y01919*
X012082Y019202*
X012033Y019146*
X011986Y019186*
X012036Y019243*
X012035Y019245*
X012031Y019249*
X012027Y019255*
X012021Y019264*
X012014Y019275*
X012008Y019288*
X012001Y019302*
X011995Y019318*
Y019319*
X011994Y01932*
X011993Y019325*
X01199Y019334*
X011988Y019345*
X011985Y019359*
X011983Y019374*
X011981Y01939*
X01198Y019407*
Y019408*
Y019412*
X011981Y019417*
Y019424*
X011982Y019433*
X011984Y019444*
X011986Y019454*
X011988Y019467*
X011992Y01948*
X011997Y019494*
X012001Y019508*
X012008Y019522*
X012016Y019536*
X012024Y01955*
X012034Y019564*
X012046Y019577*
X012047*
X012049Y019579*
X012053Y019583*
X012058Y019587*
X012064Y019592*
X012072Y019598*
X012081Y019604*
X012092Y01961*
X012103Y019617*
X012117Y019623*
X012131Y019628*
X012145Y019633*
X012162Y019638*
X012179Y019641*
X012196Y019643*
X012215Y019644*
X012223*
X012228Y019643*
X012235*
X012243Y019642*
X012252Y01964*
X012261Y019639*
X012283Y019635*
X012305Y019628*
X012328Y019618*
X012339Y019612*
X01235Y019605*
X012396Y019658*
X012443Y019618*
G37*
G36*
X015329Y019643D02*
X015341Y019641D01*
X015355Y019639*
X015368Y019635*
X015383Y01963*
X015397Y019623*
X015398Y019622*
X015402Y019619*
X015408Y019615*
X015417Y019608*
X015425Y019599*
X015434Y019589*
X015442Y019577*
X015449Y019563*
X01545Y019562*
X015451Y019557*
X015453Y01955*
X015456Y01954*
X015458Y019527*
X01546Y019511*
X015461Y019491*
X015462Y019468*
Y019177*
X015341*
Y019437*
Y019438*
Y01944*
Y019444*
Y019448*
X01534Y01946*
X015339Y019474*
X015338Y019488*
X015336Y019503*
X015333Y019516*
X01533Y01952*
X015328Y019525*
X015327Y019526*
X015325Y019529*
X015321Y019533*
X015315Y019538*
X015308Y019543*
X015299Y019547*
X015288Y01955*
X015276Y019551*
X015272*
X015267Y01955*
X015261Y019549*
X015254Y019547*
X015245Y019545*
X015236Y019541*
X015228Y019536*
X015227Y019535*
X015224Y019533*
X015221Y019529*
X015216Y019524*
X015211Y019517*
X015205Y01951*
X015201Y019501*
X015196Y01949*
Y019488*
X015194Y019485*
X015193Y019477*
X015192Y019467*
X01519Y019454*
X015189Y019437*
X015187Y019418*
Y019395*
Y019177*
X015066*
Y019426*
Y019427*
Y019429*
Y019433*
Y019437*
Y019448*
X015065Y019462*
X015064Y019476*
X015063Y01949*
X015061Y019503*
X015059Y019508*
Y019512*
Y019513*
X015058Y019516*
X015056Y019519*
X015054Y019523*
X015048Y019533*
X015043Y019537*
X015039Y019541*
X015038Y019542*
X015036Y019543*
X015033Y019545*
X015029Y019547*
X015024Y019548*
X015018Y019549*
X01501Y019551*
X014998*
X014992Y01955*
X014986Y019549*
X014977Y019547*
X014969Y019545*
X014961Y019541*
X014952Y019536*
X014951Y019535*
X014948Y019533*
X014945Y019529*
X01494Y019525*
X014935Y019518*
X014929Y019511*
X014925Y019502*
X01492Y019492*
Y019491*
X014918Y019486*
X014917Y019479*
X014916Y01947*
X014914Y019456*
X014913Y019441*
X014911Y019421*
Y019398*
Y019177*
X01479*
Y019634*
X014901*
Y019571*
X014902Y019572*
X014904Y019574*
X014907Y019577*
X014912Y019583*
X014917Y019588*
X014924Y019594*
X014932Y019601*
X014941Y019608*
X014951Y019614*
X014962Y019621*
X014986Y019633*
X014999Y019638*
X015013Y019641*
X015028Y019643*
X015043Y019644*
X01505*
X015059Y019643*
X015069Y019642*
X01508Y019639*
X015093Y019637*
X015106Y019632*
X015119Y019626*
X015121Y019625*
X015124Y019622*
X015131Y019618*
X015138Y019612*
X015146Y019604*
X015155Y019595*
X015164Y019583*
X015172Y01957*
X015174Y019572*
X015178Y019577*
X015183Y019583*
X015192Y019591*
X015202Y0196*
X015213Y019609*
X015224Y019618*
X015237Y019626*
X015239Y019627*
X015243Y019628*
X015251Y019631*
X01526Y019635*
X015271Y019639*
X015284Y019641*
X015297Y019643*
X015312Y019644*
X01532*
X015329Y019643*
G37*
G36*
X014546D02*
X014558Y019641D01*
X014571Y019639*
X014585Y019635*
X014599Y01963*
X014613Y019623*
X014615Y019622*
X014619Y019619*
X014625Y019615*
X014633Y019608*
X014641Y019599*
X01465Y019589*
X014659Y019577*
X014666Y019563*
X014667Y019562*
X014668Y019557*
X01467Y01955*
X014672Y01954*
X014675Y019527*
X014677Y019511*
X014678Y019491*
X014679Y019468*
Y019177*
X014558*
Y019437*
Y019438*
Y01944*
Y019444*
Y019448*
X014557Y01946*
X014556Y019474*
X014555Y019488*
X014552Y019503*
X014549Y019516*
X014547Y01952*
X014545Y019525*
X014544Y019526*
X014541Y019529*
X014537Y019533*
X014532Y019538*
X014525Y019543*
X014516Y019547*
X014505Y01955*
X014493Y019551*
X014488*
X014484Y01955*
X014477Y019549*
X01447Y019547*
X014462Y019545*
X014453Y019541*
X014445Y019536*
X014444Y019535*
X014441Y019533*
X014437Y019529*
X014433Y019524*
X014427Y019517*
X014422Y01951*
X014417Y019501*
X014413Y01949*
Y019488*
X014411Y019485*
X01441Y019477*
X014408Y019467*
X014406Y019454*
X014405Y019437*
X014404Y019418*
Y019395*
Y019177*
X014282*
Y019426*
Y019427*
Y019429*
Y019433*
Y019437*
Y019448*
X014281Y019462*
Y019476*
X01428Y01949*
X014278Y019503*
X014276Y019508*
X014275Y019512*
Y019513*
X014274Y019516*
X014272Y019519*
X014271Y019523*
X014264Y019533*
X01426Y019537*
X014255Y019541*
X014254Y019542*
X014252Y019543*
X01425Y019545*
X014246Y019547*
X01424Y019548*
X014234Y019549*
X014227Y019551*
X014214*
X014209Y01955*
X014202Y019549*
X014194Y019547*
X014186Y019545*
X014178Y019541*
X014169Y019536*
X014168Y019535*
X014165Y019533*
X014161Y019529*
X014157Y019525*
X014151Y019518*
X014146Y019511*
X014141Y019502*
X014137Y019492*
Y019491*
X014135Y019486*
X014134Y019479*
X014132Y01947*
X01413Y019456*
X014129Y019441*
X014128Y019421*
Y019398*
Y019177*
X014006*
Y019634*
X014117*
Y019571*
X014118Y019572*
X01412Y019574*
X014124Y019577*
X014128Y019583*
X014134Y019588*
X01414Y019594*
X014148Y019601*
X014158Y019608*
X014168Y019614*
X014179Y019621*
X014202Y019633*
X014216Y019638*
X01423Y019641*
X014244Y019643*
X01426Y019644*
X014267*
X014275Y019643*
X014285Y019642*
X014297Y019639*
X01431Y019637*
X014322Y019632*
X014335Y019626*
X014337Y019625*
X014341Y019622*
X014347Y019618*
X014354Y019612*
X014363Y019604*
X014372Y019595*
X014381Y019583*
X014389Y01957*
X014391Y019572*
X014394Y019577*
X0144Y019583*
X014408Y019591*
X014418Y0196*
X014429Y019609*
X014441Y019618*
X014454Y019626*
X014455Y019627*
X01446Y019628*
X014467Y019631*
X014476Y019635*
X014487Y019639*
X0145Y019641*
X014514Y019643*
X014528Y019644*
X014537*
X014546Y019643*
G37*
G36*
X012977Y01981D02*
X012985Y019809D01*
X012993Y019808*
X013003Y019806*
X013013Y019803*
X013036Y019797*
X013048Y019792*
X013061Y019786*
X013073Y01978*
X013084Y019772*
X013095Y019763*
X013105Y019753*
X013106Y019752*
X013107Y019751*
X01311Y019749*
X013113Y019745*
X01312Y019736*
X013128Y019723*
X013136Y019708*
X013143Y01969*
X013148Y019669*
X013149Y019659*
X01315Y019649*
Y019648*
Y019645*
X013149Y01964*
X013148Y019635*
X013147Y019628*
X013145Y019619*
X013143Y01961*
X013139Y0196*
X013134Y01959*
X013128Y019579*
X013121Y019568*
X013112Y019557*
X013101Y019547*
X013089Y019536*
X013075Y019526*
X013059Y019516*
X01306*
X013062Y019515*
X013064*
X013068Y019513*
X013078Y01951*
X01309Y019505*
X013104Y019497*
X013118Y019488*
X013133Y019476*
X013145Y019463*
X013147Y019461*
X013151Y019455*
X013155Y019447*
X013162Y019435*
X013168Y019422*
X013173Y019404*
X013176Y019386*
X013178Y019365*
Y019364*
Y019362*
Y019357*
X013177Y019352*
X013176Y019344*
X013175Y019336*
X013173Y019326*
X013171Y019316*
X013164Y019294*
X013158Y019282*
X013153Y01927*
X013145Y019258*
X013137Y019246*
X013128Y019234*
X013117Y019223*
X013116Y019222*
X013114Y01922*
X013111Y019218*
X013106Y019214*
X0131Y019209*
X013094Y019205*
X013084Y019199*
X013075Y019194*
X013065Y019188*
X013053Y019183*
X013041Y019178*
X013028Y019174*
X013013Y01917*
X012999Y019168*
X012982Y019166*
X012966Y019165*
X012958*
X012951Y019166*
X012944Y019167*
X012936Y019168*
X012927Y019169*
X012916Y019171*
X012894Y019177*
X01287Y019186*
X012858Y019191*
X012847Y019198*
X012835Y019206*
X012824Y019214*
X012823Y019215*
X012821Y019217*
X012818Y019219*
X012815Y019223*
X01281Y019228*
X012806Y019234*
X0128Y01924*
X012795Y019249*
X012789Y019258*
X012783Y019267*
X012773Y019289*
X012765Y019314*
X012761Y019328*
X012759Y019342*
X012876Y019357*
Y019356*
Y019355*
X012877Y01935*
X012879Y019342*
X012881Y019332*
X012886Y019321*
X01289Y019309*
X012898Y019298*
X012906Y019288*
X012907Y019287*
X01291Y019284*
X012916Y01928*
X012922Y019277*
X012931Y019272*
X012941Y019269*
X012952Y019266*
X012965Y019265*
X012967*
X012971Y019266*
X012978Y019267*
X012987Y019269*
X012997Y019272*
X013007Y019277*
X013018Y019284*
X013028Y019293*
X013029Y019294*
X013032Y019299*
X013036Y019305*
X013042Y019313*
X013046Y019324*
X013051Y019338*
X013053Y019353*
X013054Y019371*
Y019372*
Y019373*
Y019378*
X013053Y019386*
X013052Y019397*
X013048Y019409*
X013043Y019421*
X013037Y019433*
X013029Y019444*
X013028*
X013024Y019448*
X013019Y019453*
X013012Y019457*
X013003Y019463*
X012993Y019466*
X012982Y01947*
X01297Y019471*
X012961*
X012954Y01947*
X012946Y019469*
X012936Y019467*
X012926Y019465*
X012914Y019462*
X012927Y019559*
X012935*
X012944Y01956*
X012955Y019561*
X012967Y019564*
X01298Y019567*
X012991Y019573*
X013002Y01958*
X013003Y019581*
X013007Y019585*
X013011Y019589*
X013016Y019597*
X013021Y019605*
X013025Y019615*
X013028Y019627*
X013029Y01964*
Y019642*
Y019646*
X013028Y019651*
X013026Y019659*
X013024Y019667*
X013021Y019675*
X013016Y019684*
X01301Y019691*
X013009Y019692*
X013006Y019694*
X013002Y019698*
X012996Y019701*
X012989Y019704*
X012981Y019708*
X01297Y01971*
X012959*
X012953*
X012948*
X01294Y019708*
X012932Y019705*
X012923Y019701*
X012914Y019696*
X012906Y019689*
X012905Y019688*
X012902Y019685*
X012899Y019679*
X012894Y019672*
X012889Y019664*
X012886Y019653*
X012882Y01964*
X012879Y019626*
X012768Y019644*
Y019645*
X012769Y019647*
Y019649*
X01277Y019654*
X012773Y019664*
X012776Y019678*
X012782Y019692*
X012787Y019708*
X012795Y019722*
X012803Y019736*
X012804Y019738*
X012807Y019741*
X012813Y019748*
X01282Y019756*
X012829Y019764*
X01284Y019773*
X012854Y019782*
X012869Y019791*
X01287Y019792*
X012876Y019793*
X012885Y019797*
X012896Y019801*
X01291Y019804*
X012926Y019808*
X012943Y01981*
X012962Y019811*
X012971*
X012977Y01981*
G37*
G36*
X013722D02*
X01373Y019809D01*
X013739Y019808*
X013749Y019806*
X01376Y019804*
X013784Y019798*
X013808Y019789*
X013821Y019783*
X013831Y019777*
X013843Y019769*
X013853Y01976*
X013854Y019759*
X013856Y019758*
X013858Y019754*
X013862Y019751*
X013866Y019746*
X013871Y01974*
X013875Y019733*
X013881Y019725*
X01389Y019707*
X013899Y019686*
X013902Y019674*
X013904Y019661*
X013906Y019648*
X013907Y019634*
Y019632*
Y019627*
X013906Y019618*
X013905Y019608*
X013903Y019596*
X013901Y019582*
X013897Y019567*
X013892Y019553*
X013891Y019551*
X013889Y019547*
X013885Y019538*
X01388Y019528*
X013873Y019516*
X013865Y019503*
X013855Y019488*
X013843Y019473*
X013842Y019472*
X013839Y019467*
X013833Y019461*
X013825Y019452*
X013814Y019441*
X0138Y019426*
X013784Y019411*
X013764Y019392*
X013763Y019391*
X013761Y01939*
X013759Y019387*
X013755Y019383*
X013745Y019374*
X013733Y019363*
X013721Y019352*
X013709Y01934*
X013698Y01933*
X013695Y019325*
X013691Y019321*
X01369*
X013688Y019319*
X013686Y019315*
X013682Y019311*
X013674Y019301*
X013667Y019289*
X013907*
Y019177*
X013483*
Y019178*
Y019179*
X013484Y019183*
X013485Y019188*
X013486Y019193*
X013487Y019199*
X013491Y019216*
X013496Y019234*
X013503Y019254*
X013513Y019276*
X013524Y019297*
Y019298*
X013526Y0193*
X013528Y019303*
X013532Y019307*
X013535Y019313*
X013541Y01932*
X013547Y019328*
X013555Y019337*
X013563Y019348*
X013573Y019359*
X013584Y019372*
X013596Y019385*
X01361Y019399*
X013626Y019414*
X013642Y019431*
X01366Y019448*
X013661Y019449*
X013664Y019452*
X013667Y019455*
X013673Y019461*
X01368Y019466*
X013687Y019474*
X013704Y01949*
X01372Y019507*
X013737Y019525*
X013744Y019532*
X013751Y01954*
X013757Y019547*
X01376Y019552*
X013761Y019554*
X013764Y019558*
X013769Y019566*
X013773Y019576*
X013778Y019587*
X013782Y019599*
X013785Y019612*
X013786Y019626*
Y019627*
Y019628*
Y019632*
X013785Y01964*
X013783Y019649*
X01378Y019659*
X013777Y019669*
X013771Y019679*
X013764Y019689*
X013763Y01969*
X01376Y019692*
X013755Y019696*
X013749Y0197*
X013739Y019703*
X013729Y019707*
X013718Y01971*
X013704*
X013698*
X01369*
X013682Y019708*
X013672Y019705*
X013662Y0197*
X013652Y019695*
X013643Y019688*
X013642Y019687*
X013639Y019683*
X013636Y019678*
X013632Y019669*
X013627Y019659*
X013624Y019646*
X01362Y01963*
X013618Y019612*
X013498Y019624*
Y019625*
X013499Y019628*
Y019633*
X013501Y01964*
X013502Y019649*
X013504Y019658*
X013507Y019668*
X01351Y019679*
X013519Y019702*
X01353Y019726*
X013537Y019738*
X013545Y019749*
X013555Y019758*
X013565Y019767*
Y019768*
X013567Y019769*
X01357Y019771*
X013575Y019774*
X01358Y019777*
X013587Y019781*
X013595Y019785*
X013604Y019789*
X013614Y019793*
X013625Y019797*
X013648Y019804*
X013677Y019809*
X013691Y01981*
X013707Y019811*
X013716*
X013722Y01981*
G37*
G36*
X013401Y019177D02*
X013279D01*
Y019298*
X013401*
Y019177*
G37*
G36*
X011804Y002333D02*
X011758Y002279D01*
X011759Y002277*
X011763Y002273*
X011767Y002267*
X011773Y002258*
X011779Y002248*
X011785Y002235*
X011793Y002221*
X011798Y002206*
X011799Y002204*
X011801Y002199*
X011803Y002191*
X011806Y00218*
X011809Y002166*
X011811Y002151*
X011813Y002136*
X011814Y002119*
Y002118*
Y002114*
Y002109*
X011813Y002101*
X011812Y002093*
X01181Y002082*
X011808Y002071*
X011805Y002058*
X011802Y002046*
X011797Y002032*
X011792Y002017*
X011784Y002003*
X011777Y001989*
X011768Y001975*
X011757Y001961*
X011745Y001948*
X011744Y001947*
X011743Y001945*
X011738Y001942*
X011733Y001937*
X011726Y001933*
X011719Y001927*
X01171Y001921*
X011699Y001914*
X011687Y001908*
X011674Y001902*
X011661Y001896*
X011645Y001892*
X01163Y001887*
X011612Y001884*
X011595Y001882*
X011576Y001881*
X011569*
X011563Y001882*
X011557*
X011549Y001883*
X011541Y001884*
X011532Y001885*
X011511Y00189*
X011489Y001895*
X011466Y001904*
X011444Y001916*
X011395Y00186*
X011347Y0019*
X011397Y001957*
X011396Y001959*
X011393Y001963*
X011388Y001969*
X011383Y001978*
X011375Y001989*
X011369Y002002*
X011363Y002017*
X011356Y002032*
Y002033*
X011355Y002034*
X011354Y002039*
X011352Y002048*
X011349Y002059*
X011346Y002073*
X011344Y002088*
X011343Y002104*
X011342Y002121*
Y002122*
Y002126*
X011343Y002131*
Y002139*
X011344Y002147*
X011345Y002158*
X011347Y002169*
X01135Y002181*
X011354Y002194*
X011358Y002208*
X011363Y002222*
X011369Y002236*
X011377Y002251*
X011385Y002264*
X011395Y002278*
X011407Y002291*
X011408Y002292*
X01141Y002293*
X011415Y002297*
X011419Y002302*
X011425Y002306*
X011434Y002312*
X011443Y002318*
X011454Y002324*
X011465Y002331*
X011478Y002337*
X011492Y002343*
X011507Y002347*
X011523Y002352*
X01154Y002355*
X011558Y002357*
X011577Y002358*
X011584*
X011589Y002357*
X011597*
X011604Y002356*
X011613Y002354*
X011622*
X011644Y002349*
X011666Y002342*
X01169Y002332*
X011701Y002326*
X011712Y002319*
X011757Y002372*
X011804Y002333*
G37*
G36*
X014691Y002357D02*
X014702Y002355D01*
X014716Y002353*
X01473Y002349*
X014744Y002344*
X014758Y002337*
X01476Y002336*
X014763Y002334*
X01477Y002329*
X014778Y002323*
X014786Y002314*
X014795Y002303*
X014803Y002292*
X014811Y002277*
X014812Y002276*
X014813Y002272*
X014814Y002264*
X014817Y002254*
X01482Y002242*
X014822Y002225*
X014823Y002205*
X014824Y002182*
Y001891*
X014702*
Y002151*
Y002152*
Y002154*
Y002158*
Y002162*
X014701Y002174*
Y002188*
X0147Y002202*
X014697Y002217*
X014694Y00223*
X014691Y002234*
X01469Y002239*
X014689Y00224*
X014686Y002243*
X014682Y002247*
X014677Y002252*
X01467Y002257*
X01466Y002262*
X01465Y002264*
X014638Y002265*
X014633*
X014629Y002264*
X014622Y002263*
X014615Y002262*
X014607Y002259*
X014598Y002255*
X014589Y00225*
Y002249*
X014586Y002247*
X014582Y002243*
X014578Y002238*
X014572Y002232*
X014567Y002224*
X014562Y002215*
X014558Y002204*
Y002202*
X014556Y002199*
X014555Y002191*
X014553Y002181*
X014551Y002168*
X01455Y002151*
X014548Y002132*
Y002109*
Y001891*
X014427*
Y00214*
Y002141*
Y002143*
Y002147*
Y002151*
Y002162*
X014426Y002176*
X014425Y002191*
Y002204*
X014423Y002217*
X014421Y002222*
X01442Y002226*
Y002227*
X014419Y00223*
X014417Y002233*
X014415Y002237*
X014409Y002247*
X014404Y002252*
X0144Y002255*
X014399Y002256*
X014397Y002257*
X014394Y002259*
X014391Y002261*
X014385Y002262*
X014379Y002263*
X014372Y002265*
X014359*
X014353Y002264*
X014347Y002263*
X014339Y002262*
X014331Y002259*
X014322Y002255*
X014313Y00225*
X014312Y002249*
X01431Y002247*
X014306Y002243*
X014302Y002239*
X014296Y002232*
X014291Y002225*
X014286Y002216*
X014281Y002206*
Y002205*
X01428Y002201*
X014279Y002193*
X014277Y002184*
X014275Y00217*
X014274Y002155*
X014272Y002135*
Y002112*
Y001891*
X014151*
Y002348*
X014262*
Y002285*
X014263Y002286*
X014265Y002288*
X014269Y002292*
X014273Y002297*
X014279Y002303*
X014285Y002308*
X014293Y002315*
X014302Y002322*
X014312Y002328*
X014323Y002335*
X014347Y002347*
X014361Y002352*
X014374Y002355*
X014389Y002357*
X014404Y002358*
X014412*
X01442Y002357*
X01443Y002356*
X014442Y002354*
X014455Y002351*
X014467Y002346*
X01448Y00234*
X014482Y002339*
X014486Y002336*
X014492Y002333*
X014499Y002326*
X014507Y002318*
X014517Y002309*
X014526Y002297*
X014534Y002284*
X014536Y002286*
X014539Y002291*
X014545Y002297*
X014553Y002305*
X014563Y002314*
X014574Y002324*
X014586Y002333*
X014599Y00234*
X0146Y002341*
X014605Y002343*
X014612Y002345*
X014621Y002349*
X014632Y002353*
X014645Y002355*
X014659Y002357*
X014673Y002358*
X014681*
X014691Y002357*
G37*
G36*
X013907D02*
X013919Y002355D01*
X013933Y002353*
X013946Y002349*
X013961Y002344*
X013974Y002337*
X013976Y002336*
X01398Y002334*
X013986Y002329*
X013995Y002323*
X014003Y002314*
X014012Y002303*
X01402Y002292*
X014027Y002277*
X014028Y002276*
X014029Y002272*
X014031Y002264*
X014034Y002254*
X014036Y002242*
X014038Y002225*
X014039Y002205*
X01404Y002182*
Y001891*
X013919*
Y002151*
Y002152*
Y002154*
Y002158*
Y002162*
X013918Y002174*
X013917Y002188*
X013916Y002202*
X013913Y002217*
X013911Y00223*
X013908Y002234*
X013906Y002239*
X013905Y00224*
X013903Y002243*
X013899Y002247*
X013893Y002252*
X013886Y002257*
X013877Y002262*
X013866Y002264*
X013854Y002265*
X01385*
X013845Y002264*
X013839Y002263*
X013831Y002262*
X013823Y002259*
X013814Y002255*
X013806Y00225*
X013805Y002249*
X013802Y002247*
X013799Y002243*
X013794Y002238*
X013789Y002232*
X013783Y002224*
X013779Y002215*
X013774Y002204*
Y002202*
X013772Y002199*
X013771Y002191*
X01377Y002181*
X013768Y002168*
X013767Y002151*
X013765Y002132*
Y002109*
Y001891*
X013644*
Y00214*
Y002141*
Y002143*
Y002147*
Y002151*
Y002162*
X013643Y002176*
X013642Y002191*
X013641Y002204*
X013639Y002217*
X013637Y002222*
X013636Y002226*
Y002227*
Y00223*
X013634Y002233*
X013632Y002237*
X013626Y002247*
X013621Y002252*
X013616Y002255*
Y002256*
X013614Y002257*
X013611Y002259*
X013607Y002261*
X013602Y002262*
X013596Y002263*
X013588Y002265*
X013575*
X01357Y002264*
X013564Y002263*
X013555Y002262*
X013547Y002259*
X013539Y002255*
X01353Y00225*
X013529Y002249*
X013526Y002247*
X013523Y002243*
X013518Y002239*
X013513Y002232*
X013507Y002225*
X013503Y002216*
X013498Y002206*
Y002205*
X013496Y002201*
X013495Y002193*
X013493Y002184*
X013492Y00217*
X013491Y002155*
X013489Y002135*
Y002112*
Y001891*
X013368*
Y002348*
X013479*
Y002285*
X01348Y002286*
X013482Y002288*
X013485Y002292*
X01349Y002297*
X013495Y002303*
X013502Y002308*
X01351Y002315*
X013519Y002322*
X013529Y002328*
X01354Y002335*
X013564Y002347*
X013577Y002352*
X013591Y002355*
X013606Y002357*
X013621Y002358*
X013628*
X013636Y002357*
X013647Y002356*
X013658Y002354*
X013671Y002351*
X013684Y002346*
X013697Y00234*
X013698Y002339*
X013702Y002336*
X013708Y002333*
X013716Y002326*
X013724Y002318*
X013733Y002309*
X013742Y002297*
X01375Y002284*
X013752Y002286*
X013756Y002291*
X013761Y002297*
X01377Y002305*
X01378Y002314*
X01379Y002324*
X013802Y002333*
X013815Y00234*
X013817Y002341*
X013821Y002343*
X013829Y002345*
X013838Y002349*
X013849Y002353*
X013862Y002355*
X013875Y002357*
X01389Y002358*
X013898*
X013907Y002357*
G37*
G36*
X012338Y002524D02*
X012347Y002523D01*
X012355Y002522*
X012365Y00252*
X012375Y002518*
X012398Y002511*
X012409Y002507*
X012422Y0025*
X012434Y002494*
X012445Y002487*
X012457Y002477*
X012467Y002467*
X012468*
X012469Y002466*
X012471Y002463*
X012474Y002459*
X012481Y00245*
X01249Y002437*
X012498Y002422*
X012504Y002404*
X01251Y002384*
Y002374*
X012511Y002363*
Y002362*
Y002359*
X01251Y002354*
Y002349*
X012509Y002342*
X012507Y002334*
X012504Y002324*
X0125Y002314*
X012495Y002304*
X01249Y002293*
X012482Y002283*
X012473Y002272*
X012462Y002261*
X01245Y00225*
X012437Y00224*
X01242Y00223*
X012421*
X012423Y002229*
X012426*
X012429Y002227*
X012439Y002224*
X012451Y002219*
X012465Y002211*
X01248Y002202*
X012494Y002191*
X012507Y002177*
X012509Y002175*
X012512Y00217*
X012517Y002161*
X012523Y00215*
X01253Y002136*
X012534Y002119*
X012538Y0021*
X01254Y002079*
Y002078*
Y002076*
Y002071*
X012539Y002066*
X012538Y002058*
X012536Y00205*
X012534Y00204*
X012532Y00203*
X012525Y002008*
X01252Y001996*
X012514Y001984*
X012507Y001972*
X012499Y00196*
X01249Y001948*
X012479Y001937*
X012478Y001936*
X012476Y001935*
X012472Y001932*
X012468Y001928*
X012461Y001924*
X012455Y001919*
X012446Y001914*
X012437Y001908*
X012427Y001903*
X012415Y001897*
X012402Y001893*
X012389Y001888*
X012375Y001884*
X01236Y001882*
X012344Y00188*
X012327Y001879*
X012319*
X012313Y00188*
X012306Y001881*
X012297Y001882*
X012288Y001884*
X012277Y001885*
X012255Y001891*
X012232Y0019*
X012219Y001905*
X012208Y001912*
X012196Y00192*
X012185Y001928*
X012184Y001929*
X012183Y001931*
X01218Y001934*
X012176Y001937*
X012172Y001942*
X012167Y001948*
X012162Y001955*
X012156Y001963*
X012151Y001972*
X012144Y001981*
X012134Y002003*
X012126Y002028*
X012122Y002042*
X012121Y002057*
X012237Y002071*
Y00207*
Y002069*
X012238Y002064*
X01224Y002056*
X012243Y002046*
X012247Y002035*
X012252Y002023*
X012259Y002012*
X012267Y002002*
X012268Y002001*
X012272Y001998*
X012277Y001995*
X012284Y001991*
X012293Y001986*
X012303Y001983*
X012314Y00198*
X012326Y001979*
X012328*
X012333Y00198*
X012339Y001981*
X012348Y001983*
X012358Y001986*
X012368Y001991*
X012379Y001998*
X012389Y002007*
X01239Y002008*
X012394Y002013*
X012398Y002019*
X012403Y002027*
X012408Y002038*
X012412Y002052*
X012415Y002068*
X012416Y002085*
Y002086*
Y002087*
Y002092*
X012415Y0021*
X012413Y002111*
X012409Y002123*
X012405Y002135*
X012398Y002147*
X01239Y002158*
X012389Y002159*
X012386Y002162*
X01238Y002167*
X012374Y002171*
X012365Y002177*
X012355Y002181*
X012344Y002184*
X012331Y002185*
X012322*
X012316Y002184*
X012307Y002183*
X012297Y002181*
X012287Y002179*
X012275Y002176*
X012288Y002273*
X012296*
X012306Y002274*
X012316Y002275*
X012328Y002278*
X012341Y002282*
X012353Y002287*
X012364Y002294*
X012365Y002295*
X012368Y002299*
X012372Y002303*
X012378Y002311*
X012382Y002319*
X012387Y002329*
X012389Y002341*
X01239Y002354*
Y002356*
Y00236*
X012389Y002365*
X012388Y002373*
X012386Y002381*
X012382Y002389*
X012378Y002398*
X012371Y002406*
X01237*
X012367Y002408*
X012364Y002412*
X012357Y002416*
X01235Y002418*
X012342Y002422*
X012331Y002424*
X01232Y002425*
X012315*
X012309Y002424*
X012302Y002422*
X012294Y002419*
X012285Y002416*
X012275Y00241*
X012267Y002403*
X012266Y002402*
X012264Y002399*
X01226Y002394*
X012255Y002386*
X012251Y002378*
X012247Y002367*
X012244Y002354*
X012241Y00234*
X01213Y002358*
Y002359*
X012131Y002361*
Y002364*
X012132Y002368*
X012134Y002378*
X012138Y002392*
X012143Y002406*
X012149Y002422*
X012156Y002436*
X012164Y00245*
X012165Y002452*
X012169Y002456*
X012174Y002462*
X012182Y00247*
X012191Y002478*
X012202Y002488*
X012215Y002497*
X01223Y002505*
X012231*
X012232Y002506*
X012237Y002508*
X012246Y002511*
X012257Y002515*
X012271Y002518*
X012287Y002522*
X012305Y002524*
X012324Y002525*
X012332*
X012338Y002524*
G37*
G36*
X013084D02*
X013092Y002523D01*
X013101Y002522*
X013111Y00252*
X013122Y002518*
X013145Y002512*
X013169Y002503*
X013182Y002498*
X013193Y002491*
X013205Y002483*
X013215Y002474*
X013216Y002473*
X013217Y002472*
X013219Y002468*
X013223Y002465*
X013227Y00246*
X013232Y002454*
X013237Y002447*
X013242Y002439*
X013251Y002421*
X01326Y0024*
X013264Y002388*
X013266Y002375*
X013268Y002362*
Y002348*
Y002346*
Y002341*
Y002333*
X013267Y002323*
X013265Y00231*
X013262Y002296*
X013258Y002282*
X013253Y002267*
X013252Y002265*
X01325Y002261*
X013247Y002252*
X013241Y002242*
X013235Y002231*
X013227Y002217*
X013217Y002202*
X013205Y002187*
X013204Y002186*
X0132Y002181*
X013195Y002175*
X013186Y002166*
X013176Y002155*
X013162Y00214*
X013145Y002125*
X013125Y002106*
Y002105*
X013123Y002104*
X01312Y002101*
X013116Y002098*
X013106Y002088*
X013094Y002078*
X013083Y002066*
X013071Y002054*
X01306Y002044*
X013056Y002039*
X013053Y002036*
X013052Y002035*
X01305Y002033*
X013047Y002029*
X013043Y002025*
X013035Y002015*
X013028Y002003*
X013268*
Y001891*
X012845*
Y001892*
Y001894*
X012846Y001897*
X012847Y001902*
X012848Y001907*
Y001914*
X012852Y00193*
X012858Y001948*
X012865Y001968*
X012874Y00199*
X012886Y002011*
Y002012*
X012888Y002014*
X012889Y002017*
X012893Y002021*
X012897Y002027*
X012902Y002034*
X012909Y002042*
X012916Y002051*
X012924Y002062*
X012934Y002073*
X012945Y002086*
X012958Y002099*
X012971Y002113*
X012987Y002129*
X013003Y002145*
X013022Y002162*
Y002163*
X013025Y002166*
X013029Y00217*
X013034Y002175*
X013042Y002181*
X013049Y002188*
X013065Y002204*
X013082Y002221*
X013098Y002239*
X013105Y002246*
X013113Y002254*
X013118Y002261*
X013122Y002266*
X013123Y002268*
X013125Y002273*
X01313Y00228*
X013135Y00229*
X013139Y002301*
X013144Y002314*
X013146Y002326*
X013147Y00234*
Y002341*
Y002342*
Y002346*
X013146Y002354*
X013145Y002364*
X013142Y002374*
X013138Y002384*
X013133Y002394*
X013125Y002403*
Y002404*
X013122Y002406*
X013116Y00241*
X01311Y002414*
X013101Y002417*
X013091Y002421*
X013079Y002424*
X013065Y002425*
X013059*
X013052Y002424*
X013043Y002422*
X013033Y002419*
X013023Y002415*
X013013Y002409*
X013004Y002402*
X013003Y002401*
X013001Y002397*
X012997Y002392*
X012993Y002384*
X012989Y002374*
X012985Y00236*
X012981Y002344*
X01298Y002326*
X012859Y002338*
Y002339*
X01286Y002343*
Y002347*
X012862Y002354*
X012863Y002363*
X012866Y002372*
X012869Y002382*
X012871Y002394*
X01288Y002416*
X012891Y00244*
X012899Y002452*
X012907Y002463*
X012916Y002472*
X012926Y002481*
X012927Y002482*
X012929Y002483*
X012931Y002485*
X012936Y002488*
X012941Y002491*
X012949Y002495*
X012956Y002499*
X012965Y002503*
X012975Y002508*
X012986Y002511*
X01301Y002518*
X013038Y002523*
X013053Y002524*
X013068Y002525*
X013077*
X013084Y002524*
G37*
G36*
X012762Y001891D02*
X012641D01*
Y002012*
X012762*
Y001891*
G37*
G36*
X004648Y019394D02*
X004602Y019341D01*
X004603Y019339*
X004606Y019335*
X004611Y019329*
X004616Y01932*
X004623Y01931*
X004629Y019297*
X004636Y019283*
X004642Y019268*
X004643Y019266*
X004645Y01926*
X004646Y019252*
X00465Y019241*
X004653Y019228*
X004655Y019213*
X004656Y019198*
X004657Y01918*
Y019179*
Y019176*
Y01917*
X004656Y019163*
Y019155*
X004654Y019144*
X004652Y019133*
X004649Y01912*
X004646Y019107*
X004641Y019094*
X004635Y019079*
X004628Y019065*
X004621Y019051*
X004612Y019036*
X004601Y019023*
X004589Y01901*
X004588Y019009*
X004586Y019007*
X004582Y019004*
X004577Y018999*
X00457Y018994*
X004563Y018989*
X004553Y018983*
X004543Y018976*
X004531Y01897*
X004518Y018963*
X004504Y018958*
X004489Y018953*
X004473Y018949*
X004456Y018945*
X004439Y018943*
X00442*
X004412*
X004407*
X0044*
X004393Y018944*
X004385Y018945*
X004376Y018947*
X004355Y018952*
X004333Y018957*
X00431Y018966*
X004287Y018978*
X004238Y018922*
X004191Y018962*
X004241Y019019*
X00424Y019021*
X004236Y019025*
X004232Y019031*
X004226Y01904*
X004219Y019051*
X004213Y019064*
X004206Y019078*
X0042Y019094*
Y019095*
X004199Y019096*
X004198Y019101*
X004195Y01911*
X004193Y019121*
X00419Y019135*
X004188Y01915*
X004186Y019166*
X004185Y019183*
Y019184*
Y019188*
X004186Y019193*
Y0192*
X004187Y019209*
X004189Y019219*
X004191Y01923*
X004194Y019243*
X004197Y019256*
X004202Y01927*
X004206Y019284*
X004213Y019298*
X004221Y019312*
X004229Y019326*
X004239Y01934*
X004251Y019352*
X004252Y019353*
X004254Y019355*
X004258Y019359*
X004263Y019363*
X004269Y019368*
X004277Y019373*
X004287Y01938*
X004297Y019386*
X004308Y019393*
X004322Y019399*
X004336Y019404*
X00435Y019409*
X004367Y019414*
X004384Y019417*
X004401Y019419*
X00442Y01942*
X004428*
X004433Y019419*
X004441*
X004448Y019418*
X004457Y019416*
X004466Y019415*
X004488Y019411*
X00451Y019403*
X004533Y019393*
X004544Y019388*
X004555Y019381*
X004601Y019434*
X004648Y019394*
G37*
G36*
X007534Y019419D02*
X007546Y019417D01*
X00756Y019414*
X007573Y019411*
X007588Y019406*
X007602Y019399*
X007604Y019398*
X007607Y019395*
X007614Y019391*
X007622Y019384*
X00763Y019375*
X007639Y019365*
X007647Y019353*
X007655Y019339*
Y019338*
X007656Y019333*
X007658Y019326*
X007661Y019316*
X007664Y019303*
X007665Y019287*
X007666Y019267*
X007667Y019244*
Y018953*
X007546*
Y019213*
Y019214*
Y019216*
Y019219*
Y019224*
X007545Y019236*
X007544Y01925*
X007543Y019264*
X007541Y019279*
X007538Y019291*
X007535Y019296*
X007533Y019301*
X007532*
X00753Y019305*
X007526Y019309*
X007521Y019314*
X007513Y019319*
X007504Y019323*
X007493Y019326*
X007481Y019327*
X007477*
X007472Y019326*
X007466Y019325*
X007459Y019323*
X00745Y019321*
X007441Y019317*
X007433Y019311*
X007432*
X00743Y019309*
X007426Y019305*
X007421Y0193*
X007416Y019293*
X00741Y019286*
X007406Y019277*
X007401Y019266*
Y019264*
X007399Y01926*
Y019253*
X007397Y019243*
X007395Y019229*
X007394Y019213*
X007392Y019194*
Y019171*
Y018953*
X007271*
Y019202*
Y019203*
Y019205*
Y019209*
Y019213*
Y019224*
X00727Y019238*
X007269Y019252*
X007268Y019266*
X007266Y019279*
X007265Y019284*
X007264Y019288*
Y019289*
X007263Y019291*
X007261Y019295*
X007259Y019299*
X007253Y019309*
X007248Y019313*
X007244Y019317*
X007243Y019318*
X007241Y019319*
X007238Y019321*
X007235Y019322*
X007229Y019324*
X007223Y019325*
X007215Y019327*
X007203*
X007197Y019326*
X007191Y019325*
X007183Y019323*
X007174Y019321*
X007166Y019317*
X007157Y019311*
X007156*
X007153Y019309*
X00715Y019305*
X007145Y019301*
X00714Y019294*
X007134Y019287*
X00713Y019278*
X007125Y019268*
Y019267*
X007123Y019262*
Y019255*
X007121Y019246*
X007119Y019232*
X007118Y019217*
X007116Y019197*
Y019174*
Y018953*
X006995*
Y01941*
X007106*
Y019347*
X007107Y019348*
X007109Y01935*
X007112Y019353*
X007117Y019359*
X007123Y019364*
X007129Y01937*
X007137Y019377*
X007146Y019383*
X007156Y01939*
X007167Y019397*
X007191Y019409*
X007205Y019414*
X007218Y019417*
X007233Y019419*
X007248Y01942*
X007256*
X007264Y019419*
X007274Y019418*
X007286Y019415*
X007298Y019413*
X007311Y019408*
X007324Y019402*
X007326Y019401*
X007329Y019398*
X007336Y019394*
X007343Y019388*
X007351Y01938*
X00736Y019371*
X007369Y019359*
X007378Y019346*
X007379Y019348*
X007383Y019352*
X007389Y019359*
X007397Y019367*
X007407Y019376*
X007418Y019385*
X00743Y019394*
X007442Y019402*
X007444Y019403*
X007449Y019404*
X007456Y019407*
X007465Y019411*
X007476Y019414*
X007489Y019417*
X007502Y019419*
X007517Y01942*
X007525*
X007534Y019419*
G37*
G36*
X006751D02*
X006763Y019417D01*
X006776Y019414*
X00679Y019411*
X006805Y019406*
X006818Y019399*
X00682Y019398*
X006824Y019395*
X00683Y019391*
X006838Y019384*
X006846Y019375*
X006856Y019365*
X006864Y019353*
X006871Y019339*
X006872Y019338*
X006873Y019333*
X006875Y019326*
X006877Y019316*
X00688Y019303*
X006882Y019287*
X006883Y019267*
X006884Y019244*
Y018953*
X006763*
Y019213*
Y019214*
Y019216*
Y019219*
Y019224*
X006762Y019236*
X006761Y01925*
X00676Y019264*
X006757Y019279*
X006754Y019291*
X006752Y019296*
X00675Y019301*
X006749*
X006746Y019305*
X006743Y019309*
X006737Y019314*
X00673Y019319*
X006721Y019323*
X00671Y019326*
X006698Y019327*
X006693*
X006689Y019326*
X006683Y019325*
X006675Y019323*
X006667Y019321*
X006658Y019317*
X00665Y019311*
X006649*
X006646Y019309*
X006642Y019305*
X006638Y0193*
X006632Y019293*
X006627Y019286*
X006622Y019277*
X006618Y019266*
Y019264*
X006616Y01926*
X006615Y019253*
X006613Y019243*
X006611Y019229*
Y019213*
X006609Y019194*
Y019171*
Y018953*
X006488*
Y019202*
Y019203*
Y019205*
Y019209*
Y019213*
Y019224*
X006487Y019238*
X006486Y019252*
X006485Y019266*
X006483Y019279*
X006481Y019284*
X00648Y019288*
Y019289*
X006479Y019291*
X006478Y019295*
X006476Y019299*
X006469Y019309*
X006465Y019313*
X00646Y019317*
X006459Y019318*
X006457Y019319*
X006455Y019321*
X006451Y019322*
X006446Y019324*
X006439Y019325*
X006432Y019327*
X006419*
X006414Y019326*
X006407Y019325*
X006399Y019323*
X006391Y019321*
X006383Y019317*
X006374Y019311*
X006373*
X00637Y019309*
X006366Y019305*
X006362Y019301*
X006356Y019294*
X006351Y019287*
X006346Y019278*
X006342Y019268*
Y019267*
X00634Y019262*
X006339Y019255*
X006337Y019246*
X006335Y019232*
X006334Y019217*
X006333Y019197*
Y019174*
Y018953*
X006212*
Y01941*
X006323*
Y019347*
X006324Y019348*
X006325Y01935*
X006329Y019353*
X006334Y019359*
X006339Y019364*
X006345Y01937*
X006354Y019377*
X006363Y019383*
X006373Y01939*
X006384Y019397*
X006407Y019409*
X006421Y019414*
X006435Y019417*
X006449Y019419*
X006465Y01942*
X006472*
X00648Y019419*
X00649Y019418*
X006502Y019415*
X006515Y019413*
X006528Y019408*
X00654Y019402*
X006542Y019401*
X006546Y019398*
X006552Y019394*
X00656Y019388*
X006568Y01938*
X006577Y019371*
X006586Y019359*
X006594Y019346*
X006596Y019348*
X0066Y019352*
X006605Y019359*
X006613Y019367*
X006623Y019376*
X006634Y019385*
X006646Y019394*
X006659Y019402*
X006661Y019403*
X006665Y019404*
X006672Y019407*
X006682Y019411*
X006693Y019414*
X006705Y019417*
X006719Y019419*
X006734Y01942*
X006742*
X006751Y019419*
G37*
G36*
X005182Y019586D02*
X00519Y019585D01*
X005198Y019584*
X005209Y019582*
X005219Y019579*
X005241Y019573*
X005253Y019568*
X005266Y019562*
X005278Y019556*
X005289Y019548*
X005301Y019539*
X005311Y019529*
Y019528*
X005312Y019527*
X005315Y019525*
X005318Y019521*
X005325Y019512*
X005333Y019499*
X005342Y019484*
X005348Y019465*
X005353Y019445*
X005354Y019435*
X005355Y019424*
Y019421*
X005354Y019416*
X005353Y019411*
X005352Y019403*
X005351Y019395*
X005348Y019386*
X005344Y019376*
X005339Y019366*
X005333Y019355*
X005326Y019344*
X005317Y019333*
X005306Y019322*
X005294Y019311*
X00528Y019301*
X005264Y019291*
X005265*
X005267*
X00527*
X005273Y019289*
X005283Y019286*
X005295Y019281*
X005309Y019273*
X005323Y019264*
X005338Y019252*
X005351Y019239*
X005352Y019237*
X005356Y019231*
X005361Y019223*
X005367Y019211*
X005373Y019198*
X005378Y01918*
X005382Y019162*
X005383Y019141*
Y01914*
Y019137*
Y019133*
Y019127*
X005382Y01912*
X00538Y019112*
X005378Y019102*
X005376Y019092*
X005369Y01907*
X005363Y019058*
X005358Y019045*
X005351Y019034*
X005342Y019022*
X005333Y01901*
X005322Y018999*
X005321Y018998*
X00532Y018996*
X005316Y018994*
X005311Y01899*
X005305Y018985*
X005299Y018981*
X00529Y018975*
X00528Y01897*
X00527Y018964*
X005259Y018959*
X005246Y018954*
X005233Y01895*
X005219Y018946*
X005204Y018943*
X005188Y018942*
X005171Y018941*
X005163*
X005157Y018942*
X005149Y018943*
X005141*
X005132Y018945*
X005121Y018947*
X005099Y018953*
X005076Y018962*
X005063Y018967*
X005052Y018973*
X00504Y018982*
X005029Y01899*
X005028Y018991*
X005026Y018993*
X005024Y018995*
X00502Y018999*
X005015Y019004*
X005011Y01901*
X005005Y019016*
X005Y019025*
X004994Y019034*
X004988Y019043*
X004978Y019065*
X00497Y01909*
X004966Y019104*
X004964Y019118*
X005081Y019133*
Y019132*
Y019131*
X005082Y019126*
X005084Y019117*
X005086Y019107*
X005091Y019096*
X005096Y019085*
X005103Y019074*
X005111Y019064*
X005112Y019063*
X005116Y01906*
X005121Y019056*
X005127Y019053*
X005137Y019048*
X005147Y019045*
X005157Y019042*
X00517Y019041*
X005172*
X005177Y019042*
X005183Y019043*
X005192Y019045*
X005202Y019048*
X005212Y019053*
X005223Y01906*
X005233Y019069*
X005234Y01907*
X005238Y019075*
X005241Y019081*
X005247Y019089*
X005251Y0191*
X005256Y019114*
X005259Y019129*
X00526Y019147*
Y019148*
Y019154*
X005259Y019162*
X005257Y019173*
X005253Y019185*
X005249Y019197*
X005242Y019209*
X005234Y019219*
X005233Y01922*
X005229Y019224*
X005224Y019229*
X005218Y019233*
X005209Y019239*
X005198Y019242*
X005188Y019246*
X005175Y019247*
X005166*
X005159Y019246*
X005151Y019245*
X005141Y019243*
X005131Y01924*
X005119Y019238*
X005132Y019335*
X00514*
X005149Y019336*
X00516Y019337*
X005172Y01934*
X005185Y019343*
X005197Y019349*
X005208Y019356*
X005209Y019357*
X005212Y019361*
X005216Y019365*
X005221Y019373*
X005226Y019381*
X00523Y019391*
X005233Y019403*
X005234Y019416*
Y019418*
Y019422*
X005233Y019427*
X005231Y019434*
X005229Y019443*
X005226Y019451*
X005221Y01946*
X005215Y019467*
X005214Y019468*
X005211Y01947*
X005208Y019474*
X005201Y019477*
X005194Y01948*
X005186Y019484*
X005175Y019485*
X005164Y019486*
X005158*
X005153Y019485*
X005146Y019484*
X005137Y019481*
X005128Y019477*
X005119Y019472*
X005111Y019465*
X00511Y019464*
X005107Y019461*
X005104Y019455*
X005099Y019448*
X005095Y01944*
X005091Y019429*
X005087Y019416*
X005085Y019402*
X004973Y01942*
Y019421*
X004974Y019423*
Y019425*
X004975Y01943*
X004978Y01944*
X004982Y019454*
X004987Y019468*
X004993Y019484*
X005Y019498*
X005008Y019512*
X005009Y019514*
X005013Y019517*
X005018Y019524*
X005025Y019532*
X005034Y01954*
X005045Y019549*
X005059Y019558*
X005074Y019567*
X005075*
X005076*
X005081Y019569*
X00509Y019573*
X005101Y019577*
X005115Y01958*
X005131Y019584*
X005148Y019586*
X005168Y019587*
X005176*
X005182Y019586*
G37*
G36*
X005927D02*
X005935Y019585D01*
X005945Y019584*
X005955Y019582*
X005966Y01958*
X005989Y019574*
X006013Y019565*
X006026Y019559*
X006037Y019553*
X006048Y019545*
X006058Y019536*
X006059Y019535*
X006061Y019534*
X006063Y01953*
X006067Y019526*
X006071Y019522*
X006076Y019516*
X00608Y019509*
X006086Y019501*
X006095Y019483*
X006104Y019462*
X006108Y01945*
X006109Y019437*
X006111Y019424*
X006112Y01941*
Y019408*
Y019403*
X006111Y019394*
X00611Y019384*
X006109Y019372*
X006106Y019358*
X006102Y019343*
X006097Y019329*
X006096Y019327*
X006094Y019322*
X00609Y019314*
X006085Y019304*
X006079Y019292*
X00607Y019279*
X00606Y019264*
X006048Y019249*
Y019248*
X006044Y019243*
X006038Y019237*
X00603Y019228*
X006019Y019217*
X006006Y019202*
X005989Y019187*
X005969Y019168*
X005968Y019167*
X005966Y019166*
X005964Y019163*
X00596Y019159*
X00595Y01915*
X005938Y019139*
X005926Y019127*
X005915Y019116*
X005904Y019106*
X0059Y019101*
X005896Y019097*
X005895Y019096*
X005894Y019095*
X005891Y019091*
X005887Y019086*
X005879Y019076*
X005872Y019065*
X006112*
Y018953*
X005689*
Y018955*
X00569Y018959*
Y018963*
X005691Y018969*
X005692Y018975*
X005696Y018992*
X005701Y01901*
X005709Y01903*
X005718Y019052*
X00573Y019073*
Y019074*
X005731Y019076*
X005733Y019079*
X005737Y019083*
X005741Y019089*
X005746Y019096*
X005752Y019104*
X00576Y019113*
X005768Y019124*
X005778Y019135*
X005789Y019147*
X005802Y019161*
X005815Y019175*
X005831Y01919*
X005847Y019207*
X005865Y019224*
X005866Y019225*
X005869Y019228*
X005873Y019231*
X005878Y019237*
X005885Y019242*
X005893Y01925*
X005909Y019266*
X005925Y019283*
X005942Y019301*
X005949Y019308*
X005956Y019316*
X005962Y019322*
X005966Y019328*
Y01933*
X005969Y019334*
X005974Y019342*
X005978Y019352*
X005983Y019362*
X005987Y019375*
X00599Y019388*
X005991Y019402*
Y019403*
Y019408*
X00599Y019416*
X005988Y019425*
X005986Y019435*
X005982Y019445*
X005976Y019455*
X005969Y019465*
X005968*
X005966Y019468*
X00596Y019472*
X005954Y019475*
X005945Y019479*
X005935Y019483*
X005923Y019485*
X005909Y019486*
X005903*
X005895Y019485*
X005887Y019484*
X005877Y019481*
X005867Y019476*
X005857Y019471*
X005848Y019464*
X005847Y019463*
X005844Y019459*
X005841Y019454*
X005837Y019445*
X005833Y019435*
X005829Y019422*
X005825Y019406*
X005823Y019388*
X005703Y0194*
Y019401*
X005704Y019404*
Y019409*
X005706Y019416*
X005707Y019424*
X00571Y019434*
X005712Y019444*
X005715Y019455*
X005724Y019478*
X005735Y019502*
X005742Y019514*
X005751Y019525*
X00576Y019534*
X00577Y019543*
X005771Y019544*
X005772Y019545*
X005775Y019547*
X00578Y01955*
X005785Y019553*
X005792Y019557*
X0058Y019561*
X005809Y019565*
X005819Y019569*
X00583Y019573*
X005853Y01958*
X005882Y019585*
X005896Y019586*
X005912Y019587*
X005921*
X005927Y019586*
G37*
G36*
X005606Y018953D02*
X005485D01*
Y019074*
X005606*
Y018953*
G37*
G36*
X019889Y012278D02*
X019629D01*
X019628*
X019626*
X019622*
X019618*
X019606Y012277*
X019592Y012276*
X019578Y012275*
X019563Y012272*
X019551Y012269*
X019546Y012267*
X019541Y012265*
Y012264*
X019537Y012261*
X019533Y012258*
X019528Y012252*
X019523Y012245*
X019519Y012236*
X019516Y012225*
X019515Y012213*
Y012208*
X019516Y012204*
X019517Y012198*
X019519Y01219*
X019521Y012182*
X019525Y012173*
X01953Y012165*
X019531Y012164*
X019533Y012161*
X019537Y012157*
X019542Y012153*
X019549Y012147*
X019556Y012142*
X019565Y012137*
X019576Y012133*
X019578*
X019582Y012131*
X019589Y01213*
X019599Y012128*
X019612Y012126*
X019629*
X019648Y012124*
X019671*
X019889*
Y012003*
X01964*
X019639*
X019637*
X019633*
X019629*
X019618*
X019604Y012002*
X01959Y012001*
X019576Y012*
X019563Y011998*
X019558Y011996*
X019554Y011995*
X019553*
X019551Y011994*
X019547Y011993*
X019543Y011991*
X019533Y011984*
X019529Y01198*
X019525Y011975*
X019524Y011974*
X019523Y011973*
X019521Y01197*
X01952Y011966*
X019518Y011961*
X019517Y011954*
X019515Y011947*
Y011934*
X019516Y011929*
X019517Y011922*
X019519Y011914*
X019521Y011906*
X019525Y011898*
X01953Y011889*
X019531Y011888*
X019533Y011885*
X019537Y011881*
X019541Y011877*
X019548Y011871*
X019555Y011866*
X019564Y011861*
X019574Y011857*
X019575*
X01958Y011855*
X019587Y011854*
X019596Y011852*
X01961Y01185*
X019625*
X019645Y011848*
X019668*
X019889*
Y011727*
X019432*
Y011838*
X019495*
X019494Y011839*
X019492Y01184*
X019489Y011844*
X019483Y011849*
X019478Y011854*
X019472Y01186*
X019465Y011869*
X019459Y011878*
X019452Y011888*
X019445Y011899*
X019433Y011922*
X019428Y011936*
X019425Y01195*
X019423Y011964*
X019422Y01198*
Y011987*
X019423Y011995*
X019424Y012005*
X019427Y012017*
X019429Y01203*
X019434Y012043*
X01944Y012055*
X019441Y012057*
X019444Y012061*
X019448Y012067*
X019454Y012075*
X019462Y012083*
X019471Y012092*
X019483Y012101*
X019496Y012109*
X019494Y012111*
X019489Y012115*
X019483Y01212*
X019475Y012128*
X019466Y012138*
X019457Y012149*
X019448Y012161*
X01944Y012174*
X019439Y012176*
X019438Y01218*
X019435Y012188*
X019431Y012197*
X019428Y012208*
X019425Y01222*
X019423Y012234*
X019422Y012249*
Y012257*
X019423Y012266*
X019425Y012278*
X019428Y012291*
X019431Y012305*
X019436Y01232*
X019443Y012333*
X019444Y012335*
X019447Y012339*
X019451Y012345*
X019458Y012353*
X019467Y012362*
X019477Y012371*
X019489Y012379*
X019503Y012386*
X019504Y012387*
X019509Y012388*
X019516Y01239*
X019526Y012392*
X019539Y012395*
X019555Y012397*
X019575Y012398*
X019598Y012399*
X019889*
Y012278*
G37*
G36*
Y011494D02*
X019629D01*
X019628*
X019626*
X019622*
X019618*
X019606Y011493*
X019592Y011492*
X019578Y011491*
X019563Y011489*
X019551Y011486*
X019546Y011483*
X019541Y011481*
X019537Y011478*
X019533Y011474*
X019528Y011469*
X019523Y011461*
X019519Y011452*
X019516Y011441*
X019515Y01143*
Y011425*
X019516Y01142*
X019517Y011414*
X019519Y011407*
X019521Y011399*
X019525Y011389*
X01953Y011381*
X019531Y01138*
X019533Y011378*
X019537Y011374*
X019542Y011369*
X019549Y011364*
X019556Y011358*
X019565Y011354*
X019576Y011349*
X019578*
X019582Y011348*
X019589Y011347*
X019599Y011345*
X019612Y011343*
X019629Y011342*
X019648Y01134*
X019671*
X019889*
Y011219*
X01964*
X019639*
X019637*
X019633*
X019629*
X019618*
X019604Y011218*
X01959Y011217*
X019576Y011216*
X019563Y011215*
X019558Y011213*
X019554Y011212*
X019553*
X019551Y011211*
X019547Y011209*
X019543Y011207*
X019533Y011201*
X019529Y011196*
X019525Y011192*
X019524Y011191*
X019523Y011189*
X019521Y011186*
X01952Y011183*
X019518Y011177*
X019517Y011171*
X019515Y011164*
Y011151*
X019516Y011145*
X019517Y011139*
X019519Y011131*
X019521Y011123*
X019525Y011114*
X01953Y011105*
X019531Y011104*
X019533Y011102*
X019537Y011098*
X019541Y011093*
X019548Y011088*
X019555Y011082*
X019564Y011078*
X019574Y011073*
X019575*
X01958Y011072*
X019587Y011071*
X019596Y011069*
X01961Y011067*
X019625Y011066*
X019645Y011064*
X019668*
X019889*
Y010943*
X019432*
Y011054*
X019495*
X019494Y011055*
X019492Y011057*
X019489Y011061*
X019483Y011065*
X019478Y011071*
X019472Y011077*
X019465Y011085*
X019459Y011094*
X019452Y011104*
X019445Y011115*
X019433Y011139*
X019428Y011153*
X019425Y011166*
X019423Y011181*
X019422Y011196*
Y011204*
X019423Y011212*
X019424Y011222*
X019427Y011234*
X019429Y011246*
X019434Y011259*
X01944Y011272*
X019441Y011274*
X019444Y011277*
X019448Y011284*
X019454Y011291*
X019462Y011299*
X019471Y011308*
X019483Y011317*
X019496Y011326*
X019494Y011328*
X019489Y011331*
X019483Y011337*
X019475Y011345*
X019466Y011355*
X019457Y011366*
X019448Y011378*
X01944Y01139*
X019439Y011392*
X019438Y011397*
X019435Y011404*
X019431Y011413*
X019428Y011424*
X019425Y011437*
X019423Y011451*
X019422Y011465*
Y011473*
X019423Y011482*
X019425Y011494*
X019428Y011508*
X019431Y011522*
X019436Y011536*
X019443Y01155*
X019444Y011552*
X019447Y011555*
X019451Y011562*
X019458Y01157*
X019467Y011578*
X019477Y011587*
X019489Y011595*
X019503Y011603*
X019504Y011604*
X019509*
X019516Y011606*
X019526Y011609*
X019539Y011612*
X019555Y011614*
X019575*
X019598Y011615*
X019889*
Y011494*
G37*
G36*
X019763Y01079D02*
X019889D01*
Y010673*
X019763*
Y010415*
X019658*
X019256Y010688*
Y01079*
X019657*
Y010868*
X019763*
Y01079*
G37*
G36*
X019889Y010216D02*
X019768D01*
Y010337*
X019889*
Y010216*
G37*
G36*
X019691Y010126D02*
X019698D01*
X019706Y010124*
X019715Y010123*
X019725Y010121*
X019746Y010116*
X01977Y010108*
X019783Y010102*
X019795Y010097*
X019807Y010089*
X019818Y010081*
X019819Y01008*
X019822Y010079*
X019826Y010075*
X019831Y01007*
X019837Y010064*
X019845Y010056*
X019852Y010047*
X019859Y010037*
X019868Y010025*
X019875Y010012*
X019882Y009998*
X019889Y009983*
X019894Y009966*
X019898Y009949*
X0199Y00993*
X019901Y00991*
Y009902*
X0199Y009895*
X019899Y009888*
Y009879*
X019898Y00987*
X019896Y009859*
X01989Y009837*
X019881Y009813*
X019877Y009801*
X01987Y009789*
X019863Y009778*
X019855Y009767*
X019854Y009766*
X019853Y009764*
X01985Y009761*
X019847Y009758*
X019841Y009754*
X019836Y009749*
X019829Y009744*
X019822Y009739*
X019813Y009732*
X019804Y009727*
X019782Y009717*
X019757Y009708*
X019744Y009705*
X019729Y009702*
X019716Y009823*
X019718*
X019723*
X019731Y009825*
X01974Y009828*
X01975Y009832*
X019761Y009837*
X019771Y009844*
X019781Y009853*
X019782Y009854*
X019785Y009857*
X019788Y009863*
X019793Y00987*
X019797Y009878*
X019801Y009888*
X019804Y0099*
X019805Y009912*
Y009914*
X019804Y009918*
X019803Y009925*
X019801Y009935*
X019797Y009945*
X019792Y009956*
X019784Y009966*
X019774Y009977*
X019772*
X019768Y009981*
X019761Y009985*
X01975Y00999*
X019737Y009995*
X019722Y009999*
X019703Y010002*
X019681Y010003*
X01968*
X019678*
X019675*
X019671*
X019661Y010002*
X019648Y009999*
X019633Y009997*
X019619Y009992*
X019605Y009986*
X019593Y009977*
X019592Y009976*
X019589Y009972*
X019584Y009966*
X019578Y009958*
X019572Y009948*
X019568Y009936*
X019564Y009923*
X019563Y009908*
Y009903*
X019564Y009899*
X019566Y00989*
X019569Y009877*
X019574Y009863*
X019582Y009847*
X019588Y009839*
X019594Y009831*
X019602Y009823*
X01961Y009814*
X019596Y009717*
X019267Y009779*
Y010099*
X01938*
Y00987*
X019488Y009851*
Y009852*
X019487Y009853*
X019484Y009858*
X019481Y009866*
X019477Y009876*
X019473Y009889*
X01947Y009903*
X019468Y009918*
X019467Y009934*
Y009942*
X019468Y009947*
X019469Y009954*
Y009962*
X019471Y009971*
X019474Y009981*
X019481Y010002*
X019486Y010014*
X019491Y010025*
X019499Y010037*
X019507Y010048*
X019516Y010059*
X019526Y01007*
X019527Y010071*
X019529Y010073*
X019532Y010076*
X019537Y010079*
X019542Y010083*
X01955Y010089*
X019558Y010093*
X019567Y010099*
X019577Y010104*
X019589Y010109*
X019602Y010114*
X019614Y010118*
X019629Y010121*
X019644Y010124*
X019661Y010126*
X019678Y010127*
X019679*
X019682*
X019685*
X019691Y010126*
G37*
G36*
Y009636D02*
X019698D01*
X019706Y009634*
X019715Y009633*
X019725Y009631*
X019746Y009626*
X01977Y009618*
X019783Y009612*
X019795Y009607*
X019807Y009599*
X019818Y009591*
X019819Y00959*
X019822Y009588*
X019826Y009585*
X019831Y00958*
X019837Y009574*
X019845Y009566*
X019852Y009557*
X019859Y009547*
X019868Y009535*
X019875Y009522*
X019882Y009508*
X019889Y009493*
X019894Y009476*
X019898Y009459*
X0199Y00944*
X019901Y00942*
Y009412*
X0199Y009405*
X019899Y009398*
Y009389*
X019898Y00938*
X019896Y009369*
X01989Y009347*
X019881Y009322*
X019877Y009311*
X01987Y009299*
X019863Y009288*
X019855Y009277*
X019854Y009276*
X019853Y009274*
X01985Y009271*
X019847Y009268*
X019841Y009264*
X019836Y009259*
X019829Y009254*
X019822Y009249*
X019813Y009242*
X019804Y009237*
X019782Y009227*
X019757Y009218*
X019744Y009215*
X019729Y009212*
X019716Y009332*
X019718*
X019723Y009333*
X019731Y009335*
X01974Y009338*
X01975Y009342*
X019761Y009347*
X019771Y009354*
X019781Y009362*
X019782Y009363*
X019785Y009367*
X019788Y009373*
X019793Y00938*
X019797Y009388*
X019801Y009398*
X019804Y00941*
X019805Y009422*
Y009424*
X019804Y009428*
X019803Y009435*
X019801Y009444*
X019797Y009455*
X019792Y009465*
X019784Y009476*
X019774Y009486*
X019772Y009487*
X019768Y009491*
X019761Y009495*
X01975Y0095*
X019737Y009505*
X019722Y009509*
X019703Y009512*
X019681Y009513*
X01968*
X019678*
X019675*
X019671*
X019661Y009512*
X019648Y009509*
X019633Y009506*
X019619Y009502*
X019605Y009495*
X019593Y009486*
X019592Y009485*
X019589Y009482*
X019584Y009475*
X019578Y009468*
X019572Y009458*
X019568Y009446*
X019564Y009433*
X019563Y009418*
Y009413*
X019564Y009409*
X019566Y0094*
X019569Y009387*
X019574Y009373*
X019582Y009357*
X019588Y009349*
X019594Y009341*
X019602Y009332*
X01961Y009324*
X019596Y009227*
X019267Y009289*
Y009608*
X01938*
Y00938*
X019488Y009361*
Y009362*
X019487*
X019484Y009368*
X019481Y009376*
X019477Y009386*
X019473Y009399*
X01947Y009413*
X019468Y009428*
X019467Y009444*
Y009452*
X019468Y009457*
X019469Y009464*
Y009472*
X019471Y009481*
X019474Y009491*
X019481Y009512*
X019486Y009524*
X019491Y009535*
X019499Y009547*
X019507Y009558*
X019516Y009569*
X019526Y00958*
X019527Y009581*
X019529Y009583*
X019532Y009586*
X019537Y009589*
X019542Y009593*
X01955Y009598*
X019558Y009603*
X019567Y009608*
X019577Y009614*
X019589Y009618*
X019602Y009624*
X019614Y009628*
X019629Y009631*
X019644Y009634*
X019661Y009636*
X019678Y009637*
X019679*
X019682*
X019685*
X019691Y009636*
G37*
G36*
X01023Y023766D02*
X010242Y023764D01*
X010256Y023761*
X010269Y023757*
X010284Y023753*
X010297Y023745*
X010299*
X010303Y023742*
X010309Y023737*
X010317Y023731*
X010326Y023722*
X010335Y023712*
X010343Y0237*
X01035Y023685*
X010351Y023684*
X010352Y02368*
X010354Y023673*
X010357Y023663*
X010359Y02365*
X010361Y023633*
X010362Y023613*
X010363Y023591*
Y023299*
X010242*
Y02356*
Y023561*
Y023562*
Y023566*
Y023571*
X010241Y023582*
X01024Y023596*
X010239Y023611*
X010236Y023625*
X010234Y023638*
X010231Y023643*
X010229Y023647*
X010228Y023648*
X010225Y023652*
X010222Y023655*
X010216Y023661*
X010209Y023665*
X0102Y02367*
X010189Y023673*
X010177Y023674*
X010173*
X010168Y023673*
X010162Y023672*
X010154Y02367*
X010146Y023667*
X010137Y023663*
X010129Y023658*
X010128Y023657*
X010125Y023655*
X010122Y023652*
X010117Y023646*
X010112Y02364*
X010106Y023633*
X010102Y023623*
X010097Y023612*
Y023611*
X010095Y023607*
X010094Y0236*
X010092Y02359*
X010091Y023576*
X01009Y02356*
X010088Y023541*
Y023518*
Y023299*
X009967*
Y023549*
Y02355*
Y023551*
Y023555*
Y02356*
Y023571*
X009966Y023584*
X009965Y023599*
X009964Y023612*
X009962Y023625*
X00996Y023631*
X009959Y023634*
Y023635*
Y023638*
X009957Y023642*
X009955Y023645*
X009948Y023655*
X009944Y02366*
X009939Y023663*
X009938Y023664*
X009937Y023665*
X009934Y023667*
X00993Y023669*
X009925Y023671*
X009918Y023672*
X009911Y023674*
X009898*
X009893Y023673*
X009887Y023672*
X009878Y02367*
X00987Y023667*
X009862Y023663*
X009853Y023658*
X009852Y023657*
X009849Y023655*
X009846Y023652*
X009841Y023647*
X009836Y023641*
X00983Y023633*
X009826Y023624*
X009821Y023614*
Y023613*
X009819Y023609*
X009818Y023602*
X009816Y023592*
X009815Y023579*
X009814Y023563*
X009812Y023543*
Y02352*
Y023299*
X009691*
Y023756*
X009802*
Y023694*
X009803*
X009805Y023696*
X009808Y0237*
X009813Y023705*
X009818Y023711*
X009825Y023716*
X009833Y023724*
X009842Y02373*
X009852Y023736*
X009863Y023744*
X009887Y023756*
X0099Y02376*
X009914Y023764*
X009928Y023766*
X009944*
X009951*
X009959*
X009969Y023765*
X009981Y023762*
X009994Y023759*
X010007Y023755*
X01002Y023748*
X010021Y023747*
X010025Y023745*
X010031Y023741*
X010039Y023735*
X010047Y023726*
X010056Y023717*
X010065Y023705*
X010073Y023693*
X010075Y023694*
X010079Y023699*
X010084Y023705*
X010092Y023714*
X010102Y023723*
X010113Y023732*
X010125Y023741*
X010138Y023748*
X01014Y023749*
X010144Y023751*
X010152Y023754*
X010161Y023757*
X010172Y023761*
X010184Y023764*
X010198Y023766*
X010213*
X010221*
X01023*
G37*
G36*
X009447D02*
X009458Y023764D01*
X009472Y023761*
X009486Y023757*
X0095Y023753*
X009514Y023745*
X009516*
X009519Y023742*
X009526Y023737*
X009534Y023731*
X009542Y023722*
X009551Y023712*
X009559Y0237*
X009567Y023685*
X009568Y023684*
X009569Y02368*
X00957Y023673*
X009573Y023663*
X009576Y02365*
X009578Y023633*
X009579Y023613*
X00958Y023591*
Y023299*
X009458*
Y02356*
Y023561*
Y023562*
Y023566*
Y023571*
X009457Y023582*
Y023596*
X009456Y023611*
X009453Y023625*
X00945Y023638*
X009447Y023643*
X009446Y023647*
X009445Y023648*
X009442Y023652*
X009438Y023655*
X009433Y023661*
X009426Y023665*
X009416Y02367*
X009406Y023673*
X009394Y023674*
X009389*
X009385Y023673*
X009378Y023672*
X009371Y02367*
X009363Y023667*
X009354Y023663*
X009345Y023658*
X009344Y023657*
X009342Y023655*
X009338Y023652*
X009334Y023646*
X009328Y02364*
X009323Y023633*
X009318Y023623*
X009314Y023612*
Y023611*
X009312Y023607*
X009311Y0236*
X009309Y02359*
X009307Y023576*
X009306Y02356*
X009304Y023541*
Y023518*
Y023299*
X009183*
Y023549*
Y02355*
Y023551*
Y023555*
Y02356*
Y023571*
X009182Y023584*
X009181Y023599*
Y023612*
X009179Y023625*
X009177Y023631*
X009176Y023634*
Y023635*
X009175Y023638*
X009173Y023642*
X009171Y023645*
X009165Y023655*
X00916Y02366*
X009156Y023663*
X009155Y023664*
X009153Y023665*
X00915Y023667*
X009147Y023669*
X009141Y023671*
X009135Y023672*
X009128Y023674*
X009115*
X009109Y023673*
X009103Y023672*
X009095Y02367*
X009087Y023667*
X009078Y023663*
X009069Y023658*
X009068Y023657*
X009066Y023655*
X009062Y023652*
X009058Y023647*
X009052Y023641*
X009047Y023633*
X009042Y023624*
X009037Y023614*
Y023613*
X009036Y023609*
X009035Y023602*
X009033Y023592*
X009031Y023579*
X00903Y023563*
X009028Y023543*
Y02352*
Y023299*
X008907*
Y023756*
X009018*
Y023694*
X009019*
X009021Y023696*
X009025Y0237*
X009029Y023705*
X009035Y023711*
X009041Y023716*
X009049Y023724*
X009058Y02373*
X009068Y023736*
X009079Y023744*
X009103Y023756*
X009117Y02376*
X00913Y023764*
X009145Y023766*
X00916*
X009168*
X009176*
X009186Y023765*
X009198Y023762*
X009211Y023759*
X009223Y023755*
X009236Y023748*
X009238Y023747*
X009242Y023745*
X009248Y023741*
X009255Y023735*
X009263Y023726*
X009273Y023717*
X009282Y023705*
X00929Y023693*
X009292Y023694*
X009295Y023699*
X009301Y023705*
X009309Y023714*
X009319Y023723*
X00933Y023732*
X009342Y023741*
X009355Y023748*
X009356Y023749*
X009361Y023751*
X009368Y023754*
X009377Y023757*
X009388Y023761*
X009401Y023764*
X009415Y023766*
X009429*
X009437*
X009447*
G37*
G36*
X008063Y023808D02*
X007834D01*
X007815Y023701*
X007816*
X007817Y023702*
X007822Y023704*
X00783Y023707*
X00784Y023712*
X007853Y023715*
X007867Y023718*
X007882Y023721*
X007898Y023722*
X007906*
X007911Y023721*
X007918Y02372*
X007926Y023719*
X007935Y023717*
X007945Y023715*
X007966Y023707*
X007978Y023703*
X007989Y023697*
X008001Y02369*
X008013Y023682*
X008024Y023673*
X008034Y023663*
X008035Y023662*
X008037Y02366*
X00804Y023656*
X008044Y023652*
X008047Y023646*
X008053Y023639*
X008057Y023631*
X008063Y023622*
X008068Y023612*
X008073Y0236*
X008078Y023587*
X008082Y023574*
X008085Y02356*
X008088Y023544*
X00809Y023528*
X008091Y02351*
Y023507*
Y023503*
X00809Y023498*
Y02349*
X008088Y023482*
X008087Y023473*
X008085Y023464*
X00808Y023442*
X008072Y023418*
X008066Y023406*
X008061Y023394*
X008054Y023382*
X008045Y02337*
X008044Y023369*
X008043Y023367*
X008039Y023363*
X008034Y023357*
X008028Y023351*
X00802Y023344*
X008011Y023336*
X008001Y023329*
X007989Y023321*
X007976Y023314*
X007963Y023306*
X007947Y0233*
X007931Y023295*
X007913Y023291*
X007894Y023288*
X007874Y023287*
X007866*
X00786Y023288*
X007852Y023289*
X007843Y02329*
X007834Y023291*
X007823Y023293*
X007801Y023298*
X007777Y023307*
X007765Y023312*
X007753Y023318*
X007742Y023326*
X007731Y023334*
X00773Y023335*
X007728Y023336*
X007726Y023338*
X007722Y023342*
X007718Y023347*
X007713Y023353*
X007708Y023359*
X007703Y023367*
X007696Y023376*
X007691Y023385*
X007681Y023407*
X007672Y023431*
X007669Y023445*
X007666Y023459*
X007787Y023472*
Y02347*
X007788Y023466*
X007789Y023458*
X007792Y023449*
X007796Y023438*
X007801Y023428*
X007809Y023418*
X007817Y023408*
X007818Y023407*
X007821Y023404*
X007827Y0234*
X007834Y023396*
X007842Y023391*
X007852Y023387*
X007864Y023385*
X007876Y023384*
X007878*
X007882Y023385*
X00789Y023386*
X007899Y023387*
X007909Y023391*
X00792Y023397*
X007931Y023405*
X007941Y023415*
X007942Y023417*
X007945Y02342*
X007949Y023428*
X007954Y023438*
X007959Y023451*
X007963Y023467*
X007966Y023486*
X007967Y023508*
Y023509*
Y02351*
Y023513*
Y023518*
X007966Y023528*
X007963Y023541*
X007961Y023555*
X007956Y02357*
X00795Y023583*
X007941Y023595*
X00794Y023596*
X007936Y0236*
X00793Y023604*
X007922Y023611*
X007912Y023616*
X007901Y023621*
X007887Y023624*
X007872Y023625*
X007867*
X007863Y023624*
X007854Y023623*
X007841Y02362*
X007827Y023614*
X007811Y023606*
X007803Y023601*
X007795Y023594*
X007787Y023587*
X007778Y023579*
X007681Y023592*
X007743Y023921*
X008063*
Y023808*
G37*
G36*
X008301Y023299D02*
X00818D01*
Y02342*
X008301*
Y023299*
G37*
G36*
X007529Y023531D02*
X007607D01*
Y023426*
X007529*
Y023299*
X007412*
Y023426*
X007154*
Y02353*
X007427Y023932*
X007529*
Y023531*
G37*
G36*
X008619Y023932D02*
X008627Y023931D01*
X008636Y02393*
X008645Y023928*
X008656Y023925*
X008668Y023921*
X008679Y023917*
X00869Y023912*
X008702Y023906*
X008714Y023898*
X008726Y023889*
X008737Y023879*
X008747Y023868*
X008748Y023867*
X00875Y023864*
X008752Y023859*
X008757Y023853*
X008761Y023844*
X008767Y023833*
X008772Y023821*
X008778Y023806*
X008783Y023789*
X00879Y02377*
X008794Y023749*
X008799Y023725*
X008803Y0237*
X008806Y023673*
X008808Y023643*
X008809Y02361*
Y023609*
Y023608*
Y023605*
Y023602*
Y023592*
X008808Y023581*
X008807Y023566*
X008805Y023549*
X008803Y02353*
X008802Y02351*
X008798Y023489*
X008793Y023468*
X008789Y023447*
X008782Y023426*
X008776Y023405*
X008767Y023386*
X008758Y023367*
X008747Y023352*
X008746Y023351*
X008744Y023349*
X008741Y023346*
X008738Y023342*
X008732Y023337*
X008726Y023332*
X008718Y023326*
X00871Y02332*
X0087Y023314*
X008689Y023307*
X008678Y023302*
X008665Y023297*
X008651Y023294*
X008636Y02329*
X00862Y023288*
X008604Y023287*
X0086*
X008595Y023288*
X008588*
X008581Y023289*
X008572Y023291*
X008562Y023293*
X008551Y023296*
X008539Y0233*
X008527Y023305*
X008515Y02331*
X008503Y023317*
X00849Y023325*
X008478Y023335*
X008466Y023345*
X008455Y023357*
X008454Y023358*
X008453Y023361*
X00845Y023366*
X008447Y023371*
X008443Y023379*
X008438Y023389*
X008433Y023402*
X008428Y023416*
X008423Y023432*
X008417Y02345*
X008413Y023471*
X008409Y023494*
X008405Y02352*
X008403Y023548*
X008401Y023578*
X0084Y023611*
Y023612*
Y023615*
Y023619*
Y023628*
X008401Y02364*
X008402Y023654*
X008403Y023672*
X008405Y02369*
X008407Y02371*
X008411Y023731*
X008414Y023752*
X00842Y023774*
X008425Y023795*
X008433Y023815*
X008441Y023834*
X00845Y023852*
X008461Y023868*
X008462*
X008464Y02387*
X008466Y023874*
X008471Y023878*
X008475Y023883*
X008482Y023889*
X00849Y023894*
X008498Y0239*
X008508Y023907*
X008518Y023912*
X00853Y023918*
X008543Y023923*
X008556Y023927*
X008572Y02393*
X008587Y023932*
X008604Y023933*
X008613*
X008619Y023932*
G37*
%LNpcb_source_iot-2*%
%LPC*%
G36*
X-001929Y010394D02*
X-001957D01*
X-001958*
X-001959*
X-001963*
X-001972*
X-001983Y010393*
X-001994*
X-002009Y010392*
X-002025Y010391*
X-002042Y010389*
X-002076Y010384*
X-002094Y010382*
X-00211Y010378*
X-002126Y010374*
X-00214Y010369*
X-002153Y010364*
X-002164Y010357*
X-002165*
X-002166Y010355*
X-002168Y010353*
X-002172Y010351*
X-00218Y010343*
X-00219Y010333*
X-002199Y010319*
X-002208Y010303*
X-002211Y010295*
X-002214Y010286*
X-002215Y010276*
X-002216Y010266*
Y010261*
X-002215Y010257*
X-002213Y010247*
X-00221Y010235*
X-002205Y010221*
X-002197Y010207*
X-002191Y0102*
X-002186Y010192*
X-002178Y010186*
X-00217Y010179*
X-002169*
X-002168Y010178*
X-002164Y010176*
X-002159Y010173*
X-002152Y01017*
X-002144Y010167*
X-002134Y010164*
X-002122Y01016*
X-002108Y010157*
X-002093Y010153*
X-002076Y010149*
X-002056Y010147*
X-002035Y010144*
X-002011Y010142*
X-001985Y010141*
X-001957Y01014*
X-001955*
X-001951*
X-001943*
X-001932Y010141*
X-00192*
X-001905Y010142*
X-00189Y010143*
X-001873Y010145*
X-001838Y010149*
X-00182Y010152*
X-001804Y010156*
X-001789Y010159*
X-001774Y010165*
X-001761Y01017*
X-00175Y010177*
X-001749*
Y010179*
X-001742Y010183*
X-001734Y010191*
X-001725Y010201*
X-001716Y010215*
X-001708Y010231*
X-001701Y010248*
X-0017Y010257*
X-001699Y010267*
Y010272*
X-0017Y010276*
X-001702Y010285*
X-001706Y010298*
X-001712Y010312*
X-001721Y010327*
X-001727Y010334*
X-001734Y010342*
X-001741Y010349*
X-00175Y010356*
X-001751*
X-001753Y010358*
X-001756Y01036*
X-00176Y010362*
X-001767Y010365*
X-001775Y010368*
X-001784Y010372*
X-001795Y010375*
X-001809Y010378*
X-001823Y010382*
X-001841Y010385*
X-001859Y010388*
X-001881Y01039*
X-001903Y010392*
X-001929Y010394*
G37*
G36*
Y009903D02*
X-001957D01*
X-001958*
X-001959*
X-001963*
X-001972*
X-001983*
X-001994*
X-002009Y009902*
X-002025Y009901*
X-002042Y009899*
X-002076Y009894*
X-002094Y009892*
X-00211Y009888*
X-002126Y009884*
X-00214Y009879*
X-002153Y009873*
X-002164Y009867*
X-002165*
X-002166Y009865*
X-002168Y009863*
X-002172Y009861*
X-00218Y009852*
X-00219Y009842*
X-002199Y009829*
X-002208Y009813*
X-002211Y009805*
X-002214Y009796*
X-002215Y009786*
X-002216Y009776*
Y00977*
X-002215Y009767*
X-002213Y009757*
X-00221Y009745*
X-002205Y009731*
X-002197Y009717*
X-002191Y009709*
X-002186Y009702*
X-002178Y009696*
X-00217Y009689*
X-002169*
X-002168Y009688*
X-002164Y009686*
X-002159Y009683*
X-002152Y00968*
X-002144Y009677*
X-002134Y009674*
X-002122Y00967*
X-002108Y009667*
X-002093Y009663*
X-002076Y009659*
X-002056Y009657*
X-002035Y009654*
X-002011Y009652*
X-001985Y009651*
X-001957Y00965*
X-001955*
X-001951*
X-001943*
X-001932Y009651*
X-00192*
X-001905Y009652*
X-00189Y009653*
X-001873Y009655*
X-001838Y009659*
X-00182Y009662*
X-001804Y009666*
X-001789Y009669*
X-001774Y009675*
X-001761Y00968*
X-00175Y009687*
X-001749*
Y009688*
X-001742Y009693*
X-001734Y009701*
X-001725Y009711*
X-001716Y009725*
X-001708Y00974*
X-001701Y009758*
X-0017Y009767*
X-001699Y009777*
Y009782*
X-0017Y009786*
X-001702Y009795*
X-001706Y009808*
X-001712Y009821*
X-001721Y009837*
X-001727Y009844*
X-001734Y009852*
X-001741Y009859*
X-00175Y009866*
X-001751*
X-001753Y009868*
X-001756Y00987*
X-00176Y009872*
X-001767Y009875*
X-001775Y009878*
X-001784Y009882*
X-001795Y009885*
X-001809Y009888*
X-001823Y009892*
X-001841Y009895*
X-001859Y009898*
X-001881Y0099*
X-001903Y009902*
X-001929Y009903*
G37*
G36*
X-002895Y021054D02*
X-002923D01*
X-002924*
X-002925*
X-00293*
X-002938*
X-002949Y021053*
X-002961*
X-002975Y021052*
X-002991Y021051*
X-003008Y021049*
X-003043Y021044*
X-00306Y021042*
X-003076Y021038*
X-003092Y021034*
X-003106Y021029*
X-003119Y021024*
X-00313Y021017*
X-003131*
X-003132Y021015*
X-003135Y021013*
X-003138Y021011*
X-003146Y021003*
X-003156Y020993*
X-003166Y020979*
X-003174Y020963*
X-003177Y020955*
X-00318Y020946*
X-003181Y020936*
X-003182Y020926*
Y020921*
X-003181Y020917*
X-003179Y020907*
X-003176Y020895*
X-003171Y020881*
X-003163Y020867*
X-003157Y02086*
X-003152Y020852*
X-003145Y020846*
X-003136Y020839*
X-003135*
X-003134Y020838*
X-00313Y020836*
X-003125Y020833*
X-003118Y02083*
X-00311Y020827*
X-0031Y020824*
X-003088Y02082*
X-003074Y020817*
X-003059Y020813*
X-003042Y020809*
X-003023Y020807*
X-003001Y020804*
X-002977Y020802*
X-002951Y020801*
X-002923Y0208*
X-002921*
X-002917*
X-002909*
X-002898Y020801*
X-002886*
X-002871Y020802*
X-002856Y020803*
X-002839Y020805*
X-002804Y020809*
X-002787Y020812*
X-00277Y020816*
X-002755Y020819*
X-00274Y020825*
X-002727Y02083*
X-002716Y020837*
X-002715Y020839*
X-002708Y020843*
X-0027Y020851*
X-002691Y020861*
X-002682Y020875*
X-002674Y020891*
X-002667Y020908*
X-002666Y020917*
X-002665Y020927*
Y020932*
X-002666Y020936*
X-002668Y020945*
X-002672Y020958*
X-002678Y020972*
X-002687Y020987*
X-002693Y020994*
X-0027Y021002*
X-002707Y021009*
X-002716Y021016*
X-002717*
X-002719Y021018*
X-002722Y02102*
X-002726Y021022*
X-002733Y021025*
X-002741Y021028*
X-00275Y021032*
X-002761Y021035*
X-002775Y021038*
X-002789Y021042*
X-002807Y021045*
X-002825Y021048*
X-002847Y02105*
X-002869Y021052*
X-002895Y021054*
G37*
G36*
X-002835Y020479D02*
X-003117D01*
X-002835Y02028*
Y020479*
G37*
G36*
X008888Y-001249D02*
X008882D01*
X008879Y-00125*
X008868Y-001251*
X008857Y-001254*
X008843Y-00126*
X008828Y-001268*
X008821Y-001273*
X008814Y-001279*
X008807Y-001286*
X008801Y-001294*
Y-001295*
X008799Y-001297*
X008797Y-001301*
X008795Y-001305*
X008792Y-001312*
X008788Y-001321*
X008786Y-001331*
X008782Y-001343*
X008778Y-001356*
X008775Y-001372*
X008771Y-001389*
X008768Y-001408*
X008766Y-00143*
X008764Y-001454*
X008763Y-001479*
X008762Y-001507*
Y-001509*
Y-001514*
Y-001522*
X008763Y-001533*
Y-001545*
X008764Y-001559*
X008765Y-001575*
X008766Y-001591*
X008771Y-001627*
X008774Y-001644*
X008777Y-001661*
X008781Y-001676*
X008787Y-001691*
X008792Y-001703*
X008798Y-001714*
Y-001715*
X0088Y-001716*
X008805Y-001722*
X008813Y-001731*
X008823Y-00174*
X008837Y-001749*
X008852Y-001757*
X008869Y-001763*
X008879Y-001764*
X008889Y-001765*
X008894*
X008898Y-001764*
X008907Y-001763*
X00892Y-001759*
X008933Y-001753*
X008949Y-001743*
X008956Y-001738*
X008963Y-001731*
X008971Y-001723*
X008978Y-001714*
Y-001713*
X00898Y-001712*
X008981Y-001709*
X008983Y-001704*
X008987Y-001698*
X00899Y-00169*
X008993Y-001681*
X008997Y-00167*
X009Y-001656*
X009003Y-001641*
X009007Y-001624*
X00901Y-001606*
X009012Y-001584*
X009013Y-001561*
X009015Y-001536*
Y-001507*
Y-001506*
Y-001501*
Y-001493*
X009014Y-001482*
Y-00147*
X009013Y-001456*
X009012Y-00144*
X009011Y-001423*
X009006Y-001388*
X009003Y-001371*
X009Y-001354*
X008996Y-001339*
X008991Y-001324*
X008985Y-001312*
X008979Y-001301*
Y-0013*
X008977Y-001299*
X008975Y-001296*
X008972Y-001292*
X008964Y-001284*
X008954Y-001274*
X00894Y-001265*
X008925Y-001257*
X008917Y-001253*
X008908Y-001251*
X008898Y-00125*
X008888Y-001249*
G37*
G36*
X007664D02*
X007657D01*
X007649Y-001251*
X007638Y-001252*
X007626Y-001256*
X007613Y-001261*
X007601Y-001268*
X007589Y-001278*
Y-001279*
X007585Y-001282*
X00758Y-001289*
X007576Y-001297*
X00757Y-001307*
X007566Y-001319*
X007562Y-001332*
X007561Y-001346*
Y-001347*
Y-001348*
X007562Y-001353*
X007563Y-001362*
X007565Y-001372*
X007569Y-001384*
X007573Y-001395*
X00758Y-001408*
X007589Y-001419*
X00759Y-00142*
X007595Y-001424*
X007601Y-001428*
X00761Y-001433*
X00762Y-001438*
X007633Y-001443*
X007648Y-001446*
X007664Y-001447*
X007666*
X007671Y-001446*
X00768Y-001445*
X007691Y-001444*
X007702Y-00144*
X007714Y-001435*
X007727Y-001428*
X007738Y-001419*
X007739Y-001418*
X007742Y-001414*
X007747Y-001408*
X007753Y-0014*
X007758Y-00139*
X007763Y-001378*
X007766Y-001364*
X007767Y-00135*
Y-001349*
Y-001348*
Y-001343*
X007765Y-001334*
X007763Y-001324*
X00776Y-001313*
X007754Y-001302*
X007747Y-00129*
X007737Y-001278*
X007736Y-001277*
X007732Y-001273*
X007725Y-001269*
X007717Y-001263*
X007706Y-001258*
X007694Y-001253*
X00768Y-00125*
X007664Y-001249*
G37*
G36*
X007661Y-00151D02*
X007656D01*
X007652Y-001511*
X007642Y-001512*
X00763Y-001515*
X007615Y-001519*
X0076Y-001526*
X007585Y-001535*
X007571Y-001547*
X007569Y-001548*
X007566Y-001553*
X00756Y-001561*
X007554Y-001571*
X007547Y-001585*
X007541Y-0016*
X007538Y-001618*
X007536Y-001637*
Y-001639*
Y-001642*
X007537Y-001649*
X007538Y-001657*
X007539Y-001667*
X007542Y-001678*
X007546Y-001689*
X00755Y-001701*
X007551*
X007553Y-001706*
X007557Y-001712*
X007562Y-001718*
X007569Y-001726*
X007577Y-001734*
X007586Y-001742*
X007597Y-001749*
X007599Y-00175*
X007602Y-001752*
X007609Y-001754*
X007617Y-001757*
X007627Y-00176*
X007639Y-001763*
X007651Y-001764*
X007664Y-001765*
X00767*
X007673Y-001764*
X007684Y-001763*
X007697Y-001761*
X007712Y-001756*
X007727Y-001751*
X007742Y-001742*
X007756Y-00173*
X007758Y-001728*
X007762Y-001723*
X007768Y-001715*
X007774Y-001705*
X007781Y-001692*
X007787Y-001677*
X007791Y-001659*
X007793Y-00164*
Y-001639*
Y-001637*
Y-001634*
X007792Y-00163*
X007791Y-00162*
X007788Y-001607*
X007783Y-001593*
X007777Y-001578*
X007768Y-001562*
X007755Y-001548*
X007753Y-001546*
X007749Y-001542*
X007741Y-001536*
X00773Y-001528*
X007716Y-001522*
X0077Y-001516*
X007681Y-001512*
X007661Y-00151*
G37*
G36*
X016384Y-00228D02*
X016186Y-002562D01*
X016384*
Y-00228*
G37*
G36*
X016832Y-002215D02*
X016826D01*
X016822Y-002216*
X016812Y-002218*
X016801Y-00222*
X016787Y-002226*
X016772Y-002234*
X016765Y-002239*
X016758Y-002245*
X016751Y-002252*
X016745Y-00226*
Y-002261*
X016743Y-002263*
X016741Y-002267*
X016739Y-002271*
X016736Y-002279*
X016732Y-002287*
X01673Y-002297*
X016726Y-002309*
X016722Y-002322*
X016719Y-002338*
X016715Y-002355*
X016712Y-002374*
X016709Y-002396*
X016708Y-00242*
X016707Y-002445*
X016706Y-002474*
Y-002475*
Y-00248*
Y-002488*
X016707Y-002499*
Y-002511*
X016708Y-002525*
X016709Y-002541*
X01671Y-002557*
X016715Y-002593*
X016718Y-00261*
X016721Y-002627*
X016725Y-002642*
X01673Y-002657*
X016736Y-002669*
X016742Y-00268*
Y-002681*
X016744Y-002682*
X016749Y-002689*
X016757Y-002697*
X016767Y-002706*
X016781Y-002715*
X016796Y-002723*
X016813Y-00273*
X016822*
X016832Y-002731*
X016838*
X016842Y-00273*
X016851Y-002729*
X016863Y-002725*
X016877Y-002719*
X016893Y-00271*
X0169Y-002704*
X016907Y-002697*
X016914Y-002689*
X016922Y-00268*
Y-002679*
X016924Y-002678*
X016925Y-002675*
X016927Y-00267*
X016931Y-002664*
X016934Y-002656*
X016937Y-002647*
X016941Y-002636*
X016944Y-002622*
X016947Y-002607*
X016951Y-00259*
X016954Y-002572*
X016955Y-00255*
X016957Y-002527*
X016959Y-002502*
Y-002474*
Y-002473*
Y-002472*
Y-002467*
Y-002459*
X016958Y-002448*
Y-002436*
X016957Y-002422*
X016956Y-002406*
X016955Y-002389*
X01695Y-002354*
X016947Y-002337*
X016944Y-002321*
X01694Y-002305*
X016934Y-00229*
X016929Y-002278*
X016923Y-002267*
Y-002266*
X016921Y-002265*
X016919Y-002262*
X016916Y-002259*
X016908Y-00225*
X016898Y-00224*
X016884Y-002231*
X016869Y-002223*
X016861Y-002219*
X016852Y-002217*
X016842Y-002216*
X016832Y-002215*
G37*
G36*
X004533Y002778D02*
X004529D01*
X004525Y002777*
X004516Y002776*
X004505Y002773*
X004492Y002769*
X004479Y002762*
X004465Y002752*
X004451Y00274*
X00445Y002738*
X004446Y002732*
X00444Y002724*
X004435Y002712*
X004429Y002698*
X004423Y00268*
X00442Y002659*
X004418Y002635*
Y002633*
Y002628*
X004419Y002619*
X00442Y002609*
Y002598*
X004423Y002585*
X004426Y002572*
X00443Y002558*
X004599Y002754*
X004598Y002755*
X004594Y002758*
X004588Y002762*
X00458Y002766*
X004571Y002771*
X00456Y002774*
X004547Y002777*
X004533Y002778*
G37*
G36*
X004636Y002701D02*
X004468Y002507D01*
X004469Y002506*
X004473Y002505*
X004479Y002501*
X004487Y002497*
X004496Y002494*
X004507Y00249*
X004519Y002488*
X004532Y002487*
X004537*
X004541Y002488*
X00455Y002489*
X004562Y002492*
X004574Y002496*
X004588Y002503*
X004602Y002512*
X004615Y002524*
X004617Y002526*
X004621Y002531*
X004626Y002539*
X004633Y002551*
X004638Y002566*
X004644Y002583*
X004647Y002604*
X004649Y002628*
Y002629*
Y002635*
X004648Y002642*
X004647Y002652*
X004646Y002664*
X004644Y002676*
X004641Y002689*
X004636Y002701*
G37*
G36*
X012216Y019551D02*
X012212D01*
X012208Y01955*
X012199Y019549*
X012188Y019547*
X012175Y019542*
X012162Y019535*
X012148Y019526*
X012134Y019513*
X012132Y019511*
X012129Y019505*
X012123Y019497*
X012118Y019485*
X012111Y019471*
X012106Y019453*
X012102Y019432*
X012101Y019408*
Y019406*
Y019401*
Y019393*
X012102Y019383*
X012103Y019371*
X012106Y019358*
X012109Y019345*
X012112Y019332*
X012282Y019527*
X012281Y019528*
X012277Y019531*
X012271Y019535*
X012263Y019539*
X012254Y019544*
X012243Y019547*
X01223Y01955*
X012216Y019551*
G37*
G36*
X012319Y019475D02*
X012151Y01928D01*
X012152*
X012156Y019278*
X012162Y019274*
X01217Y01927*
X012179Y019267*
X01219Y019263*
X012202Y019261*
X012215Y01926*
X01222*
X012224Y019261*
X012233Y019262*
X012244Y019265*
X012257Y01927*
X012271Y019276*
X012285Y019285*
X012298Y019297*
X0123Y019299*
X012304Y019304*
X012309Y019312*
X012316Y019324*
X012321Y019339*
X012326Y019356*
X01233Y019377*
X012332Y019401*
Y019402*
Y019403*
Y019408*
X012331Y019415*
X01233Y019425*
X012329Y019437*
X012326Y019449*
X012324Y019462*
X012319Y019475*
G37*
G36*
X011578Y002265D02*
X011573D01*
X011569Y002264*
X01156Y002263*
X011549Y002261*
X011537Y002256*
X011523Y002249*
X011509Y00224*
X011496Y002227*
X011494Y002225*
X01149Y00222*
X011485Y002211*
X011479Y0022*
X011473Y002185*
X011467Y002167*
X011464Y002146*
X011462Y002122*
Y00212*
Y002115*
X011463Y002107*
X011464Y002097*
X011465Y002085*
X011467Y002072*
X01147Y002059*
X011474Y002046*
X011643Y002242*
X011642*
X011639Y002245*
X011632Y002249*
X011624Y002253*
X011615Y002258*
X011604Y002262*
X011591Y002264*
X011578Y002265*
G37*
G36*
X011681Y002189D02*
X011512Y001995D01*
X011513Y001994*
X011518Y001992*
X011523Y001988*
X011531Y001985*
X01154Y001981*
X011551Y001977*
X011563Y001976*
X011577Y001975*
X011581*
X011585Y001976*
X011594*
X011606Y001979*
X011619Y001984*
X011632Y00199*
X011646Y001999*
X01166Y002011*
X011661Y002013*
X011665Y002018*
X011671Y002027*
X011677Y002038*
X011682Y002053*
X011688Y00207*
X011692Y002091*
X011693Y002115*
Y002116*
Y002117*
Y002122*
X011692Y002129*
Y002139*
X011691Y002151*
X011688Y002163*
X011685Y002176*
X011681Y002189*
G37*
G36*
X004421Y019327D02*
X004417D01*
X004413Y019326*
X004404Y019325*
X004393Y019322*
X00438Y019318*
X004367Y019311*
X004353Y019301*
X004339Y019289*
X004338Y019287*
X004334Y019281*
X004328Y019273*
X004323Y019261*
X004317Y019247*
X004311Y019229*
X004308Y019208*
X004306Y019184*
Y019182*
Y019177*
X004307Y019168*
X004308Y019158*
Y019147*
X004311Y019134*
X004314Y019121*
X004318Y019107*
X004487Y019303*
X004486Y019304*
X004482Y019307*
X004476Y019311*
X004468Y019315*
X004459Y01932*
X004448Y019323*
X004435Y019326*
X004421Y019327*
G37*
G36*
X004524Y01925D02*
X004356Y019056D01*
X004357Y019055*
X004361Y019054*
X004367Y01905*
X004375Y019046*
X004384Y019043*
X004395Y019039*
X004407Y019037*
X00442Y019036*
X004425*
X004429Y019037*
X004438Y019038*
X00445Y019041*
X004462Y019045*
X004476Y019052*
X00449Y019061*
X004503Y019073*
X004505Y019075*
X004509Y01908*
X004514Y019088*
X004521Y0191*
X004526Y019115*
X004532Y019132*
X004535Y019153*
X004537Y019177*
Y019178*
Y019184*
X004536Y019191*
X004535Y019201*
X004534Y019213*
X004532Y019225*
X004529Y019238*
X004524Y01925*
G37*
G36*
X019657Y010673D02*
X01944D01*
X019657Y010527*
Y010673*
G37*
G36*
X007412Y023748D02*
X007266Y023531D01*
X007412*
Y023748*
G37*
G36*
X008604Y023833D02*
X0086D01*
X008596Y023832*
X008591Y023831*
X008585Y023829*
X008578Y023827*
X008571Y023823*
X008565Y023818*
X008564Y023817*
X008562Y023816*
X008559Y023812*
X008556Y023807*
X008551Y0238*
X008547Y023792*
X008543Y023781*
X008539Y023768*
Y023767*
X008538Y023766*
Y023763*
X008537Y023759*
X008536Y023754*
Y023747*
X008535Y02374*
X008534Y023731*
X008532Y02372*
X008531Y023709*
X00853Y023695*
X008529Y023682*
X008528Y023665*
Y023649*
X008527Y02363*
Y02361*
Y023609*
Y023605*
Y023599*
Y023592*
Y023582*
X008528Y023572*
Y023561*
X008529Y023549*
X00853Y023523*
X008532Y023498*
X008533Y023486*
X008535Y023475*
X008536Y023465*
X008538Y023456*
X008539Y023454*
X00854Y023449*
X008543Y023442*
X008546Y023434*
X00855Y023425*
X008555Y023416*
X00856Y023408*
X008566Y023401*
Y0234*
X008568Y023399*
X008572Y023397*
X008577Y023395*
X008582Y023392*
X008588Y023389*
X008596Y023388*
X008604Y023387*
X008608*
X008612Y023388*
X008617Y023389*
X008623Y023391*
X008629Y023393*
X008636Y023397*
X008642Y023401*
X008643Y023402*
X008645Y023404*
X008648Y023408*
X008652Y023413*
X008656Y023419*
X00866Y023428*
X008665Y023438*
X008669Y023451*
Y023452*
Y023453*
Y023457*
X00867Y02346*
X008671Y023466*
X008672Y023472*
X008674Y023479*
X008675Y023489*
X008676Y023499*
X008678Y02351*
X008679Y023523*
Y023538*
X00868Y023553*
Y023571*
X008681Y02359*
Y02361*
Y023611*
Y023614*
Y023621*
Y023628*
Y023637*
X00868Y023647*
Y023659*
X008679Y023671*
Y023696*
X008677Y023721*
X008675Y023733*
X008673Y023745*
X008671Y023755*
X008669Y023763*
Y023764*
Y023765*
X008668Y023769*
X008665Y023776*
X008662Y023786*
X008658Y023795*
X008653Y023804*
X008648Y023812*
X008642Y023818*
X008641Y023819*
X008639Y023821*
X008636Y023823*
X008631Y023826*
X008626Y023828*
X008619Y023831*
X008612Y023832*
X008604Y023833*
G37*
%LNpcb_source_iot-3*%
%LPD*%
G54D11*
X017008Y020472D02*
D01*
X017006Y020515*
X017001Y020559*
X016994Y020602*
X016983Y020645*
X01697Y020687*
X016953Y020728*
X016934Y020767*
X016912Y020805*
X016887Y020842*
X01686Y020876*
X016831Y020909*
X016799Y02094*
X016765Y020968*
X01673Y020994*
X016693Y021017*
X016654Y021038*
X016614Y021056*
X016572Y021071*
X01653Y021083*
X016487Y021092*
X016443Y021098*
X016399Y021101*
X016356*
X016312Y021098*
X016268Y021092*
X016225Y021083*
X016183Y021071*
X016141Y021056*
X016101Y021038*
X016063Y021017*
X016025Y020994*
X01599Y020968*
X015956Y02094*
X015924Y020909*
X015895Y020876*
X015868Y020842*
X015843Y020805*
X015821Y020767*
X015802Y020728*
X015785Y020687*
X015772Y020645*
X015761Y020602*
X015754Y020559*
X015749Y020515*
X015748Y020472*
X015749Y020428*
X015754Y020384*
X015761Y020341*
X015772Y020298*
X015785Y020256*
X015802Y020215*
X015821Y020176*
X015843Y020138*
X015868Y020101*
X015895Y020067*
X015924Y020034*
X015956Y020003*
X01599Y019975*
X016025Y019949*
X016063Y019926*
X016101Y019905*
X016141Y019887*
X016183Y019872*
X016225Y01986*
X016268Y019851*
X016312Y019845*
X016356Y019842*
X016399*
X016443Y019845*
X016487Y019851*
X01653Y01986*
X016572Y019872*
X016614Y019887*
X016654Y019905*
X016693Y019926*
X01673Y019949*
X016765Y019975*
X016799Y020003*
X016831Y020034*
X01686Y020067*
X016887Y020101*
X016912Y020138*
X016934Y020176*
X016953Y020215*
X01697Y020256*
X016983Y020298*
X016994Y020341*
X017001Y020384*
X017006Y020428*
X017008Y020472*
X001969D02*
D01*
X001967Y020515*
X001962Y020559*
X001955Y020602*
X001944Y020645*
X001931Y020687*
X001914Y020728*
X001895Y020767*
X001873Y020805*
X001848Y020842*
X001821Y020876*
X001792Y020909*
X00176Y02094*
X001726Y020968*
X001691Y020994*
X001654Y021017*
X001615Y021038*
X001575Y021056*
X001533Y021071*
X001491Y021083*
X001448Y021092*
X001404Y021098*
X00136Y021101*
X001317*
X001273Y021098*
X001229Y021092*
X001186Y021083*
X001144Y021071*
X001102Y021056*
X001062Y021038*
X001023Y021017*
X000986Y020994*
X000951Y020968*
X000917Y02094*
X000885Y020909*
X000856Y020876*
X000829Y020842*
X000804Y020805*
X000782Y020767*
X000763Y020728*
X000746Y020687*
X000733Y020645*
X000722Y020602*
X000715Y020559*
X00071Y020515*
X000709Y020472*
X00071Y020428*
X000715Y020384*
X000722Y020341*
X000733Y020298*
X000746Y020256*
X000763Y020215*
X000782Y020176*
X000804Y020138*
X000829Y020101*
X000856Y020067*
X000885Y020034*
X000917Y020003*
X000951Y019975*
X000986Y019949*
X001024Y019926*
X001062Y019905*
X001102Y019887*
X001144Y019872*
X001186Y01986*
X001229Y019851*
X001273Y019845*
X001317Y019842*
X00136*
X001404Y019845*
X001448Y019851*
X001491Y01986*
X001533Y019872*
X001575Y019887*
X001615Y019905*
X001654Y019926*
X001691Y019949*
X001726Y019975*
X00176Y020003*
X001792Y020034*
X001821Y020067*
X001848Y020101*
X001873Y020138*
X001895Y020176*
X001914Y020215*
X001931Y020256*
X001944Y020298*
X001955Y020341*
X001962Y020384*
X001967Y020428*
X001969Y020472*
Y001457D02*
D01*
X001967Y0015*
X001962Y001544*
X001955Y001587*
X001944Y00163*
X001931Y001672*
X001914Y001713*
X001895Y001752*
X001873Y00179*
X001848Y001827*
X001821Y001861*
X001792Y001894*
X00176Y001925*
X001726Y001953*
X001691Y001979*
X001654Y002002*
X001615Y002023*
X001575Y002041*
X001533Y002056*
X001491Y002068*
X001448Y002077*
X001404Y002083*
X00136Y002086*
X001317*
X001273Y002083*
X001229Y002077*
X001186Y002068*
X001144Y002056*
X001102Y002041*
X001062Y002023*
X001023Y002002*
X000986Y001979*
X000951Y001953*
X000917Y001925*
X000885Y001894*
X000856Y001861*
X000829Y001827*
X000804Y00179*
X000782Y001752*
X000763Y001713*
X000746Y001672*
X000733Y00163*
X000722Y001587*
X000715Y001544*
X00071Y0015*
X000709Y001457*
X00071Y001413*
X000715Y001369*
X000722Y001326*
X000733Y001283*
X000746Y001241*
X000763Y0012*
X000782Y001161*
X000804Y001123*
X000829Y001086*
X000856Y001052*
X000885Y001019*
X000917Y000988*
X000951Y00096*
X000986Y000934*
X001024Y000911*
X001062Y00089*
X001102Y000872*
X001144Y000857*
X001186Y000845*
X001229Y000836*
X001273Y00083*
X001317Y000827*
X00136*
X001404Y00083*
X001448Y000836*
X001491Y000845*
X001533Y000857*
X001575Y000872*
X001615Y00089*
X001654Y000911*
X001691Y000934*
X001726Y00096*
X00176Y000988*
X001792Y001019*
X001821Y001052*
X001848Y001086*
X001873Y001123*
X001895Y001161*
X001914Y0012*
X001931Y001241*
X001944Y001283*
X001955Y001326*
X001962Y001369*
X001967Y001413*
X001969Y001457*
X017008D02*
D01*
X017006Y0015*
X017001Y001544*
X016994Y001587*
X016983Y00163*
X01697Y001672*
X016953Y001713*
X016934Y001752*
X016912Y00179*
X016887Y001827*
X01686Y001861*
X016831Y001894*
X016799Y001925*
X016765Y001953*
X01673Y001979*
X016693Y002002*
X016654Y002023*
X016614Y002041*
X016572Y002056*
X01653Y002068*
X016487Y002077*
X016443Y002083*
X016399Y002086*
X016356*
X016312Y002083*
X016268Y002077*
X016225Y002068*
X016183Y002056*
X016141Y002041*
X016101Y002023*
X016063Y002002*
X016025Y001979*
X01599Y001953*
X015956Y001925*
X015924Y001894*
X015895Y001861*
X015868Y001827*
X015843Y00179*
X015821Y001752*
X015802Y001713*
X015785Y001672*
X015772Y00163*
X015761Y001587*
X015754Y001544*
X015749Y0015*
X015748Y001457*
X015749Y001413*
X015754Y001369*
X015761Y001326*
X015772Y001283*
X015785Y001241*
X015802Y0012*
X015821Y001161*
X015843Y001123*
X015868Y001086*
X015895Y001052*
X015924Y001019*
X015956Y000988*
X01599Y00096*
X016025Y000934*
X016063Y000911*
X016101Y00089*
X016141Y000872*
X016183Y000857*
X016225Y000845*
X016268Y000836*
X016312Y00083*
X016356Y000827*
X016399*
X016443Y00083*
X016487Y000836*
X01653Y000845*
X016572Y000857*
X016614Y000872*
X016654Y00089*
X016693Y000911*
X01673Y000934*
X016765Y00096*
X016799Y000988*
X016831Y001019*
X01686Y001052*
X016887Y001086*
X016912Y001123*
X016934Y001161*
X016953Y0012*
X01697Y001241*
X016983Y001283*
X016994Y001326*
X017001Y001369*
X017006Y001413*
X017008Y001457*
X-002069Y0D02*
X-000159D01*
X-002069Y020472D02*
X000017D01*
X-001969Y0D02*
Y008246D01*
Y012027D02*
Y020472D01*
Y0D02*
X-001769Y0006D01*
X-002168D02*
X-001969Y0D01*
X-002168Y019872D02*
X-001969Y020472D01*
X-001769Y019872*
X-002069Y020472D02*
X000017D01*
X-002069Y021811D02*
X-000159D01*
X-001969D02*
Y022811D01*
Y019472D02*
Y020472D01*
Y021811D02*
X-001769Y022411D01*
X-002168D02*
X-001969Y021811D01*
X-002168Y019872D02*
X-001969Y020472D01*
X-001769Y019872*
X001339Y-001596D02*
Y000136D01*
X016378Y-001596D02*
Y000136D01*
X001339Y-001496D02*
X006868D01*
X010648D02*
X016378D01*
X001339D02*
X001939Y-001696D01*
X001339Y-001496D02*
X001939Y-001296D01*
X015778D02*
X016378Y-001496D01*
X015778Y-001696D02*
X016378Y-001496D01*
Y-001596D02*
Y000136D01*
X017717Y-001596D02*
Y-000159D01*
Y-001496D02*
X018717D01*
X015378D02*
X016378D01*
X017717D02*
X018317Y-001696D01*
X017717Y-001496D02*
X018317Y-001296D01*
X015778D02*
X016378Y-001496D01*
X015778Y-001696D02*
X016378Y-001496D01*
X000186Y000304D02*
X000893Y001011D01*
X000327Y000728D02*
X000893Y001011D01*
X00061Y000446D02*
X000893Y001011D01*
X003408Y003526D02*
X004197Y002736D01*
X001784Y001902D02*
X003408Y003526D01*
X001784Y001902D02*
X00235Y002185D01*
X001784Y001902D02*
X002067Y002468D01*
X017008Y020472D02*
X018008D01*
X017008D02*
X017608Y020272D01*
X017008Y020472D02*
X017608Y020672D01*
X010917Y020472D02*
X01188Y019509D01*
X010917Y020472D02*
X015748D01*
X015148Y020672D02*
X015748Y020472D01*
X015148Y020272D02*
X015748Y020472D01*
X017008Y001457D02*
X018008D01*
X017008D02*
X017608Y001257D01*
X017008Y001457D02*
X017608Y001657D01*
X010475Y001457D02*
X011242Y002223D01*
X010475Y001457D02*
X015748D01*
X015148Y001657D02*
X015748Y001457D01*
X015148Y001257D02*
X015748Y001457D01*
X000186Y021625D02*
X000893Y020918D01*
X00061Y021484D02*
X000893Y020918D01*
X000327Y021201D02*
X000893Y020918D01*
X003306Y018505D02*
X004085Y019285D01*
X001784Y020027D02*
X003306Y018505D01*
X001784Y020027D02*
X002067Y019461D01*
X001784Y020027D02*
X00235Y019744D01*
X017876Y021811D02*
X019667D01*
X017876Y0D02*
X019667D01*
X019567Y012499D02*
Y021811D01*
Y0D02*
Y009112D01*
X019367Y021211D02*
X019567Y021811D01*
X019767Y021211*
X019567Y0D02*
X019767Y0006D01*
X019367D02*
X019567Y0D01*
X0Y02197D02*
Y023722D01*
X017717Y02197D02*
Y023722D01*
X0Y023622D02*
X007054D01*
X010463D02*
X017717D01*
X0D02*
X0006Y023422D01*
X0Y023622D02*
X0006Y023822D01*
X017117D02*
X017717Y023622D01*
X017117Y023422D02*
X017717Y023622D01*
G54D12*
X003504Y002795D02*
Y006343D01*
Y007598D02*
Y011146D01*
X-000197Y015594D02*
X003504D01*
X-000197Y002795D02*
Y006339D01*
Y007598D02*
Y011142D01*
X014134Y006343D02*
X017835D01*
X-000197Y011146D02*
X003504D01*
X014134Y002795D02*
Y006343D01*
X-000197D02*
X003504D01*
X017835Y002799D02*
Y006343D01*
X-000197Y012047D02*
X003504D01*
Y015594*
X014134Y002795D02*
X017835D01*
X-000197Y012047D02*
Y015591D01*
Y007598D02*
X003504D01*
X-000197Y002795D02*
X003504D01*
G54D16*
X0Y0D02*
Y021811D01*
Y0D02*
X017717D01*
Y021811*
X0D02*
X017717D01*
G54D76*
X000984Y015433D02*
Y015669D01*
X000866Y015551D02*
X001102D01*
X001654Y015236D02*
Y015866D01*
X000315Y015236D02*
X001654D01*
X000315D02*
Y015866D01*
X001654*
M02*