%FSTAX24Y24*%
%MOIN*%
%SFA1B1*%

%IPPOS*%
%AMD22*
4,1,8,0.020500,0.009800,-0.020500,0.009800,-0.030300,0.000000,-0.030300,0.000000,-0.020500,-0.009800,0.020500,-0.009800,0.030300,0.000000,0.030300,0.000000,0.020500,0.009800,0.0*
1,1,0.019600,0.020500,0.000000*
1,1,0.019600,-0.020500,0.000000*
1,1,0.019600,-0.020500,0.000000*
1,1,0.019600,0.020500,0.000000*
%
%AMD25*
4,1,8,0.022400,0.009800,-0.022400,0.009800,-0.032200,0.000000,-0.032200,0.000000,-0.022400,-0.009800,0.022400,-0.009800,0.032200,0.000000,0.032200,0.000000,0.022400,0.009800,0.0*
1,1,0.019600,0.022400,0.000000*
1,1,0.019600,-0.022400,0.000000*
1,1,0.019600,-0.022400,0.000000*
1,1,0.019600,0.022400,0.000000*
%
G04~CAMADD=22~8~0.0~0.0~606.0~197.0~98.0~0.0~15~0.0~0.0~0.0~0.0~0~0.0~0.0~0.0~0.0~0~0.0~0.0~0.0~0.0~606.0~197.0*
%ADD22D22*%
%ADD23R,0.060600X0.019700*%
%ADD24R,0.064500X0.019700*%
G04~CAMADD=25~8~0.0~0.0~645.0~197.0~98.0~0.0~15~0.0~0.0~0.0~0.0~0~0.0~0.0~0.0~0.0~0~0.0~0.0~0.0~0.0~645.0~197.0*
%ADD25D25*%
%ADD26R,0.059100X0.039400*%
%ADD27R,0.039400X0.059100*%
%ADD28R,0.047200X0.059100*%
%ADD29R,0.059100X0.047200*%
%ADD30R,0.118100X0.090600*%
%ADD31R,0.137800X0.090600*%
%ADD32R,0.039400X0.023600*%
%ADD33R,0.023600X0.039400*%
%ADD34R,0.048000X0.047200*%
%ADD35R,0.137800X0.224400*%
%ADD36R,0.055100X0.047200*%
%ADD37R,0.047200X0.055100*%
%ADD38R,0.063000X0.078700*%
%ADD39R,0.047200X0.055100*%
%ADD40R,0.055100X0.047200*%
%ADD64C,0.023600*%
%ADD65C,0.047200*%
%ADD66C,0.019700*%
%ADD67C,0.027600*%
%ADD68C,0.035400*%
%ADD69C,0.015700*%
%ADD70C,0.086600*%
%ADD71R,0.086600X0.086600*%
%ADD72R,0.074800X0.074800*%
%ADD73C,0.074800*%
%ADD74C,0.236200*%
%ADD75C,0.055100*%
%LNpcb_source_iot-1*%
%LPD*%
G36*
X015748Y021654D02*
X015676Y021617D01*
X015506Y021493*
X015357Y021344*
X015233Y021174*
X015137Y020986*
X015072Y020786*
X015039Y020578*
Y020367*
X015072Y020159*
X015137Y019959*
X015146Y019942*
X015086Y019848*
X01504Y019803*
X014943*
X014833Y019774*
X014822Y019767*
X01462*
Y019823*
X013833*
Y019396*
X013829Y01937*
X013833Y019344*
Y018917*
Y018589*
X013829Y018563*
Y018504*
X013833Y018478*
Y018051*
X01462*
Y018166*
X016763*
X016808Y018122*
Y016705*
X016657Y016632*
X016644Y016646*
X016545Y016703*
X016435Y016732*
X016321*
X016211Y016703*
X016112Y016646*
X016031Y016565*
X015974Y016466*
X015945Y016356*
Y016242*
X015974Y016132*
X016031Y016033*
X016112Y015953*
X016211Y015896*
X016321Y015866*
X016435*
X016545Y015896*
X016644Y015953*
X016657Y015966*
X016808Y015894*
Y015473*
X016782Y015438*
X016654Y015357*
X015689*
Y015906*
Y016024*
Y016142*
Y016772*
X014783*
Y016695*
X014528*
Y01685*
X013842*
X01374*
X013599Y016811*
X013465*
Y016417*
Y016024*
X013599*
X01374Y015984*
X013842*
X014528*
Y016139*
X014778*
X014783Y015984*
Y015906*
Y015346*
X014781Y015345*
X014729Y01531*
X014532Y015114*
X014497Y015062*
X014488*
X014411Y015051*
X014339Y015022*
X014278Y014974*
X01342Y014117*
X012989*
X012912Y014107*
X012883Y014094*
X012635*
X012483Y014109*
Y014409*
X01252*
Y015197*
Y015984*
Y01685*
X012404*
Y017696*
X012394Y017768*
X012367Y017835*
X012323Y017893*
X012184Y018031*
X012136Y018068*
X012135Y018085*
X01221Y018226*
X012545*
Y018051*
X012803*
X012821Y018049*
X012839Y018051*
X013333*
Y018917*
Y019823*
X012938*
X012447Y020315*
X012389Y020359*
X012322Y020387*
X01225Y020396*
X012067*
Y020472*
X011161*
Y019843*
Y019764*
X01116Y019718*
X011089Y019693*
X010945Y019807*
Y019882*
Y020512*
X010079*
Y020416*
X009918*
X009913Y020423*
X009833Y020504*
X009734Y020561*
X009624Y020591*
X00951*
X0094Y020561*
X009301Y020504*
X00922Y020423*
X009163Y020325*
X009134Y020214*
Y0201*
X009163Y01999*
X00922Y019892*
X009301Y019811*
X0094Y019754*
X00951Y019724*
X009624*
X009734Y019754*
X009833Y019811*
X00988Y019858*
X010032Y019843*
X010079Y019724*
Y019567*
Y018937*
X010774*
X010784Y01878*
X01073Y018772*
X010663Y018745*
X010606Y0187*
X010333Y018428*
X008937*
Y01876*
X007441*
Y018724*
X007389Y018708*
X007306Y01878*
X00689*
Y018898*
X006772*
Y019252*
X006575*
X006457*
X006339*
X006142*
Y018898*
X006024*
Y01878*
X00563*
Y018645*
X005591Y018504*
Y018402*
Y017717*
X005601Y017559*
X005573Y017522*
X004605*
X004538Y017513*
X00448Y017489*
X004435Y017523*
X004363Y017586*
X004385Y017726*
X004418Y017757*
X004548Y017761*
X004605Y017754*
X005053*
X00512Y017762*
X005182Y017788*
X005236Y017829*
X005277Y017883*
X005303Y017945*
X005311Y018012*
X005303Y018079*
X005277Y018141*
X005236Y018194*
X005182Y018235*
X00512Y018261*
X00507Y018268*
Y018583*
X005276*
Y019268*
Y01937*
X005236Y019511*
Y019646*
X004449*
Y019511*
X004409Y01937*
Y019268*
Y018583*
X004588*
Y018404*
X004431Y018266*
X004391Y018268*
X004013*
X003983Y01828*
X003911Y01829*
X003317*
X003024Y018582*
X002967Y018627*
X0029Y018654*
X002828Y018664*
X0025*
X002431Y018732*
X002333Y018789*
X002222Y018819*
X002108*
X001998Y018789*
X001899Y018732*
X001819Y018652*
X001762Y018553*
X001732Y018443*
Y018329*
X001762Y018219*
X001819Y01812*
X001899Y018039*
X001998Y017982*
X002108Y017953*
X002222*
X002333Y017982*
X002431Y018039*
X0025Y018108*
X002713*
X003005Y017815*
X003063Y017771*
X00313Y017743*
X003202Y017734*
X003325*
X00335Y017717*
Y017689*
X0032Y017542*
X003051*
X002979Y017532*
X002912Y017505*
X002855Y01746*
X001381Y015987*
X001378Y015988*
X001352Y015984*
X000984*
X000843Y015945*
X000709*
Y015551*
Y015157*
X00081*
X000868Y015059*
X00081Y014961*
X000709*
Y014567*
Y014173*
X000823*
X000945*
X000981Y014031*
Y013268*
X000994Y013165*
X001034Y013069*
X001097Y012987*
X001294Y01279*
X001376Y012727*
X001472Y012687*
X001575Y012674*
X002362*
Y01248*
X003543*
Y012871*
X007717*
X007819Y012884*
X007835Y01289*
X007992Y012795*
X008386*
Y012559*
X007992*
Y012323*
X007912Y012199*
X007535*
Y011862*
X007533Y011844*
Y011828*
X007535Y01181*
Y011496*
Y01149*
X007521Y011339*
X007165*
Y011002*
X007163Y010984*
Y010098*
X007094Y01003*
X007037Y009931*
X007008Y009821*
Y009707*
X007037Y009597*
X007094Y009498*
X007175Y009417*
X007274Y00936*
X007384Y009331*
X007498*
X007608Y00936*
X007707Y009417*
X007787Y009498*
X007844Y009597*
X007874Y009707*
Y009821*
X007844Y009931*
X007787Y01003*
X007719Y010098*
Y010984*
X007717Y011002*
Y011332*
Y011339*
X007731Y01149*
X008087*
Y01155*
X0099*
X009961Y011417*
Y010748*
X009819Y010592*
X009807Y010593*
X009012*
Y010477*
X008821*
X008749Y010467*
X008682Y01044*
X008624Y010395*
X008229Y01*
X008184Y009942*
X008157Y009875*
X008147Y009803*
Y009268*
X007989*
Y008912*
X007838Y008898*
X007832*
X007768*
X007764Y008903*
X007682Y008966*
X007586Y009006*
X007483Y009019*
X006791*
Y009232*
X005098*
Y009019*
X003543*
Y009213*
X002362*
Y008031*
X003543*
Y008225*
X005098*
Y008012*
X006791*
Y008225*
X007483*
X007586Y008238*
X007682Y008278*
X007764Y008341*
X007768Y008346*
X007832*
X007838*
X007989Y008332*
Y007976*
X008325*
X008343Y007974*
X009055*
Y007205*
X009741*
X009843*
X009984Y007244*
X010118*
Y007638*
Y008031*
X009984*
X009843Y008071*
X009799*
X009722Y008148*
X009771Y008305*
X009807*
Y009006*
X009961Y009016*
X009965*
X010827*
X010984Y009075*
X011004Y009055*
X011043Y008914*
Y008898*
Y00874*
X011457*
X01187*
Y008914*
X011909Y009055*
Y009078*
Y009724*
X012283*
Y010827*
X012273*
X012195Y010973*
X012248Y011051*
X012398Y01105*
X012401Y011045*
X012473Y010997*
X012557Y01098*
X012644*
Y011201*
X01288*
Y01098*
X012967*
X013051Y010997*
X013123Y011045*
X013171Y011116*
X013187Y011201*
X013312Y011336*
X014131*
Y01126*
X014134Y011244*
Y011122*
X014214*
X01423Y011112*
X014291Y011099*
X015669*
X015678Y011101*
X015827Y011122*
X015981Y011115*
Y010835*
X015926Y010743*
X015804Y010709*
X015669*
Y010315*
X015551*
Y010197*
X015197*
Y01*
Y009882*
Y009764*
Y009567*
X015551*
Y009331*
X015197*
Y00913*
X015186Y009086*
X015049Y009015*
X015Y009033*
Y009075*
X014314*
X014291*
X01415Y009035*
X014134*
X013976*
Y008622*
Y008209*
X01415*
X014291Y008169*
X014314*
X015*
X01508Y008182*
X015135Y008046*
X01511Y007972*
X014671*
Y007067*
X014636Y006924*
X014404Y006692*
X014341Y00661*
X014301Y006514*
X014288Y006411*
Y005909*
X014094*
Y005824*
X013937Y005758*
X013726Y00597*
X013643Y006033*
X013548Y006073*
X013445Y006086*
X012952*
X012937Y006092*
X012835Y006106*
X012022*
Y006161*
X011234*
Y005734*
X011231Y005709*
X011234Y005683*
Y005295*
Y005256*
X011139Y005138*
X010829*
X010738Y005252*
X010734Y00529*
Y005683*
X010738Y005709*
X010734Y005734*
Y006161*
X009947*
Y006106*
X009424*
X009409Y006108*
X008742*
X008639Y006094*
X008544Y006055*
X008461Y005991*
X008339Y00587*
X007972*
Y006004*
X007947*
X007893Y006099*
X007875Y006161*
X007936Y006267*
X007972Y006402*
Y006542*
X007936Y006678*
X007866Y006799*
X007767Y006898*
X007646Y006968*
X007511Y007004*
X007371*
X007236Y006968*
X007115Y006898*
X007016Y006799*
X006946Y006678*
X006909Y006542*
Y006402*
X006946Y006267*
X007007Y006161*
X006989Y006099*
X006935Y006004*
X006909*
Y004941*
X007946*
Y004207*
X0079Y004159*
X0078Y004094*
X007768*
X007764Y0041*
X007682Y004163*
X007586Y004202*
X007483Y004216*
X006791*
Y004429*
X005098*
Y004216*
X003543*
Y004409*
X002362*
Y003228*
X003543*
Y003422*
X005098*
Y003209*
X006791*
Y003422*
X007483*
X007586Y003435*
X007682Y003475*
X007764Y003538*
X007768Y003543*
X007832*
X007838*
X007989Y003528*
Y003173*
X008325*
X008343Y003171*
X009016*
Y003016*
X009701*
X009803*
X009944Y003055*
X010079*
Y003449*
Y003843*
X009965*
X009843*
X009807Y003985*
Y004223*
X009961Y004232*
X009965*
X010591*
X010669*
X010824Y004227*
Y003898*
X010709*
Y003031*
X011394*
X011496*
X011637Y003071*
X011772*
Y003465*
Y003858*
X011637*
X011496Y003898*
X011492*
X01138Y004009*
Y004232*
X011457*
Y005098*
Y005138*
X011552Y005256*
X012022*
Y005312*
X012239*
X012382Y005276*
Y005154*
Y004567*
X012557*
Y004409*
X012402*
Y003724*
Y003622*
X012441Y003481*
Y003346*
X012835*
X013228*
Y003481*
X013268Y003622*
Y003724*
Y004409*
X013113*
Y004567*
X013287*
Y005062*
X013445Y005127*
X013538Y005034*
X01362Y004971*
X013716Y004931*
X013819Y004918*
X014094*
Y004728*
X015276*
Y004927*
X016452*
X016515Y004935*
X016909*
Y005722*
X016482*
X016457Y005726*
X016431Y005722*
X016004*
Y005721*
X015276*
Y005909*
X015082*
Y006247*
X01536Y006524*
X015423Y006607*
X015462Y006702*
X015476Y006805*
Y00752*
X015462Y007622*
X015459Y007631*
Y007953*
Y007972*
X015506Y00811*
X015911*
X015957Y007977*
X015959Y007958*
Y007067*
X016746*
Y007084*
X01748*
X017542Y007096*
X017559Y007107*
X01767Y007069*
X017717Y007031*
Y002125*
X017559Y002087*
X017523Y002158*
X017399Y002329*
X01725Y002478*
X01708Y002602*
X016892Y002697*
X016691Y002762*
X016483Y002795*
X016277*
X016269Y002804*
X016202Y002944*
X016906Y003648*
X016909*
Y003651*
X016925Y003666*
X016959Y003718*
X016972Y00378*
Y004252*
X016959Y004313*
X016925Y004365*
Y004366*
X016909Y004381*
Y004435*
X016855*
X016846Y004444*
X016794Y004479*
X016732Y004491*
X01622*
X016159Y004479*
X016107Y004444*
X016098Y004435*
X016004*
Y004341*
X015989Y004326*
X015954Y004274*
X015942Y004213*
Y004043*
X014697Y002798*
X013543*
X013482Y002786*
X01343Y002751*
X013272Y002594*
X013237Y002542*
X013225Y00248*
Y001969*
X013237Y001907*
X013272Y001855*
X01343Y001697*
X013482Y001663*
X013543Y00165*
X014843*
X014904Y001663*
X01504Y001564*
X015039Y001562*
Y001351*
X015072Y001143*
X015137Y000943*
X015233Y000755*
X015357Y000585*
X015506Y000436*
X015676Y000312*
X015864Y000216*
X016064Y000151*
X016033Y0*
X001684*
X001652Y000151*
X001852Y000216*
X00204Y000312*
X002211Y000436*
X00236Y000585*
X002483Y000755*
X002579Y000943*
X002644Y001143*
X002677Y001351*
Y001562*
X002644Y00177*
X002579Y001971*
X002483Y002158*
X00236Y002329*
X002211Y002478*
X00204Y002602*
X001852Y002697*
X001652Y002762*
X001444Y002795*
X001233*
X001025Y002762*
X000825Y002697*
X000637Y002602*
X000467Y002478*
X000318Y002329*
X000194Y002158*
X000157Y002087*
X0Y002125*
Y019804*
X000157Y019842*
X000194Y019771*
X000318Y0196*
X000467Y019451*
X000637Y019328*
X000825Y019232*
X001025Y019167*
X001233Y019134*
X001444*
X001652Y019167*
X001852Y019232*
X00204Y019328*
X002211Y019451*
X00236Y0196*
X002483Y019771*
X002579Y019959*
X002644Y020159*
X002677Y020367*
Y020578*
X002644Y020786*
X002579Y020986*
X002483Y021174*
X00236Y021344*
X002211Y021493*
X00204Y021617*
X001969Y021654*
X002007Y021811*
X01571*
X015748Y021654*
G37*
G36*
X011848Y016962D02*
X011737Y01685D01*
X011732*
X011591Y016811*
X011457*
Y016417*
X011339*
Y016299*
X010984*
Y016063*
X010945*
Y015197*
Y01512*
X010622*
X01055Y015111*
X010483Y015083*
X010429Y015042*
X009923*
X00987Y015177*
X00983Y015318*
X009818Y01538*
X00977Y015451*
X009838Y01554*
X009863Y015602*
X009872Y015669*
X009863Y015736*
X009838Y015798*
X009797Y015852*
X009743Y015893*
X009687Y015916*
Y016257*
X009941*
X01001Y016189*
X010108Y016132*
X010219Y016102*
X010333*
X010443Y016132*
X010541Y016189*
X010622Y01627*
X010679Y016368*
X010709Y016478*
Y016592*
X010679Y016703*
X010622Y016801*
X010541Y016882*
X010496Y016908*
X010469Y017053*
X010478Y017093*
X010748Y017363*
X010792Y01742*
X01082Y017487*
X010829Y017557*
X011848*
Y016962*
G37*
G36*
X007323Y017717D02*
X007441Y017621D01*
Y017539*
X008902*
X008937*
X009055Y017444*
Y017196*
X008904Y017181*
X008898*
X008195*
Y01663*
X008898*
X008904*
X009055Y016615*
Y01626*
X009131*
Y015916*
X009076Y015893*
X009022Y015852*
X008981Y015798*
X008964Y015757*
X008882Y015737*
X008799Y015757*
X008782Y015798*
X008741Y015852*
X008688Y015893*
X008625Y015919*
X008559Y015927*
X008451*
X008426Y015938*
X008354Y015947*
X007434*
X007323Y016059*
Y016063*
X007283Y016204*
Y016339*
X006496*
Y016204*
X006457Y016063*
Y015961*
Y015276*
X006612*
Y014449*
X006457*
Y013665*
X00315*
X003124Y013661*
X002362*
Y013468*
X001775*
Y014567*
Y015591*
Y015594*
X003166Y016986*
X003911*
X003983Y016995*
X004008Y017006*
X004135*
X004202Y017014*
X004264Y01704*
X004318Y017081*
X004476Y01704*
X004538Y017014*
X004605Y017006*
X005661*
X005677Y016978*
X005758Y016898*
X005856Y016841*
X005967Y016811*
X006081*
X006191Y016841*
X00629Y016898*
X00637Y016978*
X006427Y017077*
X006457Y017187*
Y017301*
X006427Y017411*
X00637Y01751*
X006411Y017679*
X006457Y017717*
X007323*
G37*
G36*
X016693Y015157D02*
Y014685D01*
X016378Y01437*
X014921*
X014646Y014646*
Y015*
X014843Y015197*
X016654*
X016693Y015157*
G37*
G36*
X008949Y014665D02*
D01*
X009307*
X009338Y014653*
X009409Y014643*
X00946*
X009536Y014567*
X009593Y014523*
X00966Y014495*
X009732Y014486*
X010543*
X010615Y014495*
X010682Y014523*
X010736Y014565*
X010945*
Y014409*
X011575*
X011732*
X011775Y01427*
Y013913*
X011642Y013854*
X009685*
Y013858*
X009278*
X009252Y013862*
X008767*
Y014659*
X008791Y01468*
X008949Y014665*
G37*
G36*
X014808Y014257D02*
X01486Y014222D01*
X014921Y01421*
X016378*
X016439Y014222*
X016491Y014257*
X01665Y014415*
X016808Y01435*
Y013704*
X016142*
X016133Y013702*
X015984Y013681*
X015827*
X014134*
X014068Y0137*
X014015Y01387*
X014605Y014459*
X014808Y014257*
G37*
G36*
X011982Y012902D02*
X011979Y01289D01*
X011614Y012526*
X01157Y012468*
X011543Y012401*
X011533Y012329*
Y012205*
X011344*
Y011927*
X011187Y011883*
X011102Y011968*
X011044Y012012*
X010977Y01204*
X010906Y01205*
X010827*
Y012205*
X010334*
X010292Y012362*
X010305Y01237*
X010386Y012451*
X010443Y012549*
X010472Y01266*
Y012774*
X010443Y012884*
X010432Y012902*
X010523Y01306*
X011889*
X011982Y012902*
G37*
G36*
X015669Y01126D02*
X014291D01*
Y011496*
X012598*
Y011654*
X013228*
X013661Y012087*
Y013504*
X015669*
Y01126*
G37*
G36*
X016808Y01294D02*
X01655Y012682D01*
X016487Y0126*
X016447Y012504*
X016434Y012402*
X016447Y012299*
X016487Y012203*
X01655Y012121*
X016632Y012058*
X016728Y012018*
X016831Y012004*
X016933Y012018*
X017029Y012058*
X017112Y012121*
X017362Y012371*
X01752Y012306*
Y007283*
X01748Y007244*
X016142*
Y00811*
X01622*
Y008543*
X016339*
Y008661*
X016732*
Y008976*
Y009016*
Y009331*
X016339*
Y009567*
X016732*
Y009724*
Y009882*
Y010197*
X016339*
Y010315*
X01622*
Y010748*
X016142*
Y013543*
X016808*
Y01294*
G37*
G36*
X016811Y004252D02*
Y00378D01*
X015491Y00246*
X015429Y002406*
X015375Y002344*
X014843Y001811*
X013543*
X013386Y001969*
Y00248*
X013543Y002638*
X014764*
X016102Y003976*
Y004213*
X01622Y004331*
X016732*
X016811Y004252*
G37*
%LNpcb_source_iot-2*%
%LPC*%
G36*
X008898Y020689D02*
X008307D01*
Y020236*
X008898*
Y020689*
G37*
G36*
X008071D02*
X00748D01*
Y020236*
X008071*
Y020689*
G37*
G36*
X005236Y020118D02*
X004961D01*
Y019882*
X005236*
Y020118*
G37*
G36*
X004724D02*
X004449D01*
Y019882*
X004724*
Y020118*
G37*
G36*
X008898Y02D02*
X008307D01*
Y019547*
X008898*
Y02*
G37*
G36*
X008071D02*
X00748D01*
Y019547*
X008071*
Y02*
G37*
G36*
X005906Y019252D02*
X00563D01*
Y019016*
X005906*
Y019252*
G37*
G36*
X007008D02*
Y019016D01*
X007283*
Y019252*
X007008*
G37*
G36*
X013228Y016811D02*
X012992D01*
Y016535*
X013228*
Y016811*
G37*
G36*
Y016299D02*
X012992D01*
Y016024*
X013228*
Y016299*
G37*
G36*
X000472Y015945D02*
X000236D01*
Y015669*
X000472*
Y015945*
G37*
G36*
Y015433D02*
X000236D01*
Y015157*
X000472*
Y015433*
G37*
G36*
Y014961D02*
X000236D01*
Y014685*
X000472*
Y014961*
G37*
G36*
Y014449D02*
X000236D01*
Y014173*
X000472*
Y014449*
G37*
G36*
X008417Y011299D02*
X008299D01*
Y011102*
X008417*
Y011299*
G37*
G36*
X008063D02*
X007945D01*
Y011102*
X008063*
Y011299*
G37*
G36*
X006752Y011161D02*
X006063D01*
Y010709*
X006752*
Y011161*
G37*
G36*
X005827D02*
X005138D01*
Y010709*
X005827*
Y011161*
G37*
G36*
X008417Y010866D02*
X008299D01*
Y010669*
X008417*
Y010866*
G37*
G36*
X008063D02*
X007945D01*
Y010669*
X008063*
Y010866*
G37*
G36*
X015433Y010709D02*
X015197D01*
Y010433*
X015433*
Y010709*
G37*
G36*
X013425Y010787D02*
X01311D01*
Y010394*
X013425*
Y010787*
G37*
G36*
X012874D02*
X012559D01*
Y010394*
X012874*
Y010787*
G37*
G36*
X003071Y010661D02*
Y01024D01*
X003492*
X003466Y010335*
X003394Y01046*
X003291Y010563*
X003165Y010636*
X003071Y010661*
G37*
G36*
X002835D02*
X00274Y010636D01*
X002614Y010563*
X002512Y01046*
X002439Y010335*
X002414Y01024*
X002835*
Y010661*
G37*
G36*
X006752Y010472D02*
X006063D01*
Y01002*
X006752*
Y010472*
G37*
G36*
X005827D02*
X005138D01*
Y01002*
X005827*
Y010472*
G37*
G36*
X013425Y010157D02*
X01311D01*
Y009764*
X013425*
Y010157*
G37*
G36*
X012874D02*
X012559D01*
Y009764*
X012874*
Y010157*
G37*
G36*
X003492Y010004D02*
X003071D01*
Y009583*
X003165Y009608*
X003291Y009681*
X003394Y009784*
X003466Y009909*
X003492Y010004*
G37*
G36*
X002835D02*
X002414D01*
X002439Y009909*
X002512Y009784*
X002614Y009681*
X00274Y009608*
X002835Y009583*
Y010004*
G37*
G36*
X01374Y009035D02*
X013543D01*
Y00874*
X01374*
Y009035*
G37*
G36*
X01187Y008504D02*
X011575D01*
Y008307*
X01187*
Y008504*
G37*
G36*
X011339D02*
X011043D01*
Y008307*
X011339*
Y008504*
G37*
G36*
X01374D02*
X013543D01*
Y008209*
X01374*
Y008504*
G37*
G36*
X010354Y008031D02*
Y007756D01*
X010591*
Y008031*
X010354*
G37*
G36*
X010591Y00752D02*
X010354D01*
Y007244*
X010591*
Y00752*
G37*
G36*
X006752Y006358D02*
X006063D01*
Y005906*
X006752*
Y006358*
G37*
G36*
X005827D02*
X005138D01*
Y005906*
X005827*
Y006358*
G37*
G36*
X003071Y005858D02*
Y005437D01*
X003492*
X003466Y005532*
X003394Y005657*
X003291Y00576*
X003165Y005833*
X003071Y005858*
G37*
G36*
X002835D02*
X00274Y005833D01*
X002614Y00576*
X002512Y005657*
X002439Y005532*
X002414Y005437*
X002835*
Y005858*
G37*
G36*
X006752Y005669D02*
X006063D01*
Y005217*
X006752*
Y005669*
G37*
G36*
X005827D02*
X005138D01*
Y005217*
X005827*
Y005669*
G37*
G36*
X002835Y005201D02*
X002414D01*
X002439Y005106*
X002512Y00498*
X002614Y004878*
X00274Y004805*
X002835Y00478*
Y005201*
G37*
G36*
X003492D02*
X003071D01*
Y00478*
X003165Y004805*
X003291Y004878*
X003394Y00498*
X003466Y005106*
X003492Y005201*
G37*
G36*
X014803Y004358D02*
Y003937D01*
X015224*
X015199Y004032*
X015126Y004157*
X015023Y00426*
X014898Y004333*
X014803Y004358*
G37*
G36*
X014567D02*
X014472Y004333D01*
X014347Y00426*
X014244Y004157*
X014171Y004032*
X014146Y003937*
X014567*
Y004358*
G37*
G36*
X012008Y003858D02*
Y003583D01*
X012244*
Y003858*
X012008*
G37*
G36*
X010315Y003843D02*
Y003567D01*
X010551*
Y003843*
X010315*
G37*
G36*
X014567Y003701D02*
X014146D01*
X014171Y003606*
X014244Y00348*
X014347Y003378*
X014472Y003305*
X014567Y00328*
Y003701*
G37*
G36*
X015224D02*
X014803D01*
Y00328*
X014898Y003305*
X015023Y003378*
X015126Y00348*
X015199Y003606*
X015224Y003701*
G37*
G36*
X012244Y003346D02*
X012008D01*
Y003071*
X012244*
Y003346*
G37*
G36*
X010551Y003331D02*
X010315D01*
Y003055*
X010551*
Y003331*
G37*
G36*
X013228Y00311D02*
X012953D01*
Y002874*
X013228*
Y00311*
G37*
G36*
X012717D02*
X012441D01*
Y002874*
X012717*
Y00311*
G37*
G36*
X01122Y016811D02*
X010984D01*
Y016535*
X01122*
Y016811*
G37*
G36*
X007283D02*
X007008D01*
Y016575*
X007283*
Y016811*
G37*
G36*
X006772D02*
X006496D01*
Y016575*
X006772*
Y016811*
G37*
G36*
X003071Y01511D02*
Y014689D01*
X003492*
X003466Y014784*
X003394Y014909*
X003291Y015012*
X003165Y015084*
X003071Y01511*
G37*
G36*
X002835D02*
X00274Y015084D01*
X002614Y015012*
X002512Y014909*
X002439Y014784*
X002414Y014689*
X002835*
Y01511*
G37*
G36*
Y014453D02*
X002414D01*
X002439Y014358*
X002512Y014232*
X002614Y01413*
X00274Y014057*
X002835Y014032*
Y014453*
G37*
G36*
X003492D02*
X003071D01*
Y014032*
X003165Y014057*
X003291Y01413*
X003394Y014232*
X003466Y014358*
X003492Y014453*
G37*
G36*
X016732Y010748D02*
X016457D01*
Y010433*
X016732*
Y010748*
G37*
G36*
Y008425D02*
X016457D01*
Y00811*
X016732*
Y008425*
G37*
%LNpcb_source_iot-3*%
%LPD*%
G54D22*
X012762Y011949D03*
Y011575D03*
Y011201D03*
X011805D03*
Y011575D03*
X008354Y014921D03*
Y015669D03*
X009409D03*
Y015295D03*
G54D23*
X011805Y011949D03*
X009409Y014921D03*
G54D24*
X003911Y018012D03*
G54D25*
X003911Y017638D03*
Y017264D03*
X004829D03*
Y018012D03*
G54D26*
X011457Y008622D03*
Y009409D03*
X011614Y019331D03*
Y020118D03*
X012835Y004921D03*
Y005709D03*
X015236Y01563D03*
Y016417D03*
G54D27*
X011102Y004685D03*
X010315D03*
X013858Y008622D03*
X014646D03*
G54D28*
X012939Y018504D03*
X014226D03*
X012939Y01937D03*
X014226D03*
X015065Y00752D03*
X016352D03*
X011628Y005709D03*
X010341D03*
G54D29*
X016457Y005329D03*
Y004041D03*
G54D30*
X008189Y01815D03*
Y020118D03*
G54D31*
X005945Y008622D03*
Y010591D03*
Y003819D03*
Y005787D03*
G54D32*
X008343Y008252D03*
Y008992D03*
X007483Y008622D03*
X012129Y014189D03*
Y013449D03*
X012989Y013819D03*
X008343Y003449D03*
Y004189D03*
X007483Y003819D03*
X009409Y016535D03*
Y017275D03*
X008549Y016905D03*
G54D33*
X007441Y010984D03*
X008181D03*
X007811Y011844D03*
G54D34*
X009409Y008699D03*
Y010199D03*
Y004209D03*
Y005709D03*
G54D35*
X016831Y012402D03*
X01498D03*
G54D36*
X010394Y011024D03*
Y011811D03*
Y009409D03*
Y010197D03*
X004843Y018976D03*
Y019764D03*
X010512Y020118D03*
Y019331D03*
X00689Y013268D03*
Y014055D03*
X009252Y013465D03*
Y012677D03*
X00689Y015669D03*
Y016457D03*
X012835Y004016D03*
Y003228D03*
G54D37*
X010236Y007638D03*
X009449D03*
X012126Y014843D03*
X011339D03*
X014134Y016417D03*
X013346D03*
X011339Y01563D03*
X012126D03*
Y016417D03*
X011339D03*
X011102Y003465D03*
X01189D03*
X010197Y003449D03*
X009409D03*
X016339Y008543D03*
X015551D03*
G54D38*
X012992Y010276D03*
X011811D03*
G54D39*
X013898Y012835D03*
X01311D03*
X016339Y009449D03*
X015551D03*
X016339Y010315D03*
X015551D03*
X001378Y014567D03*
X000591D03*
X001378Y015551D03*
X000591D03*
G54D40*
X006024Y01811D03*
Y018898D03*
X00689Y01811D03*
Y018898D03*
X008386Y013465D03*
Y012677D03*
G54D64*
X003051Y017264D02*
X003911D01*
X001378Y015591D02*
X003051Y017264D01*
X011811Y011968D02*
Y012329D01*
X012217Y012735D02*
X012341D01*
X011811Y012329D02*
X012217Y012735D01*
X012341D02*
X012402Y012795D01*
X00689Y016457D02*
X006917D01*
X007035Y016575*
Y016799*
X00748Y017244*
X006024Y018898D02*
X00689D01*
X008425Y008992D02*
Y009803D01*
X015551Y009449D02*
Y010315D01*
X014626Y009469D02*
X015532D01*
X015551Y009449*
X014606Y009488D02*
X014626Y009469D01*
X012762Y010584D02*
Y011201D01*
Y010584D02*
X012992Y010354D01*
Y010276D02*
Y010354D01*
X012126Y01563D02*
Y016417D01*
X011339D02*
Y017283D01*
X009409Y015669D02*
Y016535D01*
X010215Y016475D02*
X010276Y016535D01*
X009409D02*
X010157D01*
X01685Y016299D02*
X017087Y016063D01*
X01685Y016299D02*
X017087Y016535D01*
X017205*
X016378Y016299D02*
X01685D01*
X008181Y011024D02*
X009055D01*
X008181Y010984D02*
Y011024D01*
X009055D02*
X009094Y011063D01*
X01225Y020118D02*
X012939Y019429D01*
X011614Y020118D02*
X01225D01*
X012939Y01937D02*
Y019429D01*
X01288Y018504D02*
X012939Y018445D01*
X010802Y018504D02*
X01288D01*
X008189Y01815D02*
X010448D01*
X010802Y018504*
X010551Y017696D02*
X01069Y017835D01*
X011988*
X010268Y017275D02*
X010551Y017559D01*
Y017696*
X012126Y016417D02*
Y017696D01*
X011988Y017835D02*
X012126Y017696D01*
X011614Y019331D02*
D01*
X010512D02*
X011614D01*
X010492Y020138D02*
X010512Y020118D01*
X009587Y020138D02*
X010492D01*
X009567Y020157D02*
X009587Y020138D01*
X002165Y018386D02*
X002828D01*
X003202Y018012*
X003911*
X00689Y01811D02*
X00815D01*
X012939Y018504D02*
Y01937D01*
X007811Y011828D02*
X010377D01*
X011102Y011575D02*
X011805D01*
X010906Y011772D02*
X011102Y011575D01*
X010433Y011772D02*
X010906D01*
X010394Y011811D02*
X010433Y011772D01*
X009272Y012697D02*
X01002D01*
X010039Y012717*
X009252Y012677D02*
X009272Y012697D01*
X010543Y014764D02*
X010622Y014843D01*
X009409Y014921D02*
X009575D01*
X010622Y014843D02*
X011339D01*
X009732Y014764D02*
X010543D01*
X009575Y014921D02*
X009732Y014764D01*
X011339Y014843D02*
Y01563D01*
X012128Y014189D02*
Y014841D01*
X012126Y014843D02*
X012128Y014841D01*
Y014189D02*
X012129D01*
X00815Y01811D02*
X008189Y01815D01*
X012821Y018327D02*
X012939Y018445D01*
X00689Y015669D02*
X008354D01*
X00689Y014055D02*
Y015669D01*
X007811Y011828D02*
Y011844D01*
X014134Y016417D02*
D01*
X015197*
X009409Y017275D02*
X010268D01*
X010377Y011828D02*
X010394Y011811D01*
X007441Y009764D02*
Y010984D01*
X010394Y010197D02*
Y011024D01*
X00941Y010198D02*
X010393D01*
X009409Y010199D02*
X00941Y010198D01*
X010393D02*
X010394Y010197D01*
X009409Y008252D02*
Y008699D01*
X008821Y010199D02*
X009409D01*
X008425Y009803D02*
X008821Y010199D01*
X009409Y007677D02*
X009449Y007638D01*
X009409Y007677D02*
Y008252D01*
X008343Y008992D02*
X008425D01*
X011457Y009409D02*
D01*
X010394D02*
X011457D01*
X012835Y004016D02*
Y004921D01*
X011102Y003465D02*
Y004685D01*
Y003465D02*
D01*
X008343Y008252D02*
X009409D01*
Y003449D02*
Y004211D01*
X008343Y003449D02*
X009409D01*
G54D65*
X001378Y014567D02*
Y015551D01*
Y015591*
X007717Y013268D02*
X007953Y013504D01*
X001378Y013268D02*
Y014567D01*
X008354Y014921D02*
X00837D01*
X007953Y013504D02*
X008346D01*
X00837Y013481D02*
X008386Y013465D01*
X002953Y013071D02*
X00315Y013268D01*
X008386Y013465D02*
X009252D01*
X00837Y013481D02*
Y014921D01*
X00926Y013457D02*
X012121D01*
X00315Y013268D02*
X00689D01*
X008346Y013504D02*
X00837Y013481D01*
X001378Y013268D02*
X001575Y013071D01*
X009252Y013465D02*
X00926Y013457D01*
X001575Y013071D02*
X002953D01*
X00689Y013268D02*
X007717D01*
X012121Y013457D02*
X012129Y013449D01*
X014226Y01937D02*
X015D01*
X017205Y016535D02*
Y018286D01*
X014226Y018563D02*
X016928D01*
X017205Y018286*
X014226Y018504D02*
Y018563D01*
X017205Y012776D02*
Y016063D01*
Y016535*
X016831Y012402D02*
X017205Y012776D01*
X01469Y005324D02*
X016452D01*
X016457Y005329*
X014685Y005319D02*
X01469Y005324D01*
X015079Y006805D02*
Y00752D01*
X014685Y006411D02*
X015079Y006805D01*
X014685Y005319D02*
Y006411D01*
X013819Y005315D02*
X014681D01*
X014685Y005319*
X013445Y005689D02*
X013819Y005315D01*
X012835Y005709D02*
X012854Y005689D01*
X013445*
X011628Y005709D02*
X012835D01*
X005945Y003819D02*
X007483D01*
X002953D02*
X005945D01*
X007441Y005472D02*
X008504D01*
X005945Y008622D02*
X007483D01*
X002953D02*
X005945D01*
X008742Y005711D02*
X009409D01*
X008504Y005472D02*
X008742Y005711D01*
X008343Y005312D02*
X008504Y005472D01*
X010315Y004685D02*
X010328Y004698D01*
Y005696D02*
X010341Y005709D01*
X010328Y004698D02*
Y005696D01*
X009409Y005709D02*
X010341D01*
X009409D02*
Y005711D01*
X008343Y004189D02*
Y005312D01*
G54D66*
X012972Y012657D02*
X01311Y012795D01*
X012972Y012553D02*
Y012657D01*
X012762Y012343D02*
X012972Y012553D01*
X012762Y011949D02*
Y012343D01*
X01311Y012795D02*
Y012835D01*
X002165Y017638D02*
X003911D01*
X004837Y017264D02*
X006004D01*
X006024Y017244D02*
Y01811D01*
X00689*
X015472Y008622D02*
X015551Y008543D01*
X015079Y008622D02*
X015472D01*
X014646D02*
X015079D01*
X011732Y010197D02*
X011811Y010276D01*
X010394Y010197D02*
X011732D01*
X011805Y010282D02*
Y011201D01*
Y010282D02*
X011811Y010276D01*
X006004Y017264D02*
X006024Y017244D01*
X009409Y015295D02*
X010295D01*
X010315Y015315*
G54D67*
X014488Y014764D02*
X015197D01*
X015217Y014783*
Y01561D02*
X015236Y01563D01*
X015217Y014783D02*
Y01561D01*
X013543Y013819D02*
X014488Y014764D01*
X012989Y013819D02*
X013543D01*
G54D68*
X016339Y008504D02*
Y008543D01*
G54D69*
X004829Y018012D02*
Y018963D01*
X011614Y020118D02*
D01*
X004829Y018963D02*
X004843Y018976D01*
X004829Y017264D02*
X004837Y017271D01*
G54D70*
X002953Y010122D03*
Y014571D03*
X014685Y003819D03*
X002953Y005319D03*
G54D71*
X002953Y008622D03*
Y013071D03*
X014685Y005319D03*
X002953Y003819D03*
G54D72*
X007441Y005472D03*
G54D73*
X007441Y006472D03*
G54D74*
X016378Y020472D03*
Y001457D03*
X001339Y020472D03*
Y001457D03*
G54D75*
X007008Y00189D03*
X006102D03*
X005118D03*
X012402Y012795D03*
X00748Y017244D03*
X00685Y02126D03*
X005866D03*
X004843D03*
X011339Y017283D03*
X010276Y016535D03*
X015Y01937D03*
X015197Y014764D03*
X016102D03*
X016378Y016299D03*
X009094Y011063D03*
X013819Y002205D03*
X013858Y010906D03*
X014646Y002205D03*
X009567Y020157D03*
X002165Y018386D03*
Y017638D03*
X006024Y017244D03*
X010039Y012717D03*
X010315Y015315D03*
X007441Y009764D03*
X014606Y010197D03*
X013858Y009488D03*
X014606D03*
X013858Y010197D03*
M02*