M48
;Layer_Color=9474304
;FILE_FORMAT=2:4
INCH,LZ
;TYPE=PLATED
T01F00S00C0.0276
T02F00S00C0.0280
T03F00S00C0.0354
T04F00S00C0.0551
T05F00S00C0.1260
%
T01
X013819Y002205
X014646
X002165Y017638
X002165Y018386
X006024Y017244
X010276Y016535
X010315Y015315
X010039Y012717
X007441Y009764
X013858Y009488
Y010197
Y010906
X014606Y010197
Y009488
X015197Y014764
X016102
X011339Y017283
X009567Y020157
T02
X005118Y00189
X006102
X007008
X009094Y011063
X012402Y012795
X016378Y016299
X015Y01937
X00748Y017244
X00685Y02126
X005866
X004843
T03
X007441Y005472
Y006472
T04
X002953Y003819
X014685
Y005319
X002953
Y008622
Y010122
Y013071
Y014571
T05
X016378Y001457
X001339
Y020472
X016378
M30
